<?xml version="1.0" encoding="utf-8" standalone="no"?>
<!DOCTYPE svg PUBLIC "-//W3C//DTD SVG 1.1//EN"
  "http://www.w3.org/Graphics/SVG/1.1/DTD/svg11.dtd">
<!-- Created with matplotlib (https://matplotlib.org/) -->
<svg height="395.28pt" version="1.1" viewBox="0 0 575.28 395.28" width="575.28pt" xmlns="http://www.w3.org/2000/svg" xmlns:xlink="http://www.w3.org/1999/xlink">
 <metadata>
  <rdf:RDF xmlns:cc="http://creativecommons.org/ns#" xmlns:dc="http://purl.org/dc/elements/1.1/" xmlns:rdf="http://www.w3.org/1999/02/22-rdf-syntax-ns#">
   <cc:Work>
    <dc:type rdf:resource="http://purl.org/dc/dcmitype/StillImage"/>
    <dc:date>2021-06-26T16:14:30.083186</dc:date>
    <dc:format>image/svg+xml</dc:format>
    <dc:creator>
     <cc:Agent>
      <dc:title>Matplotlib v3.3.2, https://matplotlib.org/</dc:title>
     </cc:Agent>
    </dc:creator>
   </cc:Work>
  </rdf:RDF>
 </metadata>
 <defs>
  <style type="text/css">*{stroke-linecap:butt;stroke-linejoin:round;}</style>
 </defs>
 <g id="figure_1">
  <g id="patch_1">
   <path d="M 0 395.28 
L 575.28 395.28 
L 575.28 0 
L 0 0 
z
" style="fill:#ffffff;"/>
  </g>
  <g id="axes_1">
   <g id="patch_2">
    <path d="M 29.293371 373.938859 
L 568.8081 373.938859 
L 568.8081 6.468218 
L 29.293371 6.468218 
z
" style="fill:#eaeaf2;"/>
   </g>
   <g id="matplotlib.axis_1">
    <g id="xtick_1">
     <g id="line2d_1">
      <path clip-path="url(#p186082a8c6)" d="M 53.816768 373.938859 
L 53.816768 6.468218 
" style="fill:none;stroke:#ffffff;stroke-linecap:round;stroke-width:0.5;"/>
     </g>
     <g id="text_1">
      <!-- −1.00 -->
      <g style="fill:#262626;" transform="translate(45.389307 387.618)scale(0.055 -0.055)">
       <defs>
        <path d="M 10.59375 35.5 
L 73.1875 35.5 
L 73.1875 27.203125 
L 10.59375 27.203125 
z
" id="DejaVuSans-8722"/>
        <path d="M 12.40625 8.296875 
L 28.515625 8.296875 
L 28.515625 63.921875 
L 10.984375 60.40625 
L 10.984375 69.390625 
L 28.421875 72.90625 
L 38.28125 72.90625 
L 38.28125 8.296875 
L 54.390625 8.296875 
L 54.390625 0 
L 12.40625 0 
z
" id="DejaVuSans-49"/>
        <path d="M 10.6875 12.40625 
L 21 12.40625 
L 21 0 
L 10.6875 0 
z
" id="DejaVuSans-46"/>
        <path d="M 31.78125 66.40625 
Q 24.171875 66.40625 20.328125 58.90625 
Q 16.5 51.421875 16.5 36.375 
Q 16.5 21.390625 20.328125 13.890625 
Q 24.171875 6.390625 31.78125 6.390625 
Q 39.453125 6.390625 43.28125 13.890625 
Q 47.125 21.390625 47.125 36.375 
Q 47.125 51.421875 43.28125 58.90625 
Q 39.453125 66.40625 31.78125 66.40625 
z
M 31.78125 74.21875 
Q 44.046875 74.21875 50.515625 64.515625 
Q 56.984375 54.828125 56.984375 36.375 
Q 56.984375 17.96875 50.515625 8.265625 
Q 44.046875 -1.421875 31.78125 -1.421875 
Q 19.53125 -1.421875 13.0625 8.265625 
Q 6.59375 17.96875 6.59375 36.375 
Q 6.59375 54.828125 13.0625 64.515625 
Q 19.53125 74.21875 31.78125 74.21875 
z
" id="DejaVuSans-48"/>
       </defs>
       <use xlink:href="#DejaVuSans-8722"/>
       <use x="83.789062" xlink:href="#DejaVuSans-49"/>
       <use x="147.412109" xlink:href="#DejaVuSans-46"/>
       <use x="179.199219" xlink:href="#DejaVuSans-48"/>
       <use x="242.822266" xlink:href="#DejaVuSans-48"/>
      </g>
     </g>
    </g>
    <g id="xtick_2">
     <g id="line2d_2">
      <path clip-path="url(#p186082a8c6)" d="M 115.433343 373.938859 
L 115.433343 6.468218 
" style="fill:none;stroke:#ffffff;stroke-linecap:round;stroke-width:0.5;"/>
     </g>
     <g id="text_2">
      <!-- −0.75 -->
      <g style="fill:#262626;" transform="translate(107.005882 387.618)scale(0.055 -0.055)">
       <defs>
        <path d="M 8.203125 72.90625 
L 55.078125 72.90625 
L 55.078125 68.703125 
L 28.609375 0 
L 18.3125 0 
L 43.21875 64.59375 
L 8.203125 64.59375 
z
" id="DejaVuSans-55"/>
        <path d="M 10.796875 72.90625 
L 49.515625 72.90625 
L 49.515625 64.59375 
L 19.828125 64.59375 
L 19.828125 46.734375 
Q 21.96875 47.46875 24.109375 47.828125 
Q 26.265625 48.1875 28.421875 48.1875 
Q 40.625 48.1875 47.75 41.5 
Q 54.890625 34.8125 54.890625 23.390625 
Q 54.890625 11.625 47.5625 5.09375 
Q 40.234375 -1.421875 26.90625 -1.421875 
Q 22.3125 -1.421875 17.546875 -0.640625 
Q 12.796875 0.140625 7.71875 1.703125 
L 7.71875 11.625 
Q 12.109375 9.234375 16.796875 8.0625 
Q 21.484375 6.890625 26.703125 6.890625 
Q 35.15625 6.890625 40.078125 11.328125 
Q 45.015625 15.765625 45.015625 23.390625 
Q 45.015625 31 40.078125 35.4375 
Q 35.15625 39.890625 26.703125 39.890625 
Q 22.75 39.890625 18.8125 39.015625 
Q 14.890625 38.140625 10.796875 36.28125 
z
" id="DejaVuSans-53"/>
       </defs>
       <use xlink:href="#DejaVuSans-8722"/>
       <use x="83.789062" xlink:href="#DejaVuSans-48"/>
       <use x="147.412109" xlink:href="#DejaVuSans-46"/>
       <use x="179.199219" xlink:href="#DejaVuSans-55"/>
       <use x="242.822266" xlink:href="#DejaVuSans-53"/>
      </g>
     </g>
    </g>
    <g id="xtick_3">
     <g id="line2d_3">
      <path clip-path="url(#p186082a8c6)" d="M 177.049918 373.938859 
L 177.049918 6.468218 
" style="fill:none;stroke:#ffffff;stroke-linecap:round;stroke-width:0.5;"/>
     </g>
     <g id="text_3">
      <!-- −0.50 -->
      <g style="fill:#262626;" transform="translate(168.622457 387.618)scale(0.055 -0.055)">
       <use xlink:href="#DejaVuSans-8722"/>
       <use x="83.789062" xlink:href="#DejaVuSans-48"/>
       <use x="147.412109" xlink:href="#DejaVuSans-46"/>
       <use x="179.199219" xlink:href="#DejaVuSans-53"/>
       <use x="242.822266" xlink:href="#DejaVuSans-48"/>
      </g>
     </g>
    </g>
    <g id="xtick_4">
     <g id="line2d_4">
      <path clip-path="url(#p186082a8c6)" d="M 238.666492 373.938859 
L 238.666492 6.468218 
" style="fill:none;stroke:#ffffff;stroke-linecap:round;stroke-width:0.5;"/>
     </g>
     <g id="text_4">
      <!-- −0.25 -->
      <g style="fill:#262626;" transform="translate(230.239032 387.618)scale(0.055 -0.055)">
       <defs>
        <path d="M 19.1875 8.296875 
L 53.609375 8.296875 
L 53.609375 0 
L 7.328125 0 
L 7.328125 8.296875 
Q 12.9375 14.109375 22.625 23.890625 
Q 32.328125 33.6875 34.8125 36.53125 
Q 39.546875 41.84375 41.421875 45.53125 
Q 43.3125 49.21875 43.3125 52.78125 
Q 43.3125 58.59375 39.234375 62.25 
Q 35.15625 65.921875 28.609375 65.921875 
Q 23.96875 65.921875 18.8125 64.3125 
Q 13.671875 62.703125 7.8125 59.421875 
L 7.8125 69.390625 
Q 13.765625 71.78125 18.9375 73 
Q 24.125 74.21875 28.421875 74.21875 
Q 39.75 74.21875 46.484375 68.546875 
Q 53.21875 62.890625 53.21875 53.421875 
Q 53.21875 48.921875 51.53125 44.890625 
Q 49.859375 40.875 45.40625 35.40625 
Q 44.1875 33.984375 37.640625 27.21875 
Q 31.109375 20.453125 19.1875 8.296875 
z
" id="DejaVuSans-50"/>
       </defs>
       <use xlink:href="#DejaVuSans-8722"/>
       <use x="83.789062" xlink:href="#DejaVuSans-48"/>
       <use x="147.412109" xlink:href="#DejaVuSans-46"/>
       <use x="179.199219" xlink:href="#DejaVuSans-50"/>
       <use x="242.822266" xlink:href="#DejaVuSans-53"/>
      </g>
     </g>
    </g>
    <g id="xtick_5">
     <g id="line2d_5">
      <path clip-path="url(#p186082a8c6)" d="M 300.283067 373.938859 
L 300.283067 6.468218 
" style="fill:none;stroke:#ffffff;stroke-linecap:round;stroke-width:0.5;"/>
     </g>
     <g id="text_5">
      <!-- 0.00 -->
      <g style="fill:#262626;" transform="translate(294.16002 387.618)scale(0.055 -0.055)">
       <use xlink:href="#DejaVuSans-48"/>
       <use x="63.623047" xlink:href="#DejaVuSans-46"/>
       <use x="95.410156" xlink:href="#DejaVuSans-48"/>
       <use x="159.033203" xlink:href="#DejaVuSans-48"/>
      </g>
     </g>
    </g>
    <g id="xtick_6">
     <g id="line2d_6">
      <path clip-path="url(#p186082a8c6)" d="M 361.899642 373.938859 
L 361.899642 6.468218 
" style="fill:none;stroke:#ffffff;stroke-linecap:round;stroke-width:0.5;"/>
     </g>
     <g id="text_6">
      <!-- 0.25 -->
      <g style="fill:#262626;" transform="translate(355.776595 387.618)scale(0.055 -0.055)">
       <use xlink:href="#DejaVuSans-48"/>
       <use x="63.623047" xlink:href="#DejaVuSans-46"/>
       <use x="95.410156" xlink:href="#DejaVuSans-50"/>
       <use x="159.033203" xlink:href="#DejaVuSans-53"/>
      </g>
     </g>
    </g>
    <g id="xtick_7">
     <g id="line2d_7">
      <path clip-path="url(#p186082a8c6)" d="M 423.516217 373.938859 
L 423.516217 6.468218 
" style="fill:none;stroke:#ffffff;stroke-linecap:round;stroke-width:0.5;"/>
     </g>
     <g id="text_7">
      <!-- 0.50 -->
      <g style="fill:#262626;" transform="translate(417.39317 387.618)scale(0.055 -0.055)">
       <use xlink:href="#DejaVuSans-48"/>
       <use x="63.623047" xlink:href="#DejaVuSans-46"/>
       <use x="95.410156" xlink:href="#DejaVuSans-53"/>
       <use x="159.033203" xlink:href="#DejaVuSans-48"/>
      </g>
     </g>
    </g>
    <g id="xtick_8">
     <g id="line2d_8">
      <path clip-path="url(#p186082a8c6)" d="M 485.132791 373.938859 
L 485.132791 6.468218 
" style="fill:none;stroke:#ffffff;stroke-linecap:round;stroke-width:0.5;"/>
     </g>
     <g id="text_8">
      <!-- 0.75 -->
      <g style="fill:#262626;" transform="translate(479.009745 387.618)scale(0.055 -0.055)">
       <use xlink:href="#DejaVuSans-48"/>
       <use x="63.623047" xlink:href="#DejaVuSans-46"/>
       <use x="95.410156" xlink:href="#DejaVuSans-55"/>
       <use x="159.033203" xlink:href="#DejaVuSans-53"/>
      </g>
     </g>
    </g>
    <g id="xtick_9">
     <g id="line2d_9">
      <path clip-path="url(#p186082a8c6)" d="M 546.749366 373.938859 
L 546.749366 6.468218 
" style="fill:none;stroke:#ffffff;stroke-linecap:round;stroke-width:0.5;"/>
     </g>
     <g id="text_9">
      <!-- 1.00 -->
      <g style="fill:#262626;" transform="translate(540.626319 387.618)scale(0.055 -0.055)">
       <use xlink:href="#DejaVuSans-49"/>
       <use x="63.623047" xlink:href="#DejaVuSans-46"/>
       <use x="95.410156" xlink:href="#DejaVuSans-48"/>
       <use x="159.033203" xlink:href="#DejaVuSans-48"/>
      </g>
     </g>
    </g>
   </g>
   <g id="matplotlib.axis_2">
    <g id="ytick_1">
     <g id="line2d_10">
      <path clip-path="url(#p186082a8c6)" d="M 29.293371 307.268778 
L 568.8081 307.268778 
" style="fill:none;stroke:#ffffff;stroke-linecap:round;stroke-width:0.5;"/>
     </g>
     <g id="text_10">
      <!-- −1.0 -->
      <g style="fill:#262626;" transform="translate(6.437825 309.358348)scale(0.055 -0.055)">
       <use xlink:href="#DejaVuSans-8722"/>
       <use x="83.789062" xlink:href="#DejaVuSans-49"/>
       <use x="147.412109" xlink:href="#DejaVuSans-46"/>
       <use x="179.199219" xlink:href="#DejaVuSans-48"/>
      </g>
     </g>
    </g>
    <g id="ytick_2">
     <g id="line2d_11">
      <path clip-path="url(#p186082a8c6)" d="M 29.293371 235.887534 
L 568.8081 235.887534 
" style="fill:none;stroke:#ffffff;stroke-linecap:round;stroke-width:0.5;"/>
     </g>
     <g id="text_11">
      <!-- −0.5 -->
      <g style="fill:#262626;" transform="translate(6.437825 237.977105)scale(0.055 -0.055)">
       <use xlink:href="#DejaVuSans-8722"/>
       <use x="83.789062" xlink:href="#DejaVuSans-48"/>
       <use x="147.412109" xlink:href="#DejaVuSans-46"/>
       <use x="179.199219" xlink:href="#DejaVuSans-53"/>
      </g>
     </g>
    </g>
    <g id="ytick_3">
     <g id="line2d_12">
      <path clip-path="url(#p186082a8c6)" d="M 29.293371 164.506291 
L 568.8081 164.506291 
" style="fill:none;stroke:#ffffff;stroke-linecap:round;stroke-width:0.5;"/>
     </g>
     <g id="text_12">
      <!-- 0.0 -->
      <g style="fill:#262626;" transform="translate(11.046653 166.595861)scale(0.055 -0.055)">
       <use xlink:href="#DejaVuSans-48"/>
       <use x="63.623047" xlink:href="#DejaVuSans-46"/>
       <use x="95.410156" xlink:href="#DejaVuSans-48"/>
      </g>
     </g>
    </g>
    <g id="ytick_4">
     <g id="line2d_13">
      <path clip-path="url(#p186082a8c6)" d="M 29.293371 93.125048 
L 568.8081 93.125048 
" style="fill:none;stroke:#ffffff;stroke-linecap:round;stroke-width:0.5;"/>
     </g>
     <g id="text_13">
      <!-- 0.5 -->
      <g style="fill:#262626;" transform="translate(11.046653 95.214618)scale(0.055 -0.055)">
       <use xlink:href="#DejaVuSans-48"/>
       <use x="63.623047" xlink:href="#DejaVuSans-46"/>
       <use x="95.410156" xlink:href="#DejaVuSans-53"/>
      </g>
     </g>
    </g>
    <g id="ytick_5">
     <g id="line2d_14">
      <path clip-path="url(#p186082a8c6)" d="M 29.293371 21.743804 
L 568.8081 21.743804 
" style="fill:none;stroke:#ffffff;stroke-linecap:round;stroke-width:0.5;"/>
     </g>
     <g id="text_14">
      <!-- 1.0 -->
      <g style="fill:#262626;" transform="translate(11.046653 23.833375)scale(0.055 -0.055)">
       <use xlink:href="#DejaVuSans-49"/>
       <use x="63.623047" xlink:href="#DejaVuSans-46"/>
       <use x="95.410156" xlink:href="#DejaVuSans-48"/>
      </g>
     </g>
    </g>
   </g>
   <g id="line2d_15">
    <path clip-path="url(#p186082a8c6)" d="M 53.816768 164.506291 
L 56.281431 194.588891 
L 58.746094 206.763987 
L 61.210757 215.911492 
L 63.67542 223.460111 
L 66.140083 229.967211 
L 68.604746 235.720593 
L 71.069409 240.89236 
L 73.534072 245.595383 
L 75.998735 249.908572 
L 78.463398 253.889746 
L 80.928061 257.582834 
L 83.392724 261.022179 
L 85.857387 264.235264 
L 88.32205 267.244509 
L 90.786713 270.068507 
L 95.716039 275.22097 
L 100.645365 279.792457 
L 105.574691 283.85795 
L 110.504017 287.475602 
L 115.433343 290.691694 
L 120.362669 293.543837 
L 125.291995 296.063143 
L 130.221321 298.275731 
L 135.150647 300.203818 
L 140.079973 301.866507 
L 145.009299 303.280387 
L 149.938625 304.459991 
L 154.867951 305.418145 
L 159.797277 306.166249 
L 164.726603 306.714497 
L 169.655929 307.072058 
L 174.585255 307.247219 
L 179.514581 307.247505 
L 184.443907 307.079778 
L 189.373233 306.750322 
L 194.302559 306.264912 
L 201.696548 305.255913 
L 209.090537 303.924221 
L 216.484526 302.284443 
L 223.878514 300.34973 
L 231.272503 298.131979 
L 238.666492 295.642009 
L 246.060481 292.889699 
L 253.45447 289.884107 
L 260.848459 286.63357 
L 268.242448 283.145783 
L 275.636437 279.427876 
L 283.030426 275.486473 
L 290.424415 271.327743 
L 297.818404 266.95745 
L 305.212393 262.380987 
L 312.606382 257.603415 
L 322.465034 250.928668 
L 332.323686 243.91535 
L 342.182338 236.573213 
L 352.04099 228.911321 
L 361.899642 220.938119 
L 371.758294 212.661498 
L 381.616946 204.088848 
L 391.475598 195.227106 
L 401.33425 186.082799 
L 411.192902 176.662079 
L 421.051554 166.970754 
L 430.910206 157.01432 
L 440.768858 146.797987 
L 453.092173 133.669594 
L 465.415488 120.151937 
L 477.738803 106.253598 
L 490.062117 91.982667 
L 502.385432 77.346782 
L 514.708747 62.353172 
L 527.032062 47.008688 
L 539.355377 31.319832 
L 544.284703 24.94926 
L 544.284703 24.94926 
" style="fill:none;stroke:#4c72b0;stroke-linecap:round;stroke-width:0.75;"/>
   </g>
   <g id="line2d_16">
    <path clip-path="url(#p186082a8c6)" d="M 53.816768 357.235648 
L 544.284703 73.138299 
L 544.284703 73.138299 
" style="fill:none;stroke:#dd8452;stroke-linecap:round;stroke-width:0.75;"/>
   </g>
   <g id="line2d_17">
    <path clip-path="url(#p186082a8c6)" d="M 53.816768 289.79216 
L 56.281431 298.194513 
L 58.746094 300.906623 
L 61.210757 302.672652 
L 63.67542 303.94504 
L 66.140083 304.899493 
L 68.604746 305.626345 
L 71.069409 306.179386 
L 73.534072 306.593743 
L 78.463398 307.097613 
L 83.392724 307.266946 
L 88.32205 307.178694 
L 93.251376 306.883195 
L 98.180702 306.415542 
L 105.574691 305.445601 
L 112.96868 304.206874 
L 120.362669 302.742819 
L 127.756658 301.085179 
L 137.61531 298.614574 
L 147.473962 295.884802 
L 157.332614 292.92769 
L 167.191266 289.767565 
L 179.514581 285.560521 
L 191.837896 281.094617 
L 204.161211 276.392015 
L 216.484526 271.469948 
L 228.80784 266.341908 
L 243.595818 259.931083 
L 258.383796 253.252604 
L 273.171774 246.316372 
L 287.959752 239.128958 
L 302.74773 231.693992 
L 317.535708 224.012369 
L 332.323686 216.082294 
L 347.111664 207.899189 
L 361.899642 199.455424 
L 376.68762 190.739867 
L 391.475598 181.737152 
L 403.798913 174.00079 
L 416.122228 166.035137 
L 428.445543 157.820179 
L 440.768858 149.32998 
L 453.092173 140.530325 
L 462.950825 133.237227 
L 472.809477 125.684963 
L 482.668128 117.830641 
L 490.062117 111.706436 
L 497.456106 105.343985 
L 504.850095 98.694567 
L 512.244084 91.686999 
L 517.17341 86.763817 
L 522.102736 81.583049 
L 527.032062 76.067745 
L 531.961388 70.088912 
L 534.426051 66.856342 
L 536.890714 63.396172 
L 539.355377 59.618067 
L 541.82004 55.34632 
L 544.284703 50.128493 
L 544.284703 50.128493 
" style="fill:none;stroke:#55a868;stroke-linecap:round;stroke-width:0.75;"/>
   </g>
   <g id="line2d_18">
    <path clip-path="url(#p186082a8c6)" d="M 53.816768 238.208801 
L 56.281431 257.815185 
L 58.746094 265.20005 
L 61.210757 270.542004 
L 63.67542 274.814063 
L 66.140083 278.394701 
L 68.604746 281.478794 
L 71.069409 284.182553 
L 73.534072 286.581984 
L 75.998735 288.730076 
L 78.463398 290.66555 
L 80.928061 292.417745 
L 83.392724 294.009532 
L 88.32205 296.781499 
L 93.251376 299.091396 
L 98.180702 301.016111 
L 103.110028 302.611991 
L 108.039354 303.921846 
L 112.96868 304.979135 
L 117.898006 305.810624 
L 122.827332 306.438138 
L 127.756658 306.87976 
L 132.685984 307.150679 
L 137.61531 307.263806 
L 145.009299 307.161479 
L 152.403288 306.760175 
L 159.797277 306.085688 
L 167.191266 305.159486 
L 174.585255 303.999655 
L 181.979244 302.621599 
L 189.373233 301.038552 
L 196.767222 299.261974 
L 204.161211 297.301851 
L 214.019863 294.417817 
L 223.878514 291.240853 
L 233.737166 287.786182 
L 243.595818 284.066794 
L 253.45447 280.093797 
L 263.313122 275.876697 
L 273.171774 271.423608 
L 283.030426 266.741422 
L 292.889078 261.835935 
L 302.74773 256.711945 
L 312.606382 251.373327 
L 322.465034 245.823079 
L 332.323686 240.063351 
L 342.182338 234.095461 
L 354.505653 226.343499 
L 366.828968 218.265922 
L 379.152283 209.859368 
L 391.475598 201.11785 
L 401.33425 193.877486 
L 411.192902 186.41068 
L 421.051554 178.709262 
L 430.910206 170.762792 
L 440.768858 162.557963 
L 450.62751 154.077731 
L 460.486162 145.30004 
L 470.344814 136.195871 
L 480.203465 126.726111 
L 487.597454 119.351901 
L 494.991443 111.710365 
L 502.385432 103.758317 
L 509.779421 95.433853 
L 514.708747 89.632743 
L 519.638073 83.583989 
L 524.567399 77.226613 
L 529.496725 70.463648 
L 534.426051 63.122247 
L 536.890714 59.133926 
L 539.355377 54.827659 
L 541.82004 50.031372 
L 544.284703 44.302657 
L 544.284703 44.302657 
" style="fill:none;stroke:#c44e52;stroke-linecap:round;stroke-width:0.75;"/>
   </g>
   <g id="line2d_19">
    <path clip-path="url(#p186082a8c6)" d="M 53.816768 350.248355 
L 56.281431 355.446911 
L 58.746094 356.608186 
L 61.210757 357.097243 
L 63.67542 357.235367 
L 66.140083 357.147428 
L 68.604746 356.897673 
L 73.534072 356.052593 
L 78.463398 354.878504 
L 83.392724 353.467461 
L 88.32205 351.874475 
L 95.716039 349.219623 
L 103.110028 346.314192 
L 112.96868 342.136687 
L 122.827332 337.683252 
L 132.685984 333.006687 
L 145.009299 326.902677 
L 157.332614 320.559023 
L 172.120592 312.681957 
L 186.90857 304.559922 
L 204.161211 294.820488 
L 221.413852 284.836126 
L 241.131155 273.165637 
L 263.313122 259.747833 
L 285.495089 246.062598 
L 310.141719 230.580643 
L 334.788349 214.840357 
L 361.899642 197.259637 
L 391.475598 177.795117 
L 421.051554 158.062144 
L 453.092173 136.410649 
L 485.132791 114.499549 
L 519.638073 90.637661 
L 544.284703 73.437495 
L 544.284703 73.437495 
" style="fill:none;stroke:#8172b3;stroke-linecap:round;stroke-width:0.75;"/>
   </g>
   <g id="line2d_20">
    <path clip-path="url(#p186082a8c6)" d="M 53.816768 329.445001 
L 56.281431 334.032658 
L 58.746094 335.112822 
L 61.210757 335.609817 
L 63.67542 335.802529 
L 66.140083 335.799264 
L 71.069409 335.405008 
L 75.998735 334.662232 
L 80.928061 333.679127 
L 85.857387 332.516251 
L 93.251376 330.514493 
L 100.645365 328.272628 
L 110.504017 324.994733 
L 120.362669 321.454812 
L 130.221321 317.702213 
L 142.544636 312.763087 
L 154.867951 307.590351 
L 169.655929 301.119823 
L 184.443907 294.399298 
L 199.231885 287.457294 
L 216.484526 279.105897 
L 233.737166 270.505372 
L 250.989807 261.672836 
L 270.707111 251.30947 
L 290.424415 240.669672 
L 310.141719 229.758775 
L 329.859023 218.576779 
L 349.576327 207.11835 
L 369.293631 195.37228 
L 386.546272 184.844334 
L 403.798913 174.064295 
L 421.051554 163.006816 
L 435.839532 153.2813 
L 450.62751 143.29398 
L 462.950825 134.739182 
L 475.27414 125.934282 
L 487.597454 116.825001 
L 497.456106 109.263338 
L 507.314758 101.385655 
L 514.708747 95.204241 
L 522.102736 88.701043 
L 527.032062 84.118194 
L 531.961388 79.249625 
L 536.890714 73.941 
L 539.355377 71.020564 
L 541.82004 67.795844 
L 544.284703 63.987957 
L 544.284703 63.987957 
" style="fill:none;stroke:#937860;stroke-linecap:round;stroke-width:0.75;"/>
   </g>
   <g id="line2d_21">
    <path clip-path="url(#p186082a8c6)" d="M 53.816768 328.157492 
L 56.281431 328.559967 
L 58.746094 328.046703 
L 63.67542 326.635473 
L 71.069409 324.141844 
L 80.928061 320.498029 
L 93.251376 315.667761 
L 108.039354 309.622369 
L 125.291995 302.333239 
L 145.009299 293.76849 
L 167.191266 283.890686 
L 191.837896 272.654514 
L 216.484526 261.166062 
L 241.131155 249.434037 
L 265.777785 237.457344 
L 290.424415 225.227051 
L 312.606382 213.989528 
L 334.788349 202.51562 
L 356.970316 190.780852 
L 376.68762 180.104223 
L 396.404924 169.163652 
L 413.657565 159.340781 
L 430.910206 149.24402 
L 445.698184 140.330939 
L 460.486162 131.128728 
L 472.809477 123.189962 
L 482.668128 116.620965 
L 492.52678 109.811755 
L 502.385432 102.697872 
L 509.779421 97.103165 
L 517.17341 91.211805 
L 522.102736 87.065523 
L 527.032062 82.681979 
L 531.961388 77.967332 
L 534.426051 75.435365 
L 536.890714 72.739244 
L 539.355377 69.813104 
L 541.82004 66.528759 
L 544.284703 62.555913 
L 544.284703 62.555913 
" style="fill:none;stroke:#da8bc3;stroke-linecap:round;stroke-width:0.75;"/>
   </g>
   <g id="line2d_22">
    <path clip-path="url(#p186082a8c6)" d="M 53.816768 250.046866 
L 56.281431 268.135926 
L 58.746094 274.800366 
L 61.210757 279.555399 
L 63.67542 283.310625 
L 66.140083 286.419853 
L 68.604746 289.065258 
L 71.069409 291.355482 
L 73.534072 293.361576 
L 75.998735 295.133079 
L 78.463398 296.70619 
L 80.928061 298.108338 
L 83.392724 299.360906 
L 88.32205 301.482386 
L 93.251376 303.173426 
L 98.180702 304.505921 
L 103.110028 305.532563 
L 108.039354 306.293389 
L 112.96868 306.819695 
L 117.898006 307.136523 
L 122.827332 307.264294 
L 127.756658 307.219931 
L 132.685984 307.017655 
L 140.079973 306.444125 
L 147.473962 305.576048 
L 154.867951 304.440974 
L 162.26194 303.061626 
L 169.655929 301.457018 
L 177.049918 299.643244 
L 184.443907 297.634069 
L 191.837896 295.441369 
L 201.696548 292.249937 
L 211.5552 288.771438 
L 221.413852 285.023604 
L 231.272503 281.021533 
L 241.131155 276.778151 
L 250.989807 272.304573 
L 260.848459 267.610381 
L 270.707111 262.703838 
L 280.565763 257.592059 
L 292.889078 250.922921 
L 305.212393 243.952477 
L 317.535708 236.688637 
L 329.859023 229.137457 
L 342.182338 221.303228 
L 354.505653 213.188494 
L 366.828968 204.794013 
L 379.152283 196.118641 
L 391.475598 187.159119 
L 403.798913 177.909747 
L 416.122228 168.361884 
L 428.445543 158.503204 
L 440.768858 148.316557 
L 453.092173 137.778208 
L 462.950825 129.072423 
L 472.809477 120.097293 
L 482.668128 110.821056 
L 492.52678 101.198838 
L 499.920769 93.716283 
L 507.314758 85.961128 
L 514.708747 77.871769 
L 522.102736 69.348699 
L 527.032062 63.342256 
L 531.961388 56.969725 
L 536.890714 50.044265 
L 539.355377 46.252041 
L 541.82004 42.087169 
L 544.284703 37.213918 
L 544.284703 37.213918 
" style="fill:none;stroke:#8c8c8c;stroke-linecap:round;stroke-width:0.75;"/>
   </g>
   <g id="line2d_23">
    <path clip-path="url(#p186082a8c6)" d="M 53.816768 306.095051 
L 56.281431 303.124146 
L 58.746094 301.36514 
L 63.67542 298.34947 
L 68.604746 295.61527 
L 75.998735 291.767561 
L 85.857387 286.896617 
L 100.645365 279.893092 
L 120.362669 270.860863 
L 147.473962 258.731263 
L 194.302559 238.081256 
L 253.45447 211.950217 
L 287.959752 196.47682 
L 317.535708 182.98415 
L 344.647001 170.36527 
L 366.828968 159.814006 
L 389.010935 149.008108 
L 408.728239 139.13888 
L 425.98088 130.251437 
L 440.768858 122.403848 
L 455.556836 114.294676 
L 467.880151 107.289769 
L 480.203465 100.001761 
L 490.062117 93.913628 
L 499.920769 87.529473 
L 507.314758 82.490096 
L 514.708747 77.165674 
L 519.638073 73.408741 
L 524.567399 69.431488 
L 529.496725 65.156117 
L 534.426051 60.443378 
L 536.890714 57.841556 
L 539.355377 54.989934 
L 541.82004 51.748487 
L 544.284703 47.756204 
L 544.284703 47.756204 
" style="fill:none;stroke:#ccb974;stroke-linecap:round;stroke-width:0.75;"/>
   </g>
   <g id="line2d_24">
    <path clip-path="url(#p186082a8c6)" d="M 53.816768 307.268778 
L 544.284703 23.171429 
L 544.284703 23.171429 
" style="fill:none;stroke:#64b5cd;stroke-linecap:round;stroke-width:0.75;"/>
   </g>
   <g id="patch_3">
    <path d="M 29.293371 373.938859 
L 29.293371 6.468218 
" style="fill:none;stroke:#ffffff;stroke-linecap:square;stroke-linejoin:miter;stroke-width:0.625;"/>
   </g>
   <g id="patch_4">
    <path d="M 568.8081 373.938859 
L 568.8081 6.468218 
" style="fill:none;stroke:#ffffff;stroke-linecap:square;stroke-linejoin:miter;stroke-width:0.625;"/>
   </g>
   <g id="patch_5">
    <path d="M 29.293371 373.938859 
L 568.8081 373.938859 
" style="fill:none;stroke:#ffffff;stroke-linecap:square;stroke-linejoin:miter;stroke-width:0.625;"/>
   </g>
   <g id="patch_6">
    <path d="M 29.293371 6.468218 
L 568.8081 6.468218 
" style="fill:none;stroke:#ffffff;stroke-linecap:square;stroke-linejoin:miter;stroke-width:0.625;"/>
   </g>
   <g id="legend_1">
    <g id="line2d_25">
     <path d="M 34.243371 13.672359 
L 45.243371 13.672359 
" style="fill:none;stroke:#4c72b0;stroke-linecap:round;stroke-width:0.75;"/>
    </g>
    <g id="line2d_26"/>
    <g id="text_15">
     <!-- Margin1, 2, 3 [1.5, 0, 0] -->
     <g style="fill:#262626;" transform="translate(49.643371 15.597359)scale(0.055 -0.055)">
      <defs>
       <path d="M 9.8125 72.90625 
L 24.515625 72.90625 
L 43.109375 23.296875 
L 61.8125 72.90625 
L 76.515625 72.90625 
L 76.515625 0 
L 66.890625 0 
L 66.890625 64.015625 
L 48.09375 14.015625 
L 38.1875 14.015625 
L 19.390625 64.015625 
L 19.390625 0 
L 9.8125 0 
z
" id="DejaVuSans-77"/>
       <path d="M 34.28125 27.484375 
Q 23.390625 27.484375 19.1875 25 
Q 14.984375 22.515625 14.984375 16.5 
Q 14.984375 11.71875 18.140625 8.90625 
Q 21.296875 6.109375 26.703125 6.109375 
Q 34.1875 6.109375 38.703125 11.40625 
Q 43.21875 16.703125 43.21875 25.484375 
L 43.21875 27.484375 
z
M 52.203125 31.203125 
L 52.203125 0 
L 43.21875 0 
L 43.21875 8.296875 
Q 40.140625 3.328125 35.546875 0.953125 
Q 30.953125 -1.421875 24.3125 -1.421875 
Q 15.921875 -1.421875 10.953125 3.296875 
Q 6 8.015625 6 15.921875 
Q 6 25.140625 12.171875 29.828125 
Q 18.359375 34.515625 30.609375 34.515625 
L 43.21875 34.515625 
L 43.21875 35.40625 
Q 43.21875 41.609375 39.140625 45 
Q 35.0625 48.390625 27.6875 48.390625 
Q 23 48.390625 18.546875 47.265625 
Q 14.109375 46.140625 10.015625 43.890625 
L 10.015625 52.203125 
Q 14.9375 54.109375 19.578125 55.046875 
Q 24.21875 56 28.609375 56 
Q 40.484375 56 46.34375 49.84375 
Q 52.203125 43.703125 52.203125 31.203125 
z
" id="DejaVuSans-97"/>
       <path d="M 41.109375 46.296875 
Q 39.59375 47.171875 37.8125 47.578125 
Q 36.03125 48 33.890625 48 
Q 26.265625 48 22.1875 43.046875 
Q 18.109375 38.09375 18.109375 28.8125 
L 18.109375 0 
L 9.078125 0 
L 9.078125 54.6875 
L 18.109375 54.6875 
L 18.109375 46.1875 
Q 20.953125 51.171875 25.484375 53.578125 
Q 30.03125 56 36.53125 56 
Q 37.453125 56 38.578125 55.875 
Q 39.703125 55.765625 41.0625 55.515625 
z
" id="DejaVuSans-114"/>
       <path d="M 45.40625 27.984375 
Q 45.40625 37.75 41.375 43.109375 
Q 37.359375 48.484375 30.078125 48.484375 
Q 22.859375 48.484375 18.828125 43.109375 
Q 14.796875 37.75 14.796875 27.984375 
Q 14.796875 18.265625 18.828125 12.890625 
Q 22.859375 7.515625 30.078125 7.515625 
Q 37.359375 7.515625 41.375 12.890625 
Q 45.40625 18.265625 45.40625 27.984375 
z
M 54.390625 6.78125 
Q 54.390625 -7.171875 48.1875 -13.984375 
Q 42 -20.796875 29.203125 -20.796875 
Q 24.46875 -20.796875 20.265625 -20.09375 
Q 16.0625 -19.390625 12.109375 -17.921875 
L 12.109375 -9.1875 
Q 16.0625 -11.328125 19.921875 -12.34375 
Q 23.78125 -13.375 27.78125 -13.375 
Q 36.625 -13.375 41.015625 -8.765625 
Q 45.40625 -4.15625 45.40625 5.171875 
L 45.40625 9.625 
Q 42.625 4.78125 38.28125 2.390625 
Q 33.9375 0 27.875 0 
Q 17.828125 0 11.671875 7.65625 
Q 5.515625 15.328125 5.515625 27.984375 
Q 5.515625 40.671875 11.671875 48.328125 
Q 17.828125 56 27.875 56 
Q 33.9375 56 38.28125 53.609375 
Q 42.625 51.21875 45.40625 46.390625 
L 45.40625 54.6875 
L 54.390625 54.6875 
z
" id="DejaVuSans-103"/>
       <path d="M 9.421875 54.6875 
L 18.40625 54.6875 
L 18.40625 0 
L 9.421875 0 
z
M 9.421875 75.984375 
L 18.40625 75.984375 
L 18.40625 64.59375 
L 9.421875 64.59375 
z
" id="DejaVuSans-105"/>
       <path d="M 54.890625 33.015625 
L 54.890625 0 
L 45.90625 0 
L 45.90625 32.71875 
Q 45.90625 40.484375 42.875 44.328125 
Q 39.84375 48.1875 33.796875 48.1875 
Q 26.515625 48.1875 22.3125 43.546875 
Q 18.109375 38.921875 18.109375 30.90625 
L 18.109375 0 
L 9.078125 0 
L 9.078125 54.6875 
L 18.109375 54.6875 
L 18.109375 46.1875 
Q 21.34375 51.125 25.703125 53.5625 
Q 30.078125 56 35.796875 56 
Q 45.21875 56 50.046875 50.171875 
Q 54.890625 44.34375 54.890625 33.015625 
z
" id="DejaVuSans-110"/>
       <path d="M 11.71875 12.40625 
L 22.015625 12.40625 
L 22.015625 4 
L 14.015625 -11.625 
L 7.71875 -11.625 
L 11.71875 4 
z
" id="DejaVuSans-44"/>
       <path id="DejaVuSans-32"/>
       <path d="M 40.578125 39.3125 
Q 47.65625 37.796875 51.625 33 
Q 55.609375 28.21875 55.609375 21.1875 
Q 55.609375 10.40625 48.1875 4.484375 
Q 40.765625 -1.421875 27.09375 -1.421875 
Q 22.515625 -1.421875 17.65625 -0.515625 
Q 12.796875 0.390625 7.625 2.203125 
L 7.625 11.71875 
Q 11.71875 9.328125 16.59375 8.109375 
Q 21.484375 6.890625 26.8125 6.890625 
Q 36.078125 6.890625 40.9375 10.546875 
Q 45.796875 14.203125 45.796875 21.1875 
Q 45.796875 27.640625 41.28125 31.265625 
Q 36.765625 34.90625 28.71875 34.90625 
L 20.21875 34.90625 
L 20.21875 43.015625 
L 29.109375 43.015625 
Q 36.375 43.015625 40.234375 45.921875 
Q 44.09375 48.828125 44.09375 54.296875 
Q 44.09375 59.90625 40.109375 62.90625 
Q 36.140625 65.921875 28.71875 65.921875 
Q 24.65625 65.921875 20.015625 65.03125 
Q 15.375 64.15625 9.8125 62.3125 
L 9.8125 71.09375 
Q 15.4375 72.65625 20.34375 73.4375 
Q 25.25 74.21875 29.59375 74.21875 
Q 40.828125 74.21875 47.359375 69.109375 
Q 53.90625 64.015625 53.90625 55.328125 
Q 53.90625 49.265625 50.4375 45.09375 
Q 46.96875 40.921875 40.578125 39.3125 
z
" id="DejaVuSans-51"/>
       <path d="M 8.59375 75.984375 
L 29.296875 75.984375 
L 29.296875 69 
L 17.578125 69 
L 17.578125 -6.203125 
L 29.296875 -6.203125 
L 29.296875 -13.1875 
L 8.59375 -13.1875 
z
" id="DejaVuSans-91"/>
       <path d="M 30.421875 75.984375 
L 30.421875 -13.1875 
L 9.71875 -13.1875 
L 9.71875 -6.203125 
L 21.390625 -6.203125 
L 21.390625 69 
L 9.71875 69 
L 9.71875 75.984375 
z
" id="DejaVuSans-93"/>
      </defs>
      <use xlink:href="#DejaVuSans-77"/>
      <use x="86.279297" xlink:href="#DejaVuSans-97"/>
      <use x="147.558594" xlink:href="#DejaVuSans-114"/>
      <use x="186.921875" xlink:href="#DejaVuSans-103"/>
      <use x="250.398438" xlink:href="#DejaVuSans-105"/>
      <use x="278.181641" xlink:href="#DejaVuSans-110"/>
      <use x="341.560547" xlink:href="#DejaVuSans-49"/>
      <use x="405.183594" xlink:href="#DejaVuSans-44"/>
      <use x="436.970703" xlink:href="#DejaVuSans-32"/>
      <use x="468.757812" xlink:href="#DejaVuSans-50"/>
      <use x="532.380859" xlink:href="#DejaVuSans-44"/>
      <use x="564.167969" xlink:href="#DejaVuSans-32"/>
      <use x="595.955078" xlink:href="#DejaVuSans-51"/>
      <use x="659.578125" xlink:href="#DejaVuSans-32"/>
      <use x="691.365234" xlink:href="#DejaVuSans-91"/>
      <use x="730.378906" xlink:href="#DejaVuSans-49"/>
      <use x="794.001953" xlink:href="#DejaVuSans-46"/>
      <use x="825.789062" xlink:href="#DejaVuSans-53"/>
      <use x="889.412109" xlink:href="#DejaVuSans-44"/>
      <use x="921.199219" xlink:href="#DejaVuSans-32"/>
      <use x="952.986328" xlink:href="#DejaVuSans-48"/>
      <use x="1016.609375" xlink:href="#DejaVuSans-44"/>
      <use x="1048.396484" xlink:href="#DejaVuSans-32"/>
      <use x="1080.183594" xlink:href="#DejaVuSans-48"/>
      <use x="1143.806641" xlink:href="#DejaVuSans-93"/>
     </g>
    </g>
    <g id="line2d_27">
     <path d="M 34.243371 21.745328 
L 45.243371 21.745328 
" style="fill:none;stroke:#dd8452;stroke-linecap:round;stroke-width:0.75;"/>
    </g>
    <g id="line2d_28"/>
    <g id="text_16">
     <!-- Margin1, 2, 3 [1, 0, 0.35] -->
     <g style="fill:#262626;" transform="translate(49.643371 23.670328)scale(0.055 -0.055)">
      <use xlink:href="#DejaVuSans-77"/>
      <use x="86.279297" xlink:href="#DejaVuSans-97"/>
      <use x="147.558594" xlink:href="#DejaVuSans-114"/>
      <use x="186.921875" xlink:href="#DejaVuSans-103"/>
      <use x="250.398438" xlink:href="#DejaVuSans-105"/>
      <use x="278.181641" xlink:href="#DejaVuSans-110"/>
      <use x="341.560547" xlink:href="#DejaVuSans-49"/>
      <use x="405.183594" xlink:href="#DejaVuSans-44"/>
      <use x="436.970703" xlink:href="#DejaVuSans-32"/>
      <use x="468.757812" xlink:href="#DejaVuSans-50"/>
      <use x="532.380859" xlink:href="#DejaVuSans-44"/>
      <use x="564.167969" xlink:href="#DejaVuSans-32"/>
      <use x="595.955078" xlink:href="#DejaVuSans-51"/>
      <use x="659.578125" xlink:href="#DejaVuSans-32"/>
      <use x="691.365234" xlink:href="#DejaVuSans-91"/>
      <use x="730.378906" xlink:href="#DejaVuSans-49"/>
      <use x="794.001953" xlink:href="#DejaVuSans-44"/>
      <use x="825.789062" xlink:href="#DejaVuSans-32"/>
      <use x="857.576172" xlink:href="#DejaVuSans-48"/>
      <use x="921.199219" xlink:href="#DejaVuSans-44"/>
      <use x="952.986328" xlink:href="#DejaVuSans-32"/>
      <use x="984.773438" xlink:href="#DejaVuSans-48"/>
      <use x="1048.396484" xlink:href="#DejaVuSans-46"/>
      <use x="1080.183594" xlink:href="#DejaVuSans-51"/>
      <use x="1143.806641" xlink:href="#DejaVuSans-53"/>
      <use x="1207.429688" xlink:href="#DejaVuSans-93"/>
     </g>
    </g>
    <g id="line2d_29">
     <path d="M 34.243371 29.818296 
L 45.243371 29.818296 
" style="fill:none;stroke:#55a868;stroke-linecap:round;stroke-width:0.75;"/>
    </g>
    <g id="line2d_30"/>
    <g id="text_17">
     <!-- Margin1, 2, 3 [1, 0.5, 0] -->
     <g style="fill:#262626;" transform="translate(49.643371 31.743296)scale(0.055 -0.055)">
      <use xlink:href="#DejaVuSans-77"/>
      <use x="86.279297" xlink:href="#DejaVuSans-97"/>
      <use x="147.558594" xlink:href="#DejaVuSans-114"/>
      <use x="186.921875" xlink:href="#DejaVuSans-103"/>
      <use x="250.398438" xlink:href="#DejaVuSans-105"/>
      <use x="278.181641" xlink:href="#DejaVuSans-110"/>
      <use x="341.560547" xlink:href="#DejaVuSans-49"/>
      <use x="405.183594" xlink:href="#DejaVuSans-44"/>
      <use x="436.970703" xlink:href="#DejaVuSans-32"/>
      <use x="468.757812" xlink:href="#DejaVuSans-50"/>
      <use x="532.380859" xlink:href="#DejaVuSans-44"/>
      <use x="564.167969" xlink:href="#DejaVuSans-32"/>
      <use x="595.955078" xlink:href="#DejaVuSans-51"/>
      <use x="659.578125" xlink:href="#DejaVuSans-32"/>
      <use x="691.365234" xlink:href="#DejaVuSans-91"/>
      <use x="730.378906" xlink:href="#DejaVuSans-49"/>
      <use x="794.001953" xlink:href="#DejaVuSans-44"/>
      <use x="825.789062" xlink:href="#DejaVuSans-32"/>
      <use x="857.576172" xlink:href="#DejaVuSans-48"/>
      <use x="921.199219" xlink:href="#DejaVuSans-46"/>
      <use x="952.986328" xlink:href="#DejaVuSans-53"/>
      <use x="1016.609375" xlink:href="#DejaVuSans-44"/>
      <use x="1048.396484" xlink:href="#DejaVuSans-32"/>
      <use x="1080.183594" xlink:href="#DejaVuSans-48"/>
      <use x="1143.806641" xlink:href="#DejaVuSans-93"/>
     </g>
    </g>
    <g id="line2d_31">
     <path d="M 34.243371 37.891265 
L 45.243371 37.891265 
" style="fill:none;stroke:#c44e52;stroke-linecap:round;stroke-width:0.75;"/>
    </g>
    <g id="line2d_32"/>
    <g id="text_18">
     <!-- Margin1, 2, 3 [1.2, 0.4, 0] -->
     <g style="fill:#262626;" transform="translate(49.643371 39.816265)scale(0.055 -0.055)">
      <defs>
       <path d="M 37.796875 64.3125 
L 12.890625 25.390625 
L 37.796875 25.390625 
z
M 35.203125 72.90625 
L 47.609375 72.90625 
L 47.609375 25.390625 
L 58.015625 25.390625 
L 58.015625 17.1875 
L 47.609375 17.1875 
L 47.609375 0 
L 37.796875 0 
L 37.796875 17.1875 
L 4.890625 17.1875 
L 4.890625 26.703125 
z
" id="DejaVuSans-52"/>
      </defs>
      <use xlink:href="#DejaVuSans-77"/>
      <use x="86.279297" xlink:href="#DejaVuSans-97"/>
      <use x="147.558594" xlink:href="#DejaVuSans-114"/>
      <use x="186.921875" xlink:href="#DejaVuSans-103"/>
      <use x="250.398438" xlink:href="#DejaVuSans-105"/>
      <use x="278.181641" xlink:href="#DejaVuSans-110"/>
      <use x="341.560547" xlink:href="#DejaVuSans-49"/>
      <use x="405.183594" xlink:href="#DejaVuSans-44"/>
      <use x="436.970703" xlink:href="#DejaVuSans-32"/>
      <use x="468.757812" xlink:href="#DejaVuSans-50"/>
      <use x="532.380859" xlink:href="#DejaVuSans-44"/>
      <use x="564.167969" xlink:href="#DejaVuSans-32"/>
      <use x="595.955078" xlink:href="#DejaVuSans-51"/>
      <use x="659.578125" xlink:href="#DejaVuSans-32"/>
      <use x="691.365234" xlink:href="#DejaVuSans-91"/>
      <use x="730.378906" xlink:href="#DejaVuSans-49"/>
      <use x="794.001953" xlink:href="#DejaVuSans-46"/>
      <use x="825.789062" xlink:href="#DejaVuSans-50"/>
      <use x="889.412109" xlink:href="#DejaVuSans-44"/>
      <use x="921.199219" xlink:href="#DejaVuSans-32"/>
      <use x="952.986328" xlink:href="#DejaVuSans-48"/>
      <use x="1016.609375" xlink:href="#DejaVuSans-46"/>
      <use x="1048.396484" xlink:href="#DejaVuSans-52"/>
      <use x="1112.019531" xlink:href="#DejaVuSans-44"/>
      <use x="1143.806641" xlink:href="#DejaVuSans-32"/>
      <use x="1175.59375" xlink:href="#DejaVuSans-48"/>
      <use x="1239.216797" xlink:href="#DejaVuSans-93"/>
     </g>
    </g>
    <g id="line2d_33">
     <path d="M 34.243371 45.964234 
L 45.243371 45.964234 
" style="fill:none;stroke:#8172b3;stroke-linecap:round;stroke-width:0.75;"/>
    </g>
    <g id="line2d_34"/>
    <g id="text_19">
     <!-- Margin1, 2, 3 [1.1, 0, 0.35] -->
     <g style="fill:#262626;" transform="translate(49.643371 47.889234)scale(0.055 -0.055)">
      <use xlink:href="#DejaVuSans-77"/>
      <use x="86.279297" xlink:href="#DejaVuSans-97"/>
      <use x="147.558594" xlink:href="#DejaVuSans-114"/>
      <use x="186.921875" xlink:href="#DejaVuSans-103"/>
      <use x="250.398438" xlink:href="#DejaVuSans-105"/>
      <use x="278.181641" xlink:href="#DejaVuSans-110"/>
      <use x="341.560547" xlink:href="#DejaVuSans-49"/>
      <use x="405.183594" xlink:href="#DejaVuSans-44"/>
      <use x="436.970703" xlink:href="#DejaVuSans-32"/>
      <use x="468.757812" xlink:href="#DejaVuSans-50"/>
      <use x="532.380859" xlink:href="#DejaVuSans-44"/>
      <use x="564.167969" xlink:href="#DejaVuSans-32"/>
      <use x="595.955078" xlink:href="#DejaVuSans-51"/>
      <use x="659.578125" xlink:href="#DejaVuSans-32"/>
      <use x="691.365234" xlink:href="#DejaVuSans-91"/>
      <use x="730.378906" xlink:href="#DejaVuSans-49"/>
      <use x="794.001953" xlink:href="#DejaVuSans-46"/>
      <use x="825.789062" xlink:href="#DejaVuSans-49"/>
      <use x="889.412109" xlink:href="#DejaVuSans-44"/>
      <use x="921.199219" xlink:href="#DejaVuSans-32"/>
      <use x="952.986328" xlink:href="#DejaVuSans-48"/>
      <use x="1016.609375" xlink:href="#DejaVuSans-44"/>
      <use x="1048.396484" xlink:href="#DejaVuSans-32"/>
      <use x="1080.183594" xlink:href="#DejaVuSans-48"/>
      <use x="1143.806641" xlink:href="#DejaVuSans-46"/>
      <use x="1175.59375" xlink:href="#DejaVuSans-51"/>
      <use x="1239.216797" xlink:href="#DejaVuSans-53"/>
      <use x="1302.839844" xlink:href="#DejaVuSans-93"/>
     </g>
    </g>
    <g id="line2d_35">
     <path d="M 34.243371 54.037203 
L 45.243371 54.037203 
" style="fill:none;stroke:#937860;stroke-linecap:round;stroke-width:0.75;"/>
    </g>
    <g id="line2d_36"/>
    <g id="text_20">
     <!-- Margin1, 2, 3 [1, 0.3, 0.2] -->
     <g style="fill:#262626;" transform="translate(49.643371 55.962203)scale(0.055 -0.055)">
      <use xlink:href="#DejaVuSans-77"/>
      <use x="86.279297" xlink:href="#DejaVuSans-97"/>
      <use x="147.558594" xlink:href="#DejaVuSans-114"/>
      <use x="186.921875" xlink:href="#DejaVuSans-103"/>
      <use x="250.398438" xlink:href="#DejaVuSans-105"/>
      <use x="278.181641" xlink:href="#DejaVuSans-110"/>
      <use x="341.560547" xlink:href="#DejaVuSans-49"/>
      <use x="405.183594" xlink:href="#DejaVuSans-44"/>
      <use x="436.970703" xlink:href="#DejaVuSans-32"/>
      <use x="468.757812" xlink:href="#DejaVuSans-50"/>
      <use x="532.380859" xlink:href="#DejaVuSans-44"/>
      <use x="564.167969" xlink:href="#DejaVuSans-32"/>
      <use x="595.955078" xlink:href="#DejaVuSans-51"/>
      <use x="659.578125" xlink:href="#DejaVuSans-32"/>
      <use x="691.365234" xlink:href="#DejaVuSans-91"/>
      <use x="730.378906" xlink:href="#DejaVuSans-49"/>
      <use x="794.001953" xlink:href="#DejaVuSans-44"/>
      <use x="825.789062" xlink:href="#DejaVuSans-32"/>
      <use x="857.576172" xlink:href="#DejaVuSans-48"/>
      <use x="921.199219" xlink:href="#DejaVuSans-46"/>
      <use x="952.986328" xlink:href="#DejaVuSans-51"/>
      <use x="1016.609375" xlink:href="#DejaVuSans-44"/>
      <use x="1048.396484" xlink:href="#DejaVuSans-32"/>
      <use x="1080.183594" xlink:href="#DejaVuSans-48"/>
      <use x="1143.806641" xlink:href="#DejaVuSans-46"/>
      <use x="1175.59375" xlink:href="#DejaVuSans-50"/>
      <use x="1239.216797" xlink:href="#DejaVuSans-93"/>
     </g>
    </g>
    <g id="line2d_37">
     <path d="M 34.243371 62.110171 
L 45.243371 62.110171 
" style="fill:none;stroke:#da8bc3;stroke-linecap:round;stroke-width:0.75;"/>
    </g>
    <g id="line2d_38"/>
    <g id="text_21">
     <!-- Margin1, 2, 3 [0.9, 0.4, 0.15] -->
     <g style="fill:#262626;" transform="translate(49.643371 64.035171)scale(0.055 -0.055)">
      <defs>
       <path d="M 10.984375 1.515625 
L 10.984375 10.5 
Q 14.703125 8.734375 18.5 7.8125 
Q 22.3125 6.890625 25.984375 6.890625 
Q 35.75 6.890625 40.890625 13.453125 
Q 46.046875 20.015625 46.78125 33.40625 
Q 43.953125 29.203125 39.59375 26.953125 
Q 35.25 24.703125 29.984375 24.703125 
Q 19.046875 24.703125 12.671875 31.3125 
Q 6.296875 37.9375 6.296875 49.421875 
Q 6.296875 60.640625 12.9375 67.421875 
Q 19.578125 74.21875 30.609375 74.21875 
Q 43.265625 74.21875 49.921875 64.515625 
Q 56.59375 54.828125 56.59375 36.375 
Q 56.59375 19.140625 48.40625 8.859375 
Q 40.234375 -1.421875 26.421875 -1.421875 
Q 22.703125 -1.421875 18.890625 -0.6875 
Q 15.09375 0.046875 10.984375 1.515625 
z
M 30.609375 32.421875 
Q 37.25 32.421875 41.125 36.953125 
Q 45.015625 41.5 45.015625 49.421875 
Q 45.015625 57.28125 41.125 61.84375 
Q 37.25 66.40625 30.609375 66.40625 
Q 23.96875 66.40625 20.09375 61.84375 
Q 16.21875 57.28125 16.21875 49.421875 
Q 16.21875 41.5 20.09375 36.953125 
Q 23.96875 32.421875 30.609375 32.421875 
z
" id="DejaVuSans-57"/>
      </defs>
      <use xlink:href="#DejaVuSans-77"/>
      <use x="86.279297" xlink:href="#DejaVuSans-97"/>
      <use x="147.558594" xlink:href="#DejaVuSans-114"/>
      <use x="186.921875" xlink:href="#DejaVuSans-103"/>
      <use x="250.398438" xlink:href="#DejaVuSans-105"/>
      <use x="278.181641" xlink:href="#DejaVuSans-110"/>
      <use x="341.560547" xlink:href="#DejaVuSans-49"/>
      <use x="405.183594" xlink:href="#DejaVuSans-44"/>
      <use x="436.970703" xlink:href="#DejaVuSans-32"/>
      <use x="468.757812" xlink:href="#DejaVuSans-50"/>
      <use x="532.380859" xlink:href="#DejaVuSans-44"/>
      <use x="564.167969" xlink:href="#DejaVuSans-32"/>
      <use x="595.955078" xlink:href="#DejaVuSans-51"/>
      <use x="659.578125" xlink:href="#DejaVuSans-32"/>
      <use x="691.365234" xlink:href="#DejaVuSans-91"/>
      <use x="730.378906" xlink:href="#DejaVuSans-48"/>
      <use x="794.001953" xlink:href="#DejaVuSans-46"/>
      <use x="825.789062" xlink:href="#DejaVuSans-57"/>
      <use x="889.412109" xlink:href="#DejaVuSans-44"/>
      <use x="921.199219" xlink:href="#DejaVuSans-32"/>
      <use x="952.986328" xlink:href="#DejaVuSans-48"/>
      <use x="1016.609375" xlink:href="#DejaVuSans-46"/>
      <use x="1048.396484" xlink:href="#DejaVuSans-52"/>
      <use x="1112.019531" xlink:href="#DejaVuSans-44"/>
      <use x="1143.806641" xlink:href="#DejaVuSans-32"/>
      <use x="1175.59375" xlink:href="#DejaVuSans-48"/>
      <use x="1239.216797" xlink:href="#DejaVuSans-46"/>
      <use x="1271.003906" xlink:href="#DejaVuSans-49"/>
      <use x="1334.626953" xlink:href="#DejaVuSans-53"/>
      <use x="1398.25" xlink:href="#DejaVuSans-93"/>
     </g>
    </g>
    <g id="line2d_39">
     <path d="M 34.243371 70.18314 
L 45.243371 70.18314 
" style="fill:none;stroke:#8c8c8c;stroke-linecap:round;stroke-width:0.75;"/>
    </g>
    <g id="line2d_40"/>
    <g id="text_22">
     <!-- Margin1, 2, 3 [1.2, 0.3, 0] -->
     <g style="fill:#262626;" transform="translate(49.643371 72.10814)scale(0.055 -0.055)">
      <use xlink:href="#DejaVuSans-77"/>
      <use x="86.279297" xlink:href="#DejaVuSans-97"/>
      <use x="147.558594" xlink:href="#DejaVuSans-114"/>
      <use x="186.921875" xlink:href="#DejaVuSans-103"/>
      <use x="250.398438" xlink:href="#DejaVuSans-105"/>
      <use x="278.181641" xlink:href="#DejaVuSans-110"/>
      <use x="341.560547" xlink:href="#DejaVuSans-49"/>
      <use x="405.183594" xlink:href="#DejaVuSans-44"/>
      <use x="436.970703" xlink:href="#DejaVuSans-32"/>
      <use x="468.757812" xlink:href="#DejaVuSans-50"/>
      <use x="532.380859" xlink:href="#DejaVuSans-44"/>
      <use x="564.167969" xlink:href="#DejaVuSans-32"/>
      <use x="595.955078" xlink:href="#DejaVuSans-51"/>
      <use x="659.578125" xlink:href="#DejaVuSans-32"/>
      <use x="691.365234" xlink:href="#DejaVuSans-91"/>
      <use x="730.378906" xlink:href="#DejaVuSans-49"/>
      <use x="794.001953" xlink:href="#DejaVuSans-46"/>
      <use x="825.789062" xlink:href="#DejaVuSans-50"/>
      <use x="889.412109" xlink:href="#DejaVuSans-44"/>
      <use x="921.199219" xlink:href="#DejaVuSans-32"/>
      <use x="952.986328" xlink:href="#DejaVuSans-48"/>
      <use x="1016.609375" xlink:href="#DejaVuSans-46"/>
      <use x="1048.396484" xlink:href="#DejaVuSans-51"/>
      <use x="1112.019531" xlink:href="#DejaVuSans-44"/>
      <use x="1143.806641" xlink:href="#DejaVuSans-32"/>
      <use x="1175.59375" xlink:href="#DejaVuSans-48"/>
      <use x="1239.216797" xlink:href="#DejaVuSans-93"/>
     </g>
    </g>
    <g id="line2d_41">
     <path d="M 34.243371 78.256109 
L 45.243371 78.256109 
" style="fill:none;stroke:#ccb974;stroke-linecap:round;stroke-width:0.75;"/>
    </g>
    <g id="line2d_42"/>
    <g id="text_23">
     <!-- Margin1, 2, 3 [0.8, 0.5, 0] -->
     <g style="fill:#262626;" transform="translate(49.643371 80.181109)scale(0.055 -0.055)">
      <defs>
       <path d="M 31.78125 34.625 
Q 24.75 34.625 20.71875 30.859375 
Q 16.703125 27.09375 16.703125 20.515625 
Q 16.703125 13.921875 20.71875 10.15625 
Q 24.75 6.390625 31.78125 6.390625 
Q 38.8125 6.390625 42.859375 10.171875 
Q 46.921875 13.96875 46.921875 20.515625 
Q 46.921875 27.09375 42.890625 30.859375 
Q 38.875 34.625 31.78125 34.625 
z
M 21.921875 38.8125 
Q 15.578125 40.375 12.03125 44.71875 
Q 8.5 49.078125 8.5 55.328125 
Q 8.5 64.0625 14.71875 69.140625 
Q 20.953125 74.21875 31.78125 74.21875 
Q 42.671875 74.21875 48.875 69.140625 
Q 55.078125 64.0625 55.078125 55.328125 
Q 55.078125 49.078125 51.53125 44.71875 
Q 48 40.375 41.703125 38.8125 
Q 48.828125 37.15625 52.796875 32.3125 
Q 56.78125 27.484375 56.78125 20.515625 
Q 56.78125 9.90625 50.3125 4.234375 
Q 43.84375 -1.421875 31.78125 -1.421875 
Q 19.734375 -1.421875 13.25 4.234375 
Q 6.78125 9.90625 6.78125 20.515625 
Q 6.78125 27.484375 10.78125 32.3125 
Q 14.796875 37.15625 21.921875 38.8125 
z
M 18.3125 54.390625 
Q 18.3125 48.734375 21.84375 45.5625 
Q 25.390625 42.390625 31.78125 42.390625 
Q 38.140625 42.390625 41.71875 45.5625 
Q 45.3125 48.734375 45.3125 54.390625 
Q 45.3125 60.0625 41.71875 63.234375 
Q 38.140625 66.40625 31.78125 66.40625 
Q 25.390625 66.40625 21.84375 63.234375 
Q 18.3125 60.0625 18.3125 54.390625 
z
" id="DejaVuSans-56"/>
      </defs>
      <use xlink:href="#DejaVuSans-77"/>
      <use x="86.279297" xlink:href="#DejaVuSans-97"/>
      <use x="147.558594" xlink:href="#DejaVuSans-114"/>
      <use x="186.921875" xlink:href="#DejaVuSans-103"/>
      <use x="250.398438" xlink:href="#DejaVuSans-105"/>
      <use x="278.181641" xlink:href="#DejaVuSans-110"/>
      <use x="341.560547" xlink:href="#DejaVuSans-49"/>
      <use x="405.183594" xlink:href="#DejaVuSans-44"/>
      <use x="436.970703" xlink:href="#DejaVuSans-32"/>
      <use x="468.757812" xlink:href="#DejaVuSans-50"/>
      <use x="532.380859" xlink:href="#DejaVuSans-44"/>
      <use x="564.167969" xlink:href="#DejaVuSans-32"/>
      <use x="595.955078" xlink:href="#DejaVuSans-51"/>
      <use x="659.578125" xlink:href="#DejaVuSans-32"/>
      <use x="691.365234" xlink:href="#DejaVuSans-91"/>
      <use x="730.378906" xlink:href="#DejaVuSans-48"/>
      <use x="794.001953" xlink:href="#DejaVuSans-46"/>
      <use x="825.789062" xlink:href="#DejaVuSans-56"/>
      <use x="889.412109" xlink:href="#DejaVuSans-44"/>
      <use x="921.199219" xlink:href="#DejaVuSans-32"/>
      <use x="952.986328" xlink:href="#DejaVuSans-48"/>
      <use x="1016.609375" xlink:href="#DejaVuSans-46"/>
      <use x="1048.396484" xlink:href="#DejaVuSans-53"/>
      <use x="1112.019531" xlink:href="#DejaVuSans-44"/>
      <use x="1143.806641" xlink:href="#DejaVuSans-32"/>
      <use x="1175.59375" xlink:href="#DejaVuSans-48"/>
      <use x="1239.216797" xlink:href="#DejaVuSans-93"/>
     </g>
    </g>
    <g id="line2d_43">
     <path d="M 34.243371 86.329078 
L 45.243371 86.329078 
" style="fill:none;stroke:#64b5cd;stroke-linecap:round;stroke-width:0.75;"/>
    </g>
    <g id="line2d_44"/>
    <g id="text_24">
     <!-- Original -->
     <g style="fill:#262626;" transform="translate(49.643371 88.254078)scale(0.055 -0.055)">
      <defs>
       <path d="M 39.40625 66.21875 
Q 28.65625 66.21875 22.328125 58.203125 
Q 16.015625 50.203125 16.015625 36.375 
Q 16.015625 22.609375 22.328125 14.59375 
Q 28.65625 6.59375 39.40625 6.59375 
Q 50.140625 6.59375 56.421875 14.59375 
Q 62.703125 22.609375 62.703125 36.375 
Q 62.703125 50.203125 56.421875 58.203125 
Q 50.140625 66.21875 39.40625 66.21875 
z
M 39.40625 74.21875 
Q 54.734375 74.21875 63.90625 63.9375 
Q 73.09375 53.65625 73.09375 36.375 
Q 73.09375 19.140625 63.90625 8.859375 
Q 54.734375 -1.421875 39.40625 -1.421875 
Q 24.03125 -1.421875 14.8125 8.828125 
Q 5.609375 19.09375 5.609375 36.375 
Q 5.609375 53.65625 14.8125 63.9375 
Q 24.03125 74.21875 39.40625 74.21875 
z
" id="DejaVuSans-79"/>
       <path d="M 9.421875 75.984375 
L 18.40625 75.984375 
L 18.40625 0 
L 9.421875 0 
z
" id="DejaVuSans-108"/>
      </defs>
      <use xlink:href="#DejaVuSans-79"/>
      <use x="78.710938" xlink:href="#DejaVuSans-114"/>
      <use x="119.824219" xlink:href="#DejaVuSans-105"/>
      <use x="147.607422" xlink:href="#DejaVuSans-103"/>
      <use x="211.083984" xlink:href="#DejaVuSans-105"/>
      <use x="238.867188" xlink:href="#DejaVuSans-110"/>
      <use x="302.246094" xlink:href="#DejaVuSans-97"/>
      <use x="363.525391" xlink:href="#DejaVuSans-108"/>
     </g>
    </g>
   </g>
  </g>
 </g>
 <defs>
  <clipPath id="p186082a8c6">
   <rect height="367.470641" width="539.514729" x="29.293371" y="6.468218"/>
  </clipPath>
 </defs>
</svg>
