<?xml version="1.0" encoding="utf-8" standalone="no"?>
<!DOCTYPE svg PUBLIC "-//W3C//DTD SVG 1.1//EN"
  "http://www.w3.org/Graphics/SVG/1.1/DTD/svg11.dtd">
<!-- Created with matplotlib (https://matplotlib.org/) -->
<svg height="411.12pt" version="1.1" viewBox="0 0 577.44 411.12" width="577.44pt" xmlns="http://www.w3.org/2000/svg" xmlns:xlink="http://www.w3.org/1999/xlink">
 <defs>
  <style type="text/css">
*{stroke-linecap:butt;stroke-linejoin:round;}
  </style>
 </defs>
 <g id="figure_1">
  <g id="patch_1">
   <path d="M 0 411.12 
L 577.44 411.12 
L 577.44 0 
L 0 0 
z
" style="fill:#ffffff;"/>
  </g>
  <g id="axes_1">
   <g id="patch_2">
    <path d="M 33.64 383.24 
L 566.64 383.24 
L 566.64 10.8 
L 33.64 10.8 
z
" style="fill:#ffffff;"/>
   </g>
   <g id="matplotlib.axis_1">
    <g id="xtick_1">
     <g id="line2d_1">
      <path clip-path="url(#pf4225993a4)" d="M 57.867273 383.24 
L 57.867273 10.8 
" style="fill:none;stroke:#b0b0b0;stroke-linecap:square;stroke-width:0.8;"/>
     </g>
     <g id="line2d_2">
      <defs>
       <path d="M 0 0 
L 0 3.5 
" id="md4f660e69f" style="stroke:#000000;stroke-width:0.8;"/>
      </defs>
      <g>
       <use style="stroke:#000000;stroke-width:0.8;" x="57.867273" xlink:href="#md4f660e69f" y="383.24"/>
      </g>
     </g>
     <g id="text_1">
      <!-- 0.0 -->
      <defs>
       <path d="M 31.78125 66.40625 
Q 24.171875 66.40625 20.328125 58.90625 
Q 16.5 51.421875 16.5 36.375 
Q 16.5 21.390625 20.328125 13.890625 
Q 24.171875 6.390625 31.78125 6.390625 
Q 39.453125 6.390625 43.28125 13.890625 
Q 47.125 21.390625 47.125 36.375 
Q 47.125 51.421875 43.28125 58.90625 
Q 39.453125 66.40625 31.78125 66.40625 
z
M 31.78125 74.21875 
Q 44.046875 74.21875 50.515625 64.515625 
Q 56.984375 54.828125 56.984375 36.375 
Q 56.984375 17.96875 50.515625 8.265625 
Q 44.046875 -1.421875 31.78125 -1.421875 
Q 19.53125 -1.421875 13.0625 8.265625 
Q 6.59375 17.96875 6.59375 36.375 
Q 6.59375 54.828125 13.0625 64.515625 
Q 19.53125 74.21875 31.78125 74.21875 
z
" id="DejaVuSans-48"/>
       <path d="M 10.6875 12.40625 
L 21 12.40625 
L 21 0 
L 10.6875 0 
z
" id="DejaVuSans-46"/>
      </defs>
      <g transform="translate(49.91571 397.838437)scale(0.1 -0.1)">
       <use xlink:href="#DejaVuSans-48"/>
       <use x="63.623047" xlink:href="#DejaVuSans-46"/>
       <use x="95.410156" xlink:href="#DejaVuSans-48"/>
      </g>
     </g>
    </g>
    <g id="xtick_2">
     <g id="line2d_3">
      <path clip-path="url(#pf4225993a4)" d="M 155.755243 383.24 
L 155.755243 10.8 
" style="fill:none;stroke:#b0b0b0;stroke-linecap:square;stroke-width:0.8;"/>
     </g>
     <g id="line2d_4">
      <g>
       <use style="stroke:#000000;stroke-width:0.8;" x="155.755243" xlink:href="#md4f660e69f" y="383.24"/>
      </g>
     </g>
     <g id="text_2">
      <!-- 0.2 -->
      <defs>
       <path d="M 19.1875 8.296875 
L 53.609375 8.296875 
L 53.609375 0 
L 7.328125 0 
L 7.328125 8.296875 
Q 12.9375 14.109375 22.625 23.890625 
Q 32.328125 33.6875 34.8125 36.53125 
Q 39.546875 41.84375 41.421875 45.53125 
Q 43.3125 49.21875 43.3125 52.78125 
Q 43.3125 58.59375 39.234375 62.25 
Q 35.15625 65.921875 28.609375 65.921875 
Q 23.96875 65.921875 18.8125 64.3125 
Q 13.671875 62.703125 7.8125 59.421875 
L 7.8125 69.390625 
Q 13.765625 71.78125 18.9375 73 
Q 24.125 74.21875 28.421875 74.21875 
Q 39.75 74.21875 46.484375 68.546875 
Q 53.21875 62.890625 53.21875 53.421875 
Q 53.21875 48.921875 51.53125 44.890625 
Q 49.859375 40.875 45.40625 35.40625 
Q 44.1875 33.984375 37.640625 27.21875 
Q 31.109375 20.453125 19.1875 8.296875 
z
" id="DejaVuSans-50"/>
      </defs>
      <g transform="translate(147.803681 397.838437)scale(0.1 -0.1)">
       <use xlink:href="#DejaVuSans-48"/>
       <use x="63.623047" xlink:href="#DejaVuSans-46"/>
       <use x="95.410156" xlink:href="#DejaVuSans-50"/>
      </g>
     </g>
    </g>
    <g id="xtick_3">
     <g id="line2d_5">
      <path clip-path="url(#pf4225993a4)" d="M 253.643214 383.24 
L 253.643214 10.8 
" style="fill:none;stroke:#b0b0b0;stroke-linecap:square;stroke-width:0.8;"/>
     </g>
     <g id="line2d_6">
      <g>
       <use style="stroke:#000000;stroke-width:0.8;" x="253.643214" xlink:href="#md4f660e69f" y="383.24"/>
      </g>
     </g>
     <g id="text_3">
      <!-- 0.4 -->
      <defs>
       <path d="M 37.796875 64.3125 
L 12.890625 25.390625 
L 37.796875 25.390625 
z
M 35.203125 72.90625 
L 47.609375 72.90625 
L 47.609375 25.390625 
L 58.015625 25.390625 
L 58.015625 17.1875 
L 47.609375 17.1875 
L 47.609375 0 
L 37.796875 0 
L 37.796875 17.1875 
L 4.890625 17.1875 
L 4.890625 26.703125 
z
" id="DejaVuSans-52"/>
      </defs>
      <g transform="translate(245.691651 397.838437)scale(0.1 -0.1)">
       <use xlink:href="#DejaVuSans-48"/>
       <use x="63.623047" xlink:href="#DejaVuSans-46"/>
       <use x="95.410156" xlink:href="#DejaVuSans-52"/>
      </g>
     </g>
    </g>
    <g id="xtick_4">
     <g id="line2d_7">
      <path clip-path="url(#pf4225993a4)" d="M 351.531185 383.24 
L 351.531185 10.8 
" style="fill:none;stroke:#b0b0b0;stroke-linecap:square;stroke-width:0.8;"/>
     </g>
     <g id="line2d_8">
      <g>
       <use style="stroke:#000000;stroke-width:0.8;" x="351.531185" xlink:href="#md4f660e69f" y="383.24"/>
      </g>
     </g>
     <g id="text_4">
      <!-- 0.6 -->
      <defs>
       <path d="M 33.015625 40.375 
Q 26.375 40.375 22.484375 35.828125 
Q 18.609375 31.296875 18.609375 23.390625 
Q 18.609375 15.53125 22.484375 10.953125 
Q 26.375 6.390625 33.015625 6.390625 
Q 39.65625 6.390625 43.53125 10.953125 
Q 47.40625 15.53125 47.40625 23.390625 
Q 47.40625 31.296875 43.53125 35.828125 
Q 39.65625 40.375 33.015625 40.375 
z
M 52.59375 71.296875 
L 52.59375 62.3125 
Q 48.875 64.0625 45.09375 64.984375 
Q 41.3125 65.921875 37.59375 65.921875 
Q 27.828125 65.921875 22.671875 59.328125 
Q 17.53125 52.734375 16.796875 39.40625 
Q 19.671875 43.65625 24.015625 45.921875 
Q 28.375 48.1875 33.59375 48.1875 
Q 44.578125 48.1875 50.953125 41.515625 
Q 57.328125 34.859375 57.328125 23.390625 
Q 57.328125 12.15625 50.6875 5.359375 
Q 44.046875 -1.421875 33.015625 -1.421875 
Q 20.359375 -1.421875 13.671875 8.265625 
Q 6.984375 17.96875 6.984375 36.375 
Q 6.984375 53.65625 15.1875 63.9375 
Q 23.390625 74.21875 37.203125 74.21875 
Q 40.921875 74.21875 44.703125 73.484375 
Q 48.484375 72.75 52.59375 71.296875 
z
" id="DejaVuSans-54"/>
      </defs>
      <g transform="translate(343.579622 397.838437)scale(0.1 -0.1)">
       <use xlink:href="#DejaVuSans-48"/>
       <use x="63.623047" xlink:href="#DejaVuSans-46"/>
       <use x="95.410156" xlink:href="#DejaVuSans-54"/>
      </g>
     </g>
    </g>
    <g id="xtick_5">
     <g id="line2d_9">
      <path clip-path="url(#pf4225993a4)" d="M 449.419155 383.24 
L 449.419155 10.8 
" style="fill:none;stroke:#b0b0b0;stroke-linecap:square;stroke-width:0.8;"/>
     </g>
     <g id="line2d_10">
      <g>
       <use style="stroke:#000000;stroke-width:0.8;" x="449.419155" xlink:href="#md4f660e69f" y="383.24"/>
      </g>
     </g>
     <g id="text_5">
      <!-- 0.8 -->
      <defs>
       <path d="M 31.78125 34.625 
Q 24.75 34.625 20.71875 30.859375 
Q 16.703125 27.09375 16.703125 20.515625 
Q 16.703125 13.921875 20.71875 10.15625 
Q 24.75 6.390625 31.78125 6.390625 
Q 38.8125 6.390625 42.859375 10.171875 
Q 46.921875 13.96875 46.921875 20.515625 
Q 46.921875 27.09375 42.890625 30.859375 
Q 38.875 34.625 31.78125 34.625 
z
M 21.921875 38.8125 
Q 15.578125 40.375 12.03125 44.71875 
Q 8.5 49.078125 8.5 55.328125 
Q 8.5 64.0625 14.71875 69.140625 
Q 20.953125 74.21875 31.78125 74.21875 
Q 42.671875 74.21875 48.875 69.140625 
Q 55.078125 64.0625 55.078125 55.328125 
Q 55.078125 49.078125 51.53125 44.71875 
Q 48 40.375 41.703125 38.8125 
Q 48.828125 37.15625 52.796875 32.3125 
Q 56.78125 27.484375 56.78125 20.515625 
Q 56.78125 9.90625 50.3125 4.234375 
Q 43.84375 -1.421875 31.78125 -1.421875 
Q 19.734375 -1.421875 13.25 4.234375 
Q 6.78125 9.90625 6.78125 20.515625 
Q 6.78125 27.484375 10.78125 32.3125 
Q 14.796875 37.15625 21.921875 38.8125 
z
M 18.3125 54.390625 
Q 18.3125 48.734375 21.84375 45.5625 
Q 25.390625 42.390625 31.78125 42.390625 
Q 38.140625 42.390625 41.71875 45.5625 
Q 45.3125 48.734375 45.3125 54.390625 
Q 45.3125 60.0625 41.71875 63.234375 
Q 38.140625 66.40625 31.78125 66.40625 
Q 25.390625 66.40625 21.84375 63.234375 
Q 18.3125 60.0625 18.3125 54.390625 
z
" id="DejaVuSans-56"/>
      </defs>
      <g transform="translate(441.467593 397.838437)scale(0.1 -0.1)">
       <use xlink:href="#DejaVuSans-48"/>
       <use x="63.623047" xlink:href="#DejaVuSans-46"/>
       <use x="95.410156" xlink:href="#DejaVuSans-56"/>
      </g>
     </g>
    </g>
    <g id="xtick_6">
     <g id="line2d_11">
      <path clip-path="url(#pf4225993a4)" d="M 547.307126 383.24 
L 547.307126 10.8 
" style="fill:none;stroke:#b0b0b0;stroke-linecap:square;stroke-width:0.8;"/>
     </g>
     <g id="line2d_12">
      <g>
       <use style="stroke:#000000;stroke-width:0.8;" x="547.307126" xlink:href="#md4f660e69f" y="383.24"/>
      </g>
     </g>
     <g id="text_6">
      <!-- 1.0 -->
      <defs>
       <path d="M 12.40625 8.296875 
L 28.515625 8.296875 
L 28.515625 63.921875 
L 10.984375 60.40625 
L 10.984375 69.390625 
L 28.421875 72.90625 
L 38.28125 72.90625 
L 38.28125 8.296875 
L 54.390625 8.296875 
L 54.390625 0 
L 12.40625 0 
z
" id="DejaVuSans-49"/>
      </defs>
      <g transform="translate(539.355563 397.838437)scale(0.1 -0.1)">
       <use xlink:href="#DejaVuSans-49"/>
       <use x="63.623047" xlink:href="#DejaVuSans-46"/>
       <use x="95.410156" xlink:href="#DejaVuSans-48"/>
      </g>
     </g>
    </g>
   </g>
   <g id="matplotlib.axis_2">
    <g id="ytick_1">
     <g id="line2d_13">
      <path clip-path="url(#pf4225993a4)" d="M 33.64 366.310909 
L 566.64 366.310909 
" style="fill:none;stroke:#b0b0b0;stroke-linecap:square;stroke-width:0.8;"/>
     </g>
     <g id="line2d_14">
      <defs>
       <path d="M 0 0 
L -3.5 0 
" id="maec3a283d8" style="stroke:#000000;stroke-width:0.8;"/>
      </defs>
      <g>
       <use style="stroke:#000000;stroke-width:0.8;" x="33.64" xlink:href="#maec3a283d8" y="366.310909"/>
      </g>
     </g>
     <g id="text_7">
      <!-- 0.0 -->
      <g transform="translate(10.736875 370.110128)scale(0.1 -0.1)">
       <use xlink:href="#DejaVuSans-48"/>
       <use x="63.623047" xlink:href="#DejaVuSans-46"/>
       <use x="95.410156" xlink:href="#DejaVuSans-48"/>
      </g>
     </g>
    </g>
    <g id="ytick_2">
     <g id="line2d_15">
      <path clip-path="url(#pf4225993a4)" d="M 33.64 297.910542 
L 566.64 297.910542 
" style="fill:none;stroke:#b0b0b0;stroke-linecap:square;stroke-width:0.8;"/>
     </g>
     <g id="line2d_16">
      <g>
       <use style="stroke:#000000;stroke-width:0.8;" x="33.64" xlink:href="#maec3a283d8" y="297.910542"/>
      </g>
     </g>
     <g id="text_8">
      <!-- 0.2 -->
      <g transform="translate(10.736875 301.709761)scale(0.1 -0.1)">
       <use xlink:href="#DejaVuSans-48"/>
       <use x="63.623047" xlink:href="#DejaVuSans-46"/>
       <use x="95.410156" xlink:href="#DejaVuSans-50"/>
      </g>
     </g>
    </g>
    <g id="ytick_3">
     <g id="line2d_17">
      <path clip-path="url(#pf4225993a4)" d="M 33.64 229.510174 
L 566.64 229.510174 
" style="fill:none;stroke:#b0b0b0;stroke-linecap:square;stroke-width:0.8;"/>
     </g>
     <g id="line2d_18">
      <g>
       <use style="stroke:#000000;stroke-width:0.8;" x="33.64" xlink:href="#maec3a283d8" y="229.510174"/>
      </g>
     </g>
     <g id="text_9">
      <!-- 0.4 -->
      <g transform="translate(10.736875 233.309393)scale(0.1 -0.1)">
       <use xlink:href="#DejaVuSans-48"/>
       <use x="63.623047" xlink:href="#DejaVuSans-46"/>
       <use x="95.410156" xlink:href="#DejaVuSans-52"/>
      </g>
     </g>
    </g>
    <g id="ytick_4">
     <g id="line2d_19">
      <path clip-path="url(#pf4225993a4)" d="M 33.64 161.109807 
L 566.64 161.109807 
" style="fill:none;stroke:#b0b0b0;stroke-linecap:square;stroke-width:0.8;"/>
     </g>
     <g id="line2d_20">
      <g>
       <use style="stroke:#000000;stroke-width:0.8;" x="33.64" xlink:href="#maec3a283d8" y="161.109807"/>
      </g>
     </g>
     <g id="text_10">
      <!-- 0.6 -->
      <g transform="translate(10.736875 164.909026)scale(0.1 -0.1)">
       <use xlink:href="#DejaVuSans-48"/>
       <use x="63.623047" xlink:href="#DejaVuSans-46"/>
       <use x="95.410156" xlink:href="#DejaVuSans-54"/>
      </g>
     </g>
    </g>
    <g id="ytick_5">
     <g id="line2d_21">
      <path clip-path="url(#pf4225993a4)" d="M 33.64 92.70944 
L 566.64 92.70944 
" style="fill:none;stroke:#b0b0b0;stroke-linecap:square;stroke-width:0.8;"/>
     </g>
     <g id="line2d_22">
      <g>
       <use style="stroke:#000000;stroke-width:0.8;" x="33.64" xlink:href="#maec3a283d8" y="92.70944"/>
      </g>
     </g>
     <g id="text_11">
      <!-- 0.8 -->
      <g transform="translate(10.736875 96.508659)scale(0.1 -0.1)">
       <use xlink:href="#DejaVuSans-48"/>
       <use x="63.623047" xlink:href="#DejaVuSans-46"/>
       <use x="95.410156" xlink:href="#DejaVuSans-56"/>
      </g>
     </g>
    </g>
    <g id="ytick_6">
     <g id="line2d_23">
      <path clip-path="url(#pf4225993a4)" d="M 33.64 24.309073 
L 566.64 24.309073 
" style="fill:none;stroke:#b0b0b0;stroke-linecap:square;stroke-width:0.8;"/>
     </g>
     <g id="line2d_24">
      <g>
       <use style="stroke:#000000;stroke-width:0.8;" x="33.64" xlink:href="#maec3a283d8" y="24.309073"/>
      </g>
     </g>
     <g id="text_12">
      <!-- 1.0 -->
      <g transform="translate(10.736875 28.108291)scale(0.1 -0.1)">
       <use xlink:href="#DejaVuSans-49"/>
       <use x="63.623047" xlink:href="#DejaVuSans-46"/>
       <use x="95.410156" xlink:href="#DejaVuSans-48"/>
      </g>
     </g>
    </g>
   </g>
   <g id="line2d_25">
    <path clip-path="url(#pf4225993a4)" d="M 57.867273 366.310909 
L 62.761671 362.890891 
L 67.65607 359.470872 
L 72.550468 356.050854 
L 77.444867 352.630836 
L 82.339265 349.210817 
L 87.233664 345.790799 
L 92.128062 342.370781 
L 97.022461 338.950762 
L 101.91686 335.530744 
L 106.811258 332.110725 
L 111.705657 328.690707 
L 116.600055 325.270689 
L 121.494454 321.85067 
L 126.388852 318.430652 
L 131.283251 315.010634 
L 136.177649 311.590615 
L 141.072048 308.170597 
L 145.966446 304.750579 
L 150.860845 301.33056 
L 155.755243 297.910542 
L 160.649642 294.490523 
L 165.54404 291.070505 
L 170.438439 287.650487 
L 175.332837 284.230468 
L 180.227236 280.81045 
L 185.121635 277.390432 
L 190.016033 273.970413 
L 194.910432 270.550395 
L 199.80483 267.130376 
L 204.699229 263.710358 
L 209.593627 260.29034 
L 214.488026 256.870321 
L 219.382424 253.450303 
L 224.276823 250.030285 
L 229.171221 246.610266 
L 234.06562 243.190248 
L 238.960018 239.77023 
L 243.854417 236.350211 
L 248.748815 232.930193 
L 253.643214 229.510174 
L 258.537612 226.090156 
L 263.432011 222.670138 
L 268.32641 219.250119 
L 273.220808 215.830101 
L 278.115207 212.410083 
L 283.009605 208.990064 
L 287.904004 205.570046 
L 292.798402 202.150028 
L 297.692801 198.730009 
L 302.587199 195.309991 
L 307.481598 191.889972 
L 312.375996 188.469954 
L 317.270395 185.049936 
L 322.164793 181.629917 
L 327.059192 178.209899 
L 331.95359 174.789881 
L 336.847989 171.369862 
L 341.742388 167.949844 
L 346.636786 164.529826 
L 351.531185 161.109807 
L 356.425583 157.689789 
L 361.319982 154.26977 
L 366.21438 150.849752 
L 371.108779 147.429734 
L 376.003177 144.009715 
L 380.897576 140.589697 
L 385.791974 137.169679 
L 390.686373 133.74966 
L 395.580771 130.329642 
L 400.47517 126.909624 
L 405.369568 123.489605 
L 410.263967 120.069587 
L 415.158365 116.649568 
L 420.052764 113.22955 
L 424.947163 109.809532 
L 429.841561 106.389513 
L 434.73596 102.969495 
L 439.630358 99.549477 
L 444.524757 96.129458 
L 449.419155 92.70944 
L 454.313554 89.289421 
L 459.207952 85.869403 
L 464.102351 82.449385 
L 468.996749 79.029366 
L 473.891148 75.609348 
L 478.785546 72.18933 
L 483.679945 68.769311 
L 488.574343 65.349293 
L 493.468742 61.929275 
L 498.36314 58.509256 
L 503.257539 55.089238 
L 508.151938 51.669219 
L 513.046336 48.249201 
L 517.940735 44.829183 
L 522.835133 41.409164 
L 527.729532 37.989146 
L 532.62393 34.569128 
L 537.518329 31.149109 
L 542.412727 27.729091 
" style="fill:none;stroke:#1f77b4;stroke-linecap:square;stroke-width:1.5;"/>
   </g>
   <g id="line2d_26">
    <path clip-path="url(#pf4225993a4)" d="M 57.867273 366.310909 
L 62.761671 363.574894 
L 67.65607 360.83888 
L 72.550468 358.102865 
L 77.444867 355.36685 
L 82.339265 352.630836 
L 87.233664 349.894821 
L 92.128062 347.158806 
L 97.022461 344.422792 
L 101.91686 341.686777 
L 106.811258 338.950762 
L 111.705657 336.214747 
L 116.600055 333.478733 
L 121.494454 330.742718 
L 126.388852 328.006703 
L 131.283251 325.270689 
L 136.177649 322.534674 
L 141.072048 319.798659 
L 145.966446 317.062645 
L 150.860845 314.32663 
L 155.755243 311.590615 
L 160.649642 308.854601 
L 165.54404 306.118586 
L 170.438439 303.382571 
L 175.332837 300.646556 
L 180.227236 297.910542 
L 185.121635 295.174527 
L 190.016033 292.438512 
L 194.910432 289.702498 
L 199.80483 286.966483 
L 204.699229 284.230468 
L 209.593627 281.494454 
L 214.488026 278.758439 
L 219.382424 276.022424 
L 224.276823 273.28641 
L 229.171221 270.550395 
L 234.06562 267.81438 
L 238.960018 265.078365 
L 243.854417 262.342351 
L 248.748815 259.606336 
L 253.643214 256.870321 
L 258.537612 254.134307 
L 263.432011 251.398292 
L 268.32641 248.662277 
L 273.220808 245.926263 
L 278.115207 243.190248 
L 283.009605 240.454233 
L 287.904004 237.718219 
L 292.798402 234.982204 
L 297.692801 232.246189 
L 302.587199 229.510174 
L 307.481598 226.77416 
L 312.375996 224.038145 
L 317.270395 221.30213 
L 322.164793 218.566116 
L 327.059192 215.830101 
L 331.95359 213.094086 
L 336.847989 210.358072 
L 341.742388 207.622057 
L 346.636786 204.886042 
L 351.531185 202.150028 
L 356.425583 199.414013 
L 361.319982 196.677998 
L 366.21438 193.941983 
L 371.108779 191.205969 
L 376.003177 188.469954 
L 380.897576 185.733939 
L 385.791974 182.997925 
L 390.686373 180.26191 
L 395.580771 177.525895 
L 400.47517 174.789881 
L 405.369568 172.053866 
L 410.263967 169.317851 
L 415.158365 166.581837 
L 420.052764 163.845822 
L 424.947163 161.109807 
L 429.841561 158.373792 
L 434.73596 155.637778 
L 439.630358 152.901763 
L 444.524757 150.165748 
L 449.419155 147.429734 
L 454.313554 144.693719 
L 459.207952 141.957704 
L 464.102351 139.22169 
L 468.996749 136.485675 
L 473.891148 133.74966 
L 478.785546 131.013646 
L 483.679945 128.277631 
L 488.574343 125.541616 
L 493.468742 122.805601 
L 498.36314 120.069587 
L 503.257539 117.333572 
L 508.151938 114.597557 
L 513.046336 111.861543 
L 517.940735 109.125528 
L 522.835133 106.389513 
L 527.729532 103.653499 
L 532.62393 100.917484 
L 537.518329 98.181469 
L 542.412727 95.445455 
" style="fill:none;stroke:#ff7f0e;stroke-linecap:square;stroke-width:1.5;"/>
   </g>
   <g id="line2d_27">
    <path clip-path="url(#pf4225993a4)" d="M 57.867273 366.310909 
L 62.761671 364.258898 
L 67.65607 362.206887 
L 72.550468 360.154876 
L 77.444867 358.102865 
L 82.339265 356.050854 
L 87.233664 353.998843 
L 92.128062 351.946832 
L 97.022461 349.894821 
L 101.91686 347.84281 
L 106.811258 345.790799 
L 111.705657 343.738788 
L 116.600055 341.686777 
L 121.494454 339.634766 
L 126.388852 337.582755 
L 131.283251 335.530744 
L 136.177649 333.478733 
L 141.072048 331.426722 
L 145.966446 329.374711 
L 150.860845 327.3227 
L 155.755243 325.270689 
L 160.649642 323.218678 
L 165.54404 321.166667 
L 170.438439 319.114656 
L 175.332837 317.062645 
L 180.227236 315.010634 
L 185.121635 312.958623 
L 190.016033 310.906612 
L 194.910432 308.854601 
L 199.80483 306.80259 
L 204.699229 304.750579 
L 209.593627 302.698567 
L 214.488026 300.646556 
L 219.382424 298.594545 
L 224.276823 296.542534 
L 229.171221 294.490523 
L 234.06562 292.438512 
L 238.960018 290.386501 
L 243.854417 288.33449 
L 248.748815 286.282479 
L 253.643214 284.230468 
L 258.537612 282.178457 
L 263.432011 280.126446 
L 268.32641 278.074435 
L 273.220808 276.022424 
L 278.115207 273.970413 
L 283.009605 271.918402 
L 287.904004 269.866391 
L 292.798402 267.81438 
L 297.692801 265.762369 
L 302.587199 263.710358 
L 307.481598 261.658347 
L 312.375996 259.606336 
L 317.270395 257.554325 
L 322.164793 255.502314 
L 327.059192 253.450303 
L 331.95359 251.398292 
L 336.847989 249.346281 
L 341.742388 247.29427 
L 346.636786 245.242259 
L 351.531185 243.190248 
L 356.425583 241.138237 
L 361.319982 239.086226 
L 366.21438 237.034215 
L 371.108779 234.982204 
L 376.003177 232.930193 
L 380.897576 230.878182 
L 385.791974 228.826171 
L 390.686373 226.77416 
L 395.580771 224.722149 
L 400.47517 222.670138 
L 405.369568 220.618127 
L 410.263967 218.566116 
L 415.158365 216.514105 
L 420.052764 214.462094 
L 424.947163 212.410083 
L 429.841561 210.358072 
L 434.73596 208.306061 
L 439.630358 206.25405 
L 444.524757 204.202039 
L 449.419155 202.150028 
L 454.313554 200.098017 
L 459.207952 198.046006 
L 464.102351 195.993994 
L 468.996749 193.941983 
L 473.891148 191.889972 
L 478.785546 189.837961 
L 483.679945 187.78595 
L 488.574343 185.733939 
L 493.468742 183.681928 
L 498.36314 181.629917 
L 503.257539 179.577906 
L 508.151938 177.525895 
L 513.046336 175.473884 
L 517.940735 173.421873 
L 522.835133 171.369862 
L 527.729532 169.317851 
L 532.62393 167.26584 
L 537.518329 165.213829 
L 542.412727 163.161818 
" style="fill:none;stroke:#2ca02c;stroke-linecap:square;stroke-width:1.5;"/>
   </g>
   <g id="line2d_28">
    <path clip-path="url(#pf4225993a4)" d="M 57.867273 366.310909 
L 62.761671 364.942902 
L 67.65607 363.574894 
L 72.550468 362.206887 
L 77.444867 360.83888 
L 82.339265 359.470872 
L 87.233664 358.102865 
L 92.128062 356.734858 
L 97.022461 355.36685 
L 101.91686 353.998843 
L 106.811258 352.630836 
L 111.705657 351.262828 
L 116.600055 349.894821 
L 121.494454 348.526814 
L 126.388852 347.158806 
L 131.283251 345.790799 
L 136.177649 344.422792 
L 141.072048 343.054784 
L 145.966446 341.686777 
L 150.860845 340.31877 
L 155.755243 338.950762 
L 160.649642 337.582755 
L 165.54404 336.214747 
L 170.438439 334.84674 
L 175.332837 333.478733 
L 180.227236 332.110725 
L 185.121635 330.742718 
L 190.016033 329.374711 
L 194.910432 328.006703 
L 199.80483 326.638696 
L 204.699229 325.270689 
L 209.593627 323.902681 
L 214.488026 322.534674 
L 219.382424 321.166667 
L 224.276823 319.798659 
L 229.171221 318.430652 
L 234.06562 317.062645 
L 238.960018 315.694637 
L 243.854417 314.32663 
L 248.748815 312.958623 
L 253.643214 311.590615 
L 258.537612 310.222608 
L 263.432011 308.854601 
L 268.32641 307.486593 
L 273.220808 306.118586 
L 278.115207 304.750579 
L 283.009605 303.382571 
L 287.904004 302.014564 
L 292.798402 300.646556 
L 297.692801 299.278549 
L 302.587199 297.910542 
L 307.481598 296.542534 
L 312.375996 295.174527 
L 317.270395 293.80652 
L 322.164793 292.438512 
L 327.059192 291.070505 
L 331.95359 289.702498 
L 336.847989 288.33449 
L 341.742388 286.966483 
L 346.636786 285.598476 
L 351.531185 284.230468 
L 356.425583 282.862461 
L 361.319982 281.494454 
L 366.21438 280.126446 
L 371.108779 278.758439 
L 376.003177 277.390432 
L 380.897576 276.022424 
L 385.791974 274.654417 
L 390.686373 273.28641 
L 395.580771 271.918402 
L 400.47517 270.550395 
L 405.369568 269.182388 
L 410.263967 267.81438 
L 415.158365 266.446373 
L 420.052764 265.078365 
L 424.947163 263.710358 
L 429.841561 262.342351 
L 434.73596 260.974343 
L 439.630358 259.606336 
L 444.524757 258.238329 
L 449.419155 256.870321 
L 454.313554 255.502314 
L 459.207952 254.134307 
L 464.102351 252.766299 
L 468.996749 251.398292 
L 473.891148 250.030285 
L 478.785546 248.662277 
L 483.679945 247.29427 
L 488.574343 245.926263 
L 493.468742 244.558255 
L 498.36314 243.190248 
L 503.257539 241.822241 
L 508.151938 240.454233 
L 513.046336 239.086226 
L 517.940735 237.718219 
L 522.835133 236.350211 
L 527.729532 234.982204 
L 532.62393 233.614197 
L 537.518329 232.246189 
L 542.412727 230.878182 
" style="fill:none;stroke:#d62728;stroke-linecap:square;stroke-width:1.5;"/>
   </g>
   <g id="line2d_29">
    <path clip-path="url(#pf4225993a4)" d="M 57.867273 366.310909 
L 62.761671 366.276709 
L 67.65607 366.174108 
L 72.550468 366.003107 
L 77.444867 365.763706 
L 82.339265 365.455904 
L 87.233664 365.079702 
L 92.128062 364.6351 
L 97.022461 364.122097 
L 101.91686 363.540694 
L 106.811258 362.890891 
L 111.705657 362.172687 
L 116.600055 361.386083 
L 121.494454 360.531078 
L 126.388852 359.607673 
L 131.283251 358.615868 
L 136.177649 357.555662 
L 141.072048 356.427056 
L 145.966446 355.23005 
L 150.860845 353.964643 
L 155.755243 352.630836 
L 160.649642 351.228628 
L 165.54404 349.75802 
L 170.438439 348.219012 
L 175.332837 346.611603 
L 180.227236 344.935794 
L 185.121635 343.191585 
L 190.016033 341.378975 
L 194.910432 339.497965 
L 199.80483 337.548555 
L 204.699229 335.530744 
L 209.593627 333.444533 
L 214.488026 331.289921 
L 219.382424 329.066909 
L 224.276823 326.775497 
L 229.171221 324.415684 
L 234.06562 321.987471 
L 238.960018 319.490858 
L 243.854417 316.925844 
L 248.748815 314.29243 
L 253.643214 311.590615 
L 258.537612 308.8204 
L 263.432011 305.981785 
L 268.32641 303.07477 
L 273.220808 300.099354 
L 278.115207 297.055537 
L 283.009605 293.94332 
L 287.904004 290.762703 
L 292.798402 287.513686 
L 297.692801 284.196268 
L 302.587199 280.81045 
L 307.481598 277.356231 
L 312.375996 273.833612 
L 317.270395 270.242593 
L 322.164793 266.583174 
L 327.059192 262.855354 
L 331.95359 259.059133 
L 336.847989 255.194512 
L 341.742388 251.261491 
L 346.636786 247.26007 
L 351.531185 243.190248 
L 356.425583 239.052026 
L 361.319982 234.845403 
L 366.21438 230.57038 
L 371.108779 226.226957 
L 376.003177 221.815133 
L 380.897576 217.334909 
L 385.791974 212.786285 
L 390.686373 208.16926 
L 395.580771 203.483835 
L 400.47517 198.730009 
L 405.369568 193.907783 
L 410.263967 189.017157 
L 415.158365 184.05813 
L 420.052764 179.030703 
L 424.947163 173.934876 
L 429.841561 168.770648 
L 434.73596 163.53802 
L 439.630358 158.236992 
L 444.524757 152.867563 
L 449.419155 147.429734 
L 454.313554 141.923504 
L 459.207952 136.348874 
L 464.102351 130.705844 
L 468.996749 124.994413 
L 473.891148 119.214582 
L 478.785546 113.366351 
L 483.679945 107.449719 
L 488.574343 101.464687 
L 493.468742 95.411254 
L 498.36314 89.289421 
L 503.257539 83.099188 
L 508.151938 76.840555 
L 513.046336 70.513521 
L 517.940735 64.118086 
L 522.835133 57.654252 
L 527.729532 51.122017 
L 532.62393 44.521381 
L 537.518329 37.852345 
L 542.412727 31.114909 
" style="fill:none;stroke:#9467bd;stroke-linecap:square;stroke-width:1.5;"/>
   </g>
   <g id="line2d_30">
    <path clip-path="url(#pf4225993a4)" d="M 57.867273 366.310909 
L 62.761671 366.310567 
L 67.65607 366.308173 
L 72.550468 366.301675 
L 77.444867 366.289021 
L 82.339265 366.268159 
L 87.233664 366.237037 
L 92.128062 366.193602 
L 97.022461 366.135804 
L 101.91686 366.06159 
L 106.811258 365.968907 
L 111.705657 365.855705 
L 116.600055 365.71993 
L 121.494454 365.559531 
L 126.388852 365.372456 
L 131.283251 365.156653 
L 136.177649 364.91007 
L 141.072048 364.630654 
L 145.966446 364.316354 
L 150.860845 363.965118 
L 155.755243 363.574894 
L 160.649642 363.14363 
L 165.54404 362.669274 
L 170.438439 362.149773 
L 175.332837 361.583076 
L 180.227236 360.96713 
L 185.121635 360.299885 
L 190.016033 359.579287 
L 194.910432 358.803285 
L 199.80483 357.969826 
L 204.699229 357.07686 
L 209.593627 356.122332 
L 214.488026 355.104193 
L 219.382424 354.020389 
L 224.276823 352.868869 
L 229.171221 351.64758 
L 234.06562 350.354471 
L 238.960018 348.98749 
L 243.854417 347.544584 
L 248.748815 346.023702 
L 253.643214 344.422792 
L 258.537612 342.739801 
L 263.432011 340.972677 
L 268.32641 339.119369 
L 273.220808 337.177825 
L 278.115207 335.145992 
L 283.009605 333.021818 
L 287.904004 330.803252 
L 292.798402 328.488242 
L 297.692801 326.074735 
L 302.587199 323.56068 
L 307.481598 320.944023 
L 312.375996 318.222715 
L 317.270395 315.394702 
L 322.164793 312.457932 
L 327.059192 309.410354 
L 331.95359 306.249915 
L 336.847989 302.974563 
L 341.742388 299.582247 
L 346.636786 296.070914 
L 351.531185 292.438512 
L 356.425583 288.68299 
L 361.319982 284.802295 
L 366.21438 280.794376 
L 371.108779 276.65718 
L 376.003177 272.388655 
L 380.897576 267.986749 
L 385.791974 263.449411 
L 390.686373 258.774588 
L 395.580771 253.960228 
L 400.47517 249.004279 
L 405.369568 243.90469 
L 410.263967 238.659408 
L 415.158365 233.266381 
L 420.052764 227.723557 
L 424.947163 222.028884 
L 429.841561 216.180311 
L 434.73596 210.175785 
L 439.630358 204.013254 
L 444.524757 197.690666 
L 449.419155 191.205969 
L 454.313554 184.557111 
L 459.207952 177.74204 
L 464.102351 170.758705 
L 468.996749 163.605053 
L 473.891148 156.279031 
L 478.785546 148.778589 
L 483.679945 141.101674 
L 488.574343 133.246234 
L 493.468742 125.210216 
L 498.36314 116.99157 
L 503.257539 108.588243 
L 508.151938 99.998183 
L 513.046336 91.219338 
L 517.940735 82.249656 
L 522.835133 73.087084 
L 527.729532 63.729572 
L 532.62393 54.175067 
L 537.518329 44.421517 
L 542.412727 34.466869 
" style="fill:none;stroke:#8c564b;stroke-linecap:square;stroke-width:1.5;"/>
   </g>
   <g id="line2d_31">
    <path clip-path="url(#pf4225993a4)" d="M 57.867273 366.310909 
L 62.761671 364.5838 
L 67.65607 362.82249 
L 72.550468 361.026981 
L 77.444867 359.197271 
L 82.339265 357.333361 
L 87.233664 355.435251 
L 92.128062 353.50294 
L 97.022461 351.53643 
L 101.91686 349.535719 
L 106.811258 347.500808 
L 111.705657 345.431697 
L 116.600055 343.328386 
L 121.494454 341.190874 
L 126.388852 339.019163 
L 131.283251 336.813251 
L 136.177649 334.573139 
L 141.072048 332.298826 
L 145.966446 329.990314 
L 150.860845 327.647601 
L 155.755243 325.270689 
L 160.649642 322.859576 
L 165.54404 320.414263 
L 170.438439 317.934749 
L 175.332837 315.421036 
L 180.227236 312.873122 
L 185.121635 310.291008 
L 190.016033 307.674694 
L 194.910432 305.02418 
L 199.80483 302.339466 
L 204.699229 299.620551 
L 209.593627 296.867436 
L 214.488026 294.080121 
L 219.382424 291.258606 
L 224.276823 288.402891 
L 229.171221 285.512975 
L 234.06562 282.58886 
L 238.960018 279.630544 
L 243.854417 276.638028 
L 248.748815 273.611311 
L 253.643214 270.550395 
L 258.537612 267.455278 
L 263.432011 264.325961 
L 268.32641 261.162444 
L 273.220808 257.964727 
L 278.115207 254.73281 
L 283.009605 251.466692 
L 287.904004 248.166375 
L 292.798402 244.831857 
L 297.692801 241.463139 
L 302.587199 238.06022 
L 307.481598 234.623102 
L 312.375996 231.151783 
L 317.270395 227.646264 
L 322.164793 224.106545 
L 327.059192 220.532626 
L 331.95359 216.924507 
L 336.847989 213.282187 
L 341.742388 209.605668 
L 346.636786 205.894948 
L 351.531185 202.150028 
L 356.425583 198.370907 
L 361.319982 194.557587 
L 366.21438 190.710066 
L 371.108779 186.828345 
L 376.003177 182.912424 
L 380.897576 178.962303 
L 385.791974 174.977982 
L 390.686373 170.95946 
L 395.580771 166.906738 
L 400.47517 162.819816 
L 405.369568 158.698694 
L 410.263967 154.543372 
L 415.158365 150.353849 
L 420.052764 146.130127 
L 424.947163 141.872204 
L 429.841561 137.580081 
L 434.73596 133.253758 
L 439.630358 128.893234 
L 444.524757 124.498511 
L 449.419155 120.069587 
L 454.313554 115.606463 
L 459.207952 111.109139 
L 464.102351 106.577614 
L 468.996749 102.01189 
L 473.891148 97.411965 
L 478.785546 92.77784 
L 483.679945 88.109515 
L 488.574343 83.40699 
L 493.468742 78.670264 
L 498.36314 73.899339 
L 503.257539 69.094213 
L 508.151938 64.254887 
L 513.046336 59.381361 
L 517.940735 54.473635 
L 522.835133 49.531708 
L 527.729532 44.555581 
L 532.62393 39.545254 
L 537.518329 34.500727 
L 542.412727 29.422 
" style="fill:none;stroke:#e377c2;stroke-linecap:square;stroke-width:1.5;"/>
   </g>
   <g id="line2d_32">
    <path clip-path="url(#pf4225993a4)" d="M 57.867273 366.310909 
L 62.761671 364.756511 
L 67.65607 363.171332 
L 72.550468 361.555374 
L 77.444867 359.908635 
L 82.339265 358.231116 
L 87.233664 356.522817 
L 92.128062 354.783737 
L 97.022461 353.013878 
L 101.91686 351.213238 
L 106.811258 349.381818 
L 111.705657 347.519618 
L 116.600055 345.626638 
L 121.494454 343.702878 
L 126.388852 341.748337 
L 131.283251 339.763017 
L 136.177649 337.746916 
L 141.072048 335.700035 
L 145.966446 333.622374 
L 150.860845 331.513932 
L 155.755243 329.374711 
L 160.649642 327.204709 
L 165.54404 325.003927 
L 170.438439 322.772365 
L 175.332837 320.510023 
L 180.227236 318.216901 
L 185.121635 315.892998 
L 190.016033 313.538316 
L 194.910432 311.152853 
L 199.80483 308.73661 
L 204.699229 306.289587 
L 209.593627 303.811783 
L 214.488026 301.3032 
L 219.382424 298.763836 
L 224.276823 296.193693 
L 229.171221 293.592769 
L 234.06562 290.961064 
L 238.960018 288.29858 
L 243.854417 285.605316 
L 248.748815 282.881271 
L 253.643214 280.126446 
L 258.537612 277.340841 
L 263.432011 274.524456 
L 268.32641 271.677291 
L 273.220808 268.799345 
L 278.115207 265.89062 
L 283.009605 262.951114 
L 287.904004 259.980828 
L 292.798402 256.979762 
L 297.692801 253.947916 
L 302.587199 250.885289 
L 307.481598 247.791883 
L 312.375996 244.667696 
L 317.270395 241.512729 
L 322.164793 238.326982 
L 327.059192 235.110455 
L 331.95359 231.863147 
L 336.847989 228.58506 
L 341.742388 225.276192 
L 346.636786 221.936544 
L 351.531185 218.566116 
L 356.425583 215.164907 
L 361.319982 211.732919 
L 366.21438 208.27015 
L 371.108779 204.776602 
L 376.003177 201.252273 
L 380.897576 197.697164 
L 385.791974 194.111274 
L 390.686373 190.494605 
L 395.580771 186.847155 
L 400.47517 183.168926 
L 405.369568 179.459916 
L 410.263967 175.720126 
L 415.158365 171.949555 
L 420.052764 168.148205 
L 424.947163 164.316074 
L 429.841561 160.453164 
L 434.73596 156.559473 
L 439.630358 152.635002 
L 444.524757 148.67975 
L 449.419155 144.693719 
L 454.313554 140.676907 
L 459.207952 136.629316 
L 464.102351 132.550944 
L 468.996749 128.441792 
L 473.891148 124.30186 
L 478.785546 120.131147 
L 483.679945 115.929655 
L 488.574343 111.697382 
L 493.468742 107.434329 
L 498.36314 103.140496 
L 503.257539 98.815883 
L 508.151938 94.460489 
L 513.046336 90.074316 
L 517.940735 85.657362 
L 522.835133 81.209628 
L 527.729532 76.731114 
L 532.62393 72.22182 
L 537.518329 67.681745 
L 542.412727 63.110891 
" style="fill:none;stroke:#7f7f7f;stroke-linecap:square;stroke-width:1.5;"/>
   </g>
   <g id="line2d_33">
    <path clip-path="url(#pf4225993a4)" d="M 57.867273 366.310909 
L 62.761671 364.929222 
L 67.65607 363.520174 
L 72.550468 362.083766 
L 77.444867 360.619999 
L 82.339265 359.128871 
L 87.233664 357.610382 
L 92.128062 356.064534 
L 97.022461 354.491326 
L 101.91686 352.890757 
L 106.811258 351.262828 
L 111.705657 349.607539 
L 116.600055 347.92489 
L 121.494454 346.214881 
L 126.388852 344.477512 
L 131.283251 342.712782 
L 136.177649 340.920693 
L 141.072048 339.101243 
L 145.966446 337.254433 
L 150.860845 335.380263 
L 155.755243 333.478733 
L 160.649642 331.549842 
L 165.54404 329.593592 
L 170.438439 327.609981 
L 175.332837 325.59901 
L 180.227236 323.56068 
L 185.121635 321.494988 
L 190.016033 319.401937 
L 194.910432 317.281526 
L 199.80483 315.133754 
L 204.699229 312.958623 
L 209.593627 310.756131 
L 214.488026 308.526279 
L 219.382424 306.269067 
L 224.276823 303.984494 
L 229.171221 301.672562 
L 234.06562 299.333269 
L 238.960018 296.966617 
L 243.854417 294.572604 
L 248.748815 292.151231 
L 253.643214 289.702498 
L 258.537612 287.226404 
L 263.432011 284.722951 
L 268.32641 282.192137 
L 273.220808 279.633964 
L 278.115207 277.04843 
L 283.009605 274.435536 
L 287.904004 271.795282 
L 292.798402 269.127667 
L 297.692801 266.432693 
L 302.587199 263.710358 
L 307.481598 260.960663 
L 312.375996 258.183608 
L 317.270395 255.379193 
L 322.164793 252.547418 
L 327.059192 249.688283 
L 331.95359 246.801787 
L 336.847989 243.887932 
L 341.742388 240.946716 
L 346.636786 237.97814 
L 351.531185 234.982204 
L 356.425583 231.958908 
L 361.319982 228.908251 
L 366.21438 225.830235 
L 371.108779 222.724858 
L 376.003177 219.592121 
L 380.897576 216.432024 
L 385.791974 213.244567 
L 390.686373 210.02975 
L 395.580771 206.787572 
L 400.47517 203.518035 
L 405.369568 200.221137 
L 410.263967 196.896879 
L 415.158365 193.545261 
L 420.052764 190.166283 
L 424.947163 186.759945 
L 429.841561 183.326246 
L 434.73596 179.865188 
L 439.630358 176.376769 
L 444.524757 172.86099 
L 449.419155 169.317851 
L 454.313554 165.747352 
L 459.207952 162.149493 
L 464.102351 158.524273 
L 468.996749 154.871694 
L 473.891148 151.191754 
L 478.785546 147.484454 
L 483.679945 143.749794 
L 488.574343 139.987774 
L 493.468742 136.198393 
L 498.36314 132.381653 
L 503.257539 128.537552 
L 508.151938 124.666091 
L 513.046336 120.767271 
L 517.940735 116.841089 
L 522.835133 112.887548 
L 527.729532 108.906647 
L 532.62393 104.898385 
L 537.518329 100.862764 
L 542.412727 96.799782 
" style="fill:none;stroke:#bcbd22;stroke-linecap:square;stroke-width:1.5;"/>
   </g>
   <g id="line2d_34">
    <path clip-path="url(#pf4225993a4)" d="M 57.867273 366.310909 
L 62.761671 364.771747 
L 67.65607 363.231661 
L 72.550468 361.689729 
L 77.444867 360.145026 
L 82.339265 358.59663 
L 87.233664 357.043617 
L 92.128062 355.485063 
L 97.022461 353.920046 
L 101.91686 352.347641 
L 106.811258 350.766926 
L 111.705657 349.176976 
L 116.600055 347.576869 
L 121.494454 345.965682 
L 126.388852 344.34249 
L 131.283251 342.70637 
L 136.177649 341.056399 
L 141.072048 339.391654 
L 145.966446 337.711211 
L 150.860845 336.014146 
L 155.755243 334.299537 
L 160.649642 332.56646 
L 165.54404 330.813991 
L 170.438439 329.041208 
L 175.332837 327.247186 
L 180.227236 325.431002 
L 185.121635 323.591733 
L 190.016033 321.728456 
L 194.910432 319.840247 
L 199.80483 317.926182 
L 204.699229 315.985339 
L 209.593627 314.016793 
L 214.488026 312.019622 
L 219.382424 309.992902 
L 224.276823 307.93571 
L 229.171221 305.847122 
L 234.06562 303.726215 
L 238.960018 301.572065 
L 243.854417 299.383749 
L 248.748815 297.160344 
L 253.643214 294.900926 
L 258.537612 292.604571 
L 263.432011 290.270358 
L 268.32641 287.897361 
L 273.220808 285.484657 
L 278.115207 283.031324 
L 283.009605 280.536438 
L 287.904004 277.999075 
L 292.798402 275.418312 
L 297.692801 272.793226 
L 302.587199 270.122893 
L 307.481598 267.406389 
L 312.375996 264.642792 
L 317.270395 261.831178 
L 322.164793 258.970623 
L 327.059192 256.060205 
L 331.95359 253.098999 
L 336.847989 250.086082 
L 341.742388 247.020532 
L 346.636786 243.901424 
L 351.531185 240.727835 
L 356.425583 237.498841 
L 361.319982 234.213521 
L 366.21438 230.870948 
L 371.108779 227.470202 
L 376.003177 224.010357 
L 380.897576 220.490492 
L 385.791974 216.909681 
L 390.686373 213.267002 
L 395.580771 209.561532 
L 400.47517 205.792347 
L 405.369568 201.958524 
L 410.263967 198.059138 
L 415.158365 194.093268 
L 420.052764 190.059989 
L 424.947163 185.958378 
L 429.841561 181.787512 
L 434.73596 177.546467 
L 439.630358 173.234319 
L 444.524757 168.850147 
L 449.419155 164.393025 
L 454.313554 159.862031 
L 459.207952 155.256241 
L 464.102351 150.574731 
L 468.996749 145.816579 
L 473.891148 140.980862 
L 478.785546 136.066654 
L 483.679945 131.073034 
L 488.574343 125.999078 
L 493.468742 120.843862 
L 498.36314 115.606463 
L 503.257539 110.285957 
L 508.151938 104.881422 
L 513.046336 99.391933 
L 517.940735 93.816568 
L 522.835133 88.154403 
L 527.729532 82.404514 
L 532.62393 76.565978 
L 537.518329 70.637873 
L 542.412727 64.619273 
" style="fill:none;stroke:#17becf;stroke-linecap:square;stroke-width:1.5;"/>
   </g>
   <g id="line2d_35">
    <path clip-path="url(#pf4225993a4)" d="M 57.867273 366.310909 
L 62.761671 364.942765 
L 67.65607 363.5738 
L 72.550468 362.203193 
L 77.444867 360.830124 
L 82.339265 359.453772 
L 87.233664 358.073316 
L 92.128062 356.687935 
L 97.022461 355.296808 
L 101.91686 353.899115 
L 106.811258 352.494035 
L 111.705657 351.080747 
L 116.600055 349.658429 
L 121.494454 348.226262 
L 126.388852 346.783425 
L 131.283251 345.329096 
L 136.177649 343.862456 
L 141.072048 342.382682 
L 145.966446 340.888955 
L 150.860845 339.380453 
L 155.755243 337.856356 
L 160.649642 336.315843 
L 165.54404 334.758093 
L 170.438439 333.182286 
L 175.332837 331.587599 
L 180.227236 329.973214 
L 185.121635 328.338308 
L 190.016033 326.682062 
L 194.910432 325.003654 
L 199.80483 323.302263 
L 204.699229 321.577069 
L 209.593627 319.827251 
L 214.488026 318.051988 
L 219.382424 316.250459 
L 224.276823 314.421843 
L 229.171221 312.56532 
L 234.06562 310.68007 
L 238.960018 308.76527 
L 243.854417 306.8201 
L 248.748815 304.84374 
L 253.643214 302.835368 
L 258.537612 300.794164 
L 263.432011 298.719308 
L 268.32641 296.609977 
L 273.220808 294.465352 
L 278.115207 292.284612 
L 283.009605 290.066935 
L 287.904004 287.811501 
L 292.798402 285.51749 
L 297.692801 283.18408 
L 302.587199 280.81045 
L 307.481598 278.39578 
L 312.375996 275.939249 
L 317.270395 273.440037 
L 322.164793 270.897322 
L 327.059192 268.310283 
L 331.95359 265.6781 
L 336.847989 262.999952 
L 341.742388 260.275018 
L 346.636786 257.502478 
L 351.531185 254.68151 
L 356.425583 251.811293 
L 361.319982 248.891008 
L 366.21438 245.919833 
L 371.108779 242.896947 
L 376.003177 239.82153 
L 380.897576 236.69276 
L 385.791974 233.509818 
L 390.686373 230.271881 
L 395.580771 226.97813 
L 400.47517 223.627743 
L 405.369568 220.2199 
L 410.263967 216.75378 
L 415.158365 213.228561 
L 420.052764 209.643425 
L 424.947163 205.997548 
L 429.841561 202.290112 
L 434.73596 198.520294 
L 439.630358 194.687274 
L 444.524757 190.790231 
L 449.419155 186.828345 
L 454.313554 182.800795 
L 459.207952 178.706759 
L 464.102351 174.545418 
L 468.996749 170.315949 
L 473.891148 166.017534 
L 478.785546 161.649349 
L 483.679945 157.210576 
L 488.574343 152.700392 
L 493.468742 148.117978 
L 498.36314 143.462512 
L 503.257539 138.733174 
L 508.151938 133.929143 
L 513.046336 129.049597 
L 517.940735 124.093717 
L 522.835133 119.060681 
L 527.729532 113.949669 
L 532.62393 108.75986 
L 537.518329 103.490432 
L 542.412727 98.140566 
" style="fill:none;stroke:#1f77b4;stroke-linecap:square;stroke-width:1.5;"/>
   </g>
   <g id="line2d_36">
    <path clip-path="url(#pf4225993a4)" d="M 57.867273 366.310909 
L 62.761671 365.274541 
L 67.65607 364.217037 
L 72.550468 363.137782 
L 77.444867 362.03616 
L 82.339265 360.911555 
L 87.233664 359.763352 
L 92.128062 358.590936 
L 97.022461 357.39369 
L 101.91686 356.170999 
L 106.811258 354.922248 
L 111.705657 353.64682 
L 116.600055 352.344101 
L 121.494454 351.013475 
L 126.388852 349.654325 
L 131.283251 348.266037 
L 136.177649 346.847995 
L 141.072048 345.399583 
L 145.966446 343.920186 
L 150.860845 342.409187 
L 155.755243 340.865972 
L 160.649642 339.289925 
L 165.54404 337.680431 
L 170.438439 336.036872 
L 175.332837 334.358635 
L 180.227236 332.645103 
L 185.121635 330.895661 
L 190.016033 329.109694 
L 194.910432 327.286584 
L 199.80483 325.425718 
L 204.699229 323.526479 
L 209.593627 321.588252 
L 214.488026 319.610422 
L 219.382424 317.592371 
L 224.276823 315.533486 
L 229.171221 313.43315 
L 234.06562 311.290748 
L 238.960018 309.105664 
L 243.854417 306.877283 
L 248.748815 304.604988 
L 253.643214 302.288165 
L 258.537612 299.926198 
L 263.432011 297.518471 
L 268.32641 295.064368 
L 273.220808 292.563275 
L 278.115207 290.014574 
L 283.009605 287.417652 
L 287.904004 284.771891 
L 292.798402 282.076678 
L 297.692801 279.331395 
L 302.587199 276.535427 
L 307.481598 273.688159 
L 312.375996 270.788975 
L 317.270395 267.83726 
L 322.164793 264.832398 
L 327.059192 261.773773 
L 331.95359 258.660769 
L 336.847989 255.492772 
L 341.742388 252.269165 
L 346.636786 248.989334 
L 351.531185 245.652661 
L 356.425583 242.258532 
L 361.319982 238.806332 
L 366.21438 235.295443 
L 371.108779 231.725252 
L 376.003177 228.095142 
L 380.897576 224.404497 
L 385.791974 220.652703 
L 390.686373 216.839143 
L 395.580771 212.963202 
L 400.47517 209.024264 
L 405.369568 205.021714 
L 410.263967 200.954936 
L 415.158365 196.823315 
L 420.052764 192.626234 
L 424.947163 188.363079 
L 429.841561 184.033233 
L 434.73596 179.636081 
L 439.630358 175.171007 
L 444.524757 170.637397 
L 449.419155 166.034634 
L 454.313554 161.362102 
L 459.207952 156.619186 
L 464.102351 151.805271 
L 468.996749 146.919741 
L 473.891148 141.961979 
L 478.785546 136.931372 
L 483.679945 131.827302 
L 488.574343 126.649155 
L 493.468742 121.396315 
L 498.36314 116.068165 
L 503.257539 110.664092 
L 508.151938 105.183478 
L 513.046336 99.625709 
L 517.940735 93.990168 
L 522.835133 88.276241 
L 527.729532 82.483311 
L 532.62393 76.610764 
L 537.518329 70.657982 
L 542.412727 64.624352 
" style="fill:none;stroke:#ff7f0e;stroke-linecap:square;stroke-width:1.5;"/>
   </g>
   <g id="line2d_37">
    <path clip-path="url(#pf4225993a4)" d="M 57.867273 366.310909 
L 62.761671 365.389693 
L 67.65607 364.449689 
L 72.550468 363.490352 
L 77.444867 362.511132 
L 82.339265 361.511483 
L 87.233664 360.490859 
L 92.128062 359.448711 
L 97.022461 358.384492 
L 101.91686 357.297656 
L 106.811258 356.187655 
L 111.705657 355.053941 
L 116.600055 353.895969 
L 121.494454 352.71319 
L 126.388852 351.505057 
L 131.283251 350.271023 
L 136.177649 349.010541 
L 141.072048 347.723064 
L 145.966446 346.408044 
L 150.860845 345.064934 
L 155.755243 343.693188 
L 160.649642 342.292257 
L 165.54404 340.861595 
L 170.438439 339.400654 
L 175.332837 337.908888 
L 180.227236 336.385748 
L 185.121635 334.830689 
L 190.016033 333.243162 
L 194.910432 331.62262 
L 199.80483 329.968517 
L 204.699229 328.280305 
L 209.593627 326.557436 
L 214.488026 324.799365 
L 219.382424 323.005542 
L 224.276823 321.175422 
L 229.171221 319.308457 
L 234.06562 317.404099 
L 238.960018 315.461802 
L 243.854417 313.481019 
L 248.748815 311.461202 
L 253.643214 309.401803 
L 258.537612 307.302277 
L 263.432011 305.162075 
L 268.32641 302.980651 
L 273.220808 300.757456 
L 278.115207 298.491945 
L 283.009605 296.183569 
L 287.904004 293.831782 
L 292.798402 291.436037 
L 297.692801 288.995785 
L 302.587199 286.510481 
L 307.481598 283.979576 
L 312.375996 281.402524 
L 317.270395 278.778777 
L 322.164793 276.107788 
L 327.059192 273.38901 
L 331.95359 270.621896 
L 336.847989 267.805899 
L 341.742388 264.94047 
L 346.636786 262.025064 
L 351.531185 259.059133 
L 356.425583 256.04213 
L 361.319982 252.973507 
L 366.21438 249.852717 
L 371.108779 246.679214 
L 376.003177 243.452449 
L 380.897576 240.171877 
L 385.791974 236.836948 
L 390.686373 233.447117 
L 395.580771 230.001836 
L 400.47517 226.500558 
L 405.369568 222.942736 
L 410.263967 219.327822 
L 415.158365 215.65527 
L 420.052764 211.924531 
L 424.947163 208.13506 
L 429.841561 204.286308 
L 434.73596 200.377728 
L 439.630358 196.408774 
L 444.524757 192.378898 
L 449.419155 188.287553 
L 454.313554 184.134192 
L 459.207952 179.918267 
L 464.102351 175.639231 
L 468.996749 171.296537 
L 473.891148 166.889638 
L 478.785546 162.417987 
L 483.679945 157.881036 
L 488.574343 153.278239 
L 493.468742 148.609047 
L 498.36314 143.872915 
L 503.257539 139.069294 
L 508.151938 134.197637 
L 513.046336 129.257398 
L 517.940735 124.248028 
L 522.835133 119.168982 
L 527.729532 114.019711 
L 532.62393 108.799669 
L 537.518329 103.508307 
L 542.412727 98.14508 
" style="fill:none;stroke:#2ca02c;stroke-linecap:square;stroke-width:1.5;"/>
   </g>
   <g id="line2d_38">
    <path clip-path="url(#pf4225993a4)" d="M 57.867273 366.310909 
L 62.761671 365.609805 
L 67.65607 364.874501 
L 72.550468 364.104997 
L 77.444867 363.301293 
L 82.339265 362.463388 
L 87.233664 361.591284 
L 92.128062 360.684979 
L 97.022461 359.744474 
L 101.91686 358.769769 
L 106.811258 357.760863 
L 111.705657 356.717758 
L 116.600055 355.640452 
L 121.494454 354.528946 
L 126.388852 353.38324 
L 131.283251 352.203333 
L 136.177649 350.989227 
L 141.072048 349.74092 
L 145.966446 348.458413 
L 150.860845 347.141706 
L 155.755243 345.790799 
L 160.649642 344.405691 
L 165.54404 342.986384 
L 170.438439 341.532876 
L 175.332837 340.045168 
L 180.227236 338.52326 
L 185.121635 336.967152 
L 190.016033 335.376843 
L 194.910432 333.752334 
L 199.80483 332.093625 
L 204.699229 330.400716 
L 209.593627 328.673607 
L 214.488026 326.912298 
L 219.382424 325.116788 
L 224.276823 323.287078 
L 229.171221 321.423168 
L 234.06562 319.525058 
L 238.960018 317.592747 
L 243.854417 315.626237 
L 248.748815 313.625526 
L 253.643214 311.590615 
L 258.537612 309.521504 
L 263.432011 307.418193 
L 268.32641 305.280681 
L 273.220808 303.10897 
L 278.115207 300.903058 
L 283.009605 298.662946 
L 287.904004 296.388634 
L 292.798402 294.080121 
L 297.692801 291.737409 
L 302.587199 289.360496 
L 307.481598 286.949383 
L 312.375996 284.50407 
L 317.270395 282.024556 
L 322.164793 279.510843 
L 327.059192 276.962929 
L 331.95359 274.380815 
L 336.847989 271.764501 
L 341.742388 269.113987 
L 346.636786 266.429273 
L 351.531185 263.710358 
L 356.425583 260.957243 
L 361.319982 258.169928 
L 366.21438 255.348413 
L 371.108779 252.492698 
L 376.003177 249.602782 
L 380.897576 246.678667 
L 385.791974 243.720351 
L 390.686373 240.727835 
L 395.580771 237.701118 
L 400.47517 234.640202 
L 405.369568 231.545085 
L 410.263967 228.415769 
L 415.158365 225.252252 
L 420.052764 222.054534 
L 424.947163 218.822617 
L 429.841561 215.5565 
L 434.73596 212.256182 
L 439.630358 208.921664 
L 444.524757 205.552946 
L 449.419155 202.150028 
L 454.313554 198.712909 
L 459.207952 195.24159 
L 464.102351 191.736072 
L 468.996749 188.196353 
L 473.891148 184.622433 
L 478.785546 181.014314 
L 483.679945 177.371994 
L 488.574343 173.695475 
L 493.468742 169.984755 
L 498.36314 166.239835 
L 503.257539 162.460714 
L 508.151938 158.647394 
L 513.046336 154.799873 
L 517.940735 150.918152 
L 522.835133 147.002231 
L 527.729532 143.05211 
L 532.62393 139.067789 
L 537.518329 135.049267 
L 542.412727 130.996545 
" style="fill:none;stroke:#d62728;stroke-linecap:square;stroke-width:1.5;"/>
   </g>
   <g id="patch_3">
    <path d="M 33.64 383.24 
L 33.64 10.8 
" style="fill:none;stroke:#000000;stroke-linecap:square;stroke-linejoin:miter;stroke-width:0.8;"/>
   </g>
   <g id="patch_4">
    <path d="M 566.64 383.24 
L 566.64 10.8 
" style="fill:none;stroke:#000000;stroke-linecap:square;stroke-linejoin:miter;stroke-width:0.8;"/>
   </g>
   <g id="patch_5">
    <path d="M 33.64 383.24 
L 566.64 383.24 
" style="fill:none;stroke:#000000;stroke-linecap:square;stroke-linejoin:miter;stroke-width:0.8;"/>
   </g>
   <g id="patch_6">
    <path d="M 33.64 10.8 
L 566.64 10.8 
" style="fill:none;stroke:#000000;stroke-linecap:square;stroke-linejoin:miter;stroke-width:0.8;"/>
   </g>
   <g id="legend_1">
    <g id="patch_7">
     <path d="M 40.64 224.29375 
L 234.211875 224.29375 
Q 236.211875 224.29375 236.211875 222.29375 
L 236.211875 17.8 
Q 236.211875 15.8 234.211875 15.8 
L 40.64 15.8 
Q 38.64 15.8 38.64 17.8 
L 38.64 222.29375 
Q 38.64 224.29375 40.64 224.29375 
z
" style="fill:#ffffff;opacity:0.8;stroke:#cccccc;stroke-linejoin:miter;"/>
    </g>
    <g id="line2d_39">
     <path d="M 42.64 23.898438 
L 62.64 23.898438 
" style="fill:none;stroke:#1f77b4;stroke-linecap:square;stroke-width:1.5;"/>
    </g>
    <g id="line2d_40"/>
    <g id="text_13">
     <!-- xx -->
     <defs>
      <path d="M 54.890625 54.6875 
L 35.109375 28.078125 
L 55.90625 0 
L 45.3125 0 
L 29.390625 21.484375 
L 13.484375 0 
L 2.875 0 
L 24.125 28.609375 
L 4.6875 54.6875 
L 15.28125 54.6875 
L 29.78125 35.203125 
L 44.28125 54.6875 
z
" id="DejaVuSans-120"/>
     </defs>
     <g transform="translate(70.64 27.398438)scale(0.1 -0.1)">
      <use xlink:href="#DejaVuSans-120"/>
      <use x="59.179688" xlink:href="#DejaVuSans-120"/>
     </g>
    </g>
    <g id="line2d_41">
     <path d="M 42.64 38.576563 
L 62.64 38.576563 
" style="fill:none;stroke:#ff7f0e;stroke-linecap:square;stroke-width:1.5;"/>
    </g>
    <g id="line2d_42"/>
    <g id="text_14">
     <!-- xx * 0.8 -->
     <defs>
      <path id="DejaVuSans-32"/>
      <path d="M 47.015625 60.890625 
L 29.5 51.421875 
L 47.015625 41.890625 
L 44.1875 37.109375 
L 27.78125 47.015625 
L 27.78125 28.609375 
L 22.21875 28.609375 
L 22.21875 47.015625 
L 5.8125 37.109375 
L 2.984375 41.890625 
L 20.515625 51.421875 
L 2.984375 60.890625 
L 5.8125 65.71875 
L 22.21875 55.8125 
L 22.21875 74.21875 
L 27.78125 74.21875 
L 27.78125 55.8125 
L 44.1875 65.71875 
z
" id="DejaVuSans-42"/>
     </defs>
     <g transform="translate(70.64 42.076563)scale(0.1 -0.1)">
      <use xlink:href="#DejaVuSans-120"/>
      <use x="59.179688" xlink:href="#DejaVuSans-120"/>
      <use x="118.359375" xlink:href="#DejaVuSans-32"/>
      <use x="150.146484" xlink:href="#DejaVuSans-42"/>
      <use x="200.146484" xlink:href="#DejaVuSans-32"/>
      <use x="231.933594" xlink:href="#DejaVuSans-48"/>
      <use x="295.556641" xlink:href="#DejaVuSans-46"/>
      <use x="327.34375" xlink:href="#DejaVuSans-56"/>
     </g>
    </g>
    <g id="line2d_43">
     <path d="M 42.64 53.254688 
L 62.64 53.254688 
" style="fill:none;stroke:#2ca02c;stroke-linecap:square;stroke-width:1.5;"/>
    </g>
    <g id="line2d_44"/>
    <g id="text_15">
     <!-- xx * 0.6 -->
     <g transform="translate(70.64 56.754688)scale(0.1 -0.1)">
      <use xlink:href="#DejaVuSans-120"/>
      <use x="59.179688" xlink:href="#DejaVuSans-120"/>
      <use x="118.359375" xlink:href="#DejaVuSans-32"/>
      <use x="150.146484" xlink:href="#DejaVuSans-42"/>
      <use x="200.146484" xlink:href="#DejaVuSans-32"/>
      <use x="231.933594" xlink:href="#DejaVuSans-48"/>
      <use x="295.556641" xlink:href="#DejaVuSans-46"/>
      <use x="327.34375" xlink:href="#DejaVuSans-54"/>
     </g>
    </g>
    <g id="line2d_45">
     <path d="M 42.64 67.932813 
L 62.64 67.932813 
" style="fill:none;stroke:#d62728;stroke-linecap:square;stroke-width:1.5;"/>
    </g>
    <g id="line2d_46"/>
    <g id="text_16">
     <!-- xx * 0.4 -->
     <g transform="translate(70.64 71.432813)scale(0.1 -0.1)">
      <use xlink:href="#DejaVuSans-120"/>
      <use x="59.179688" xlink:href="#DejaVuSans-120"/>
      <use x="118.359375" xlink:href="#DejaVuSans-32"/>
      <use x="150.146484" xlink:href="#DejaVuSans-42"/>
      <use x="200.146484" xlink:href="#DejaVuSans-32"/>
      <use x="231.933594" xlink:href="#DejaVuSans-48"/>
      <use x="295.556641" xlink:href="#DejaVuSans-46"/>
      <use x="327.34375" xlink:href="#DejaVuSans-52"/>
     </g>
    </g>
    <g id="line2d_47">
     <path d="M 42.64 82.610937 
L 62.64 82.610937 
" style="fill:none;stroke:#9467bd;stroke-linecap:square;stroke-width:1.5;"/>
    </g>
    <g id="line2d_48"/>
    <g id="text_17">
     <!-- xx ** 2 -->
     <g transform="translate(70.64 86.110937)scale(0.1 -0.1)">
      <use xlink:href="#DejaVuSans-120"/>
      <use x="59.179688" xlink:href="#DejaVuSans-120"/>
      <use x="118.359375" xlink:href="#DejaVuSans-32"/>
      <use x="150.146484" xlink:href="#DejaVuSans-42"/>
      <use x="200.146484" xlink:href="#DejaVuSans-42"/>
      <use x="250.146484" xlink:href="#DejaVuSans-32"/>
      <use x="281.933594" xlink:href="#DejaVuSans-50"/>
     </g>
    </g>
    <g id="line2d_49">
     <path d="M 42.64 97.289062 
L 62.64 97.289062 
" style="fill:none;stroke:#8c564b;stroke-linecap:square;stroke-width:1.5;"/>
    </g>
    <g id="line2d_50"/>
    <g id="text_18">
     <!-- xx ** 3 -->
     <defs>
      <path d="M 40.578125 39.3125 
Q 47.65625 37.796875 51.625 33 
Q 55.609375 28.21875 55.609375 21.1875 
Q 55.609375 10.40625 48.1875 4.484375 
Q 40.765625 -1.421875 27.09375 -1.421875 
Q 22.515625 -1.421875 17.65625 -0.515625 
Q 12.796875 0.390625 7.625 2.203125 
L 7.625 11.71875 
Q 11.71875 9.328125 16.59375 8.109375 
Q 21.484375 6.890625 26.8125 6.890625 
Q 36.078125 6.890625 40.9375 10.546875 
Q 45.796875 14.203125 45.796875 21.1875 
Q 45.796875 27.640625 41.28125 31.265625 
Q 36.765625 34.90625 28.71875 34.90625 
L 20.21875 34.90625 
L 20.21875 43.015625 
L 29.109375 43.015625 
Q 36.375 43.015625 40.234375 45.921875 
Q 44.09375 48.828125 44.09375 54.296875 
Q 44.09375 59.90625 40.109375 62.90625 
Q 36.140625 65.921875 28.71875 65.921875 
Q 24.65625 65.921875 20.015625 65.03125 
Q 15.375 64.15625 9.8125 62.3125 
L 9.8125 71.09375 
Q 15.4375 72.65625 20.34375 73.4375 
Q 25.25 74.21875 29.59375 74.21875 
Q 40.828125 74.21875 47.359375 69.109375 
Q 53.90625 64.015625 53.90625 55.328125 
Q 53.90625 49.265625 50.4375 45.09375 
Q 46.96875 40.921875 40.578125 39.3125 
z
" id="DejaVuSans-51"/>
     </defs>
     <g transform="translate(70.64 100.789062)scale(0.1 -0.1)">
      <use xlink:href="#DejaVuSans-120"/>
      <use x="59.179688" xlink:href="#DejaVuSans-120"/>
      <use x="118.359375" xlink:href="#DejaVuSans-32"/>
      <use x="150.146484" xlink:href="#DejaVuSans-42"/>
      <use x="200.146484" xlink:href="#DejaVuSans-42"/>
      <use x="250.146484" xlink:href="#DejaVuSans-32"/>
      <use x="281.933594" xlink:href="#DejaVuSans-51"/>
     </g>
    </g>
    <g id="line2d_51">
     <path d="M 42.64 111.967188 
L 62.64 111.967188 
" style="fill:none;stroke:#e377c2;stroke-linecap:square;stroke-width:1.5;"/>
    </g>
    <g id="line2d_52"/>
    <g id="text_19">
     <!-- (xx ** 2 + xx) / 2 -->
     <defs>
      <path d="M 31 75.875 
Q 24.46875 64.65625 21.28125 53.65625 
Q 18.109375 42.671875 18.109375 31.390625 
Q 18.109375 20.125 21.3125 9.0625 
Q 24.515625 -2 31 -13.1875 
L 23.1875 -13.1875 
Q 15.875 -1.703125 12.234375 9.375 
Q 8.59375 20.453125 8.59375 31.390625 
Q 8.59375 42.28125 12.203125 53.3125 
Q 15.828125 64.359375 23.1875 75.875 
z
" id="DejaVuSans-40"/>
      <path d="M 46 62.703125 
L 46 35.5 
L 73.1875 35.5 
L 73.1875 27.203125 
L 46 27.203125 
L 46 0 
L 37.796875 0 
L 37.796875 27.203125 
L 10.59375 27.203125 
L 10.59375 35.5 
L 37.796875 35.5 
L 37.796875 62.703125 
z
" id="DejaVuSans-43"/>
      <path d="M 8.015625 75.875 
L 15.828125 75.875 
Q 23.140625 64.359375 26.78125 53.3125 
Q 30.421875 42.28125 30.421875 31.390625 
Q 30.421875 20.453125 26.78125 9.375 
Q 23.140625 -1.703125 15.828125 -13.1875 
L 8.015625 -13.1875 
Q 14.5 -2 17.703125 9.0625 
Q 20.90625 20.125 20.90625 31.390625 
Q 20.90625 42.671875 17.703125 53.65625 
Q 14.5 64.65625 8.015625 75.875 
z
" id="DejaVuSans-41"/>
      <path d="M 25.390625 72.90625 
L 33.6875 72.90625 
L 8.296875 -9.28125 
L 0 -9.28125 
z
" id="DejaVuSans-47"/>
     </defs>
     <g transform="translate(70.64 115.467188)scale(0.1 -0.1)">
      <use xlink:href="#DejaVuSans-40"/>
      <use x="39.013672" xlink:href="#DejaVuSans-120"/>
      <use x="98.193359" xlink:href="#DejaVuSans-120"/>
      <use x="157.373047" xlink:href="#DejaVuSans-32"/>
      <use x="189.160156" xlink:href="#DejaVuSans-42"/>
      <use x="239.160156" xlink:href="#DejaVuSans-42"/>
      <use x="289.160156" xlink:href="#DejaVuSans-32"/>
      <use x="320.947266" xlink:href="#DejaVuSans-50"/>
      <use x="384.570312" xlink:href="#DejaVuSans-32"/>
      <use x="416.357422" xlink:href="#DejaVuSans-43"/>
      <use x="500.146484" xlink:href="#DejaVuSans-32"/>
      <use x="531.933594" xlink:href="#DejaVuSans-120"/>
      <use x="591.113281" xlink:href="#DejaVuSans-120"/>
      <use x="650.292969" xlink:href="#DejaVuSans-41"/>
      <use x="689.306641" xlink:href="#DejaVuSans-32"/>
      <use x="721.09375" xlink:href="#DejaVuSans-47"/>
      <use x="754.785156" xlink:href="#DejaVuSans-32"/>
      <use x="786.572266" xlink:href="#DejaVuSans-50"/>
     </g>
    </g>
    <g id="line2d_53">
     <path d="M 42.64 126.645312 
L 62.64 126.645312 
" style="fill:none;stroke:#7f7f7f;stroke-linecap:square;stroke-width:1.5;"/>
    </g>
    <g id="line2d_54"/>
    <g id="text_20">
     <!-- (xx ** 2 + xx) / 2 * 0.9 -->
     <defs>
      <path d="M 10.984375 1.515625 
L 10.984375 10.5 
Q 14.703125 8.734375 18.5 7.8125 
Q 22.3125 6.890625 25.984375 6.890625 
Q 35.75 6.890625 40.890625 13.453125 
Q 46.046875 20.015625 46.78125 33.40625 
Q 43.953125 29.203125 39.59375 26.953125 
Q 35.25 24.703125 29.984375 24.703125 
Q 19.046875 24.703125 12.671875 31.3125 
Q 6.296875 37.9375 6.296875 49.421875 
Q 6.296875 60.640625 12.9375 67.421875 
Q 19.578125 74.21875 30.609375 74.21875 
Q 43.265625 74.21875 49.921875 64.515625 
Q 56.59375 54.828125 56.59375 36.375 
Q 56.59375 19.140625 48.40625 8.859375 
Q 40.234375 -1.421875 26.421875 -1.421875 
Q 22.703125 -1.421875 18.890625 -0.6875 
Q 15.09375 0.046875 10.984375 1.515625 
z
M 30.609375 32.421875 
Q 37.25 32.421875 41.125 36.953125 
Q 45.015625 41.5 45.015625 49.421875 
Q 45.015625 57.28125 41.125 61.84375 
Q 37.25 66.40625 30.609375 66.40625 
Q 23.96875 66.40625 20.09375 61.84375 
Q 16.21875 57.28125 16.21875 49.421875 
Q 16.21875 41.5 20.09375 36.953125 
Q 23.96875 32.421875 30.609375 32.421875 
z
" id="DejaVuSans-57"/>
     </defs>
     <g transform="translate(70.64 130.145312)scale(0.1 -0.1)">
      <use xlink:href="#DejaVuSans-40"/>
      <use x="39.013672" xlink:href="#DejaVuSans-120"/>
      <use x="98.193359" xlink:href="#DejaVuSans-120"/>
      <use x="157.373047" xlink:href="#DejaVuSans-32"/>
      <use x="189.160156" xlink:href="#DejaVuSans-42"/>
      <use x="239.160156" xlink:href="#DejaVuSans-42"/>
      <use x="289.160156" xlink:href="#DejaVuSans-32"/>
      <use x="320.947266" xlink:href="#DejaVuSans-50"/>
      <use x="384.570312" xlink:href="#DejaVuSans-32"/>
      <use x="416.357422" xlink:href="#DejaVuSans-43"/>
      <use x="500.146484" xlink:href="#DejaVuSans-32"/>
      <use x="531.933594" xlink:href="#DejaVuSans-120"/>
      <use x="591.113281" xlink:href="#DejaVuSans-120"/>
      <use x="650.292969" xlink:href="#DejaVuSans-41"/>
      <use x="689.306641" xlink:href="#DejaVuSans-32"/>
      <use x="721.09375" xlink:href="#DejaVuSans-47"/>
      <use x="754.785156" xlink:href="#DejaVuSans-32"/>
      <use x="786.572266" xlink:href="#DejaVuSans-50"/>
      <use x="850.195312" xlink:href="#DejaVuSans-32"/>
      <use x="881.982422" xlink:href="#DejaVuSans-42"/>
      <use x="931.982422" xlink:href="#DejaVuSans-32"/>
      <use x="963.769531" xlink:href="#DejaVuSans-48"/>
      <use x="1027.392578" xlink:href="#DejaVuSans-46"/>
      <use x="1059.179688" xlink:href="#DejaVuSans-57"/>
     </g>
    </g>
    <g id="line2d_55">
     <path d="M 42.64 141.323438 
L 62.64 141.323438 
" style="fill:none;stroke:#bcbd22;stroke-linecap:square;stroke-width:1.5;"/>
    </g>
    <g id="line2d_56"/>
    <g id="text_21">
     <!-- (xx ** 2 + xx) / 2 * 0.8 -->
     <g transform="translate(70.64 144.823438)scale(0.1 -0.1)">
      <use xlink:href="#DejaVuSans-40"/>
      <use x="39.013672" xlink:href="#DejaVuSans-120"/>
      <use x="98.193359" xlink:href="#DejaVuSans-120"/>
      <use x="157.373047" xlink:href="#DejaVuSans-32"/>
      <use x="189.160156" xlink:href="#DejaVuSans-42"/>
      <use x="239.160156" xlink:href="#DejaVuSans-42"/>
      <use x="289.160156" xlink:href="#DejaVuSans-32"/>
      <use x="320.947266" xlink:href="#DejaVuSans-50"/>
      <use x="384.570312" xlink:href="#DejaVuSans-32"/>
      <use x="416.357422" xlink:href="#DejaVuSans-43"/>
      <use x="500.146484" xlink:href="#DejaVuSans-32"/>
      <use x="531.933594" xlink:href="#DejaVuSans-120"/>
      <use x="591.113281" xlink:href="#DejaVuSans-120"/>
      <use x="650.292969" xlink:href="#DejaVuSans-41"/>
      <use x="689.306641" xlink:href="#DejaVuSans-32"/>
      <use x="721.09375" xlink:href="#DejaVuSans-47"/>
      <use x="754.785156" xlink:href="#DejaVuSans-32"/>
      <use x="786.572266" xlink:href="#DejaVuSans-50"/>
      <use x="850.195312" xlink:href="#DejaVuSans-32"/>
      <use x="881.982422" xlink:href="#DejaVuSans-42"/>
      <use x="931.982422" xlink:href="#DejaVuSans-32"/>
      <use x="963.769531" xlink:href="#DejaVuSans-48"/>
      <use x="1027.392578" xlink:href="#DejaVuSans-46"/>
      <use x="1059.179688" xlink:href="#DejaVuSans-56"/>
     </g>
    </g>
    <g id="line2d_57">
     <path d="M 42.64 156.001562 
L 62.64 156.001562 
" style="fill:none;stroke:#17becf;stroke-linecap:square;stroke-width:1.5;"/>
    </g>
    <g id="line2d_58"/>
    <g id="text_22">
     <!-- (xx ** 3 + xx) / 2 * 0.9 -->
     <g transform="translate(70.64 159.501562)scale(0.1 -0.1)">
      <use xlink:href="#DejaVuSans-40"/>
      <use x="39.013672" xlink:href="#DejaVuSans-120"/>
      <use x="98.193359" xlink:href="#DejaVuSans-120"/>
      <use x="157.373047" xlink:href="#DejaVuSans-32"/>
      <use x="189.160156" xlink:href="#DejaVuSans-42"/>
      <use x="239.160156" xlink:href="#DejaVuSans-42"/>
      <use x="289.160156" xlink:href="#DejaVuSans-32"/>
      <use x="320.947266" xlink:href="#DejaVuSans-51"/>
      <use x="384.570312" xlink:href="#DejaVuSans-32"/>
      <use x="416.357422" xlink:href="#DejaVuSans-43"/>
      <use x="500.146484" xlink:href="#DejaVuSans-32"/>
      <use x="531.933594" xlink:href="#DejaVuSans-120"/>
      <use x="591.113281" xlink:href="#DejaVuSans-120"/>
      <use x="650.292969" xlink:href="#DejaVuSans-41"/>
      <use x="689.306641" xlink:href="#DejaVuSans-32"/>
      <use x="721.09375" xlink:href="#DejaVuSans-47"/>
      <use x="754.785156" xlink:href="#DejaVuSans-32"/>
      <use x="786.572266" xlink:href="#DejaVuSans-50"/>
      <use x="850.195312" xlink:href="#DejaVuSans-32"/>
      <use x="881.982422" xlink:href="#DejaVuSans-42"/>
      <use x="931.982422" xlink:href="#DejaVuSans-32"/>
      <use x="963.769531" xlink:href="#DejaVuSans-48"/>
      <use x="1027.392578" xlink:href="#DejaVuSans-46"/>
      <use x="1059.179688" xlink:href="#DejaVuSans-57"/>
     </g>
    </g>
    <g id="line2d_59">
     <path d="M 42.64 170.679687 
L 62.64 170.679687 
" style="fill:none;stroke:#1f77b4;stroke-linecap:square;stroke-width:1.5;"/>
    </g>
    <g id="line2d_60"/>
    <g id="text_23">
     <!-- (xx ** 3 + xx) / 2 * 0.8 -->
     <g transform="translate(70.64 174.179687)scale(0.1 -0.1)">
      <use xlink:href="#DejaVuSans-40"/>
      <use x="39.013672" xlink:href="#DejaVuSans-120"/>
      <use x="98.193359" xlink:href="#DejaVuSans-120"/>
      <use x="157.373047" xlink:href="#DejaVuSans-32"/>
      <use x="189.160156" xlink:href="#DejaVuSans-42"/>
      <use x="239.160156" xlink:href="#DejaVuSans-42"/>
      <use x="289.160156" xlink:href="#DejaVuSans-32"/>
      <use x="320.947266" xlink:href="#DejaVuSans-51"/>
      <use x="384.570312" xlink:href="#DejaVuSans-32"/>
      <use x="416.357422" xlink:href="#DejaVuSans-43"/>
      <use x="500.146484" xlink:href="#DejaVuSans-32"/>
      <use x="531.933594" xlink:href="#DejaVuSans-120"/>
      <use x="591.113281" xlink:href="#DejaVuSans-120"/>
      <use x="650.292969" xlink:href="#DejaVuSans-41"/>
      <use x="689.306641" xlink:href="#DejaVuSans-32"/>
      <use x="721.09375" xlink:href="#DejaVuSans-47"/>
      <use x="754.785156" xlink:href="#DejaVuSans-32"/>
      <use x="786.572266" xlink:href="#DejaVuSans-50"/>
      <use x="850.195312" xlink:href="#DejaVuSans-32"/>
      <use x="881.982422" xlink:href="#DejaVuSans-42"/>
      <use x="931.982422" xlink:href="#DejaVuSans-32"/>
      <use x="963.769531" xlink:href="#DejaVuSans-48"/>
      <use x="1027.392578" xlink:href="#DejaVuSans-46"/>
      <use x="1059.179688" xlink:href="#DejaVuSans-56"/>
     </g>
    </g>
    <g id="line2d_61">
     <path d="M 42.64 185.357812 
L 62.64 185.357812 
" style="fill:none;stroke:#ff7f0e;stroke-linecap:square;stroke-width:1.5;"/>
    </g>
    <g id="line2d_62"/>
    <g id="text_24">
     <!-- (xx ** 3 + xx ** 2 + xx) / 3 * 0.9 -->
     <g transform="translate(70.64 188.857812)scale(0.1 -0.1)">
      <use xlink:href="#DejaVuSans-40"/>
      <use x="39.013672" xlink:href="#DejaVuSans-120"/>
      <use x="98.193359" xlink:href="#DejaVuSans-120"/>
      <use x="157.373047" xlink:href="#DejaVuSans-32"/>
      <use x="189.160156" xlink:href="#DejaVuSans-42"/>
      <use x="239.160156" xlink:href="#DejaVuSans-42"/>
      <use x="289.160156" xlink:href="#DejaVuSans-32"/>
      <use x="320.947266" xlink:href="#DejaVuSans-51"/>
      <use x="384.570312" xlink:href="#DejaVuSans-32"/>
      <use x="416.357422" xlink:href="#DejaVuSans-43"/>
      <use x="500.146484" xlink:href="#DejaVuSans-32"/>
      <use x="531.933594" xlink:href="#DejaVuSans-120"/>
      <use x="591.113281" xlink:href="#DejaVuSans-120"/>
      <use x="650.292969" xlink:href="#DejaVuSans-32"/>
      <use x="682.080078" xlink:href="#DejaVuSans-42"/>
      <use x="732.080078" xlink:href="#DejaVuSans-42"/>
      <use x="782.080078" xlink:href="#DejaVuSans-32"/>
      <use x="813.867188" xlink:href="#DejaVuSans-50"/>
      <use x="877.490234" xlink:href="#DejaVuSans-32"/>
      <use x="909.277344" xlink:href="#DejaVuSans-43"/>
      <use x="993.066406" xlink:href="#DejaVuSans-32"/>
      <use x="1024.853516" xlink:href="#DejaVuSans-120"/>
      <use x="1084.033203" xlink:href="#DejaVuSans-120"/>
      <use x="1143.212891" xlink:href="#DejaVuSans-41"/>
      <use x="1182.226562" xlink:href="#DejaVuSans-32"/>
      <use x="1214.013672" xlink:href="#DejaVuSans-47"/>
      <use x="1247.705078" xlink:href="#DejaVuSans-32"/>
      <use x="1279.492188" xlink:href="#DejaVuSans-51"/>
      <use x="1343.115234" xlink:href="#DejaVuSans-32"/>
      <use x="1374.902344" xlink:href="#DejaVuSans-42"/>
      <use x="1424.902344" xlink:href="#DejaVuSans-32"/>
      <use x="1456.689453" xlink:href="#DejaVuSans-48"/>
      <use x="1520.3125" xlink:href="#DejaVuSans-46"/>
      <use x="1552.099609" xlink:href="#DejaVuSans-57"/>
     </g>
    </g>
    <g id="line2d_63">
     <path d="M 42.64 200.035937 
L 62.64 200.035937 
" style="fill:none;stroke:#2ca02c;stroke-linecap:square;stroke-width:1.5;"/>
    </g>
    <g id="line2d_64"/>
    <g id="text_25">
     <!-- (xx ** 3 + xx ** 2 + xx) / 3 * 0.8 -->
     <g transform="translate(70.64 203.535937)scale(0.1 -0.1)">
      <use xlink:href="#DejaVuSans-40"/>
      <use x="39.013672" xlink:href="#DejaVuSans-120"/>
      <use x="98.193359" xlink:href="#DejaVuSans-120"/>
      <use x="157.373047" xlink:href="#DejaVuSans-32"/>
      <use x="189.160156" xlink:href="#DejaVuSans-42"/>
      <use x="239.160156" xlink:href="#DejaVuSans-42"/>
      <use x="289.160156" xlink:href="#DejaVuSans-32"/>
      <use x="320.947266" xlink:href="#DejaVuSans-51"/>
      <use x="384.570312" xlink:href="#DejaVuSans-32"/>
      <use x="416.357422" xlink:href="#DejaVuSans-43"/>
      <use x="500.146484" xlink:href="#DejaVuSans-32"/>
      <use x="531.933594" xlink:href="#DejaVuSans-120"/>
      <use x="591.113281" xlink:href="#DejaVuSans-120"/>
      <use x="650.292969" xlink:href="#DejaVuSans-32"/>
      <use x="682.080078" xlink:href="#DejaVuSans-42"/>
      <use x="732.080078" xlink:href="#DejaVuSans-42"/>
      <use x="782.080078" xlink:href="#DejaVuSans-32"/>
      <use x="813.867188" xlink:href="#DejaVuSans-50"/>
      <use x="877.490234" xlink:href="#DejaVuSans-32"/>
      <use x="909.277344" xlink:href="#DejaVuSans-43"/>
      <use x="993.066406" xlink:href="#DejaVuSans-32"/>
      <use x="1024.853516" xlink:href="#DejaVuSans-120"/>
      <use x="1084.033203" xlink:href="#DejaVuSans-120"/>
      <use x="1143.212891" xlink:href="#DejaVuSans-41"/>
      <use x="1182.226562" xlink:href="#DejaVuSans-32"/>
      <use x="1214.013672" xlink:href="#DejaVuSans-47"/>
      <use x="1247.705078" xlink:href="#DejaVuSans-32"/>
      <use x="1279.492188" xlink:href="#DejaVuSans-51"/>
      <use x="1343.115234" xlink:href="#DejaVuSans-32"/>
      <use x="1374.902344" xlink:href="#DejaVuSans-42"/>
      <use x="1424.902344" xlink:href="#DejaVuSans-32"/>
      <use x="1456.689453" xlink:href="#DejaVuSans-48"/>
      <use x="1520.3125" xlink:href="#DejaVuSans-46"/>
      <use x="1552.099609" xlink:href="#DejaVuSans-56"/>
     </g>
    </g>
    <g id="line2d_65">
     <path d="M 42.64 214.714062 
L 62.64 214.714062 
" style="fill:none;stroke:#d62728;stroke-linecap:square;stroke-width:1.5;"/>
    </g>
    <g id="line2d_66"/>
    <g id="text_26">
     <!-- (xx ** 2 + xx * 0.4) / 2 -->
     <g transform="translate(70.64 218.214062)scale(0.1 -0.1)">
      <use xlink:href="#DejaVuSans-40"/>
      <use x="39.013672" xlink:href="#DejaVuSans-120"/>
      <use x="98.193359" xlink:href="#DejaVuSans-120"/>
      <use x="157.373047" xlink:href="#DejaVuSans-32"/>
      <use x="189.160156" xlink:href="#DejaVuSans-42"/>
      <use x="239.160156" xlink:href="#DejaVuSans-42"/>
      <use x="289.160156" xlink:href="#DejaVuSans-32"/>
      <use x="320.947266" xlink:href="#DejaVuSans-50"/>
      <use x="384.570312" xlink:href="#DejaVuSans-32"/>
      <use x="416.357422" xlink:href="#DejaVuSans-43"/>
      <use x="500.146484" xlink:href="#DejaVuSans-32"/>
      <use x="531.933594" xlink:href="#DejaVuSans-120"/>
      <use x="591.113281" xlink:href="#DejaVuSans-120"/>
      <use x="650.292969" xlink:href="#DejaVuSans-32"/>
      <use x="682.080078" xlink:href="#DejaVuSans-42"/>
      <use x="732.080078" xlink:href="#DejaVuSans-32"/>
      <use x="763.867188" xlink:href="#DejaVuSans-48"/>
      <use x="827.490234" xlink:href="#DejaVuSans-46"/>
      <use x="859.277344" xlink:href="#DejaVuSans-52"/>
      <use x="922.900391" xlink:href="#DejaVuSans-41"/>
      <use x="961.914062" xlink:href="#DejaVuSans-32"/>
      <use x="993.701172" xlink:href="#DejaVuSans-47"/>
      <use x="1027.392578" xlink:href="#DejaVuSans-32"/>
      <use x="1059.179688" xlink:href="#DejaVuSans-50"/>
     </g>
    </g>
   </g>
  </g>
 </g>
 <defs>
  <clipPath id="pf4225993a4">
   <rect height="372.44" width="533" x="33.64" y="10.8"/>
  </clipPath>
 </defs>
</svg>
