<?xml version="1.0" encoding="utf-8" standalone="no"?>
<!DOCTYPE svg PUBLIC "-//W3C//DTD SVG 1.1//EN"
  "http://www.w3.org/Graphics/SVG/1.1/DTD/svg11.dtd">
<!-- Created with matplotlib (https://matplotlib.org/) -->
<svg height="287.28pt" version="1.1" viewBox="0 0 863.28 287.28" width="863.28pt" xmlns="http://www.w3.org/2000/svg" xmlns:xlink="http://www.w3.org/1999/xlink">
 <metadata>
  <rdf:RDF xmlns:cc="http://creativecommons.org/ns#" xmlns:dc="http://purl.org/dc/elements/1.1/" xmlns:rdf="http://www.w3.org/1999/02/22-rdf-syntax-ns#">
   <cc:Work>
    <dc:type rdf:resource="http://purl.org/dc/dcmitype/StillImage"/>
    <dc:date>2021-04-22T16:07:47.102914</dc:date>
    <dc:format>image/svg+xml</dc:format>
    <dc:creator>
     <cc:Agent>
      <dc:title>Matplotlib v3.3.2, https://matplotlib.org/</dc:title>
     </cc:Agent>
    </dc:creator>
   </cc:Work>
  </rdf:RDF>
 </metadata>
 <defs>
  <style type="text/css">*{stroke-linecap:butt;stroke-linejoin:round;}</style>
 </defs>
 <g id="figure_1">
  <g id="patch_1">
   <path d="M 0 287.28 
L 863.28 287.28 
L 863.28 0 
L 0 0 
z
" style="fill:#ffffff;"/>
  </g>
  <g id="axes_1">
   <g id="patch_2">
    <path d="M 24.059954 265.953436 
L 282.104708 265.953436 
L 282.104708 16.937561 
L 24.059954 16.937561 
z
" style="fill:#eaeaf2;"/>
   </g>
   <g id="matplotlib.axis_1">
    <g id="xtick_1">
     <g id="line2d_1">
      <path clip-path="url(#p303fd311c2)" d="M 35.789261 265.953436 
L 35.789261 16.937561 
" style="fill:none;stroke:#ffffff;stroke-linecap:round;stroke-width:0.5;"/>
     </g>
     <g id="text_1">
      <!-- −6 -->
      <g style="fill:#262626;" transform="translate(31.735159 279.632577)scale(0.055 -0.055)">
       <defs>
        <path d="M 10.59375 35.5 
L 73.1875 35.5 
L 73.1875 27.203125 
L 10.59375 27.203125 
z
" id="DejaVuSans-8722"/>
        <path d="M 33.015625 40.375 
Q 26.375 40.375 22.484375 35.828125 
Q 18.609375 31.296875 18.609375 23.390625 
Q 18.609375 15.53125 22.484375 10.953125 
Q 26.375 6.390625 33.015625 6.390625 
Q 39.65625 6.390625 43.53125 10.953125 
Q 47.40625 15.53125 47.40625 23.390625 
Q 47.40625 31.296875 43.53125 35.828125 
Q 39.65625 40.375 33.015625 40.375 
z
M 52.59375 71.296875 
L 52.59375 62.3125 
Q 48.875 64.0625 45.09375 64.984375 
Q 41.3125 65.921875 37.59375 65.921875 
Q 27.828125 65.921875 22.671875 59.328125 
Q 17.53125 52.734375 16.796875 39.40625 
Q 19.671875 43.65625 24.015625 45.921875 
Q 28.375 48.1875 33.59375 48.1875 
Q 44.578125 48.1875 50.953125 41.515625 
Q 57.328125 34.859375 57.328125 23.390625 
Q 57.328125 12.15625 50.6875 5.359375 
Q 44.046875 -1.421875 33.015625 -1.421875 
Q 20.359375 -1.421875 13.671875 8.265625 
Q 6.984375 17.96875 6.984375 36.375 
Q 6.984375 53.65625 15.1875 63.9375 
Q 23.390625 74.21875 37.203125 74.21875 
Q 40.921875 74.21875 44.703125 73.484375 
Q 48.484375 72.75 52.59375 71.296875 
z
" id="DejaVuSans-54"/>
       </defs>
       <use xlink:href="#DejaVuSans-8722"/>
       <use x="83.789062" xlink:href="#DejaVuSans-54"/>
      </g>
     </g>
    </g>
    <g id="xtick_2">
     <g id="line2d_2">
      <path clip-path="url(#p303fd311c2)" d="M 69.421682 265.953436 
L 69.421682 16.937561 
" style="fill:none;stroke:#ffffff;stroke-linecap:round;stroke-width:0.5;"/>
     </g>
     <g id="text_2">
      <!-- −4 -->
      <g style="fill:#262626;" transform="translate(65.367581 279.632577)scale(0.055 -0.055)">
       <defs>
        <path d="M 37.796875 64.3125 
L 12.890625 25.390625 
L 37.796875 25.390625 
z
M 35.203125 72.90625 
L 47.609375 72.90625 
L 47.609375 25.390625 
L 58.015625 25.390625 
L 58.015625 17.1875 
L 47.609375 17.1875 
L 47.609375 0 
L 37.796875 0 
L 37.796875 17.1875 
L 4.890625 17.1875 
L 4.890625 26.703125 
z
" id="DejaVuSans-52"/>
       </defs>
       <use xlink:href="#DejaVuSans-8722"/>
       <use x="83.789062" xlink:href="#DejaVuSans-52"/>
      </g>
     </g>
    </g>
    <g id="xtick_3">
     <g id="line2d_3">
      <path clip-path="url(#p303fd311c2)" d="M 103.054104 265.953436 
L 103.054104 16.937561 
" style="fill:none;stroke:#ffffff;stroke-linecap:round;stroke-width:0.5;"/>
     </g>
     <g id="text_3">
      <!-- −2 -->
      <g style="fill:#262626;" transform="translate(99.000002 279.632577)scale(0.055 -0.055)">
       <defs>
        <path d="M 19.1875 8.296875 
L 53.609375 8.296875 
L 53.609375 0 
L 7.328125 0 
L 7.328125 8.296875 
Q 12.9375 14.109375 22.625 23.890625 
Q 32.328125 33.6875 34.8125 36.53125 
Q 39.546875 41.84375 41.421875 45.53125 
Q 43.3125 49.21875 43.3125 52.78125 
Q 43.3125 58.59375 39.234375 62.25 
Q 35.15625 65.921875 28.609375 65.921875 
Q 23.96875 65.921875 18.8125 64.3125 
Q 13.671875 62.703125 7.8125 59.421875 
L 7.8125 69.390625 
Q 13.765625 71.78125 18.9375 73 
Q 24.125 74.21875 28.421875 74.21875 
Q 39.75 74.21875 46.484375 68.546875 
Q 53.21875 62.890625 53.21875 53.421875 
Q 53.21875 48.921875 51.53125 44.890625 
Q 49.859375 40.875 45.40625 35.40625 
Q 44.1875 33.984375 37.640625 27.21875 
Q 31.109375 20.453125 19.1875 8.296875 
z
" id="DejaVuSans-50"/>
       </defs>
       <use xlink:href="#DejaVuSans-8722"/>
       <use x="83.789062" xlink:href="#DejaVuSans-50"/>
      </g>
     </g>
    </g>
    <g id="xtick_4">
     <g id="line2d_4">
      <path clip-path="url(#p303fd311c2)" d="M 136.686525 265.953436 
L 136.686525 16.937561 
" style="fill:none;stroke:#ffffff;stroke-linecap:round;stroke-width:0.5;"/>
     </g>
     <g id="text_4">
      <!-- 0 -->
      <g style="fill:#262626;" transform="translate(134.936838 279.632577)scale(0.055 -0.055)">
       <defs>
        <path d="M 31.78125 66.40625 
Q 24.171875 66.40625 20.328125 58.90625 
Q 16.5 51.421875 16.5 36.375 
Q 16.5 21.390625 20.328125 13.890625 
Q 24.171875 6.390625 31.78125 6.390625 
Q 39.453125 6.390625 43.28125 13.890625 
Q 47.125 21.390625 47.125 36.375 
Q 47.125 51.421875 43.28125 58.90625 
Q 39.453125 66.40625 31.78125 66.40625 
z
M 31.78125 74.21875 
Q 44.046875 74.21875 50.515625 64.515625 
Q 56.984375 54.828125 56.984375 36.375 
Q 56.984375 17.96875 50.515625 8.265625 
Q 44.046875 -1.421875 31.78125 -1.421875 
Q 19.53125 -1.421875 13.0625 8.265625 
Q 6.59375 17.96875 6.59375 36.375 
Q 6.59375 54.828125 13.0625 64.515625 
Q 19.53125 74.21875 31.78125 74.21875 
z
" id="DejaVuSans-48"/>
       </defs>
       <use xlink:href="#DejaVuSans-48"/>
      </g>
     </g>
    </g>
    <g id="xtick_5">
     <g id="line2d_5">
      <path clip-path="url(#p303fd311c2)" d="M 170.318947 265.953436 
L 170.318947 16.937561 
" style="fill:none;stroke:#ffffff;stroke-linecap:round;stroke-width:0.5;"/>
     </g>
     <g id="text_5">
      <!-- 2 -->
      <g style="fill:#262626;" transform="translate(168.569259 279.632577)scale(0.055 -0.055)">
       <use xlink:href="#DejaVuSans-50"/>
      </g>
     </g>
    </g>
    <g id="xtick_6">
     <g id="line2d_6">
      <path clip-path="url(#p303fd311c2)" d="M 203.951368 265.953436 
L 203.951368 16.937561 
" style="fill:none;stroke:#ffffff;stroke-linecap:round;stroke-width:0.5;"/>
     </g>
     <g id="text_6">
      <!-- 4 -->
      <g style="fill:#262626;" transform="translate(202.201681 279.632577)scale(0.055 -0.055)">
       <use xlink:href="#DejaVuSans-52"/>
      </g>
     </g>
    </g>
    <g id="xtick_7">
     <g id="line2d_7">
      <path clip-path="url(#p303fd311c2)" d="M 237.58379 265.953436 
L 237.58379 16.937561 
" style="fill:none;stroke:#ffffff;stroke-linecap:round;stroke-width:0.5;"/>
     </g>
     <g id="text_7">
      <!-- 6 -->
      <g style="fill:#262626;" transform="translate(235.834102 279.632577)scale(0.055 -0.055)">
       <use xlink:href="#DejaVuSans-54"/>
      </g>
     </g>
    </g>
    <g id="xtick_8">
     <g id="line2d_8">
      <path clip-path="url(#p303fd311c2)" d="M 271.216211 265.953436 
L 271.216211 16.937561 
" style="fill:none;stroke:#ffffff;stroke-linecap:round;stroke-width:0.5;"/>
     </g>
     <g id="text_8">
      <!-- 8 -->
      <g style="fill:#262626;" transform="translate(269.466524 279.632577)scale(0.055 -0.055)">
       <defs>
        <path d="M 31.78125 34.625 
Q 24.75 34.625 20.71875 30.859375 
Q 16.703125 27.09375 16.703125 20.515625 
Q 16.703125 13.921875 20.71875 10.15625 
Q 24.75 6.390625 31.78125 6.390625 
Q 38.8125 6.390625 42.859375 10.171875 
Q 46.921875 13.96875 46.921875 20.515625 
Q 46.921875 27.09375 42.890625 30.859375 
Q 38.875 34.625 31.78125 34.625 
z
M 21.921875 38.8125 
Q 15.578125 40.375 12.03125 44.71875 
Q 8.5 49.078125 8.5 55.328125 
Q 8.5 64.0625 14.71875 69.140625 
Q 20.953125 74.21875 31.78125 74.21875 
Q 42.671875 74.21875 48.875 69.140625 
Q 55.078125 64.0625 55.078125 55.328125 
Q 55.078125 49.078125 51.53125 44.71875 
Q 48 40.375 41.703125 38.8125 
Q 48.828125 37.15625 52.796875 32.3125 
Q 56.78125 27.484375 56.78125 20.515625 
Q 56.78125 9.90625 50.3125 4.234375 
Q 43.84375 -1.421875 31.78125 -1.421875 
Q 19.734375 -1.421875 13.25 4.234375 
Q 6.78125 9.90625 6.78125 20.515625 
Q 6.78125 27.484375 10.78125 32.3125 
Q 14.796875 37.15625 21.921875 38.8125 
z
M 18.3125 54.390625 
Q 18.3125 48.734375 21.84375 45.5625 
Q 25.390625 42.390625 31.78125 42.390625 
Q 38.140625 42.390625 41.71875 45.5625 
Q 45.3125 48.734375 45.3125 54.390625 
Q 45.3125 60.0625 41.71875 63.234375 
Q 38.140625 66.40625 31.78125 66.40625 
Q 25.390625 66.40625 21.84375 63.234375 
Q 18.3125 60.0625 18.3125 54.390625 
z
" id="DejaVuSans-56"/>
       </defs>
       <use xlink:href="#DejaVuSans-56"/>
      </g>
     </g>
    </g>
   </g>
   <g id="matplotlib.axis_2">
    <g id="ytick_1">
     <g id="line2d_9">
      <path clip-path="url(#p303fd311c2)" d="M 24.059954 254.634533 
L 282.104708 254.634533 
" style="fill:none;stroke:#ffffff;stroke-linecap:round;stroke-width:0.5;"/>
     </g>
     <g id="text_9">
      <!-- −6 -->
      <g style="fill:#262626;" transform="translate(6.451751 256.724103)scale(0.055 -0.055)">
       <use xlink:href="#DejaVuSans-8722"/>
       <use x="83.789062" xlink:href="#DejaVuSans-54"/>
      </g>
     </g>
    </g>
    <g id="ytick_2">
     <g id="line2d_10">
      <path clip-path="url(#p303fd311c2)" d="M 24.059954 225.499017 
L 282.104708 225.499017 
" style="fill:none;stroke:#ffffff;stroke-linecap:round;stroke-width:0.5;"/>
     </g>
     <g id="text_10">
      <!-- −4 -->
      <g style="fill:#262626;" transform="translate(6.451751 227.588587)scale(0.055 -0.055)">
       <use xlink:href="#DejaVuSans-8722"/>
       <use x="83.789062" xlink:href="#DejaVuSans-52"/>
      </g>
     </g>
    </g>
    <g id="ytick_3">
     <g id="line2d_11">
      <path clip-path="url(#p303fd311c2)" d="M 24.059954 196.363501 
L 282.104708 196.363501 
" style="fill:none;stroke:#ffffff;stroke-linecap:round;stroke-width:0.5;"/>
     </g>
     <g id="text_11">
      <!-- −2 -->
      <g style="fill:#262626;" transform="translate(6.451751 198.453071)scale(0.055 -0.055)">
       <use xlink:href="#DejaVuSans-8722"/>
       <use x="83.789062" xlink:href="#DejaVuSans-50"/>
      </g>
     </g>
    </g>
    <g id="ytick_4">
     <g id="line2d_12">
      <path clip-path="url(#p303fd311c2)" d="M 24.059954 167.227985 
L 282.104708 167.227985 
" style="fill:none;stroke:#ffffff;stroke-linecap:round;stroke-width:0.5;"/>
     </g>
     <g id="text_12">
      <!-- 0 -->
      <g style="fill:#262626;" transform="translate(11.060579 169.317555)scale(0.055 -0.055)">
       <use xlink:href="#DejaVuSans-48"/>
      </g>
     </g>
    </g>
    <g id="ytick_5">
     <g id="line2d_13">
      <path clip-path="url(#p303fd311c2)" d="M 24.059954 138.092469 
L 282.104708 138.092469 
" style="fill:none;stroke:#ffffff;stroke-linecap:round;stroke-width:0.5;"/>
     </g>
     <g id="text_13">
      <!-- 2 -->
      <g style="fill:#262626;" transform="translate(11.060579 140.182039)scale(0.055 -0.055)">
       <use xlink:href="#DejaVuSans-50"/>
      </g>
     </g>
    </g>
    <g id="ytick_6">
     <g id="line2d_14">
      <path clip-path="url(#p303fd311c2)" d="M 24.059954 108.956953 
L 282.104708 108.956953 
" style="fill:none;stroke:#ffffff;stroke-linecap:round;stroke-width:0.5;"/>
     </g>
     <g id="text_14">
      <!-- 4 -->
      <g style="fill:#262626;" transform="translate(11.060579 111.046523)scale(0.055 -0.055)">
       <use xlink:href="#DejaVuSans-52"/>
      </g>
     </g>
    </g>
    <g id="ytick_7">
     <g id="line2d_15">
      <path clip-path="url(#p303fd311c2)" d="M 24.059954 79.821437 
L 282.104708 79.821437 
" style="fill:none;stroke:#ffffff;stroke-linecap:round;stroke-width:0.5;"/>
     </g>
     <g id="text_15">
      <!-- 6 -->
      <g style="fill:#262626;" transform="translate(11.060579 81.911008)scale(0.055 -0.055)">
       <use xlink:href="#DejaVuSans-54"/>
      </g>
     </g>
    </g>
    <g id="ytick_8">
     <g id="line2d_16">
      <path clip-path="url(#p303fd311c2)" d="M 24.059954 50.685921 
L 282.104708 50.685921 
" style="fill:none;stroke:#ffffff;stroke-linecap:round;stroke-width:0.5;"/>
     </g>
     <g id="text_16">
      <!-- 8 -->
      <g style="fill:#262626;" transform="translate(11.060579 52.775492)scale(0.055 -0.055)">
       <use xlink:href="#DejaVuSans-56"/>
      </g>
     </g>
    </g>
    <g id="ytick_9">
     <g id="line2d_17">
      <path clip-path="url(#p303fd311c2)" d="M 24.059954 21.550405 
L 282.104708 21.550405 
" style="fill:none;stroke:#ffffff;stroke-linecap:round;stroke-width:0.5;"/>
     </g>
     <g id="text_17">
      <!-- 10 -->
      <g style="fill:#262626;" transform="translate(7.561204 23.639976)scale(0.055 -0.055)">
       <defs>
        <path d="M 12.40625 8.296875 
L 28.515625 8.296875 
L 28.515625 63.921875 
L 10.984375 60.40625 
L 10.984375 69.390625 
L 28.421875 72.90625 
L 38.28125 72.90625 
L 38.28125 8.296875 
L 54.390625 8.296875 
L 54.390625 0 
L 12.40625 0 
z
" id="DejaVuSans-49"/>
       </defs>
       <use xlink:href="#DejaVuSans-49"/>
       <use x="63.623047" xlink:href="#DejaVuSans-48"/>
      </g>
     </g>
    </g>
   </g>
   <g id="line2d_18">
    <path clip-path="url(#p303fd311c2)" d="M 35.789261 167.227985 
L 136.686525 167.227985 
L 270.375401 51.414309 
L 270.375401 51.414309 
" style="fill:none;stroke:#4c72b0;stroke-linecap:round;stroke-width:0.75;"/>
   </g>
   <g id="line2d_19">
    <path clip-path="url(#p303fd311c2)" d="M 35.789261 167.444109 
L 54.287093 167.755608 
L 67.740061 168.201698 
L 78.670598 168.77439 
L 89.601135 169.566222 
L 110.621399 171.181437 
L 115.666262 171.283287 
L 119.870315 171.145859 
L 123.233557 170.841086 
L 126.596799 170.325181 
L 129.960041 169.566473 
L 133.323283 168.539567 
L 136.686525 167.227985 
L 140.049768 165.626015 
L 143.41301 163.73937 
L 146.776252 161.584526 
L 150.139494 159.18688 
L 154.343547 155.896984 
L 159.38841 151.610256 
L 165.274084 146.288158 
L 174.523 137.575842 
L 194.702452 118.515625 
L 207.31461 106.947345 
L 222.4492 93.382636 
L 242.628653 75.619331 
L 270.375401 51.455138 
L 270.375401 51.455138 
" style="fill:none;stroke:#dd8452;stroke-linecap:round;stroke-width:0.75;"/>
   </g>
   <g id="line2d_20">
    <path clip-path="url(#p303fd311c2)" d="M 35.789261 167.444108 
L 54.287093 167.755608 
L 67.740061 168.201698 
L 78.670598 168.77439 
L 89.601135 169.566222 
L 110.621399 171.181437 
L 115.666262 171.283287 
L 119.870315 171.145859 
L 123.233557 170.841086 
L 126.596799 170.325181 
L 129.960041 169.566474 
L 133.323283 168.539567 
L 136.686525 167.227985 
L 140.049768 165.626015 
L 143.41301 163.73937 
L 146.776252 161.584526 
L 150.139494 159.18688 
L 154.343547 155.896985 
L 159.38841 151.610256 
L 165.274084 146.288156 
L 174.523 137.575844 
L 194.702452 118.515624 
L 207.31461 106.947346 
L 222.4492 93.382634 
L 242.628653 75.619329 
L 270.375401 51.455136 
L 270.375401 51.455136 
" style="fill:none;stroke:#55a868;stroke-linecap:round;stroke-width:0.75;"/>
   </g>
   <g id="line2d_21">
    <path clip-path="url(#p303fd311c2)" d="M 35.789261 158.533869 
L 60.172766 160.831568 
L 73.625735 162.303195 
L 83.715462 163.616461 
L 92.123567 164.919194 
L 100.531672 166.441004 
L 116.507072 169.426096 
L 120.711125 169.897596 
L 124.074367 170.025547 
L 126.596799 169.92549 
L 129.119231 169.621511 
L 131.641662 169.084642 
L 134.164094 168.291777 
L 136.686525 167.227985 
L 139.208957 165.888097 
L 141.731389 164.277282 
L 144.25382 162.410471 
L 146.776252 160.310769 
L 150.139494 157.199483 
L 154.343547 152.917794 
L 159.38841 147.397158 
L 167.796515 137.788225 
L 181.249484 122.454184 
L 191.33921 111.300924 
L 203.951368 97.71835 
L 220.767579 79.963589 
L 251.877569 47.498627 
L 270.375401 28.256465 
L 270.375401 28.256465 
" style="fill:none;stroke:#c44e52;stroke-linecap:round;stroke-width:0.75;"/>
   </g>
   <g id="line2d_22">
    <path clip-path="url(#p303fd311c2)" d="M 35.789261 176.872583 
L 51.764661 176.043749 
L 67.740061 175.444122 
L 100.531672 174.343314 
L 107.258157 173.829303 
L 113.14383 173.163384 
L 118.188694 172.38044 
L 123.233557 171.359206 
L 127.437609 170.300249 
L 131.641662 169.034611 
L 135.845715 167.551299 
L 140.049768 165.845621 
L 144.25382 163.919601 
L 149.298683 161.329995 
L 154.343547 158.461289 
L 159.38841 155.347942 
L 165.274084 151.459525 
L 172.000568 146.757455 
L 181.249484 140.000221 
L 198.906505 126.740437 
L 219.085958 111.689894 
L 236.742979 98.813319 
L 256.922432 84.385976 
L 270.375401 74.886326 
L 270.375401 74.886326 
" style="fill:none;stroke:#8172b3;stroke-linecap:round;stroke-width:0.75;"/>
   </g>
   <g id="line2d_23">
    <path clip-path="url(#p303fd311c2)" d="M 35.789261 167.227985 
L 134.164094 167.331618 
L 135.845715 167.423879 
L 136.686525 167.227985 
L 137.527336 166.695491 
L 150.139494 155.57378 
L 270.375401 51.414312 
L 270.375401 51.414312 
" style="fill:none;stroke:#937860;stroke-linecap:round;stroke-width:0.75;"/>
   </g>
   <g id="line2d_24">
    <path clip-path="url(#p303fd311c2)" d="M 35.789261 254.634533 
L 270.375401 51.414312 
L 270.375401 51.414312 
" style="fill:none;stroke:#da8bc3;stroke-linecap:round;stroke-width:0.75;"/>
   </g>
   <g id="patch_3">
    <path d="M 24.059954 265.953436 
L 24.059954 16.937561 
" style="fill:none;stroke:#ffffff;stroke-linecap:square;stroke-linejoin:miter;stroke-width:0.625;"/>
   </g>
   <g id="patch_4">
    <path d="M 282.104708 265.953436 
L 282.104708 16.937561 
" style="fill:none;stroke:#ffffff;stroke-linecap:square;stroke-linejoin:miter;stroke-width:0.625;"/>
   </g>
   <g id="patch_5">
    <path d="M 24.059954 265.953436 
L 282.104708 265.953436 
" style="fill:none;stroke:#ffffff;stroke-linecap:square;stroke-linejoin:miter;stroke-width:0.625;"/>
   </g>
   <g id="patch_6">
    <path d="M 24.059954 16.937561 
L 282.104708 16.937561 
" style="fill:none;stroke:#ffffff;stroke-linecap:square;stroke-linejoin:miter;stroke-width:0.625;"/>
   </g>
   <g id="text_18">
    <!-- ACON-C activation function -->
    <g style="fill:#262626;" transform="translate(112.1853 10.937561)scale(0.06 -0.06)">
     <defs>
      <path d="M 34.1875 63.1875 
L 20.796875 26.90625 
L 47.609375 26.90625 
z
M 28.609375 72.90625 
L 39.796875 72.90625 
L 67.578125 0 
L 57.328125 0 
L 50.6875 18.703125 
L 17.828125 18.703125 
L 11.1875 0 
L 0.78125 0 
z
" id="DejaVuSans-65"/>
      <path d="M 64.40625 67.28125 
L 64.40625 56.890625 
Q 59.421875 61.53125 53.78125 63.8125 
Q 48.140625 66.109375 41.796875 66.109375 
Q 29.296875 66.109375 22.65625 58.46875 
Q 16.015625 50.828125 16.015625 36.375 
Q 16.015625 21.96875 22.65625 14.328125 
Q 29.296875 6.6875 41.796875 6.6875 
Q 48.140625 6.6875 53.78125 8.984375 
Q 59.421875 11.28125 64.40625 15.921875 
L 64.40625 5.609375 
Q 59.234375 2.09375 53.4375 0.328125 
Q 47.65625 -1.421875 41.21875 -1.421875 
Q 24.65625 -1.421875 15.125 8.703125 
Q 5.609375 18.84375 5.609375 36.375 
Q 5.609375 53.953125 15.125 64.078125 
Q 24.65625 74.21875 41.21875 74.21875 
Q 47.75 74.21875 53.53125 72.484375 
Q 59.328125 70.75 64.40625 67.28125 
z
" id="DejaVuSans-67"/>
      <path d="M 39.40625 66.21875 
Q 28.65625 66.21875 22.328125 58.203125 
Q 16.015625 50.203125 16.015625 36.375 
Q 16.015625 22.609375 22.328125 14.59375 
Q 28.65625 6.59375 39.40625 6.59375 
Q 50.140625 6.59375 56.421875 14.59375 
Q 62.703125 22.609375 62.703125 36.375 
Q 62.703125 50.203125 56.421875 58.203125 
Q 50.140625 66.21875 39.40625 66.21875 
z
M 39.40625 74.21875 
Q 54.734375 74.21875 63.90625 63.9375 
Q 73.09375 53.65625 73.09375 36.375 
Q 73.09375 19.140625 63.90625 8.859375 
Q 54.734375 -1.421875 39.40625 -1.421875 
Q 24.03125 -1.421875 14.8125 8.828125 
Q 5.609375 19.09375 5.609375 36.375 
Q 5.609375 53.65625 14.8125 63.9375 
Q 24.03125 74.21875 39.40625 74.21875 
z
" id="DejaVuSans-79"/>
      <path d="M 9.8125 72.90625 
L 23.09375 72.90625 
L 55.421875 11.921875 
L 55.421875 72.90625 
L 64.984375 72.90625 
L 64.984375 0 
L 51.703125 0 
L 19.390625 60.984375 
L 19.390625 0 
L 9.8125 0 
z
" id="DejaVuSans-78"/>
      <path d="M 4.890625 31.390625 
L 31.203125 31.390625 
L 31.203125 23.390625 
L 4.890625 23.390625 
z
" id="DejaVuSans-45"/>
      <path id="DejaVuSans-32"/>
      <path d="M 34.28125 27.484375 
Q 23.390625 27.484375 19.1875 25 
Q 14.984375 22.515625 14.984375 16.5 
Q 14.984375 11.71875 18.140625 8.90625 
Q 21.296875 6.109375 26.703125 6.109375 
Q 34.1875 6.109375 38.703125 11.40625 
Q 43.21875 16.703125 43.21875 25.484375 
L 43.21875 27.484375 
z
M 52.203125 31.203125 
L 52.203125 0 
L 43.21875 0 
L 43.21875 8.296875 
Q 40.140625 3.328125 35.546875 0.953125 
Q 30.953125 -1.421875 24.3125 -1.421875 
Q 15.921875 -1.421875 10.953125 3.296875 
Q 6 8.015625 6 15.921875 
Q 6 25.140625 12.171875 29.828125 
Q 18.359375 34.515625 30.609375 34.515625 
L 43.21875 34.515625 
L 43.21875 35.40625 
Q 43.21875 41.609375 39.140625 45 
Q 35.0625 48.390625 27.6875 48.390625 
Q 23 48.390625 18.546875 47.265625 
Q 14.109375 46.140625 10.015625 43.890625 
L 10.015625 52.203125 
Q 14.9375 54.109375 19.578125 55.046875 
Q 24.21875 56 28.609375 56 
Q 40.484375 56 46.34375 49.84375 
Q 52.203125 43.703125 52.203125 31.203125 
z
" id="DejaVuSans-97"/>
      <path d="M 48.78125 52.59375 
L 48.78125 44.1875 
Q 44.96875 46.296875 41.140625 47.34375 
Q 37.3125 48.390625 33.40625 48.390625 
Q 24.65625 48.390625 19.8125 42.84375 
Q 14.984375 37.3125 14.984375 27.296875 
Q 14.984375 17.28125 19.8125 11.734375 
Q 24.65625 6.203125 33.40625 6.203125 
Q 37.3125 6.203125 41.140625 7.25 
Q 44.96875 8.296875 48.78125 10.40625 
L 48.78125 2.09375 
Q 45.015625 0.34375 40.984375 -0.53125 
Q 36.96875 -1.421875 32.421875 -1.421875 
Q 20.0625 -1.421875 12.78125 6.34375 
Q 5.515625 14.109375 5.515625 27.296875 
Q 5.515625 40.671875 12.859375 48.328125 
Q 20.21875 56 33.015625 56 
Q 37.15625 56 41.109375 55.140625 
Q 45.0625 54.296875 48.78125 52.59375 
z
" id="DejaVuSans-99"/>
      <path d="M 18.3125 70.21875 
L 18.3125 54.6875 
L 36.8125 54.6875 
L 36.8125 47.703125 
L 18.3125 47.703125 
L 18.3125 18.015625 
Q 18.3125 11.328125 20.140625 9.421875 
Q 21.96875 7.515625 27.59375 7.515625 
L 36.8125 7.515625 
L 36.8125 0 
L 27.59375 0 
Q 17.1875 0 13.234375 3.875 
Q 9.28125 7.765625 9.28125 18.015625 
L 9.28125 47.703125 
L 2.6875 47.703125 
L 2.6875 54.6875 
L 9.28125 54.6875 
L 9.28125 70.21875 
z
" id="DejaVuSans-116"/>
      <path d="M 9.421875 54.6875 
L 18.40625 54.6875 
L 18.40625 0 
L 9.421875 0 
z
M 9.421875 75.984375 
L 18.40625 75.984375 
L 18.40625 64.59375 
L 9.421875 64.59375 
z
" id="DejaVuSans-105"/>
      <path d="M 2.984375 54.6875 
L 12.5 54.6875 
L 29.59375 8.796875 
L 46.6875 54.6875 
L 56.203125 54.6875 
L 35.6875 0 
L 23.484375 0 
z
" id="DejaVuSans-118"/>
      <path d="M 30.609375 48.390625 
Q 23.390625 48.390625 19.1875 42.75 
Q 14.984375 37.109375 14.984375 27.296875 
Q 14.984375 17.484375 19.15625 11.84375 
Q 23.34375 6.203125 30.609375 6.203125 
Q 37.796875 6.203125 41.984375 11.859375 
Q 46.1875 17.53125 46.1875 27.296875 
Q 46.1875 37.015625 41.984375 42.703125 
Q 37.796875 48.390625 30.609375 48.390625 
z
M 30.609375 56 
Q 42.328125 56 49.015625 48.375 
Q 55.71875 40.765625 55.71875 27.296875 
Q 55.71875 13.875 49.015625 6.21875 
Q 42.328125 -1.421875 30.609375 -1.421875 
Q 18.84375 -1.421875 12.171875 6.21875 
Q 5.515625 13.875 5.515625 27.296875 
Q 5.515625 40.765625 12.171875 48.375 
Q 18.84375 56 30.609375 56 
z
" id="DejaVuSans-111"/>
      <path d="M 54.890625 33.015625 
L 54.890625 0 
L 45.90625 0 
L 45.90625 32.71875 
Q 45.90625 40.484375 42.875 44.328125 
Q 39.84375 48.1875 33.796875 48.1875 
Q 26.515625 48.1875 22.3125 43.546875 
Q 18.109375 38.921875 18.109375 30.90625 
L 18.109375 0 
L 9.078125 0 
L 9.078125 54.6875 
L 18.109375 54.6875 
L 18.109375 46.1875 
Q 21.34375 51.125 25.703125 53.5625 
Q 30.078125 56 35.796875 56 
Q 45.21875 56 50.046875 50.171875 
Q 54.890625 44.34375 54.890625 33.015625 
z
" id="DejaVuSans-110"/>
      <path d="M 37.109375 75.984375 
L 37.109375 68.5 
L 28.515625 68.5 
Q 23.6875 68.5 21.796875 66.546875 
Q 19.921875 64.59375 19.921875 59.515625 
L 19.921875 54.6875 
L 34.71875 54.6875 
L 34.71875 47.703125 
L 19.921875 47.703125 
L 19.921875 0 
L 10.890625 0 
L 10.890625 47.703125 
L 2.296875 47.703125 
L 2.296875 54.6875 
L 10.890625 54.6875 
L 10.890625 58.5 
Q 10.890625 67.625 15.140625 71.796875 
Q 19.390625 75.984375 28.609375 75.984375 
z
" id="DejaVuSans-102"/>
      <path d="M 8.5 21.578125 
L 8.5 54.6875 
L 17.484375 54.6875 
L 17.484375 21.921875 
Q 17.484375 14.15625 20.5 10.265625 
Q 23.53125 6.390625 29.59375 6.390625 
Q 36.859375 6.390625 41.078125 11.03125 
Q 45.3125 15.671875 45.3125 23.6875 
L 45.3125 54.6875 
L 54.296875 54.6875 
L 54.296875 0 
L 45.3125 0 
L 45.3125 8.40625 
Q 42.046875 3.421875 37.71875 1 
Q 33.40625 -1.421875 27.6875 -1.421875 
Q 18.265625 -1.421875 13.375 4.4375 
Q 8.5 10.296875 8.5 21.578125 
z
M 31.109375 56 
z
" id="DejaVuSans-117"/>
     </defs>
     <use xlink:href="#DejaVuSans-65"/>
     <use x="66.658203" xlink:href="#DejaVuSans-67"/>
     <use x="136.482422" xlink:href="#DejaVuSans-79"/>
     <use x="215.193359" xlink:href="#DejaVuSans-78"/>
     <use x="289.998047" xlink:href="#DejaVuSans-45"/>
     <use x="326.082031" xlink:href="#DejaVuSans-67"/>
     <use x="395.90625" xlink:href="#DejaVuSans-32"/>
     <use x="427.693359" xlink:href="#DejaVuSans-97"/>
     <use x="488.972656" xlink:href="#DejaVuSans-99"/>
     <use x="543.953125" xlink:href="#DejaVuSans-116"/>
     <use x="583.162109" xlink:href="#DejaVuSans-105"/>
     <use x="610.945312" xlink:href="#DejaVuSans-118"/>
     <use x="670.125" xlink:href="#DejaVuSans-97"/>
     <use x="731.404297" xlink:href="#DejaVuSans-116"/>
     <use x="770.613281" xlink:href="#DejaVuSans-105"/>
     <use x="798.396484" xlink:href="#DejaVuSans-111"/>
     <use x="859.578125" xlink:href="#DejaVuSans-110"/>
     <use x="922.957031" xlink:href="#DejaVuSans-32"/>
     <use x="954.744141" xlink:href="#DejaVuSans-102"/>
     <use x="989.949219" xlink:href="#DejaVuSans-117"/>
     <use x="1053.328125" xlink:href="#DejaVuSans-110"/>
     <use x="1116.707031" xlink:href="#DejaVuSans-99"/>
     <use x="1171.6875" xlink:href="#DejaVuSans-116"/>
     <use x="1210.896484" xlink:href="#DejaVuSans-105"/>
     <use x="1238.679688" xlink:href="#DejaVuSans-111"/>
     <use x="1299.861328" xlink:href="#DejaVuSans-110"/>
    </g>
   </g>
   <g id="legend_1">
    <g id="line2d_25">
     <path d="M 29.009954 24.141702 
L 40.009954 24.141702 
" style="fill:none;stroke:#4c72b0;stroke-linecap:round;stroke-width:0.75;"/>
    </g>
    <g id="line2d_26"/>
    <g id="text_19">
     <!-- relu -->
     <g style="fill:#262626;" transform="translate(44.409954 26.066702)scale(0.055 -0.055)">
      <defs>
       <path d="M 41.109375 46.296875 
Q 39.59375 47.171875 37.8125 47.578125 
Q 36.03125 48 33.890625 48 
Q 26.265625 48 22.1875 43.046875 
Q 18.109375 38.09375 18.109375 28.8125 
L 18.109375 0 
L 9.078125 0 
L 9.078125 54.6875 
L 18.109375 54.6875 
L 18.109375 46.1875 
Q 20.953125 51.171875 25.484375 53.578125 
Q 30.03125 56 36.53125 56 
Q 37.453125 56 38.578125 55.875 
Q 39.703125 55.765625 41.0625 55.515625 
z
" id="DejaVuSans-114"/>
       <path d="M 56.203125 29.59375 
L 56.203125 25.203125 
L 14.890625 25.203125 
Q 15.484375 15.921875 20.484375 11.0625 
Q 25.484375 6.203125 34.421875 6.203125 
Q 39.59375 6.203125 44.453125 7.46875 
Q 49.3125 8.734375 54.109375 11.28125 
L 54.109375 2.78125 
Q 49.265625 0.734375 44.1875 -0.34375 
Q 39.109375 -1.421875 33.890625 -1.421875 
Q 20.796875 -1.421875 13.15625 6.1875 
Q 5.515625 13.8125 5.515625 26.8125 
Q 5.515625 40.234375 12.765625 48.109375 
Q 20.015625 56 32.328125 56 
Q 43.359375 56 49.78125 48.890625 
Q 56.203125 41.796875 56.203125 29.59375 
z
M 47.21875 32.234375 
Q 47.125 39.59375 43.09375 43.984375 
Q 39.0625 48.390625 32.421875 48.390625 
Q 24.90625 48.390625 20.390625 44.140625 
Q 15.875 39.890625 15.1875 32.171875 
z
" id="DejaVuSans-101"/>
       <path d="M 9.421875 75.984375 
L 18.40625 75.984375 
L 18.40625 0 
L 9.421875 0 
z
" id="DejaVuSans-108"/>
      </defs>
      <use xlink:href="#DejaVuSans-114"/>
      <use x="38.863281" xlink:href="#DejaVuSans-101"/>
      <use x="100.386719" xlink:href="#DejaVuSans-108"/>
      <use x="128.169922" xlink:href="#DejaVuSans-117"/>
     </g>
    </g>
    <g id="line2d_27">
     <path d="M 29.009954 32.214671 
L 40.009954 32.214671 
" style="fill:none;stroke:#dd8452;stroke-linecap:round;stroke-width:0.75;"/>
    </g>
    <g id="line2d_28"/>
    <g id="text_20">
     <!-- swish -->
     <g style="fill:#262626;" transform="translate(44.409954 34.139671)scale(0.055 -0.055)">
      <defs>
       <path d="M 44.28125 53.078125 
L 44.28125 44.578125 
Q 40.484375 46.53125 36.375 47.5 
Q 32.28125 48.484375 27.875 48.484375 
Q 21.1875 48.484375 17.84375 46.4375 
Q 14.5 44.390625 14.5 40.28125 
Q 14.5 37.15625 16.890625 35.375 
Q 19.28125 33.59375 26.515625 31.984375 
L 29.59375 31.296875 
Q 39.15625 29.25 43.1875 25.515625 
Q 47.21875 21.78125 47.21875 15.09375 
Q 47.21875 7.46875 41.1875 3.015625 
Q 35.15625 -1.421875 24.609375 -1.421875 
Q 20.21875 -1.421875 15.453125 -0.5625 
Q 10.6875 0.296875 5.421875 2 
L 5.421875 11.28125 
Q 10.40625 8.6875 15.234375 7.390625 
Q 20.0625 6.109375 24.8125 6.109375 
Q 31.15625 6.109375 34.5625 8.28125 
Q 37.984375 10.453125 37.984375 14.40625 
Q 37.984375 18.0625 35.515625 20.015625 
Q 33.0625 21.96875 24.703125 23.78125 
L 21.578125 24.515625 
Q 13.234375 26.265625 9.515625 29.90625 
Q 5.8125 33.546875 5.8125 39.890625 
Q 5.8125 47.609375 11.28125 51.796875 
Q 16.75 56 26.8125 56 
Q 31.78125 56 36.171875 55.265625 
Q 40.578125 54.546875 44.28125 53.078125 
z
" id="DejaVuSans-115"/>
       <path d="M 4.203125 54.6875 
L 13.1875 54.6875 
L 24.421875 12.015625 
L 35.59375 54.6875 
L 46.1875 54.6875 
L 57.421875 12.015625 
L 68.609375 54.6875 
L 77.59375 54.6875 
L 63.28125 0 
L 52.6875 0 
L 40.921875 44.828125 
L 29.109375 0 
L 18.5 0 
z
" id="DejaVuSans-119"/>
       <path d="M 54.890625 33.015625 
L 54.890625 0 
L 45.90625 0 
L 45.90625 32.71875 
Q 45.90625 40.484375 42.875 44.328125 
Q 39.84375 48.1875 33.796875 48.1875 
Q 26.515625 48.1875 22.3125 43.546875 
Q 18.109375 38.921875 18.109375 30.90625 
L 18.109375 0 
L 9.078125 0 
L 9.078125 75.984375 
L 18.109375 75.984375 
L 18.109375 46.1875 
Q 21.34375 51.125 25.703125 53.5625 
Q 30.078125 56 35.796875 56 
Q 45.21875 56 50.046875 50.171875 
Q 54.890625 44.34375 54.890625 33.015625 
z
" id="DejaVuSans-104"/>
      </defs>
      <use xlink:href="#DejaVuSans-115"/>
      <use x="52.099609" xlink:href="#DejaVuSans-119"/>
      <use x="133.886719" xlink:href="#DejaVuSans-105"/>
      <use x="161.669922" xlink:href="#DejaVuSans-115"/>
      <use x="213.769531" xlink:href="#DejaVuSans-104"/>
     </g>
    </g>
    <g id="line2d_29">
     <path d="M 29.009954 40.28764 
L 40.009954 40.28764 
" style="fill:none;stroke:#55a868;stroke-linecap:round;stroke-width:0.75;"/>
    </g>
    <g id="line2d_30"/>
    <g id="text_21">
     <!-- aconC swish, [1, 0, 1] -->
     <g style="fill:#262626;" transform="translate(44.409954 42.21264)scale(0.055 -0.055)">
      <defs>
       <path d="M 11.71875 12.40625 
L 22.015625 12.40625 
L 22.015625 4 
L 14.015625 -11.625 
L 7.71875 -11.625 
L 11.71875 4 
z
" id="DejaVuSans-44"/>
       <path d="M 8.59375 75.984375 
L 29.296875 75.984375 
L 29.296875 69 
L 17.578125 69 
L 17.578125 -6.203125 
L 29.296875 -6.203125 
L 29.296875 -13.1875 
L 8.59375 -13.1875 
z
" id="DejaVuSans-91"/>
       <path d="M 30.421875 75.984375 
L 30.421875 -13.1875 
L 9.71875 -13.1875 
L 9.71875 -6.203125 
L 21.390625 -6.203125 
L 21.390625 69 
L 9.71875 69 
L 9.71875 75.984375 
z
" id="DejaVuSans-93"/>
      </defs>
      <use xlink:href="#DejaVuSans-97"/>
      <use x="61.279297" xlink:href="#DejaVuSans-99"/>
      <use x="116.259766" xlink:href="#DejaVuSans-111"/>
      <use x="177.441406" xlink:href="#DejaVuSans-110"/>
      <use x="240.820312" xlink:href="#DejaVuSans-67"/>
      <use x="310.644531" xlink:href="#DejaVuSans-32"/>
      <use x="342.431641" xlink:href="#DejaVuSans-115"/>
      <use x="394.53125" xlink:href="#DejaVuSans-119"/>
      <use x="476.318359" xlink:href="#DejaVuSans-105"/>
      <use x="504.101562" xlink:href="#DejaVuSans-115"/>
      <use x="556.201172" xlink:href="#DejaVuSans-104"/>
      <use x="619.580078" xlink:href="#DejaVuSans-44"/>
      <use x="651.367188" xlink:href="#DejaVuSans-32"/>
      <use x="683.154297" xlink:href="#DejaVuSans-91"/>
      <use x="722.167969" xlink:href="#DejaVuSans-49"/>
      <use x="785.791016" xlink:href="#DejaVuSans-44"/>
      <use x="817.578125" xlink:href="#DejaVuSans-32"/>
      <use x="849.365234" xlink:href="#DejaVuSans-48"/>
      <use x="912.988281" xlink:href="#DejaVuSans-44"/>
      <use x="944.775391" xlink:href="#DejaVuSans-32"/>
      <use x="976.5625" xlink:href="#DejaVuSans-49"/>
      <use x="1040.185547" xlink:href="#DejaVuSans-93"/>
     </g>
    </g>
    <g id="line2d_31">
     <path d="M 29.009954 48.360608 
L 40.009954 48.360608 
" style="fill:none;stroke:#c44e52;stroke-linecap:round;stroke-width:0.75;"/>
    </g>
    <g id="line2d_32"/>
    <g id="text_22">
     <!-- aconC [1.3, -0.1, 1] -->
     <g style="fill:#262626;" transform="translate(44.409954 50.285608)scale(0.055 -0.055)">
      <defs>
       <path d="M 10.6875 12.40625 
L 21 12.40625 
L 21 0 
L 10.6875 0 
z
" id="DejaVuSans-46"/>
       <path d="M 40.578125 39.3125 
Q 47.65625 37.796875 51.625 33 
Q 55.609375 28.21875 55.609375 21.1875 
Q 55.609375 10.40625 48.1875 4.484375 
Q 40.765625 -1.421875 27.09375 -1.421875 
Q 22.515625 -1.421875 17.65625 -0.515625 
Q 12.796875 0.390625 7.625 2.203125 
L 7.625 11.71875 
Q 11.71875 9.328125 16.59375 8.109375 
Q 21.484375 6.890625 26.8125 6.890625 
Q 36.078125 6.890625 40.9375 10.546875 
Q 45.796875 14.203125 45.796875 21.1875 
Q 45.796875 27.640625 41.28125 31.265625 
Q 36.765625 34.90625 28.71875 34.90625 
L 20.21875 34.90625 
L 20.21875 43.015625 
L 29.109375 43.015625 
Q 36.375 43.015625 40.234375 45.921875 
Q 44.09375 48.828125 44.09375 54.296875 
Q 44.09375 59.90625 40.109375 62.90625 
Q 36.140625 65.921875 28.71875 65.921875 
Q 24.65625 65.921875 20.015625 65.03125 
Q 15.375 64.15625 9.8125 62.3125 
L 9.8125 71.09375 
Q 15.4375 72.65625 20.34375 73.4375 
Q 25.25 74.21875 29.59375 74.21875 
Q 40.828125 74.21875 47.359375 69.109375 
Q 53.90625 64.015625 53.90625 55.328125 
Q 53.90625 49.265625 50.4375 45.09375 
Q 46.96875 40.921875 40.578125 39.3125 
z
" id="DejaVuSans-51"/>
      </defs>
      <use xlink:href="#DejaVuSans-97"/>
      <use x="61.279297" xlink:href="#DejaVuSans-99"/>
      <use x="116.259766" xlink:href="#DejaVuSans-111"/>
      <use x="177.441406" xlink:href="#DejaVuSans-110"/>
      <use x="240.820312" xlink:href="#DejaVuSans-67"/>
      <use x="310.644531" xlink:href="#DejaVuSans-32"/>
      <use x="342.431641" xlink:href="#DejaVuSans-91"/>
      <use x="381.445312" xlink:href="#DejaVuSans-49"/>
      <use x="445.068359" xlink:href="#DejaVuSans-46"/>
      <use x="476.855469" xlink:href="#DejaVuSans-51"/>
      <use x="540.478516" xlink:href="#DejaVuSans-44"/>
      <use x="572.265625" xlink:href="#DejaVuSans-32"/>
      <use x="604.052734" xlink:href="#DejaVuSans-45"/>
      <use x="640.136719" xlink:href="#DejaVuSans-48"/>
      <use x="703.759766" xlink:href="#DejaVuSans-46"/>
      <use x="735.546875" xlink:href="#DejaVuSans-49"/>
      <use x="799.169922" xlink:href="#DejaVuSans-44"/>
      <use x="830.957031" xlink:href="#DejaVuSans-32"/>
      <use x="862.744141" xlink:href="#DejaVuSans-49"/>
      <use x="926.367188" xlink:href="#DejaVuSans-93"/>
     </g>
    </g>
    <g id="line2d_33">
     <path d="M 29.009954 56.433577 
L 40.009954 56.433577 
" style="fill:none;stroke:#8172b3;stroke-linecap:round;stroke-width:0.75;"/>
    </g>
    <g id="line2d_34"/>
    <g id="text_23">
     <!-- aconC [0.7, 0.1, 1] -->
     <g style="fill:#262626;" transform="translate(44.409954 58.358577)scale(0.055 -0.055)">
      <defs>
       <path d="M 8.203125 72.90625 
L 55.078125 72.90625 
L 55.078125 68.703125 
L 28.609375 0 
L 18.3125 0 
L 43.21875 64.59375 
L 8.203125 64.59375 
z
" id="DejaVuSans-55"/>
      </defs>
      <use xlink:href="#DejaVuSans-97"/>
      <use x="61.279297" xlink:href="#DejaVuSans-99"/>
      <use x="116.259766" xlink:href="#DejaVuSans-111"/>
      <use x="177.441406" xlink:href="#DejaVuSans-110"/>
      <use x="240.820312" xlink:href="#DejaVuSans-67"/>
      <use x="310.644531" xlink:href="#DejaVuSans-32"/>
      <use x="342.431641" xlink:href="#DejaVuSans-91"/>
      <use x="381.445312" xlink:href="#DejaVuSans-48"/>
      <use x="445.068359" xlink:href="#DejaVuSans-46"/>
      <use x="476.855469" xlink:href="#DejaVuSans-55"/>
      <use x="540.478516" xlink:href="#DejaVuSans-44"/>
      <use x="572.265625" xlink:href="#DejaVuSans-32"/>
      <use x="604.052734" xlink:href="#DejaVuSans-48"/>
      <use x="667.675781" xlink:href="#DejaVuSans-46"/>
      <use x="699.462891" xlink:href="#DejaVuSans-49"/>
      <use x="763.085938" xlink:href="#DejaVuSans-44"/>
      <use x="794.873047" xlink:href="#DejaVuSans-32"/>
      <use x="826.660156" xlink:href="#DejaVuSans-49"/>
      <use x="890.283203" xlink:href="#DejaVuSans-93"/>
     </g>
    </g>
    <g id="line2d_35">
     <path d="M 29.009954 64.506546 
L 40.009954 64.506546 
" style="fill:none;stroke:#937860;stroke-linecap:round;stroke-width:0.75;"/>
    </g>
    <g id="line2d_36"/>
    <g id="text_24">
     <!-- aconC relu, [1, 0, 20] -->
     <g style="fill:#262626;" transform="translate(44.409954 66.431546)scale(0.055 -0.055)">
      <use xlink:href="#DejaVuSans-97"/>
      <use x="61.279297" xlink:href="#DejaVuSans-99"/>
      <use x="116.259766" xlink:href="#DejaVuSans-111"/>
      <use x="177.441406" xlink:href="#DejaVuSans-110"/>
      <use x="240.820312" xlink:href="#DejaVuSans-67"/>
      <use x="310.644531" xlink:href="#DejaVuSans-32"/>
      <use x="342.431641" xlink:href="#DejaVuSans-114"/>
      <use x="381.294922" xlink:href="#DejaVuSans-101"/>
      <use x="442.818359" xlink:href="#DejaVuSans-108"/>
      <use x="470.601562" xlink:href="#DejaVuSans-117"/>
      <use x="533.980469" xlink:href="#DejaVuSans-44"/>
      <use x="565.767578" xlink:href="#DejaVuSans-32"/>
      <use x="597.554688" xlink:href="#DejaVuSans-91"/>
      <use x="636.568359" xlink:href="#DejaVuSans-49"/>
      <use x="700.191406" xlink:href="#DejaVuSans-44"/>
      <use x="731.978516" xlink:href="#DejaVuSans-32"/>
      <use x="763.765625" xlink:href="#DejaVuSans-48"/>
      <use x="827.388672" xlink:href="#DejaVuSans-44"/>
      <use x="859.175781" xlink:href="#DejaVuSans-32"/>
      <use x="890.962891" xlink:href="#DejaVuSans-50"/>
      <use x="954.585938" xlink:href="#DejaVuSans-48"/>
      <use x="1018.208984" xlink:href="#DejaVuSans-93"/>
     </g>
    </g>
    <g id="line2d_37">
     <path d="M 29.009954 72.579515 
L 40.009954 72.579515 
" style="fill:none;stroke:#da8bc3;stroke-linecap:round;stroke-width:0.75;"/>
    </g>
    <g id="line2d_38"/>
    <g id="text_25">
     <!-- aconC linear, [0, 1, 0] -->
     <g style="fill:#262626;" transform="translate(44.409954 74.504515)scale(0.055 -0.055)">
      <use xlink:href="#DejaVuSans-97"/>
      <use x="61.279297" xlink:href="#DejaVuSans-99"/>
      <use x="116.259766" xlink:href="#DejaVuSans-111"/>
      <use x="177.441406" xlink:href="#DejaVuSans-110"/>
      <use x="240.820312" xlink:href="#DejaVuSans-67"/>
      <use x="310.644531" xlink:href="#DejaVuSans-32"/>
      <use x="342.431641" xlink:href="#DejaVuSans-108"/>
      <use x="370.214844" xlink:href="#DejaVuSans-105"/>
      <use x="397.998047" xlink:href="#DejaVuSans-110"/>
      <use x="461.376953" xlink:href="#DejaVuSans-101"/>
      <use x="522.900391" xlink:href="#DejaVuSans-97"/>
      <use x="584.179688" xlink:href="#DejaVuSans-114"/>
      <use x="625.292969" xlink:href="#DejaVuSans-44"/>
      <use x="657.080078" xlink:href="#DejaVuSans-32"/>
      <use x="688.867188" xlink:href="#DejaVuSans-91"/>
      <use x="727.880859" xlink:href="#DejaVuSans-48"/>
      <use x="791.503906" xlink:href="#DejaVuSans-44"/>
      <use x="823.291016" xlink:href="#DejaVuSans-32"/>
      <use x="855.078125" xlink:href="#DejaVuSans-49"/>
      <use x="918.701172" xlink:href="#DejaVuSans-44"/>
      <use x="950.488281" xlink:href="#DejaVuSans-32"/>
      <use x="982.275391" xlink:href="#DejaVuSans-48"/>
      <use x="1045.898438" xlink:href="#DejaVuSans-93"/>
     </g>
    </g>
   </g>
  </g>
  <g id="axes_2">
   <g id="patch_7">
    <path d="M 311.4103 265.953436 
L 569.455054 265.953436 
L 569.455054 16.937561 
L 311.4103 16.937561 
z
" style="fill:#eaeaf2;"/>
   </g>
   <g id="matplotlib.axis_3">
    <g id="xtick_9">
     <g id="line2d_39">
      <path clip-path="url(#p5dd67cc8e7)" d="M 323.139607 265.953436 
L 323.139607 16.937561 
" style="fill:none;stroke:#ffffff;stroke-linecap:round;stroke-width:0.5;"/>
     </g>
     <g id="text_26">
      <!-- −60 -->
      <g style="fill:#262626;" transform="translate(317.335818 279.632577)scale(0.055 -0.055)">
       <use xlink:href="#DejaVuSans-8722"/>
       <use x="83.789062" xlink:href="#DejaVuSans-54"/>
       <use x="147.412109" xlink:href="#DejaVuSans-48"/>
      </g>
     </g>
    </g>
    <g id="xtick_10">
     <g id="line2d_40">
      <path clip-path="url(#p5dd67cc8e7)" d="M 362.253594 265.953436 
L 362.253594 16.937561 
" style="fill:none;stroke:#ffffff;stroke-linecap:round;stroke-width:0.5;"/>
     </g>
     <g id="text_27">
      <!-- −40 -->
      <g style="fill:#262626;" transform="translate(356.449805 279.632577)scale(0.055 -0.055)">
       <use xlink:href="#DejaVuSans-8722"/>
       <use x="83.789062" xlink:href="#DejaVuSans-52"/>
       <use x="147.412109" xlink:href="#DejaVuSans-48"/>
      </g>
     </g>
    </g>
    <g id="xtick_11">
     <g id="line2d_41">
      <path clip-path="url(#p5dd67cc8e7)" d="M 401.367582 265.953436 
L 401.367582 16.937561 
" style="fill:none;stroke:#ffffff;stroke-linecap:round;stroke-width:0.5;"/>
     </g>
     <g id="text_28">
      <!-- −20 -->
      <g style="fill:#262626;" transform="translate(395.563793 279.632577)scale(0.055 -0.055)">
       <use xlink:href="#DejaVuSans-8722"/>
       <use x="83.789062" xlink:href="#DejaVuSans-50"/>
       <use x="147.412109" xlink:href="#DejaVuSans-48"/>
      </g>
     </g>
    </g>
    <g id="xtick_12">
     <g id="line2d_42">
      <path clip-path="url(#p5dd67cc8e7)" d="M 440.481569 265.953436 
L 440.481569 16.937561 
" style="fill:none;stroke:#ffffff;stroke-linecap:round;stroke-width:0.5;"/>
     </g>
     <g id="text_29">
      <!-- 0 -->
      <g style="fill:#262626;" transform="translate(438.731882 279.632577)scale(0.055 -0.055)">
       <use xlink:href="#DejaVuSans-48"/>
      </g>
     </g>
    </g>
    <g id="xtick_13">
     <g id="line2d_43">
      <path clip-path="url(#p5dd67cc8e7)" d="M 479.595557 265.953436 
L 479.595557 16.937561 
" style="fill:none;stroke:#ffffff;stroke-linecap:round;stroke-width:0.5;"/>
     </g>
     <g id="text_30">
      <!-- 20 -->
      <g style="fill:#262626;" transform="translate(476.096182 279.632577)scale(0.055 -0.055)">
       <use xlink:href="#DejaVuSans-50"/>
       <use x="63.623047" xlink:href="#DejaVuSans-48"/>
      </g>
     </g>
    </g>
    <g id="xtick_14">
     <g id="line2d_44">
      <path clip-path="url(#p5dd67cc8e7)" d="M 518.709544 265.953436 
L 518.709544 16.937561 
" style="fill:none;stroke:#ffffff;stroke-linecap:round;stroke-width:0.5;"/>
     </g>
     <g id="text_31">
      <!-- 40 -->
      <g style="fill:#262626;" transform="translate(515.210169 279.632577)scale(0.055 -0.055)">
       <use xlink:href="#DejaVuSans-52"/>
       <use x="63.623047" xlink:href="#DejaVuSans-48"/>
      </g>
     </g>
    </g>
    <g id="xtick_15">
     <g id="line2d_45">
      <path clip-path="url(#p5dd67cc8e7)" d="M 557.823532 265.953436 
L 557.823532 16.937561 
" style="fill:none;stroke:#ffffff;stroke-linecap:round;stroke-width:0.5;"/>
     </g>
     <g id="text_32">
      <!-- 60 -->
      <g style="fill:#262626;" transform="translate(554.324157 279.632577)scale(0.055 -0.055)">
       <use xlink:href="#DejaVuSans-54"/>
       <use x="63.623047" xlink:href="#DejaVuSans-48"/>
      </g>
     </g>
    </g>
   </g>
   <g id="matplotlib.axis_4">
    <g id="ytick_10">
     <g id="line2d_46">
      <path clip-path="url(#p5dd67cc8e7)" d="M 311.4103 235.818923 
L 569.455054 235.818923 
" style="fill:none;stroke:#ffffff;stroke-linecap:round;stroke-width:0.5;"/>
     </g>
     <g id="text_33">
      <!-- 0.0 -->
      <g style="fill:#262626;" transform="translate(293.163581 237.908493)scale(0.055 -0.055)">
       <use xlink:href="#DejaVuSans-48"/>
       <use x="63.623047" xlink:href="#DejaVuSans-46"/>
       <use x="95.410156" xlink:href="#DejaVuSans-48"/>
      </g>
     </g>
    </g>
    <g id="ytick_11">
     <g id="line2d_47">
      <path clip-path="url(#p5dd67cc8e7)" d="M 311.4103 198.06954 
L 569.455054 198.06954 
" style="fill:none;stroke:#ffffff;stroke-linecap:round;stroke-width:0.5;"/>
     </g>
     <g id="text_34">
      <!-- 0.2 -->
      <g style="fill:#262626;" transform="translate(293.163581 200.15911)scale(0.055 -0.055)">
       <use xlink:href="#DejaVuSans-48"/>
       <use x="63.623047" xlink:href="#DejaVuSans-46"/>
       <use x="95.410156" xlink:href="#DejaVuSans-50"/>
      </g>
     </g>
    </g>
    <g id="ytick_12">
     <g id="line2d_48">
      <path clip-path="url(#p5dd67cc8e7)" d="M 311.4103 160.320157 
L 569.455054 160.320157 
" style="fill:none;stroke:#ffffff;stroke-linecap:round;stroke-width:0.5;"/>
     </g>
     <g id="text_35">
      <!-- 0.4 -->
      <g style="fill:#262626;" transform="translate(293.163581 162.409727)scale(0.055 -0.055)">
       <use xlink:href="#DejaVuSans-48"/>
       <use x="63.623047" xlink:href="#DejaVuSans-46"/>
       <use x="95.410156" xlink:href="#DejaVuSans-52"/>
      </g>
     </g>
    </g>
    <g id="ytick_13">
     <g id="line2d_49">
      <path clip-path="url(#p5dd67cc8e7)" d="M 311.4103 122.570774 
L 569.455054 122.570774 
" style="fill:none;stroke:#ffffff;stroke-linecap:round;stroke-width:0.5;"/>
     </g>
     <g id="text_36">
      <!-- 0.6 -->
      <g style="fill:#262626;" transform="translate(293.163581 124.660344)scale(0.055 -0.055)">
       <use xlink:href="#DejaVuSans-48"/>
       <use x="63.623047" xlink:href="#DejaVuSans-46"/>
       <use x="95.410156" xlink:href="#DejaVuSans-54"/>
      </g>
     </g>
    </g>
    <g id="ytick_14">
     <g id="line2d_50">
      <path clip-path="url(#p5dd67cc8e7)" d="M 311.4103 84.82139 
L 569.455054 84.82139 
" style="fill:none;stroke:#ffffff;stroke-linecap:round;stroke-width:0.5;"/>
     </g>
     <g id="text_37">
      <!-- 0.8 -->
      <g style="fill:#262626;" transform="translate(293.163581 86.910961)scale(0.055 -0.055)">
       <use xlink:href="#DejaVuSans-48"/>
       <use x="63.623047" xlink:href="#DejaVuSans-46"/>
       <use x="95.410156" xlink:href="#DejaVuSans-56"/>
      </g>
     </g>
    </g>
    <g id="ytick_15">
     <g id="line2d_51">
      <path clip-path="url(#p5dd67cc8e7)" d="M 311.4103 47.072007 
L 569.455054 47.072007 
" style="fill:none;stroke:#ffffff;stroke-linecap:round;stroke-width:0.5;"/>
     </g>
     <g id="text_38">
      <!-- 1.0 -->
      <g style="fill:#262626;" transform="translate(293.163581 49.161578)scale(0.055 -0.055)">
       <use xlink:href="#DejaVuSans-49"/>
       <use x="63.623047" xlink:href="#DejaVuSans-46"/>
       <use x="95.410156" xlink:href="#DejaVuSans-48"/>
      </g>
     </g>
    </g>
   </g>
   <g id="line2d_52">
    <path clip-path="url(#p5dd67cc8e7)" d="M 323.139607 235.818923 
L 421.413501 235.927998 
L 423.95591 236.157315 
L 425.618254 236.515702 
L 426.889459 237.013859 
L 427.965093 237.683682 
L 428.942943 238.581407 
L 429.823008 239.7063 
L 430.703073 241.208506 
L 431.583137 243.145446 
L 432.658772 246.088017 
L 434.516686 251.339117 
L 435.005611 252.068434 
L 435.298966 252.180016 
L 435.494536 252.075558 
L 435.787891 251.592312 
L 436.081246 250.641482 
L 436.472386 248.490735 
L 436.961311 244.077801 
L 437.450235 237.379662 
L 438.036945 225.902124 
L 438.72144 207.534819 
L 439.601505 176.903755 
L 442.535054 66.836864 
L 443.219549 50.761013 
L 443.806258 41.198169 
L 444.392968 35.118317 
L 444.881893 32.249473 
L 445.273033 31.089893 
L 445.566388 30.74341 
L 445.859743 30.753175 
L 446.153098 31.044623 
L 446.642022 31.981224 
L 447.424302 34.132486 
L 449.477787 39.982901 
L 450.455636 42.052396 
L 451.433486 43.597948 
L 452.411336 44.707802 
L 453.389185 45.48366 
L 454.46482 46.058455 
L 455.736025 46.483172 
L 457.398369 46.787152 
L 459.842993 46.976426 
L 464.438887 47.060487 
L 497.685776 47.072007 
L 557.725747 47.072007 
L 557.725747 47.072007 
" style="fill:none;stroke:#4c72b0;stroke-linecap:round;stroke-width:0.75;"/>
   </g>
   <g id="line2d_53">
    <path clip-path="url(#p5dd67cc8e7)" d="M 323.139607 235.818923 
L 430.507503 235.92227 
L 431.876492 236.165506 
L 432.756557 236.556067 
L 433.441052 237.121243 
L 434.027762 237.904353 
L 434.614471 239.087172 
L 435.201181 240.786933 
L 435.983461 243.878117 
L 436.863526 247.312785 
L 437.156881 247.741249 
L 437.35245 247.579815 
L 437.54802 246.930321 
L 437.841375 244.779967 
L 438.13473 240.875445 
L 438.52587 232.424081 
L 439.014795 216.291994 
L 439.69929 184.728079 
L 442.241699 56.184517 
L 442.730624 43.764046 
L 443.121764 38.110981 
L 443.415119 35.960597 
L 443.708473 35.176683 
L 443.904043 35.216217 
L 444.197398 35.849805 
L 444.686323 37.727372 
L 445.859743 42.426623 
L 446.544238 44.250279 
L 447.228732 45.420277 
L 447.913227 46.129129 
L 448.695507 46.585977 
L 449.673356 46.864734 
L 451.140131 47.016251 
L 454.46482 47.069532 
L 536.701979 47.072007 
L 557.725747 47.072007 
L 557.725747 47.072007 
" style="fill:none;stroke:#dd8452;stroke-linecap:round;stroke-width:0.75;"/>
   </g>
   <g id="line2d_54">
    <path clip-path="url(#p5dd67cc8e7)" d="M 323.139607 238.147765 
L 330.766835 238.98167 
L 337.611782 239.951608 
L 343.87002 241.058627 
L 349.834903 242.337667 
L 355.604217 243.800243 
L 361.471315 245.517433 
L 368.022908 247.676547 
L 384.255212 253.160026 
L 387.677686 253.987861 
L 390.51345 254.449658 
L 392.958075 254.62794 
L 395.109344 254.573681 
L 397.162828 254.300087 
L 399.020743 253.834442 
L 400.780872 253.17482 
L 402.541002 252.275975 
L 404.203346 251.182974 
L 405.865691 249.829013 
L 407.528035 248.190647 
L 409.190379 246.244724 
L 410.950509 243.823975 
L 412.710638 241.008164 
L 414.470768 237.774409 
L 416.328682 233.885825 
L 418.284382 229.245953 
L 420.240081 224.031938 
L 422.293565 217.933996 
L 424.54262 210.530829 
L 426.889459 202.027821 
L 429.529653 191.581702 
L 432.463202 179.02202 
L 435.983461 162.926313 
L 441.850559 134.855687 
L 447.130947 110.016555 
L 450.553421 94.979941 
L 453.389185 83.485619 
L 455.931594 74.067475 
L 458.278434 66.19045 
L 460.527488 59.412164 
L 462.678757 53.644865 
L 464.732242 48.787887 
L 466.687941 44.736017 
L 468.545855 41.3849 
L 470.40377 38.49567 
L 472.163899 36.1595 
L 473.924029 34.187566 
L 475.684158 32.552778 
L 477.444288 31.227596 
L 479.204417 30.184298 
L 480.964546 29.394804 
L 482.822461 28.807994 
L 484.77816 28.431248 
L 486.831645 28.265465 
L 489.080699 28.312806 
L 491.720893 28.618451 
L 494.458872 29.15846 
L 497.783561 30.036695 
L 501.988315 31.372138 
L 523.305438 38.515381 
L 529.661461 40.20273 
L 535.626344 41.539073 
L 542.666862 42.829695 
L 550.978584 44.006195 
L 557.725747 44.734487 
L 557.725747 44.734487 
" style="fill:none;stroke:#55a868;stroke-linecap:round;stroke-width:0.75;"/>
   </g>
   <g id="line2d_55">
    <path clip-path="url(#p5dd67cc8e7)" d="M 323.139607 235.818923 
L 437.93916 235.888928 
L 438.13473 236.158407 
L 438.428085 237.087969 
L 438.52587 235.818923 
L 438.819225 222.334265 
L 440.677139 132.008117 
L 442.535054 45.802963 
L 442.632839 45.947056 
L 442.926194 46.9141 
L 443.219549 47.05934 
L 444.784108 47.072007 
L 557.725747 47.072007 
L 557.725747 47.072007 
" style="fill:none;stroke:#c44e52;stroke-linecap:round;stroke-width:0.75;"/>
   </g>
   <g id="patch_8">
    <path d="M 311.4103 265.953436 
L 311.4103 16.937561 
" style="fill:none;stroke:#ffffff;stroke-linecap:square;stroke-linejoin:miter;stroke-width:0.625;"/>
   </g>
   <g id="patch_9">
    <path d="M 569.455054 265.953436 
L 569.455054 16.937561 
" style="fill:none;stroke:#ffffff;stroke-linecap:square;stroke-linejoin:miter;stroke-width:0.625;"/>
   </g>
   <g id="patch_10">
    <path d="M 311.4103 265.953436 
L 569.455054 265.953436 
" style="fill:none;stroke:#ffffff;stroke-linecap:square;stroke-linejoin:miter;stroke-width:0.625;"/>
   </g>
   <g id="patch_11">
    <path d="M 311.4103 16.937561 
L 569.455054 16.937561 
" style="fill:none;stroke:#ffffff;stroke-linecap:square;stroke-linejoin:miter;stroke-width:0.625;"/>
   </g>
   <g id="text_39">
    <!-- The first derivatives with β -->
    <g style="fill:#262626;" transform="translate(400.273927 10.937561)scale(0.06 -0.06)">
     <defs>
      <path d="M -0.296875 72.90625 
L 61.375 72.90625 
L 61.375 64.59375 
L 35.5 64.59375 
L 35.5 0 
L 25.59375 0 
L 25.59375 64.59375 
L -0.296875 64.59375 
z
" id="DejaVuSans-84"/>
      <path d="M 45.40625 46.390625 
L 45.40625 75.984375 
L 54.390625 75.984375 
L 54.390625 0 
L 45.40625 0 
L 45.40625 8.203125 
Q 42.578125 3.328125 38.25 0.953125 
Q 33.9375 -1.421875 27.875 -1.421875 
Q 17.96875 -1.421875 11.734375 6.484375 
Q 5.515625 14.40625 5.515625 27.296875 
Q 5.515625 40.1875 11.734375 48.09375 
Q 17.96875 56 27.875 56 
Q 33.9375 56 38.25 53.625 
Q 42.578125 51.265625 45.40625 46.390625 
z
M 14.796875 27.296875 
Q 14.796875 17.390625 18.875 11.75 
Q 22.953125 6.109375 30.078125 6.109375 
Q 37.203125 6.109375 41.296875 11.75 
Q 45.40625 17.390625 45.40625 27.296875 
Q 45.40625 37.203125 41.296875 42.84375 
Q 37.203125 48.484375 30.078125 48.484375 
Q 22.953125 48.484375 18.875 42.84375 
Q 14.796875 37.203125 14.796875 27.296875 
z
" id="DejaVuSans-100"/>
      <path d="M 18.40625 3.375 
L 18.40625 -20.796875 
L 9.375 -20.796875 
L 9.375 54.34375 
Q 9.375 76.609375 30.171875 76.609375 
Q 51.375 76.609375 51.375 57.8125 
Q 51.375 44.4375 42.96875 39.546875 
Q 56.640625 35.15625 56.640625 22.125 
Q 56.640625 -1.03125 33.109375 -1.03125 
Q 22.75 -1.03125 18.40625 3.375 
z
M 18.40625 15.09375 
Q 23.828125 6.640625 33.453125 6.640625 
Q 47.515625 6.640625 47.515625 21.96875 
Q 47.515625 35.75 24.859375 34.671875 
L 24.859375 42.96875 
Q 42.578125 42.96875 42.578125 58.59375 
Q 42.578125 69.28125 31.15625 69.28125 
Q 18.40625 69.28125 18.40625 54.046875 
z
" id="DejaVuSans-946"/>
     </defs>
     <use xlink:href="#DejaVuSans-84"/>
     <use x="61.083984" xlink:href="#DejaVuSans-104"/>
     <use x="124.462891" xlink:href="#DejaVuSans-101"/>
     <use x="185.986328" xlink:href="#DejaVuSans-32"/>
     <use x="217.773438" xlink:href="#DejaVuSans-102"/>
     <use x="252.978516" xlink:href="#DejaVuSans-105"/>
     <use x="280.761719" xlink:href="#DejaVuSans-114"/>
     <use x="321.875" xlink:href="#DejaVuSans-115"/>
     <use x="373.974609" xlink:href="#DejaVuSans-116"/>
     <use x="413.183594" xlink:href="#DejaVuSans-32"/>
     <use x="444.970703" xlink:href="#DejaVuSans-100"/>
     <use x="508.447266" xlink:href="#DejaVuSans-101"/>
     <use x="569.970703" xlink:href="#DejaVuSans-114"/>
     <use x="611.083984" xlink:href="#DejaVuSans-105"/>
     <use x="638.867188" xlink:href="#DejaVuSans-118"/>
     <use x="698.046875" xlink:href="#DejaVuSans-97"/>
     <use x="759.326172" xlink:href="#DejaVuSans-116"/>
     <use x="798.535156" xlink:href="#DejaVuSans-105"/>
     <use x="826.318359" xlink:href="#DejaVuSans-118"/>
     <use x="885.498047" xlink:href="#DejaVuSans-101"/>
     <use x="947.021484" xlink:href="#DejaVuSans-115"/>
     <use x="999.121094" xlink:href="#DejaVuSans-32"/>
     <use x="1030.908203" xlink:href="#DejaVuSans-119"/>
     <use x="1112.695312" xlink:href="#DejaVuSans-105"/>
     <use x="1140.478516" xlink:href="#DejaVuSans-116"/>
     <use x="1179.6875" xlink:href="#DejaVuSans-104"/>
     <use x="1243.066406" xlink:href="#DejaVuSans-32"/>
     <use x="1274.853516" xlink:href="#DejaVuSans-946"/>
    </g>
   </g>
   <g id="legend_2">
    <g id="line2d_56">
     <path d="M 316.3603 24.141702 
L 327.3603 24.141702 
" style="fill:none;stroke:#4c72b0;stroke-linecap:round;stroke-width:0.75;"/>
    </g>
    <g id="line2d_57"/>
    <g id="text_40">
     <!-- aconC swish, [1, 0, 1] -->
     <g style="fill:#262626;" transform="translate(331.7603 26.066702)scale(0.055 -0.055)">
      <use xlink:href="#DejaVuSans-97"/>
      <use x="61.279297" xlink:href="#DejaVuSans-99"/>
      <use x="116.259766" xlink:href="#DejaVuSans-111"/>
      <use x="177.441406" xlink:href="#DejaVuSans-110"/>
      <use x="240.820312" xlink:href="#DejaVuSans-67"/>
      <use x="310.644531" xlink:href="#DejaVuSans-32"/>
      <use x="342.431641" xlink:href="#DejaVuSans-115"/>
      <use x="394.53125" xlink:href="#DejaVuSans-119"/>
      <use x="476.318359" xlink:href="#DejaVuSans-105"/>
      <use x="504.101562" xlink:href="#DejaVuSans-115"/>
      <use x="556.201172" xlink:href="#DejaVuSans-104"/>
      <use x="619.580078" xlink:href="#DejaVuSans-44"/>
      <use x="651.367188" xlink:href="#DejaVuSans-32"/>
      <use x="683.154297" xlink:href="#DejaVuSans-91"/>
      <use x="722.167969" xlink:href="#DejaVuSans-49"/>
      <use x="785.791016" xlink:href="#DejaVuSans-44"/>
      <use x="817.578125" xlink:href="#DejaVuSans-32"/>
      <use x="849.365234" xlink:href="#DejaVuSans-48"/>
      <use x="912.988281" xlink:href="#DejaVuSans-44"/>
      <use x="944.775391" xlink:href="#DejaVuSans-32"/>
      <use x="976.5625" xlink:href="#DejaVuSans-49"/>
      <use x="1040.185547" xlink:href="#DejaVuSans-93"/>
     </g>
    </g>
    <g id="line2d_58">
     <path d="M 316.3603 32.214671 
L 327.3603 32.214671 
" style="fill:none;stroke:#dd8452;stroke-linecap:round;stroke-width:0.75;"/>
    </g>
    <g id="line2d_59"/>
    <g id="text_41">
     <!-- aconC [1, 0, 2] -->
     <g style="fill:#262626;" transform="translate(331.7603 34.139671)scale(0.055 -0.055)">
      <use xlink:href="#DejaVuSans-97"/>
      <use x="61.279297" xlink:href="#DejaVuSans-99"/>
      <use x="116.259766" xlink:href="#DejaVuSans-111"/>
      <use x="177.441406" xlink:href="#DejaVuSans-110"/>
      <use x="240.820312" xlink:href="#DejaVuSans-67"/>
      <use x="310.644531" xlink:href="#DejaVuSans-32"/>
      <use x="342.431641" xlink:href="#DejaVuSans-91"/>
      <use x="381.445312" xlink:href="#DejaVuSans-49"/>
      <use x="445.068359" xlink:href="#DejaVuSans-44"/>
      <use x="476.855469" xlink:href="#DejaVuSans-32"/>
      <use x="508.642578" xlink:href="#DejaVuSans-48"/>
      <use x="572.265625" xlink:href="#DejaVuSans-44"/>
      <use x="604.052734" xlink:href="#DejaVuSans-32"/>
      <use x="635.839844" xlink:href="#DejaVuSans-50"/>
      <use x="699.462891" xlink:href="#DejaVuSans-93"/>
     </g>
    </g>
    <g id="line2d_60">
     <path d="M 316.3603 40.28764 
L 327.3603 40.28764 
" style="fill:none;stroke:#55a868;stroke-linecap:round;stroke-width:0.75;"/>
    </g>
    <g id="line2d_61"/>
    <g id="text_42">
     <!-- aconC [1, 0, 0.1] -->
     <g style="fill:#262626;" transform="translate(331.7603 42.21264)scale(0.055 -0.055)">
      <use xlink:href="#DejaVuSans-97"/>
      <use x="61.279297" xlink:href="#DejaVuSans-99"/>
      <use x="116.259766" xlink:href="#DejaVuSans-111"/>
      <use x="177.441406" xlink:href="#DejaVuSans-110"/>
      <use x="240.820312" xlink:href="#DejaVuSans-67"/>
      <use x="310.644531" xlink:href="#DejaVuSans-32"/>
      <use x="342.431641" xlink:href="#DejaVuSans-91"/>
      <use x="381.445312" xlink:href="#DejaVuSans-49"/>
      <use x="445.068359" xlink:href="#DejaVuSans-44"/>
      <use x="476.855469" xlink:href="#DejaVuSans-32"/>
      <use x="508.642578" xlink:href="#DejaVuSans-48"/>
      <use x="572.265625" xlink:href="#DejaVuSans-44"/>
      <use x="604.052734" xlink:href="#DejaVuSans-32"/>
      <use x="635.839844" xlink:href="#DejaVuSans-48"/>
      <use x="699.462891" xlink:href="#DejaVuSans-46"/>
      <use x="731.25" xlink:href="#DejaVuSans-49"/>
      <use x="794.873047" xlink:href="#DejaVuSans-93"/>
     </g>
    </g>
    <g id="line2d_62">
     <path d="M 316.3603 48.360608 
L 327.3603 48.360608 
" style="fill:none;stroke:#c44e52;stroke-linecap:round;stroke-width:0.75;"/>
    </g>
    <g id="line2d_63"/>
    <g id="text_43">
     <!-- aconC relu, [1, 0, 20] -->
     <g style="fill:#262626;" transform="translate(331.7603 50.285608)scale(0.055 -0.055)">
      <use xlink:href="#DejaVuSans-97"/>
      <use x="61.279297" xlink:href="#DejaVuSans-99"/>
      <use x="116.259766" xlink:href="#DejaVuSans-111"/>
      <use x="177.441406" xlink:href="#DejaVuSans-110"/>
      <use x="240.820312" xlink:href="#DejaVuSans-67"/>
      <use x="310.644531" xlink:href="#DejaVuSans-32"/>
      <use x="342.431641" xlink:href="#DejaVuSans-114"/>
      <use x="381.294922" xlink:href="#DejaVuSans-101"/>
      <use x="442.818359" xlink:href="#DejaVuSans-108"/>
      <use x="470.601562" xlink:href="#DejaVuSans-117"/>
      <use x="533.980469" xlink:href="#DejaVuSans-44"/>
      <use x="565.767578" xlink:href="#DejaVuSans-32"/>
      <use x="597.554688" xlink:href="#DejaVuSans-91"/>
      <use x="636.568359" xlink:href="#DejaVuSans-49"/>
      <use x="700.191406" xlink:href="#DejaVuSans-44"/>
      <use x="731.978516" xlink:href="#DejaVuSans-32"/>
      <use x="763.765625" xlink:href="#DejaVuSans-48"/>
      <use x="827.388672" xlink:href="#DejaVuSans-44"/>
      <use x="859.175781" xlink:href="#DejaVuSans-32"/>
      <use x="890.962891" xlink:href="#DejaVuSans-50"/>
      <use x="954.585938" xlink:href="#DejaVuSans-48"/>
      <use x="1018.208984" xlink:href="#DejaVuSans-93"/>
     </g>
    </g>
   </g>
  </g>
  <g id="axes_3">
   <g id="patch_12">
    <path d="M 598.760646 265.953436 
L 856.8054 265.953436 
L 856.8054 16.937561 
L 598.760646 16.937561 
z
" style="fill:#eaeaf2;"/>
   </g>
   <g id="matplotlib.axis_5">
    <g id="xtick_16">
     <g id="line2d_64">
      <path clip-path="url(#pe162146b00)" d="M 610.489953 265.953436 
L 610.489953 16.937561 
" style="fill:none;stroke:#ffffff;stroke-linecap:round;stroke-width:0.5;"/>
     </g>
     <g id="text_44">
      <!-- −20 -->
      <g style="fill:#262626;" transform="translate(604.686164 279.632577)scale(0.055 -0.055)">
       <use xlink:href="#DejaVuSans-8722"/>
       <use x="83.789062" xlink:href="#DejaVuSans-50"/>
       <use x="147.412109" xlink:href="#DejaVuSans-48"/>
      </g>
     </g>
    </g>
    <g id="xtick_17">
     <g id="line2d_65">
      <path clip-path="url(#pe162146b00)" d="M 639.849921 265.953436 
L 639.849921 16.937561 
" style="fill:none;stroke:#ffffff;stroke-linecap:round;stroke-width:0.5;"/>
     </g>
     <g id="text_45">
      <!-- −15 -->
      <g style="fill:#262626;" transform="translate(634.046132 279.632577)scale(0.055 -0.055)">
       <defs>
        <path d="M 10.796875 72.90625 
L 49.515625 72.90625 
L 49.515625 64.59375 
L 19.828125 64.59375 
L 19.828125 46.734375 
Q 21.96875 47.46875 24.109375 47.828125 
Q 26.265625 48.1875 28.421875 48.1875 
Q 40.625 48.1875 47.75 41.5 
Q 54.890625 34.8125 54.890625 23.390625 
Q 54.890625 11.625 47.5625 5.09375 
Q 40.234375 -1.421875 26.90625 -1.421875 
Q 22.3125 -1.421875 17.546875 -0.640625 
Q 12.796875 0.140625 7.71875 1.703125 
L 7.71875 11.625 
Q 12.109375 9.234375 16.796875 8.0625 
Q 21.484375 6.890625 26.703125 6.890625 
Q 35.15625 6.890625 40.078125 11.328125 
Q 45.015625 15.765625 45.015625 23.390625 
Q 45.015625 31 40.078125 35.4375 
Q 35.15625 39.890625 26.703125 39.890625 
Q 22.75 39.890625 18.8125 39.015625 
Q 14.890625 38.140625 10.796875 36.28125 
z
" id="DejaVuSans-53"/>
       </defs>
       <use xlink:href="#DejaVuSans-8722"/>
       <use x="83.789062" xlink:href="#DejaVuSans-49"/>
       <use x="147.412109" xlink:href="#DejaVuSans-53"/>
      </g>
     </g>
    </g>
    <g id="xtick_18">
     <g id="line2d_66">
      <path clip-path="url(#pe162146b00)" d="M 669.209888 265.953436 
L 669.209888 16.937561 
" style="fill:none;stroke:#ffffff;stroke-linecap:round;stroke-width:0.5;"/>
     </g>
     <g id="text_46">
      <!-- −10 -->
      <g style="fill:#262626;" transform="translate(663.406099 279.632577)scale(0.055 -0.055)">
       <use xlink:href="#DejaVuSans-8722"/>
       <use x="83.789062" xlink:href="#DejaVuSans-49"/>
       <use x="147.412109" xlink:href="#DejaVuSans-48"/>
      </g>
     </g>
    </g>
    <g id="xtick_19">
     <g id="line2d_67">
      <path clip-path="url(#pe162146b00)" d="M 698.569855 265.953436 
L 698.569855 16.937561 
" style="fill:none;stroke:#ffffff;stroke-linecap:round;stroke-width:0.5;"/>
     </g>
     <g id="text_47">
      <!-- −5 -->
      <g style="fill:#262626;" transform="translate(694.515754 279.632577)scale(0.055 -0.055)">
       <use xlink:href="#DejaVuSans-8722"/>
       <use x="83.789062" xlink:href="#DejaVuSans-53"/>
      </g>
     </g>
    </g>
    <g id="xtick_20">
     <g id="line2d_68">
      <path clip-path="url(#pe162146b00)" d="M 727.929823 265.953436 
L 727.929823 16.937561 
" style="fill:none;stroke:#ffffff;stroke-linecap:round;stroke-width:0.5;"/>
     </g>
     <g id="text_48">
      <!-- 0 -->
      <g style="fill:#262626;" transform="translate(726.180135 279.632577)scale(0.055 -0.055)">
       <use xlink:href="#DejaVuSans-48"/>
      </g>
     </g>
    </g>
    <g id="xtick_21">
     <g id="line2d_69">
      <path clip-path="url(#pe162146b00)" d="M 757.28979 265.953436 
L 757.28979 16.937561 
" style="fill:none;stroke:#ffffff;stroke-linecap:round;stroke-width:0.5;"/>
     </g>
     <g id="text_49">
      <!-- 5 -->
      <g style="fill:#262626;" transform="translate(755.540103 279.632577)scale(0.055 -0.055)">
       <use xlink:href="#DejaVuSans-53"/>
      </g>
     </g>
    </g>
    <g id="xtick_22">
     <g id="line2d_70">
      <path clip-path="url(#pe162146b00)" d="M 786.649758 265.953436 
L 786.649758 16.937561 
" style="fill:none;stroke:#ffffff;stroke-linecap:round;stroke-width:0.5;"/>
     </g>
     <g id="text_50">
      <!-- 10 -->
      <g style="fill:#262626;" transform="translate(783.150383 279.632577)scale(0.055 -0.055)">
       <use xlink:href="#DejaVuSans-49"/>
       <use x="63.623047" xlink:href="#DejaVuSans-48"/>
      </g>
     </g>
    </g>
    <g id="xtick_23">
     <g id="line2d_71">
      <path clip-path="url(#pe162146b00)" d="M 816.009725 265.953436 
L 816.009725 16.937561 
" style="fill:none;stroke:#ffffff;stroke-linecap:round;stroke-width:0.5;"/>
     </g>
     <g id="text_51">
      <!-- 15 -->
      <g style="fill:#262626;" transform="translate(812.51035 279.632577)scale(0.055 -0.055)">
       <use xlink:href="#DejaVuSans-49"/>
       <use x="63.623047" xlink:href="#DejaVuSans-53"/>
      </g>
     </g>
    </g>
    <g id="xtick_24">
     <g id="line2d_72">
      <path clip-path="url(#pe162146b00)" d="M 845.369693 265.953436 
L 845.369693 16.937561 
" style="fill:none;stroke:#ffffff;stroke-linecap:round;stroke-width:0.5;"/>
     </g>
     <g id="text_52">
      <!-- 20 -->
      <g style="fill:#262626;" transform="translate(841.870318 279.632577)scale(0.055 -0.055)">
       <use xlink:href="#DejaVuSans-50"/>
       <use x="63.623047" xlink:href="#DejaVuSans-48"/>
      </g>
     </g>
    </g>
   </g>
   <g id="matplotlib.axis_6">
    <g id="ytick_16">
     <g id="line2d_73">
      <path clip-path="url(#pe162146b00)" d="M 598.760646 254.111825 
L 856.8054 254.111825 
" style="fill:none;stroke:#ffffff;stroke-linecap:round;stroke-width:0.5;"/>
     </g>
     <g id="text_53">
      <!-- −0.2 -->
      <g style="fill:#262626;" transform="translate(575.905099 256.201395)scale(0.055 -0.055)">
       <use xlink:href="#DejaVuSans-8722"/>
       <use x="83.789062" xlink:href="#DejaVuSans-48"/>
       <use x="147.412109" xlink:href="#DejaVuSans-46"/>
       <use x="179.199219" xlink:href="#DejaVuSans-50"/>
      </g>
     </g>
    </g>
    <g id="ytick_17">
     <g id="line2d_74">
      <path clip-path="url(#pe162146b00)" d="M 598.760646 224.067466 
L 856.8054 224.067466 
" style="fill:none;stroke:#ffffff;stroke-linecap:round;stroke-width:0.5;"/>
     </g>
     <g id="text_54">
      <!-- 0.0 -->
      <g style="fill:#262626;" transform="translate(580.513927 226.157037)scale(0.055 -0.055)">
       <use xlink:href="#DejaVuSans-48"/>
       <use x="63.623047" xlink:href="#DejaVuSans-46"/>
       <use x="95.410156" xlink:href="#DejaVuSans-48"/>
      </g>
     </g>
    </g>
    <g id="ytick_18">
     <g id="line2d_75">
      <path clip-path="url(#pe162146b00)" d="M 598.760646 194.023107 
L 856.8054 194.023107 
" style="fill:none;stroke:#ffffff;stroke-linecap:round;stroke-width:0.5;"/>
     </g>
     <g id="text_55">
      <!-- 0.2 -->
      <g style="fill:#262626;" transform="translate(580.513927 196.112678)scale(0.055 -0.055)">
       <use xlink:href="#DejaVuSans-48"/>
       <use x="63.623047" xlink:href="#DejaVuSans-46"/>
       <use x="95.410156" xlink:href="#DejaVuSans-50"/>
      </g>
     </g>
    </g>
    <g id="ytick_19">
     <g id="line2d_76">
      <path clip-path="url(#pe162146b00)" d="M 598.760646 163.978749 
L 856.8054 163.978749 
" style="fill:none;stroke:#ffffff;stroke-linecap:round;stroke-width:0.5;"/>
     </g>
     <g id="text_56">
      <!-- 0.4 -->
      <g style="fill:#262626;" transform="translate(580.513927 166.068319)scale(0.055 -0.055)">
       <use xlink:href="#DejaVuSans-48"/>
       <use x="63.623047" xlink:href="#DejaVuSans-46"/>
       <use x="95.410156" xlink:href="#DejaVuSans-52"/>
      </g>
     </g>
    </g>
    <g id="ytick_20">
     <g id="line2d_77">
      <path clip-path="url(#pe162146b00)" d="M 598.760646 133.93439 
L 856.8054 133.93439 
" style="fill:none;stroke:#ffffff;stroke-linecap:round;stroke-width:0.5;"/>
     </g>
     <g id="text_57">
      <!-- 0.6 -->
      <g style="fill:#262626;" transform="translate(580.513927 136.02396)scale(0.055 -0.055)">
       <use xlink:href="#DejaVuSans-48"/>
       <use x="63.623047" xlink:href="#DejaVuSans-46"/>
       <use x="95.410156" xlink:href="#DejaVuSans-54"/>
      </g>
     </g>
    </g>
    <g id="ytick_21">
     <g id="line2d_78">
      <path clip-path="url(#pe162146b00)" d="M 598.760646 103.890031 
L 856.8054 103.890031 
" style="fill:none;stroke:#ffffff;stroke-linecap:round;stroke-width:0.5;"/>
     </g>
     <g id="text_58">
      <!-- 0.8 -->
      <g style="fill:#262626;" transform="translate(580.513927 105.979601)scale(0.055 -0.055)">
       <use xlink:href="#DejaVuSans-48"/>
       <use x="63.623047" xlink:href="#DejaVuSans-46"/>
       <use x="95.410156" xlink:href="#DejaVuSans-56"/>
      </g>
     </g>
    </g>
    <g id="ytick_22">
     <g id="line2d_79">
      <path clip-path="url(#pe162146b00)" d="M 598.760646 73.845672 
L 856.8054 73.845672 
" style="fill:none;stroke:#ffffff;stroke-linecap:round;stroke-width:0.5;"/>
     </g>
     <g id="text_59">
      <!-- 1.0 -->
      <g style="fill:#262626;" transform="translate(580.513927 75.935242)scale(0.055 -0.055)">
       <use xlink:href="#DejaVuSans-49"/>
       <use x="63.623047" xlink:href="#DejaVuSans-46"/>
       <use x="95.410156" xlink:href="#DejaVuSans-48"/>
      </g>
     </g>
    </g>
    <g id="ytick_23">
     <g id="line2d_80">
      <path clip-path="url(#pe162146b00)" d="M 598.760646 43.801313 
L 856.8054 43.801313 
" style="fill:none;stroke:#ffffff;stroke-linecap:round;stroke-width:0.5;"/>
     </g>
     <g id="text_60">
      <!-- 1.2 -->
      <g style="fill:#262626;" transform="translate(580.513927 45.890883)scale(0.055 -0.055)">
       <use xlink:href="#DejaVuSans-49"/>
       <use x="63.623047" xlink:href="#DejaVuSans-46"/>
       <use x="95.410156" xlink:href="#DejaVuSans-50"/>
      </g>
     </g>
    </g>
   </g>
   <g id="line2d_81">
    <path clip-path="url(#pe162146b00)" d="M 610.489953 224.067473 
L 672.145885 224.175626 
L 680.073076 224.415648 
L 685.06427 224.779918 
L 688.881066 225.281581 
L 691.817063 225.876688 
L 694.45946 226.630666 
L 696.808257 227.523786 
L 699.157055 228.668656 
L 701.505852 230.09189 
L 703.85465 231.783422 
L 710.020243 236.419834 
L 711.194641 236.922313 
L 712.07544 237.085758 
L 712.95624 237.005961 
L 713.837039 236.62135 
L 714.717838 235.864594 
L 715.598637 234.664217 
L 716.479436 232.946916 
L 717.360235 230.640625 
L 718.241034 227.678223 
L 719.121833 224.001737 
L 720.296231 217.914714 
L 721.47063 210.427233 
L 722.645029 201.556429 
L 724.113027 188.679273 
L 725.874625 171.115655 
L 732.333818 103.861994 
L 733.801816 91.752556 
L 734.976215 83.566357 
L 736.150614 76.781715 
L 737.325012 71.378546 
L 738.205812 68.184003 
L 739.086611 65.666054 
L 739.96741 63.760267 
L 740.848209 62.395779 
L 741.729008 61.499259 
L 742.609807 60.998306 
L 743.490606 60.824027 
L 744.371405 60.912867 
L 745.252204 61.207505 
L 746.426602 61.835067 
L 748.1882 63.085696 
L 754.647393 68.014505 
L 756.996191 69.402488 
L 759.344988 70.514027 
L 761.693785 71.378331 
L 764.336183 72.10632 
L 767.272179 72.679729 
L 770.795375 73.133262 
L 775.19937 73.466599 
L 781.364964 73.692309 
L 791.934552 73.814441 
L 821.00092 73.845242 
L 845.076093 73.845672 
L 845.076093 73.845672 
" style="fill:none;stroke:#4c72b0;stroke-linecap:round;stroke-width:0.75;"/>
   </g>
   <g id="line2d_82">
    <path clip-path="url(#pe162146b00)" d="M 610.489953 239.089658 
L 683.009073 239.192866 
L 689.174666 239.428255 
L 692.991462 239.78302 
L 695.927458 240.27723 
L 698.276256 240.896684 
L 700.331454 241.672921 
L 702.093052 242.566513 
L 703.85465 243.719366 
L 705.616248 245.171427 
L 707.377846 246.939738 
L 709.433043 249.349759 
L 712.66264 253.20823 
L 713.837039 254.202773 
L 714.717838 254.595384 
L 715.305037 254.619195 
L 715.892236 254.402665 
L 716.479436 253.898906 
L 717.066635 253.058256 
L 717.653834 251.829367 
L 718.241034 250.160565 
L 719.121833 246.723228 
L 720.002632 242.029271 
L 720.883431 235.955855 
L 721.76423 228.426245 
L 722.938628 216.098837 
L 724.113027 201.295639 
L 725.581026 179.85718 
L 727.929823 141.445487 
L 730.57222 98.527 
L 732.040218 77.677993 
L 733.214617 63.469103 
L 734.389016 51.790617 
L 735.269815 44.751513 
L 736.150614 39.148994 
L 737.031413 34.889473 
L 737.912212 31.837799 
L 738.499411 30.395394 
L 739.086611 29.367073 
L 739.67381 28.701206 
L 740.261009 28.347132 
L 740.848209 28.256465 
L 741.435408 28.383879 
L 742.316207 28.89479 
L 743.197006 29.682734 
L 744.665004 31.349183 
L 748.7754 36.267301 
L 750.536998 37.983463 
L 752.298596 39.383551 
L 754.060194 40.490219 
L 755.821792 41.344996 
L 757.87699 42.085628 
L 760.225787 42.675261 
L 762.868184 43.107879 
L 766.39138 43.443328 
L 771.382575 43.66406 
L 780.190565 43.777059 
L 809.256933 43.801342 
L 845.076093 43.801198 
L 845.076093 43.801198 
" style="fill:none;stroke:#dd8452;stroke-linecap:round;stroke-width:0.75;"/>
   </g>
   <g id="line2d_83">
    <path clip-path="url(#pe162146b00)" d="M 610.489953 209.046501 
L 653.061906 209.162983 
L 663.925094 209.403001 
L 670.971486 209.765093 
L 676.25628 210.242409 
L 680.660275 210.849345 
L 684.477071 211.58533 
L 688.000267 212.479169 
L 691.523463 213.604237 
L 695.340259 215.072299 
L 703.26745 218.239519 
L 705.029048 218.663854 
L 706.497047 218.812833 
L 707.671445 218.749659 
L 708.845844 218.481453 
L 710.020243 217.964401 
L 711.194641 217.151627 
L 712.36904 215.994409 
L 713.543439 214.443926 
L 714.717838 212.45341 
L 715.892236 209.980775 
L 717.066635 206.991492 
L 718.241034 203.461641 
L 719.709032 198.274886 
L 721.17703 192.244208 
L 722.938628 183.981627 
L 724.993826 173.179645 
L 728.223423 154.76767 
L 731.746619 134.996688 
L 733.801816 124.691428 
L 735.563414 116.973779 
L 737.031413 111.445147 
L 738.499411 106.774954 
L 739.67381 103.652294 
L 740.848209 101.053366 
L 742.022607 98.946007 
L 743.197006 97.289793 
L 744.371405 96.038814 
L 745.545803 95.144506 
L 746.720202 94.558024 
L 747.894601 94.231842 
L 749.068999 94.121306 
L 750.536998 94.224464 
L 752.298596 94.610449 
L 754.647393 95.408781 
L 758.757789 97.122399 
L 763.455384 99.013538 
L 766.97858 100.197013 
L 770.501776 101.147203 
L 774.318571 101.935434 
L 778.428967 102.552681 
L 783.126562 103.035763 
L 788.998555 103.410108 
L 796.925746 103.674535 
L 809.256933 103.83019 
L 836.561702 103.886922 
L 845.076093 103.888856 
L 845.076093 103.888856 
" style="fill:none;stroke:#55a868;stroke-linecap:round;stroke-width:0.75;"/>
   </g>
   <g id="patch_13">
    <path d="M 598.760646 265.953436 
L 598.760646 16.937561 
" style="fill:none;stroke:#ffffff;stroke-linecap:square;stroke-linejoin:miter;stroke-width:0.625;"/>
   </g>
   <g id="patch_14">
    <path d="M 856.8054 265.953436 
L 856.8054 16.937561 
" style="fill:none;stroke:#ffffff;stroke-linecap:square;stroke-linejoin:miter;stroke-width:0.625;"/>
   </g>
   <g id="patch_15">
    <path d="M 598.760646 265.953436 
L 856.8054 265.953436 
" style="fill:none;stroke:#ffffff;stroke-linecap:square;stroke-linejoin:miter;stroke-width:0.625;"/>
   </g>
   <g id="patch_16">
    <path d="M 598.760646 16.937561 
L 856.8054 16.937561 
" style="fill:none;stroke:#ffffff;stroke-linecap:square;stroke-linejoin:miter;stroke-width:0.625;"/>
   </g>
   <g id="text_61">
    <!-- The first derivatives with p1&amp;p2 -->
    <g style="fill:#262626;" transform="translate(679.572554 10.937561)scale(0.06 -0.06)">
     <defs>
      <path d="M 18.109375 8.203125 
L 18.109375 -20.796875 
L 9.078125 -20.796875 
L 9.078125 54.6875 
L 18.109375 54.6875 
L 18.109375 46.390625 
Q 20.953125 51.265625 25.265625 53.625 
Q 29.59375 56 35.59375 56 
Q 45.5625 56 51.78125 48.09375 
Q 58.015625 40.1875 58.015625 27.296875 
Q 58.015625 14.40625 51.78125 6.484375 
Q 45.5625 -1.421875 35.59375 -1.421875 
Q 29.59375 -1.421875 25.265625 0.953125 
Q 20.953125 3.328125 18.109375 8.203125 
z
M 48.6875 27.296875 
Q 48.6875 37.203125 44.609375 42.84375 
Q 40.53125 48.484375 33.40625 48.484375 
Q 26.265625 48.484375 22.1875 42.84375 
Q 18.109375 37.203125 18.109375 27.296875 
Q 18.109375 17.390625 22.1875 11.75 
Q 26.265625 6.109375 33.40625 6.109375 
Q 40.53125 6.109375 44.609375 11.75 
Q 48.6875 17.390625 48.6875 27.296875 
z
" id="DejaVuSans-112"/>
      <path d="M 24.3125 39.203125 
Q 19.875 35.25 17.796875 31.3125 
Q 15.71875 27.390625 15.71875 23.09375 
Q 15.71875 15.96875 20.890625 11.234375 
Q 26.078125 6.5 33.890625 6.5 
Q 38.53125 6.5 42.578125 8.03125 
Q 46.625 9.578125 50.203125 12.703125 
z
M 31.203125 44.671875 
L 56 19.28125 
Q 58.890625 23.640625 60.5 28.59375 
Q 62.109375 33.546875 62.40625 39.109375 
L 71.484375 39.109375 
Q 70.90625 32.671875 68.359375 26.359375 
Q 65.828125 20.0625 61.28125 13.921875 
L 74.90625 0 
L 62.59375 0 
L 55.609375 7.171875 
Q 50.53125 2.828125 44.96875 0.703125 
Q 39.40625 -1.421875 33.015625 -1.421875 
Q 21.234375 -1.421875 13.765625 5.296875 
Q 6.296875 12.015625 6.296875 22.515625 
Q 6.296875 28.765625 9.5625 34.25 
Q 12.84375 39.75 19.390625 44.578125 
Q 17.046875 47.65625 15.8125 50.703125 
Q 14.59375 53.765625 14.59375 56.6875 
Q 14.59375 64.59375 20.015625 69.40625 
Q 25.4375 74.21875 34.421875 74.21875 
Q 38.484375 74.21875 42.5 73.34375 
Q 46.53125 72.46875 50.6875 70.703125 
L 50.6875 61.8125 
Q 46.4375 64.109375 42.578125 65.296875 
Q 38.71875 66.5 35.40625 66.5 
Q 30.28125 66.5 27.078125 63.78125 
Q 23.875 61.078125 23.875 56.78125 
Q 23.875 54.296875 25.3125 51.78125 
Q 26.765625 49.265625 31.203125 44.671875 
z
" id="DejaVuSans-38"/>
     </defs>
     <use xlink:href="#DejaVuSans-84"/>
     <use x="61.083984" xlink:href="#DejaVuSans-104"/>
     <use x="124.462891" xlink:href="#DejaVuSans-101"/>
     <use x="185.986328" xlink:href="#DejaVuSans-32"/>
     <use x="217.773438" xlink:href="#DejaVuSans-102"/>
     <use x="252.978516" xlink:href="#DejaVuSans-105"/>
     <use x="280.761719" xlink:href="#DejaVuSans-114"/>
     <use x="321.875" xlink:href="#DejaVuSans-115"/>
     <use x="373.974609" xlink:href="#DejaVuSans-116"/>
     <use x="413.183594" xlink:href="#DejaVuSans-32"/>
     <use x="444.970703" xlink:href="#DejaVuSans-100"/>
     <use x="508.447266" xlink:href="#DejaVuSans-101"/>
     <use x="569.970703" xlink:href="#DejaVuSans-114"/>
     <use x="611.083984" xlink:href="#DejaVuSans-105"/>
     <use x="638.867188" xlink:href="#DejaVuSans-118"/>
     <use x="698.046875" xlink:href="#DejaVuSans-97"/>
     <use x="759.326172" xlink:href="#DejaVuSans-116"/>
     <use x="798.535156" xlink:href="#DejaVuSans-105"/>
     <use x="826.318359" xlink:href="#DejaVuSans-118"/>
     <use x="885.498047" xlink:href="#DejaVuSans-101"/>
     <use x="947.021484" xlink:href="#DejaVuSans-115"/>
     <use x="999.121094" xlink:href="#DejaVuSans-32"/>
     <use x="1030.908203" xlink:href="#DejaVuSans-119"/>
     <use x="1112.695312" xlink:href="#DejaVuSans-105"/>
     <use x="1140.478516" xlink:href="#DejaVuSans-116"/>
     <use x="1179.6875" xlink:href="#DejaVuSans-104"/>
     <use x="1243.066406" xlink:href="#DejaVuSans-32"/>
     <use x="1274.853516" xlink:href="#DejaVuSans-112"/>
     <use x="1338.330078" xlink:href="#DejaVuSans-49"/>
     <use x="1401.953125" xlink:href="#DejaVuSans-38"/>
     <use x="1479.931641" xlink:href="#DejaVuSans-112"/>
     <use x="1543.408203" xlink:href="#DejaVuSans-50"/>
    </g>
   </g>
   <g id="legend_3">
    <g id="line2d_84">
     <path d="M 603.710646 24.141702 
L 614.710646 24.141702 
" style="fill:none;stroke:#4c72b0;stroke-linecap:round;stroke-width:0.75;"/>
    </g>
    <g id="line2d_85"/>
    <g id="text_62">
     <!-- aconC swish, [1, 0, 1] -->
     <g style="fill:#262626;" transform="translate(619.110646 26.066702)scale(0.055 -0.055)">
      <use xlink:href="#DejaVuSans-97"/>
      <use x="61.279297" xlink:href="#DejaVuSans-99"/>
      <use x="116.259766" xlink:href="#DejaVuSans-111"/>
      <use x="177.441406" xlink:href="#DejaVuSans-110"/>
      <use x="240.820312" xlink:href="#DejaVuSans-67"/>
      <use x="310.644531" xlink:href="#DejaVuSans-32"/>
      <use x="342.431641" xlink:href="#DejaVuSans-115"/>
      <use x="394.53125" xlink:href="#DejaVuSans-119"/>
      <use x="476.318359" xlink:href="#DejaVuSans-105"/>
      <use x="504.101562" xlink:href="#DejaVuSans-115"/>
      <use x="556.201172" xlink:href="#DejaVuSans-104"/>
      <use x="619.580078" xlink:href="#DejaVuSans-44"/>
      <use x="651.367188" xlink:href="#DejaVuSans-32"/>
      <use x="683.154297" xlink:href="#DejaVuSans-91"/>
      <use x="722.167969" xlink:href="#DejaVuSans-49"/>
      <use x="785.791016" xlink:href="#DejaVuSans-44"/>
      <use x="817.578125" xlink:href="#DejaVuSans-32"/>
      <use x="849.365234" xlink:href="#DejaVuSans-48"/>
      <use x="912.988281" xlink:href="#DejaVuSans-44"/>
      <use x="944.775391" xlink:href="#DejaVuSans-32"/>
      <use x="976.5625" xlink:href="#DejaVuSans-49"/>
      <use x="1040.185547" xlink:href="#DejaVuSans-93"/>
     </g>
    </g>
    <g id="line2d_86">
     <path d="M 603.710646 32.214671 
L 614.710646 32.214671 
" style="fill:none;stroke:#dd8452;stroke-linecap:round;stroke-width:0.75;"/>
    </g>
    <g id="line2d_87"/>
    <g id="text_63">
     <!-- aconC [1.3, -0.1, 1] -->
     <g style="fill:#262626;" transform="translate(619.110646 34.139671)scale(0.055 -0.055)">
      <use xlink:href="#DejaVuSans-97"/>
      <use x="61.279297" xlink:href="#DejaVuSans-99"/>
      <use x="116.259766" xlink:href="#DejaVuSans-111"/>
      <use x="177.441406" xlink:href="#DejaVuSans-110"/>
      <use x="240.820312" xlink:href="#DejaVuSans-67"/>
      <use x="310.644531" xlink:href="#DejaVuSans-32"/>
      <use x="342.431641" xlink:href="#DejaVuSans-91"/>
      <use x="381.445312" xlink:href="#DejaVuSans-49"/>
      <use x="445.068359" xlink:href="#DejaVuSans-46"/>
      <use x="476.855469" xlink:href="#DejaVuSans-51"/>
      <use x="540.478516" xlink:href="#DejaVuSans-44"/>
      <use x="572.265625" xlink:href="#DejaVuSans-32"/>
      <use x="604.052734" xlink:href="#DejaVuSans-45"/>
      <use x="640.136719" xlink:href="#DejaVuSans-48"/>
      <use x="703.759766" xlink:href="#DejaVuSans-46"/>
      <use x="735.546875" xlink:href="#DejaVuSans-49"/>
      <use x="799.169922" xlink:href="#DejaVuSans-44"/>
      <use x="830.957031" xlink:href="#DejaVuSans-32"/>
      <use x="862.744141" xlink:href="#DejaVuSans-49"/>
      <use x="926.367188" xlink:href="#DejaVuSans-93"/>
     </g>
    </g>
    <g id="line2d_88">
     <path d="M 603.710646 40.28764 
L 614.710646 40.28764 
" style="fill:none;stroke:#55a868;stroke-linecap:round;stroke-width:0.75;"/>
    </g>
    <g id="line2d_89"/>
    <g id="text_64">
     <!-- aconC [0.7, 0.1, 1] -->
     <g style="fill:#262626;" transform="translate(619.110646 42.21264)scale(0.055 -0.055)">
      <use xlink:href="#DejaVuSans-97"/>
      <use x="61.279297" xlink:href="#DejaVuSans-99"/>
      <use x="116.259766" xlink:href="#DejaVuSans-111"/>
      <use x="177.441406" xlink:href="#DejaVuSans-110"/>
      <use x="240.820312" xlink:href="#DejaVuSans-67"/>
      <use x="310.644531" xlink:href="#DejaVuSans-32"/>
      <use x="342.431641" xlink:href="#DejaVuSans-91"/>
      <use x="381.445312" xlink:href="#DejaVuSans-48"/>
      <use x="445.068359" xlink:href="#DejaVuSans-46"/>
      <use x="476.855469" xlink:href="#DejaVuSans-55"/>
      <use x="540.478516" xlink:href="#DejaVuSans-44"/>
      <use x="572.265625" xlink:href="#DejaVuSans-32"/>
      <use x="604.052734" xlink:href="#DejaVuSans-48"/>
      <use x="667.675781" xlink:href="#DejaVuSans-46"/>
      <use x="699.462891" xlink:href="#DejaVuSans-49"/>
      <use x="763.085938" xlink:href="#DejaVuSans-44"/>
      <use x="794.873047" xlink:href="#DejaVuSans-32"/>
      <use x="826.660156" xlink:href="#DejaVuSans-49"/>
      <use x="890.283203" xlink:href="#DejaVuSans-93"/>
     </g>
    </g>
   </g>
  </g>
 </g>
 <defs>
  <clipPath id="p303fd311c2">
   <rect height="249.015875" width="258.044754" x="24.059954" y="16.937561"/>
  </clipPath>
  <clipPath id="p5dd67cc8e7">
   <rect height="249.015875" width="258.044754" x="311.4103" y="16.937561"/>
  </clipPath>
  <clipPath id="pe162146b00">
   <rect height="249.015875" width="258.044754" x="598.760646" y="16.937561"/>
  </clipPath>
 </defs>
</svg>
