<?xml version="1.0" encoding="utf-8" standalone="no"?>
<!DOCTYPE svg PUBLIC "-//W3C//DTD SVG 1.1//EN"
  "http://www.w3.org/Graphics/SVG/1.1/DTD/svg11.dtd">
<!-- Created with matplotlib (https://matplotlib.org/) -->
<svg height="287.28pt" version="1.1" viewBox="0 0 575.28 287.28" width="575.28pt" xmlns="http://www.w3.org/2000/svg" xmlns:xlink="http://www.w3.org/1999/xlink">
 <metadata>
  <rdf:RDF xmlns:cc="http://creativecommons.org/ns#" xmlns:dc="http://purl.org/dc/elements/1.1/" xmlns:rdf="http://www.w3.org/1999/02/22-rdf-syntax-ns#">
   <cc:Work>
    <dc:type rdf:resource="http://purl.org/dc/dcmitype/StillImage"/>
    <dc:date>2021-07-16T15:47:55.369309</dc:date>
    <dc:format>image/svg+xml</dc:format>
    <dc:creator>
     <cc:Agent>
      <dc:title>Matplotlib v3.3.2, https://matplotlib.org/</dc:title>
     </cc:Agent>
    </dc:creator>
   </cc:Work>
  </rdf:RDF>
 </metadata>
 <defs>
  <style type="text/css">*{stroke-linecap:butt;stroke-linejoin:round;}</style>
 </defs>
 <g id="figure_1">
  <g id="patch_1">
   <path d="M 0 287.28 
L 575.28 287.28 
L 575.28 0 
L 0 0 
z
" style="fill:#ffffff;"/>
  </g>
  <g id="axes_1">
   <g id="patch_2">
    <path d="M 19.443174 265.953436 
L 281.782325 265.953436 
L 281.782325 6.4638 
L 19.443174 6.4638 
z
" style="fill:#eaeaf2;"/>
   </g>
   <g id="matplotlib.axis_1">
    <g id="xtick_1">
     <g id="line2d_1">
      <path clip-path="url(#pe93aeef3b1)" d="M 31.367681 265.953436 
L 31.367681 6.4638 
" style="fill:none;stroke:#ffffff;stroke-linecap:round;stroke-width:0.5;"/>
     </g>
     <g id="text_1">
      <!-- −6 -->
      <g style="fill:#262626;" transform="translate(27.31358 279.632577)scale(0.055 -0.055)">
       <defs>
        <path d="M 10.59375 35.5 
L 73.1875 35.5 
L 73.1875 27.203125 
L 10.59375 27.203125 
z
" id="DejaVuSans-8722"/>
        <path d="M 33.015625 40.375 
Q 26.375 40.375 22.484375 35.828125 
Q 18.609375 31.296875 18.609375 23.390625 
Q 18.609375 15.53125 22.484375 10.953125 
Q 26.375 6.390625 33.015625 6.390625 
Q 39.65625 6.390625 43.53125 10.953125 
Q 47.40625 15.53125 47.40625 23.390625 
Q 47.40625 31.296875 43.53125 35.828125 
Q 39.65625 40.375 33.015625 40.375 
z
M 52.59375 71.296875 
L 52.59375 62.3125 
Q 48.875 64.0625 45.09375 64.984375 
Q 41.3125 65.921875 37.59375 65.921875 
Q 27.828125 65.921875 22.671875 59.328125 
Q 17.53125 52.734375 16.796875 39.40625 
Q 19.671875 43.65625 24.015625 45.921875 
Q 28.375 48.1875 33.59375 48.1875 
Q 44.578125 48.1875 50.953125 41.515625 
Q 57.328125 34.859375 57.328125 23.390625 
Q 57.328125 12.15625 50.6875 5.359375 
Q 44.046875 -1.421875 33.015625 -1.421875 
Q 20.359375 -1.421875 13.671875 8.265625 
Q 6.984375 17.96875 6.984375 36.375 
Q 6.984375 53.65625 15.1875 63.9375 
Q 23.390625 74.21875 37.203125 74.21875 
Q 40.921875 74.21875 44.703125 73.484375 
Q 48.484375 72.75 52.59375 71.296875 
z
" id="DejaVuSans-54"/>
       </defs>
       <use xlink:href="#DejaVuSans-8722"/>
       <use x="83.789062" xlink:href="#DejaVuSans-54"/>
      </g>
     </g>
    </g>
    <g id="xtick_2">
     <g id="line2d_2">
      <path clip-path="url(#pe93aeef3b1)" d="M 65.559816 265.953436 
L 65.559816 6.4638 
" style="fill:none;stroke:#ffffff;stroke-linecap:round;stroke-width:0.5;"/>
     </g>
     <g id="text_2">
      <!-- −4 -->
      <g style="fill:#262626;" transform="translate(61.505714 279.632577)scale(0.055 -0.055)">
       <defs>
        <path d="M 37.796875 64.3125 
L 12.890625 25.390625 
L 37.796875 25.390625 
z
M 35.203125 72.90625 
L 47.609375 72.90625 
L 47.609375 25.390625 
L 58.015625 25.390625 
L 58.015625 17.1875 
L 47.609375 17.1875 
L 47.609375 0 
L 37.796875 0 
L 37.796875 17.1875 
L 4.890625 17.1875 
L 4.890625 26.703125 
z
" id="DejaVuSans-52"/>
       </defs>
       <use xlink:href="#DejaVuSans-8722"/>
       <use x="83.789062" xlink:href="#DejaVuSans-52"/>
      </g>
     </g>
    </g>
    <g id="xtick_3">
     <g id="line2d_3">
      <path clip-path="url(#pe93aeef3b1)" d="M 99.75195 265.953436 
L 99.75195 6.4638 
" style="fill:none;stroke:#ffffff;stroke-linecap:round;stroke-width:0.5;"/>
     </g>
     <g id="text_3">
      <!-- −2 -->
      <g style="fill:#262626;" transform="translate(95.697848 279.632577)scale(0.055 -0.055)">
       <defs>
        <path d="M 19.1875 8.296875 
L 53.609375 8.296875 
L 53.609375 0 
L 7.328125 0 
L 7.328125 8.296875 
Q 12.9375 14.109375 22.625 23.890625 
Q 32.328125 33.6875 34.8125 36.53125 
Q 39.546875 41.84375 41.421875 45.53125 
Q 43.3125 49.21875 43.3125 52.78125 
Q 43.3125 58.59375 39.234375 62.25 
Q 35.15625 65.921875 28.609375 65.921875 
Q 23.96875 65.921875 18.8125 64.3125 
Q 13.671875 62.703125 7.8125 59.421875 
L 7.8125 69.390625 
Q 13.765625 71.78125 18.9375 73 
Q 24.125 74.21875 28.421875 74.21875 
Q 39.75 74.21875 46.484375 68.546875 
Q 53.21875 62.890625 53.21875 53.421875 
Q 53.21875 48.921875 51.53125 44.890625 
Q 49.859375 40.875 45.40625 35.40625 
Q 44.1875 33.984375 37.640625 27.21875 
Q 31.109375 20.453125 19.1875 8.296875 
z
" id="DejaVuSans-50"/>
       </defs>
       <use xlink:href="#DejaVuSans-8722"/>
       <use x="83.789062" xlink:href="#DejaVuSans-50"/>
      </g>
     </g>
    </g>
    <g id="xtick_4">
     <g id="line2d_4">
      <path clip-path="url(#pe93aeef3b1)" d="M 133.944084 265.953436 
L 133.944084 6.4638 
" style="fill:none;stroke:#ffffff;stroke-linecap:round;stroke-width:0.5;"/>
     </g>
     <g id="text_4">
      <!-- 0 -->
      <g style="fill:#262626;" transform="translate(132.194397 279.632577)scale(0.055 -0.055)">
       <defs>
        <path d="M 31.78125 66.40625 
Q 24.171875 66.40625 20.328125 58.90625 
Q 16.5 51.421875 16.5 36.375 
Q 16.5 21.390625 20.328125 13.890625 
Q 24.171875 6.390625 31.78125 6.390625 
Q 39.453125 6.390625 43.28125 13.890625 
Q 47.125 21.390625 47.125 36.375 
Q 47.125 51.421875 43.28125 58.90625 
Q 39.453125 66.40625 31.78125 66.40625 
z
M 31.78125 74.21875 
Q 44.046875 74.21875 50.515625 64.515625 
Q 56.984375 54.828125 56.984375 36.375 
Q 56.984375 17.96875 50.515625 8.265625 
Q 44.046875 -1.421875 31.78125 -1.421875 
Q 19.53125 -1.421875 13.0625 8.265625 
Q 6.59375 17.96875 6.59375 36.375 
Q 6.59375 54.828125 13.0625 64.515625 
Q 19.53125 74.21875 31.78125 74.21875 
z
" id="DejaVuSans-48"/>
       </defs>
       <use xlink:href="#DejaVuSans-48"/>
      </g>
     </g>
    </g>
    <g id="xtick_5">
     <g id="line2d_5">
      <path clip-path="url(#pe93aeef3b1)" d="M 168.136218 265.953436 
L 168.136218 6.4638 
" style="fill:none;stroke:#ffffff;stroke-linecap:round;stroke-width:0.5;"/>
     </g>
     <g id="text_5">
      <!-- 2 -->
      <g style="fill:#262626;" transform="translate(166.386531 279.632577)scale(0.055 -0.055)">
       <use xlink:href="#DejaVuSans-50"/>
      </g>
     </g>
    </g>
    <g id="xtick_6">
     <g id="line2d_6">
      <path clip-path="url(#pe93aeef3b1)" d="M 202.328353 265.953436 
L 202.328353 6.4638 
" style="fill:none;stroke:#ffffff;stroke-linecap:round;stroke-width:0.5;"/>
     </g>
     <g id="text_6">
      <!-- 4 -->
      <g style="fill:#262626;" transform="translate(200.578665 279.632577)scale(0.055 -0.055)">
       <use xlink:href="#DejaVuSans-52"/>
      </g>
     </g>
    </g>
    <g id="xtick_7">
     <g id="line2d_7">
      <path clip-path="url(#pe93aeef3b1)" d="M 236.520487 265.953436 
L 236.520487 6.4638 
" style="fill:none;stroke:#ffffff;stroke-linecap:round;stroke-width:0.5;"/>
     </g>
     <g id="text_7">
      <!-- 6 -->
      <g style="fill:#262626;" transform="translate(234.770799 279.632577)scale(0.055 -0.055)">
       <use xlink:href="#DejaVuSans-54"/>
      </g>
     </g>
    </g>
    <g id="xtick_8">
     <g id="line2d_8">
      <path clip-path="url(#pe93aeef3b1)" d="M 270.712621 265.953436 
L 270.712621 6.4638 
" style="fill:none;stroke:#ffffff;stroke-linecap:round;stroke-width:0.5;"/>
     </g>
     <g id="text_8">
      <!-- 8 -->
      <g style="fill:#262626;" transform="translate(268.962934 279.632577)scale(0.055 -0.055)">
       <defs>
        <path d="M 31.78125 34.625 
Q 24.75 34.625 20.71875 30.859375 
Q 16.703125 27.09375 16.703125 20.515625 
Q 16.703125 13.921875 20.71875 10.15625 
Q 24.75 6.390625 31.78125 6.390625 
Q 38.8125 6.390625 42.859375 10.171875 
Q 46.921875 13.96875 46.921875 20.515625 
Q 46.921875 27.09375 42.890625 30.859375 
Q 38.875 34.625 31.78125 34.625 
z
M 21.921875 38.8125 
Q 15.578125 40.375 12.03125 44.71875 
Q 8.5 49.078125 8.5 55.328125 
Q 8.5 64.0625 14.71875 69.140625 
Q 20.953125 74.21875 31.78125 74.21875 
Q 42.671875 74.21875 48.875 69.140625 
Q 55.078125 64.0625 55.078125 55.328125 
Q 55.078125 49.078125 51.53125 44.71875 
Q 48 40.375 41.703125 38.8125 
Q 48.828125 37.15625 52.796875 32.3125 
Q 56.78125 27.484375 56.78125 20.515625 
Q 56.78125 9.90625 50.3125 4.234375 
Q 43.84375 -1.421875 31.78125 -1.421875 
Q 19.734375 -1.421875 13.25 4.234375 
Q 6.78125 9.90625 6.78125 20.515625 
Q 6.78125 27.484375 10.78125 32.3125 
Q 14.796875 37.15625 21.921875 38.8125 
z
M 18.3125 54.390625 
Q 18.3125 48.734375 21.84375 45.5625 
Q 25.390625 42.390625 31.78125 42.390625 
Q 38.140625 42.390625 41.71875 45.5625 
Q 45.3125 48.734375 45.3125 54.390625 
Q 45.3125 60.0625 41.71875 63.234375 
Q 38.140625 66.40625 31.78125 66.40625 
Q 25.390625 66.40625 21.84375 63.234375 
Q 18.3125 60.0625 18.3125 54.390625 
z
" id="DejaVuSans-56"/>
       </defs>
       <use xlink:href="#DejaVuSans-56"/>
      </g>
     </g>
    </g>
   </g>
   <g id="matplotlib.axis_2">
    <g id="ytick_1">
     <g id="line2d_9">
      <path clip-path="url(#pe93aeef3b1)" d="M 19.443174 216.714061 
L 281.782325 216.714061 
" style="fill:none;stroke:#ffffff;stroke-linecap:round;stroke-width:0.5;"/>
     </g>
     <g id="text_9">
      <!-- 0 -->
      <g style="fill:#262626;" transform="translate(6.443799 218.803631)scale(0.055 -0.055)">
       <use xlink:href="#DejaVuSans-48"/>
      </g>
     </g>
    </g>
    <g id="ytick_2">
     <g id="line2d_10">
      <path clip-path="url(#pe93aeef3b1)" d="M 19.443174 166.788205 
L 281.782325 166.788205 
" style="fill:none;stroke:#ffffff;stroke-linecap:round;stroke-width:0.5;"/>
     </g>
     <g id="text_10">
      <!-- 2 -->
      <g style="fill:#262626;" transform="translate(6.443799 168.877775)scale(0.055 -0.055)">
       <use xlink:href="#DejaVuSans-50"/>
      </g>
     </g>
    </g>
    <g id="ytick_3">
     <g id="line2d_11">
      <path clip-path="url(#pe93aeef3b1)" d="M 19.443174 116.862349 
L 281.782325 116.862349 
" style="fill:none;stroke:#ffffff;stroke-linecap:round;stroke-width:0.5;"/>
     </g>
     <g id="text_11">
      <!-- 4 -->
      <g style="fill:#262626;" transform="translate(6.443799 118.951919)scale(0.055 -0.055)">
       <use xlink:href="#DejaVuSans-52"/>
      </g>
     </g>
    </g>
    <g id="ytick_4">
     <g id="line2d_12">
      <path clip-path="url(#pe93aeef3b1)" d="M 19.443174 66.936493 
L 281.782325 66.936493 
" style="fill:none;stroke:#ffffff;stroke-linecap:round;stroke-width:0.5;"/>
     </g>
     <g id="text_12">
      <!-- 6 -->
      <g style="fill:#262626;" transform="translate(6.443799 69.026063)scale(0.055 -0.055)">
       <use xlink:href="#DejaVuSans-54"/>
      </g>
     </g>
    </g>
    <g id="ytick_5">
     <g id="line2d_13">
      <path clip-path="url(#pe93aeef3b1)" d="M 19.443174 17.010637 
L 281.782325 17.010637 
" style="fill:none;stroke:#ffffff;stroke-linecap:round;stroke-width:0.5;"/>
     </g>
     <g id="text_13">
      <!-- 8 -->
      <g style="fill:#262626;" transform="translate(6.443799 19.100207)scale(0.055 -0.055)">
       <use xlink:href="#DejaVuSans-56"/>
      </g>
     </g>
    </g>
   </g>
   <g id="line2d_14">
    <path clip-path="url(#pe93aeef3b1)" d="M 31.367681 216.714061 
L 133.944084 216.714061 
L 269.857818 18.258783 
L 269.857818 18.258783 
" style="fill:none;stroke:#4c72b0;stroke-linecap:round;stroke-width:0.75;"/>
   </g>
   <g id="line2d_15">
    <path clip-path="url(#pe93aeef3b1)" d="M 31.367681 246.669575 
L 133.944084 216.714061 
L 269.857818 18.258783 
L 269.857818 18.258783 
" style="fill:none;stroke:#dd8452;stroke-linecap:round;stroke-width:0.75;"/>
   </g>
   <g id="line2d_16">
    <path clip-path="url(#pe93aeef3b1)" d="M 31.367681 241.615112 
L 56.156979 241.4132 
L 69.833832 241.089917 
L 79.236669 240.659445 
L 86.929899 240.081162 
L 92.913523 239.412403 
L 98.042343 238.620118 
L 102.31636 237.751889 
L 106.590377 236.637061 
L 110.00959 235.521207 
L 113.428804 234.158299 
L 115.993214 232.941518 
L 118.557624 231.52782 
L 121.122034 229.885337 
L 123.686444 227.977044 
L 126.250854 225.759923 
L 128.815264 223.183997 
L 131.379674 220.191198 
L 133.944084 216.714061 
L 269.857818 18.258783 
L 269.857818 18.258783 
" style="fill:none;stroke:#55a868;stroke-linecap:round;stroke-width:0.75;"/>
   </g>
   <g id="line2d_17">
    <path clip-path="url(#pe93aeef3b1)" d="M 31.367681 216.714061 
L 133.944084 216.714061 
L 269.857818 18.258788 
L 269.857818 18.258788 
" style="fill:none;stroke:#c44e52;stroke-linecap:round;stroke-width:0.75;"/>
   </g>
   <g id="line2d_18">
    <path clip-path="url(#pe93aeef3b1)" d="M 31.367681 254.158453 
L 133.944084 216.714061 
L 269.857818 18.258788 
L 269.857818 18.258788 
" style="fill:none;stroke:#8172b3;stroke-linecap:round;stroke-width:0.75;"/>
   </g>
   <g id="line2d_19">
    <path clip-path="url(#pe93aeef3b1)" d="M 31.367681 217.084404 
L 45.899338 217.455328 
L 57.011782 217.948259 
L 66.414619 218.576777 
L 74.962652 219.36394 
L 83.510686 220.376689 
L 94.62313 221.945861 
L 103.171163 223.087893 
L 108.299983 223.544874 
L 111.719197 223.664103 
L 115.13841 223.571724 
L 118.557624 223.208053 
L 121.122034 222.72054 
L 123.686444 222.021335 
L 126.250854 221.087874 
L 128.815264 219.901009 
L 131.379674 218.446127 
L 133.944084 216.714061 
L 136.508494 214.701687 
L 139.072904 212.412131 
L 141.637314 209.854556 
L 144.201724 207.043578 
L 147.620938 202.935034 
L 151.040151 198.464698 
L 155.314168 192.45946 
L 160.442988 184.796055 
L 167.281415 174.099324 
L 199.763943 122.609312 
L 211.73119 104.320425 
L 226.262847 82.520347 
L 246.778127 52.18256 
L 269.857818 18.328746 
L 269.857818 18.328746 
" style="fill:none;stroke:#937860;stroke-linecap:round;stroke-width:0.75;"/>
   </g>
   <g id="line2d_20">
    <path clip-path="url(#pe93aeef3b1)" d="M 31.367681 217.084404 
L 45.899338 217.455328 
L 57.011782 217.948259 
L 66.414619 218.576777 
L 74.962652 219.36394 
L 83.510686 220.376689 
L 94.62313 221.945861 
L 103.171163 223.087893 
L 108.299983 223.544874 
L 111.719197 223.664103 
L 115.13841 223.571724 
L 118.557624 223.208053 
L 121.122034 222.72054 
L 123.686444 222.021335 
L 126.250854 221.087874 
L 128.815264 219.901009 
L 131.379674 218.446127 
L 133.944084 216.714061 
L 136.508494 214.701687 
L 139.072904 212.412131 
L 141.637314 209.854556 
L 144.201724 207.043578 
L 147.620938 202.935034 
L 151.040151 198.464698 
L 155.314168 192.45946 
L 160.442988 184.796055 
L 167.281415 174.099324 
L 199.763943 122.609312 
L 211.73119 104.320425 
L 226.262847 82.520347 
L 246.778127 52.18256 
L 269.857818 18.328746 
L 269.857818 18.328746 
" style="fill:none;stroke:#937860;stroke-linecap:round;stroke-width:0.75;"/>
   </g>
   <g id="line2d_21">
    <path clip-path="url(#pe93aeef3b1)" d="M 31.367681 216.714061 
L 82.655883 216.815153 
L 90.349113 217.056918 
L 96.332736 217.477616 
L 101.461557 218.076075 
L 106.590377 218.902782 
L 116.848017 220.67456 
L 119.412427 220.908161 
L 121.976837 220.942146 
L 124.541247 220.71157 
L 126.250854 220.380113 
L 127.960461 219.88708 
L 129.670067 219.218427 
L 131.379674 218.363046 
L 133.089281 217.313248 
L 134.798887 216.065101 
L 136.508494 214.618606 
L 139.072904 212.086597 
L 141.637314 209.146795 
L 144.201724 205.844001 
L 147.620938 200.974543 
L 151.894955 194.35232 
L 158.733381 183.179298 
L 167.281415 169.281919 
L 174.119842 158.601831 
L 182.667875 145.725235 
L 196.344729 125.611321 
L 269.857818 18.258783 
L 269.857818 18.258783 
" style="fill:none;stroke:#da8bc3;stroke-linecap:round;stroke-width:0.75;"/>
   </g>
   <g id="line2d_22">
    <path clip-path="url(#pe93aeef3b1)" d="M 31.367681 216.714061 
L 83.510686 216.820348 
L 91.203916 217.090608 
L 96.332736 217.470974 
L 101.461557 218.075758 
L 106.590377 218.90738 
L 116.848017 220.678374 
L 119.412427 220.910664 
L 121.976837 220.943526 
L 124.541247 220.712176 
L 126.250854 220.380405 
L 127.960461 219.887194 
L 129.670067 219.218458 
L 131.379674 218.36305 
L 133.089281 217.313248 
L 134.798887 216.065101 
L 136.508494 214.618611 
L 139.072904 212.08666 
L 141.637314 209.147087 
L 144.201724 205.844823 
L 147.620938 200.97664 
L 151.894955 194.356564 
L 158.733381 183.184975 
L 167.281415 169.280551 
L 174.119842 158.592602 
L 181.813072 146.984837 
L 194.635122 128.108278 
L 269.857818 18.258783 
L 269.857818 18.258783 
" style="fill:none;stroke:#da8bc3;stroke-linecap:round;stroke-width:0.75;"/>
   </g>
   <g id="line2d_23">
    <path clip-path="url(#pe93aeef3b1)" d="M 31.367681 216.714061 
L 82.655883 216.815153 
L 90.349113 217.056919 
L 96.332736 217.477617 
L 101.461557 218.076075 
L 106.590377 218.902782 
L 116.848017 220.674561 
L 119.412427 220.908161 
L 121.976837 220.942146 
L 124.541247 220.71157 
L 126.250854 220.380113 
L 127.960461 219.88708 
L 129.670067 219.218427 
L 131.379674 218.363046 
L 133.089281 217.313248 
L 134.798887 216.065101 
L 136.508494 214.618606 
L 139.072904 212.086597 
L 141.637314 209.146795 
L 144.201724 205.844001 
L 147.620938 200.974543 
L 151.894955 194.35232 
L 158.733381 183.179298 
L 167.281415 169.281919 
L 174.119842 158.601831 
L 182.667875 145.725235 
L 196.344729 125.611321 
L 269.857818 18.258783 
L 269.857818 18.258783 
" style="fill:none;stroke:#da8bc3;stroke-linecap:round;stroke-width:0.75;"/>
   </g>
   <g id="line2d_24">
    <path clip-path="url(#pe93aeef3b1)" d="M 31.367681 216.714061 
L 133.944084 216.714061 
L 236.520487 66.936493 
L 269.857818 66.936493 
L 269.857818 66.936493 
" style="fill:none;stroke:#8c8c8c;stroke-linecap:round;stroke-width:0.75;"/>
   </g>
   <g id="line2d_25">
    <path clip-path="url(#pe93aeef3b1)" d="M 31.367681 216.714061 
L 82.655883 216.714061 
L 86.075096 219.043934 
L 89.49431 221.040968 
L 92.913523 222.705164 
L 95.477933 223.734884 
L 98.042343 224.577383 
L 100.606753 225.23266 
L 103.171163 225.700715 
L 105.735573 225.981548 
L 108.299983 226.075159 
L 110.864393 225.981548 
L 113.428804 225.700715 
L 115.993214 225.23266 
L 118.557624 224.577383 
L 121.122034 223.734884 
L 123.686444 222.705164 
L 126.250854 221.488221 
L 129.670067 219.574396 
L 133.089281 217.327733 
L 136.508494 214.74823 
L 139.927708 211.835889 
L 143.346921 208.590708 
L 146.766134 205.012688 
L 150.185348 201.10183 
L 153.604561 196.858132 
L 157.023775 192.281595 
L 160.442988 187.372219 
L 163.862202 182.130004 
L 168.136218 175.109181 
L 172.410235 167.568296 
L 176.684252 159.507351 
L 180.958269 150.926344 
L 185.232285 141.825277 
L 269.857818 18.258783 
L 269.857818 18.258783 
" style="fill:none;stroke:#ccb974;stroke-linecap:round;stroke-width:0.75;"/>
   </g>
   <g id="line2d_26">
    <path clip-path="url(#pe93aeef3b1)" d="M 31.367681 216.714061 
L 82.655883 216.714061 
L 86.075096 219.043934 
L 89.49431 221.040968 
L 92.913523 222.705164 
L 95.477933 223.734884 
L 98.042343 224.577383 
L 100.606753 225.23266 
L 103.171163 225.700715 
L 105.735573 225.981548 
L 108.299983 226.075159 
L 110.864393 225.981548 
L 113.428804 225.700715 
L 115.993214 225.23266 
L 118.557624 224.577383 
L 121.122034 223.734884 
L 123.686444 222.705164 
L 126.250854 221.488221 
L 129.670067 219.574396 
L 133.089281 217.327733 
L 136.508494 214.74823 
L 139.927708 211.835889 
L 143.346921 208.590708 
L 146.766134 205.012688 
L 150.185348 201.10183 
L 153.604561 196.858132 
L 157.023775 192.281595 
L 160.442988 187.372219 
L 163.862202 182.130004 
L 168.136218 175.109181 
L 172.410235 167.568296 
L 176.684252 159.507351 
L 180.958269 150.926344 
L 185.232285 141.825277 
L 269.857818 18.258783 
L 269.857818 18.258783 
" style="fill:none;stroke:#ccb974;stroke-linecap:round;stroke-width:0.75;"/>
   </g>
   <g id="line2d_27">
    <path clip-path="url(#pe93aeef3b1)" d="M 31.367681 216.714061 
L 91.203916 216.714061 
L 93.768326 218.473947 
L 96.332736 220.009167 
L 98.897146 221.319721 
L 101.461557 222.405608 
L 104.025967 223.266829 
L 106.590377 223.903384 
L 109.154787 224.315272 
L 111.719197 224.502494 
L 114.283607 224.46505 
L 116.848017 224.202939 
L 119.412427 223.716162 
L 121.976837 223.004719 
L 124.541247 222.068609 
L 127.105657 220.907833 
L 129.670067 219.52239 
L 132.234477 217.912281 
L 134.798887 216.077506 
L 137.363298 214.018065 
L 139.927708 211.733957 
L 143.346921 208.338999 
L 146.766134 204.544633 
L 150.185348 200.350862 
L 153.604561 195.757683 
L 157.023775 190.765097 
L 160.442988 185.373105 
L 163.862202 179.581706 
L 167.281415 173.390899 
L 170.700628 166.800686 
L 174.119842 159.811067 
L 176.684252 154.306741 
L 269.857818 18.258783 
L 269.857818 18.258783 
" style="fill:none;stroke:#64b5cd;stroke-linecap:round;stroke-width:0.75;"/>
   </g>
   <g id="patch_3">
    <path d="M 19.443174 265.953436 
L 19.443174 6.4638 
" style="fill:none;stroke:#ffffff;stroke-linecap:square;stroke-linejoin:miter;stroke-width:0.625;"/>
   </g>
   <g id="patch_4">
    <path d="M 281.782325 265.953436 
L 281.782325 6.4638 
" style="fill:none;stroke:#ffffff;stroke-linecap:square;stroke-linejoin:miter;stroke-width:0.625;"/>
   </g>
   <g id="patch_5">
    <path d="M 19.443174 265.953436 
L 281.782325 265.953436 
" style="fill:none;stroke:#ffffff;stroke-linecap:square;stroke-linejoin:miter;stroke-width:0.625;"/>
   </g>
   <g id="patch_6">
    <path d="M 19.443174 6.4638 
L 281.782325 6.4638 
" style="fill:none;stroke:#ffffff;stroke-linecap:square;stroke-linejoin:miter;stroke-width:0.625;"/>
   </g>
   <g id="legend_1">
    <g id="line2d_28">
     <path d="M 24.393174 13.667941 
L 35.393174 13.667941 
" style="fill:none;stroke:#4c72b0;stroke-linecap:round;stroke-width:0.75;"/>
    </g>
    <g id="line2d_29"/>
    <g id="text_14">
     <!-- relu -->
     <g style="fill:#262626;" transform="translate(39.793174 15.592941)scale(0.055 -0.055)">
      <defs>
       <path d="M 41.109375 46.296875 
Q 39.59375 47.171875 37.8125 47.578125 
Q 36.03125 48 33.890625 48 
Q 26.265625 48 22.1875 43.046875 
Q 18.109375 38.09375 18.109375 28.8125 
L 18.109375 0 
L 9.078125 0 
L 9.078125 54.6875 
L 18.109375 54.6875 
L 18.109375 46.1875 
Q 20.953125 51.171875 25.484375 53.578125 
Q 30.03125 56 36.53125 56 
Q 37.453125 56 38.578125 55.875 
Q 39.703125 55.765625 41.0625 55.515625 
z
" id="DejaVuSans-114"/>
       <path d="M 56.203125 29.59375 
L 56.203125 25.203125 
L 14.890625 25.203125 
Q 15.484375 15.921875 20.484375 11.0625 
Q 25.484375 6.203125 34.421875 6.203125 
Q 39.59375 6.203125 44.453125 7.46875 
Q 49.3125 8.734375 54.109375 11.28125 
L 54.109375 2.78125 
Q 49.265625 0.734375 44.1875 -0.34375 
Q 39.109375 -1.421875 33.890625 -1.421875 
Q 20.796875 -1.421875 13.15625 6.1875 
Q 5.515625 13.8125 5.515625 26.8125 
Q 5.515625 40.234375 12.765625 48.109375 
Q 20.015625 56 32.328125 56 
Q 43.359375 56 49.78125 48.890625 
Q 56.203125 41.796875 56.203125 29.59375 
z
M 47.21875 32.234375 
Q 47.125 39.59375 43.09375 43.984375 
Q 39.0625 48.390625 32.421875 48.390625 
Q 24.90625 48.390625 20.390625 44.140625 
Q 15.875 39.890625 15.1875 32.171875 
z
" id="DejaVuSans-101"/>
       <path d="M 9.421875 75.984375 
L 18.40625 75.984375 
L 18.40625 0 
L 9.421875 0 
z
" id="DejaVuSans-108"/>
       <path d="M 8.5 21.578125 
L 8.5 54.6875 
L 17.484375 54.6875 
L 17.484375 21.921875 
Q 17.484375 14.15625 20.5 10.265625 
Q 23.53125 6.390625 29.59375 6.390625 
Q 36.859375 6.390625 41.078125 11.03125 
Q 45.3125 15.671875 45.3125 23.6875 
L 45.3125 54.6875 
L 54.296875 54.6875 
L 54.296875 0 
L 45.3125 0 
L 45.3125 8.40625 
Q 42.046875 3.421875 37.71875 1 
Q 33.40625 -1.421875 27.6875 -1.421875 
Q 18.265625 -1.421875 13.375 4.4375 
Q 8.5 10.296875 8.5 21.578125 
z
M 31.109375 56 
z
" id="DejaVuSans-117"/>
      </defs>
      <use xlink:href="#DejaVuSans-114"/>
      <use x="38.863281" xlink:href="#DejaVuSans-101"/>
      <use x="100.386719" xlink:href="#DejaVuSans-108"/>
      <use x="128.169922" xlink:href="#DejaVuSans-117"/>
     </g>
    </g>
    <g id="line2d_30">
     <path d="M 24.393174 21.740909 
L 35.393174 21.740909 
" style="fill:none;stroke:#dd8452;stroke-linecap:round;stroke-width:0.75;"/>
    </g>
    <g id="line2d_31"/>
    <g id="text_15">
     <!-- leaky_relu (PReLU 0.2) -->
     <g style="fill:#262626;" transform="translate(39.793174 23.665909)scale(0.055 -0.055)">
      <defs>
       <path d="M 34.28125 27.484375 
Q 23.390625 27.484375 19.1875 25 
Q 14.984375 22.515625 14.984375 16.5 
Q 14.984375 11.71875 18.140625 8.90625 
Q 21.296875 6.109375 26.703125 6.109375 
Q 34.1875 6.109375 38.703125 11.40625 
Q 43.21875 16.703125 43.21875 25.484375 
L 43.21875 27.484375 
z
M 52.203125 31.203125 
L 52.203125 0 
L 43.21875 0 
L 43.21875 8.296875 
Q 40.140625 3.328125 35.546875 0.953125 
Q 30.953125 -1.421875 24.3125 -1.421875 
Q 15.921875 -1.421875 10.953125 3.296875 
Q 6 8.015625 6 15.921875 
Q 6 25.140625 12.171875 29.828125 
Q 18.359375 34.515625 30.609375 34.515625 
L 43.21875 34.515625 
L 43.21875 35.40625 
Q 43.21875 41.609375 39.140625 45 
Q 35.0625 48.390625 27.6875 48.390625 
Q 23 48.390625 18.546875 47.265625 
Q 14.109375 46.140625 10.015625 43.890625 
L 10.015625 52.203125 
Q 14.9375 54.109375 19.578125 55.046875 
Q 24.21875 56 28.609375 56 
Q 40.484375 56 46.34375 49.84375 
Q 52.203125 43.703125 52.203125 31.203125 
z
" id="DejaVuSans-97"/>
       <path d="M 9.078125 75.984375 
L 18.109375 75.984375 
L 18.109375 31.109375 
L 44.921875 54.6875 
L 56.390625 54.6875 
L 27.390625 29.109375 
L 57.625 0 
L 45.90625 0 
L 18.109375 26.703125 
L 18.109375 0 
L 9.078125 0 
z
" id="DejaVuSans-107"/>
       <path d="M 32.171875 -5.078125 
Q 28.375 -14.84375 24.75 -17.8125 
Q 21.140625 -20.796875 15.09375 -20.796875 
L 7.90625 -20.796875 
L 7.90625 -13.28125 
L 13.1875 -13.28125 
Q 16.890625 -13.28125 18.9375 -11.515625 
Q 21 -9.765625 23.484375 -3.21875 
L 25.09375 0.875 
L 2.984375 54.6875 
L 12.5 54.6875 
L 29.59375 11.921875 
L 46.6875 54.6875 
L 56.203125 54.6875 
z
" id="DejaVuSans-121"/>
       <path d="M 50.984375 -16.609375 
L 50.984375 -23.578125 
L -0.984375 -23.578125 
L -0.984375 -16.609375 
z
" id="DejaVuSans-95"/>
       <path id="DejaVuSans-32"/>
       <path d="M 31 75.875 
Q 24.46875 64.65625 21.28125 53.65625 
Q 18.109375 42.671875 18.109375 31.390625 
Q 18.109375 20.125 21.3125 9.0625 
Q 24.515625 -2 31 -13.1875 
L 23.1875 -13.1875 
Q 15.875 -1.703125 12.234375 9.375 
Q 8.59375 20.453125 8.59375 31.390625 
Q 8.59375 42.28125 12.203125 53.3125 
Q 15.828125 64.359375 23.1875 75.875 
z
" id="DejaVuSans-40"/>
       <path d="M 19.671875 64.796875 
L 19.671875 37.40625 
L 32.078125 37.40625 
Q 38.96875 37.40625 42.71875 40.96875 
Q 46.484375 44.53125 46.484375 51.125 
Q 46.484375 57.671875 42.71875 61.234375 
Q 38.96875 64.796875 32.078125 64.796875 
z
M 9.8125 72.90625 
L 32.078125 72.90625 
Q 44.34375 72.90625 50.609375 67.359375 
Q 56.890625 61.8125 56.890625 51.125 
Q 56.890625 40.328125 50.609375 34.8125 
Q 44.34375 29.296875 32.078125 29.296875 
L 19.671875 29.296875 
L 19.671875 0 
L 9.8125 0 
z
" id="DejaVuSans-80"/>
       <path d="M 44.390625 34.1875 
Q 47.5625 33.109375 50.5625 29.59375 
Q 53.5625 26.078125 56.59375 19.921875 
L 66.609375 0 
L 56 0 
L 46.6875 18.703125 
Q 43.0625 26.03125 39.671875 28.421875 
Q 36.28125 30.8125 30.421875 30.8125 
L 19.671875 30.8125 
L 19.671875 0 
L 9.8125 0 
L 9.8125 72.90625 
L 32.078125 72.90625 
Q 44.578125 72.90625 50.734375 67.671875 
Q 56.890625 62.453125 56.890625 51.90625 
Q 56.890625 45.015625 53.6875 40.46875 
Q 50.484375 35.9375 44.390625 34.1875 
z
M 19.671875 64.796875 
L 19.671875 38.921875 
L 32.078125 38.921875 
Q 39.203125 38.921875 42.84375 42.21875 
Q 46.484375 45.515625 46.484375 51.90625 
Q 46.484375 58.296875 42.84375 61.546875 
Q 39.203125 64.796875 32.078125 64.796875 
z
" id="DejaVuSans-82"/>
       <path d="M 9.8125 72.90625 
L 19.671875 72.90625 
L 19.671875 8.296875 
L 55.171875 8.296875 
L 55.171875 0 
L 9.8125 0 
z
" id="DejaVuSans-76"/>
       <path d="M 8.6875 72.90625 
L 18.609375 72.90625 
L 18.609375 28.609375 
Q 18.609375 16.890625 22.84375 11.734375 
Q 27.09375 6.59375 36.625 6.59375 
Q 46.09375 6.59375 50.34375 11.734375 
Q 54.59375 16.890625 54.59375 28.609375 
L 54.59375 72.90625 
L 64.5 72.90625 
L 64.5 27.390625 
Q 64.5 13.140625 57.4375 5.859375 
Q 50.390625 -1.421875 36.625 -1.421875 
Q 22.796875 -1.421875 15.734375 5.859375 
Q 8.6875 13.140625 8.6875 27.390625 
z
" id="DejaVuSans-85"/>
       <path d="M 10.6875 12.40625 
L 21 12.40625 
L 21 0 
L 10.6875 0 
z
" id="DejaVuSans-46"/>
       <path d="M 8.015625 75.875 
L 15.828125 75.875 
Q 23.140625 64.359375 26.78125 53.3125 
Q 30.421875 42.28125 30.421875 31.390625 
Q 30.421875 20.453125 26.78125 9.375 
Q 23.140625 -1.703125 15.828125 -13.1875 
L 8.015625 -13.1875 
Q 14.5 -2 17.703125 9.0625 
Q 20.90625 20.125 20.90625 31.390625 
Q 20.90625 42.671875 17.703125 53.65625 
Q 14.5 64.65625 8.015625 75.875 
z
" id="DejaVuSans-41"/>
      </defs>
      <use xlink:href="#DejaVuSans-108"/>
      <use x="27.783203" xlink:href="#DejaVuSans-101"/>
      <use x="89.306641" xlink:href="#DejaVuSans-97"/>
      <use x="150.585938" xlink:href="#DejaVuSans-107"/>
      <use x="204.871094" xlink:href="#DejaVuSans-121"/>
      <use x="264.050781" xlink:href="#DejaVuSans-95"/>
      <use x="314.050781" xlink:href="#DejaVuSans-114"/>
      <use x="352.914062" xlink:href="#DejaVuSans-101"/>
      <use x="414.4375" xlink:href="#DejaVuSans-108"/>
      <use x="442.220703" xlink:href="#DejaVuSans-117"/>
      <use x="505.599609" xlink:href="#DejaVuSans-32"/>
      <use x="537.386719" xlink:href="#DejaVuSans-40"/>
      <use x="576.400391" xlink:href="#DejaVuSans-80"/>
      <use x="636.703125" xlink:href="#DejaVuSans-82"/>
      <use x="701.685547" xlink:href="#DejaVuSans-101"/>
      <use x="763.208984" xlink:href="#DejaVuSans-76"/>
      <use x="813.921875" xlink:href="#DejaVuSans-85"/>
      <use x="887.115234" xlink:href="#DejaVuSans-32"/>
      <use x="918.902344" xlink:href="#DejaVuSans-48"/>
      <use x="982.525391" xlink:href="#DejaVuSans-46"/>
      <use x="1014.3125" xlink:href="#DejaVuSans-50"/>
      <use x="1077.935547" xlink:href="#DejaVuSans-41"/>
     </g>
    </g>
    <g id="line2d_32">
     <path d="M 24.393174 29.966847 
L 35.393174 29.966847 
" style="fill:none;stroke:#55a868;stroke-linecap:round;stroke-width:0.75;"/>
    </g>
    <g id="line2d_33"/>
    <g id="text_16">
     <!-- elu -->
     <g style="fill:#262626;" transform="translate(39.793174 31.891847)scale(0.055 -0.055)">
      <use xlink:href="#DejaVuSans-101"/>
      <use x="61.523438" xlink:href="#DejaVuSans-108"/>
      <use x="89.306641" xlink:href="#DejaVuSans-117"/>
     </g>
    </g>
    <g id="line2d_34">
     <path d="M 24.393174 38.039816 
L 35.393174 38.039816 
" style="fill:none;stroke:#c44e52;stroke-linecap:round;stroke-width:0.75;"/>
    </g>
    <g id="line2d_35"/>
    <g id="text_17">
     <!-- PReLU 0 (relu) -->
     <g style="fill:#262626;" transform="translate(39.793174 39.964816)scale(0.055 -0.055)">
      <use xlink:href="#DejaVuSans-80"/>
      <use x="60.302734" xlink:href="#DejaVuSans-82"/>
      <use x="125.285156" xlink:href="#DejaVuSans-101"/>
      <use x="186.808594" xlink:href="#DejaVuSans-76"/>
      <use x="237.521484" xlink:href="#DejaVuSans-85"/>
      <use x="310.714844" xlink:href="#DejaVuSans-32"/>
      <use x="342.501953" xlink:href="#DejaVuSans-48"/>
      <use x="406.125" xlink:href="#DejaVuSans-32"/>
      <use x="437.912109" xlink:href="#DejaVuSans-40"/>
      <use x="476.925781" xlink:href="#DejaVuSans-114"/>
      <use x="515.789062" xlink:href="#DejaVuSans-101"/>
      <use x="577.3125" xlink:href="#DejaVuSans-108"/>
      <use x="605.095703" xlink:href="#DejaVuSans-117"/>
      <use x="668.474609" xlink:href="#DejaVuSans-41"/>
     </g>
    </g>
    <g id="line2d_36">
     <path d="M 24.393174 46.112784 
L 35.393174 46.112784 
" style="fill:none;stroke:#8172b3;stroke-linecap:round;stroke-width:0.75;"/>
    </g>
    <g id="line2d_37"/>
    <g id="text_18">
     <!-- PReLU 0.25 -->
     <g style="fill:#262626;" transform="translate(39.793174 48.037784)scale(0.055 -0.055)">
      <defs>
       <path d="M 10.796875 72.90625 
L 49.515625 72.90625 
L 49.515625 64.59375 
L 19.828125 64.59375 
L 19.828125 46.734375 
Q 21.96875 47.46875 24.109375 47.828125 
Q 26.265625 48.1875 28.421875 48.1875 
Q 40.625 48.1875 47.75 41.5 
Q 54.890625 34.8125 54.890625 23.390625 
Q 54.890625 11.625 47.5625 5.09375 
Q 40.234375 -1.421875 26.90625 -1.421875 
Q 22.3125 -1.421875 17.546875 -0.640625 
Q 12.796875 0.140625 7.71875 1.703125 
L 7.71875 11.625 
Q 12.109375 9.234375 16.796875 8.0625 
Q 21.484375 6.890625 26.703125 6.890625 
Q 35.15625 6.890625 40.078125 11.328125 
Q 45.015625 15.765625 45.015625 23.390625 
Q 45.015625 31 40.078125 35.4375 
Q 35.15625 39.890625 26.703125 39.890625 
Q 22.75 39.890625 18.8125 39.015625 
Q 14.890625 38.140625 10.796875 36.28125 
z
" id="DejaVuSans-53"/>
      </defs>
      <use xlink:href="#DejaVuSans-80"/>
      <use x="60.302734" xlink:href="#DejaVuSans-82"/>
      <use x="125.285156" xlink:href="#DejaVuSans-101"/>
      <use x="186.808594" xlink:href="#DejaVuSans-76"/>
      <use x="237.521484" xlink:href="#DejaVuSans-85"/>
      <use x="310.714844" xlink:href="#DejaVuSans-32"/>
      <use x="342.501953" xlink:href="#DejaVuSans-48"/>
      <use x="406.125" xlink:href="#DejaVuSans-46"/>
      <use x="437.912109" xlink:href="#DejaVuSans-50"/>
      <use x="501.535156" xlink:href="#DejaVuSans-53"/>
     </g>
    </g>
    <g id="line2d_38">
     <path d="M 24.393174 54.185753 
L 35.393174 54.185753 
" style="fill:none;stroke:#937860;stroke-linecap:round;stroke-width:0.75;"/>
    </g>
    <g id="line2d_39"/>
    <g id="text_19">
     <!-- swish -->
     <g style="fill:#262626;" transform="translate(39.793174 56.110753)scale(0.055 -0.055)">
      <defs>
       <path d="M 44.28125 53.078125 
L 44.28125 44.578125 
Q 40.484375 46.53125 36.375 47.5 
Q 32.28125 48.484375 27.875 48.484375 
Q 21.1875 48.484375 17.84375 46.4375 
Q 14.5 44.390625 14.5 40.28125 
Q 14.5 37.15625 16.890625 35.375 
Q 19.28125 33.59375 26.515625 31.984375 
L 29.59375 31.296875 
Q 39.15625 29.25 43.1875 25.515625 
Q 47.21875 21.78125 47.21875 15.09375 
Q 47.21875 7.46875 41.1875 3.015625 
Q 35.15625 -1.421875 24.609375 -1.421875 
Q 20.21875 -1.421875 15.453125 -0.5625 
Q 10.6875 0.296875 5.421875 2 
L 5.421875 11.28125 
Q 10.40625 8.6875 15.234375 7.390625 
Q 20.0625 6.109375 24.8125 6.109375 
Q 31.15625 6.109375 34.5625 8.28125 
Q 37.984375 10.453125 37.984375 14.40625 
Q 37.984375 18.0625 35.515625 20.015625 
Q 33.0625 21.96875 24.703125 23.78125 
L 21.578125 24.515625 
Q 13.234375 26.265625 9.515625 29.90625 
Q 5.8125 33.546875 5.8125 39.890625 
Q 5.8125 47.609375 11.28125 51.796875 
Q 16.75 56 26.8125 56 
Q 31.78125 56 36.171875 55.265625 
Q 40.578125 54.546875 44.28125 53.078125 
z
" id="DejaVuSans-115"/>
       <path d="M 4.203125 54.6875 
L 13.1875 54.6875 
L 24.421875 12.015625 
L 35.59375 54.6875 
L 46.1875 54.6875 
L 57.421875 12.015625 
L 68.609375 54.6875 
L 77.59375 54.6875 
L 63.28125 0 
L 52.6875 0 
L 40.921875 44.828125 
L 29.109375 0 
L 18.5 0 
z
" id="DejaVuSans-119"/>
       <path d="M 9.421875 54.6875 
L 18.40625 54.6875 
L 18.40625 0 
L 9.421875 0 
z
M 9.421875 75.984375 
L 18.40625 75.984375 
L 18.40625 64.59375 
L 9.421875 64.59375 
z
" id="DejaVuSans-105"/>
       <path d="M 54.890625 33.015625 
L 54.890625 0 
L 45.90625 0 
L 45.90625 32.71875 
Q 45.90625 40.484375 42.875 44.328125 
Q 39.84375 48.1875 33.796875 48.1875 
Q 26.515625 48.1875 22.3125 43.546875 
Q 18.109375 38.921875 18.109375 30.90625 
L 18.109375 0 
L 9.078125 0 
L 9.078125 75.984375 
L 18.109375 75.984375 
L 18.109375 46.1875 
Q 21.34375 51.125 25.703125 53.5625 
Q 30.078125 56 35.796875 56 
Q 45.21875 56 50.046875 50.171875 
Q 54.890625 44.34375 54.890625 33.015625 
z
" id="DejaVuSans-104"/>
      </defs>
      <use xlink:href="#DejaVuSans-115"/>
      <use x="52.099609" xlink:href="#DejaVuSans-119"/>
      <use x="133.886719" xlink:href="#DejaVuSans-105"/>
      <use x="161.669922" xlink:href="#DejaVuSans-115"/>
      <use x="213.769531" xlink:href="#DejaVuSans-104"/>
     </g>
    </g>
    <g id="line2d_40">
     <path d="M 24.393174 62.258722 
L 35.393174 62.258722 
" style="fill:none;stroke:#937860;stroke-linecap:round;stroke-width:0.75;"/>
    </g>
    <g id="line2d_41"/>
    <g id="text_20">
     <!-- swish self defined -->
     <g style="fill:#262626;" transform="translate(39.793174 64.183722)scale(0.055 -0.055)">
      <defs>
       <path d="M 37.109375 75.984375 
L 37.109375 68.5 
L 28.515625 68.5 
Q 23.6875 68.5 21.796875 66.546875 
Q 19.921875 64.59375 19.921875 59.515625 
L 19.921875 54.6875 
L 34.71875 54.6875 
L 34.71875 47.703125 
L 19.921875 47.703125 
L 19.921875 0 
L 10.890625 0 
L 10.890625 47.703125 
L 2.296875 47.703125 
L 2.296875 54.6875 
L 10.890625 54.6875 
L 10.890625 58.5 
Q 10.890625 67.625 15.140625 71.796875 
Q 19.390625 75.984375 28.609375 75.984375 
z
" id="DejaVuSans-102"/>
       <path d="M 45.40625 46.390625 
L 45.40625 75.984375 
L 54.390625 75.984375 
L 54.390625 0 
L 45.40625 0 
L 45.40625 8.203125 
Q 42.578125 3.328125 38.25 0.953125 
Q 33.9375 -1.421875 27.875 -1.421875 
Q 17.96875 -1.421875 11.734375 6.484375 
Q 5.515625 14.40625 5.515625 27.296875 
Q 5.515625 40.1875 11.734375 48.09375 
Q 17.96875 56 27.875 56 
Q 33.9375 56 38.25 53.625 
Q 42.578125 51.265625 45.40625 46.390625 
z
M 14.796875 27.296875 
Q 14.796875 17.390625 18.875 11.75 
Q 22.953125 6.109375 30.078125 6.109375 
Q 37.203125 6.109375 41.296875 11.75 
Q 45.40625 17.390625 45.40625 27.296875 
Q 45.40625 37.203125 41.296875 42.84375 
Q 37.203125 48.484375 30.078125 48.484375 
Q 22.953125 48.484375 18.875 42.84375 
Q 14.796875 37.203125 14.796875 27.296875 
z
" id="DejaVuSans-100"/>
       <path d="M 54.890625 33.015625 
L 54.890625 0 
L 45.90625 0 
L 45.90625 32.71875 
Q 45.90625 40.484375 42.875 44.328125 
Q 39.84375 48.1875 33.796875 48.1875 
Q 26.515625 48.1875 22.3125 43.546875 
Q 18.109375 38.921875 18.109375 30.90625 
L 18.109375 0 
L 9.078125 0 
L 9.078125 54.6875 
L 18.109375 54.6875 
L 18.109375 46.1875 
Q 21.34375 51.125 25.703125 53.5625 
Q 30.078125 56 35.796875 56 
Q 45.21875 56 50.046875 50.171875 
Q 54.890625 44.34375 54.890625 33.015625 
z
" id="DejaVuSans-110"/>
      </defs>
      <use xlink:href="#DejaVuSans-115"/>
      <use x="52.099609" xlink:href="#DejaVuSans-119"/>
      <use x="133.886719" xlink:href="#DejaVuSans-105"/>
      <use x="161.669922" xlink:href="#DejaVuSans-115"/>
      <use x="213.769531" xlink:href="#DejaVuSans-104"/>
      <use x="277.148438" xlink:href="#DejaVuSans-32"/>
      <use x="308.935547" xlink:href="#DejaVuSans-115"/>
      <use x="361.035156" xlink:href="#DejaVuSans-101"/>
      <use x="422.558594" xlink:href="#DejaVuSans-108"/>
      <use x="450.341797" xlink:href="#DejaVuSans-102"/>
      <use x="485.546875" xlink:href="#DejaVuSans-32"/>
      <use x="517.333984" xlink:href="#DejaVuSans-100"/>
      <use x="580.810547" xlink:href="#DejaVuSans-101"/>
      <use x="642.333984" xlink:href="#DejaVuSans-102"/>
      <use x="677.539062" xlink:href="#DejaVuSans-105"/>
      <use x="705.322266" xlink:href="#DejaVuSans-110"/>
      <use x="768.701172" xlink:href="#DejaVuSans-101"/>
      <use x="830.224609" xlink:href="#DejaVuSans-100"/>
     </g>
    </g>
    <g id="line2d_42">
     <path d="M 24.393174 70.331691 
L 35.393174 70.331691 
" style="fill:none;stroke:#da8bc3;stroke-linecap:round;stroke-width:0.75;"/>
    </g>
    <g id="line2d_43"/>
    <g id="text_21">
     <!-- gelu -->
     <g style="fill:#262626;" transform="translate(39.793174 72.256691)scale(0.055 -0.055)">
      <defs>
       <path d="M 45.40625 27.984375 
Q 45.40625 37.75 41.375 43.109375 
Q 37.359375 48.484375 30.078125 48.484375 
Q 22.859375 48.484375 18.828125 43.109375 
Q 14.796875 37.75 14.796875 27.984375 
Q 14.796875 18.265625 18.828125 12.890625 
Q 22.859375 7.515625 30.078125 7.515625 
Q 37.359375 7.515625 41.375 12.890625 
Q 45.40625 18.265625 45.40625 27.984375 
z
M 54.390625 6.78125 
Q 54.390625 -7.171875 48.1875 -13.984375 
Q 42 -20.796875 29.203125 -20.796875 
Q 24.46875 -20.796875 20.265625 -20.09375 
Q 16.0625 -19.390625 12.109375 -17.921875 
L 12.109375 -9.1875 
Q 16.0625 -11.328125 19.921875 -12.34375 
Q 23.78125 -13.375 27.78125 -13.375 
Q 36.625 -13.375 41.015625 -8.765625 
Q 45.40625 -4.15625 45.40625 5.171875 
L 45.40625 9.625 
Q 42.625 4.78125 38.28125 2.390625 
Q 33.9375 0 27.875 0 
Q 17.828125 0 11.671875 7.65625 
Q 5.515625 15.328125 5.515625 27.984375 
Q 5.515625 40.671875 11.671875 48.328125 
Q 17.828125 56 27.875 56 
Q 33.9375 56 38.28125 53.609375 
Q 42.625 51.21875 45.40625 46.390625 
L 45.40625 54.6875 
L 54.390625 54.6875 
z
" id="DejaVuSans-103"/>
      </defs>
      <use xlink:href="#DejaVuSans-103"/>
      <use x="63.476562" xlink:href="#DejaVuSans-101"/>
      <use x="125" xlink:href="#DejaVuSans-108"/>
      <use x="152.783203" xlink:href="#DejaVuSans-117"/>
     </g>
    </g>
    <g id="line2d_44">
     <path d="M 24.393174 78.404659 
L 35.393174 78.404659 
" style="fill:none;stroke:#da8bc3;stroke-linecap:round;stroke-width:0.75;"/>
    </g>
    <g id="line2d_45"/>
    <g id="text_22">
     <!-- gelu self defined approximate True -->
     <g style="fill:#262626;" transform="translate(39.793174 80.329659)scale(0.055 -0.055)">
      <defs>
       <path d="M 18.109375 8.203125 
L 18.109375 -20.796875 
L 9.078125 -20.796875 
L 9.078125 54.6875 
L 18.109375 54.6875 
L 18.109375 46.390625 
Q 20.953125 51.265625 25.265625 53.625 
Q 29.59375 56 35.59375 56 
Q 45.5625 56 51.78125 48.09375 
Q 58.015625 40.1875 58.015625 27.296875 
Q 58.015625 14.40625 51.78125 6.484375 
Q 45.5625 -1.421875 35.59375 -1.421875 
Q 29.59375 -1.421875 25.265625 0.953125 
Q 20.953125 3.328125 18.109375 8.203125 
z
M 48.6875 27.296875 
Q 48.6875 37.203125 44.609375 42.84375 
Q 40.53125 48.484375 33.40625 48.484375 
Q 26.265625 48.484375 22.1875 42.84375 
Q 18.109375 37.203125 18.109375 27.296875 
Q 18.109375 17.390625 22.1875 11.75 
Q 26.265625 6.109375 33.40625 6.109375 
Q 40.53125 6.109375 44.609375 11.75 
Q 48.6875 17.390625 48.6875 27.296875 
z
" id="DejaVuSans-112"/>
       <path d="M 30.609375 48.390625 
Q 23.390625 48.390625 19.1875 42.75 
Q 14.984375 37.109375 14.984375 27.296875 
Q 14.984375 17.484375 19.15625 11.84375 
Q 23.34375 6.203125 30.609375 6.203125 
Q 37.796875 6.203125 41.984375 11.859375 
Q 46.1875 17.53125 46.1875 27.296875 
Q 46.1875 37.015625 41.984375 42.703125 
Q 37.796875 48.390625 30.609375 48.390625 
z
M 30.609375 56 
Q 42.328125 56 49.015625 48.375 
Q 55.71875 40.765625 55.71875 27.296875 
Q 55.71875 13.875 49.015625 6.21875 
Q 42.328125 -1.421875 30.609375 -1.421875 
Q 18.84375 -1.421875 12.171875 6.21875 
Q 5.515625 13.875 5.515625 27.296875 
Q 5.515625 40.765625 12.171875 48.375 
Q 18.84375 56 30.609375 56 
z
" id="DejaVuSans-111"/>
       <path d="M 54.890625 54.6875 
L 35.109375 28.078125 
L 55.90625 0 
L 45.3125 0 
L 29.390625 21.484375 
L 13.484375 0 
L 2.875 0 
L 24.125 28.609375 
L 4.6875 54.6875 
L 15.28125 54.6875 
L 29.78125 35.203125 
L 44.28125 54.6875 
z
" id="DejaVuSans-120"/>
       <path d="M 52 44.1875 
Q 55.375 50.25 60.0625 53.125 
Q 64.75 56 71.09375 56 
Q 79.640625 56 84.28125 50.015625 
Q 88.921875 44.046875 88.921875 33.015625 
L 88.921875 0 
L 79.890625 0 
L 79.890625 32.71875 
Q 79.890625 40.578125 77.09375 44.375 
Q 74.3125 48.1875 68.609375 48.1875 
Q 61.625 48.1875 57.5625 43.546875 
Q 53.515625 38.921875 53.515625 30.90625 
L 53.515625 0 
L 44.484375 0 
L 44.484375 32.71875 
Q 44.484375 40.625 41.703125 44.40625 
Q 38.921875 48.1875 33.109375 48.1875 
Q 26.21875 48.1875 22.15625 43.53125 
Q 18.109375 38.875 18.109375 30.90625 
L 18.109375 0 
L 9.078125 0 
L 9.078125 54.6875 
L 18.109375 54.6875 
L 18.109375 46.1875 
Q 21.1875 51.21875 25.484375 53.609375 
Q 29.78125 56 35.6875 56 
Q 41.65625 56 45.828125 52.96875 
Q 50 49.953125 52 44.1875 
z
" id="DejaVuSans-109"/>
       <path d="M 18.3125 70.21875 
L 18.3125 54.6875 
L 36.8125 54.6875 
L 36.8125 47.703125 
L 18.3125 47.703125 
L 18.3125 18.015625 
Q 18.3125 11.328125 20.140625 9.421875 
Q 21.96875 7.515625 27.59375 7.515625 
L 36.8125 7.515625 
L 36.8125 0 
L 27.59375 0 
Q 17.1875 0 13.234375 3.875 
Q 9.28125 7.765625 9.28125 18.015625 
L 9.28125 47.703125 
L 2.6875 47.703125 
L 2.6875 54.6875 
L 9.28125 54.6875 
L 9.28125 70.21875 
z
" id="DejaVuSans-116"/>
       <path d="M -0.296875 72.90625 
L 61.375 72.90625 
L 61.375 64.59375 
L 35.5 64.59375 
L 35.5 0 
L 25.59375 0 
L 25.59375 64.59375 
L -0.296875 64.59375 
z
" id="DejaVuSans-84"/>
      </defs>
      <use xlink:href="#DejaVuSans-103"/>
      <use x="63.476562" xlink:href="#DejaVuSans-101"/>
      <use x="125" xlink:href="#DejaVuSans-108"/>
      <use x="152.783203" xlink:href="#DejaVuSans-117"/>
      <use x="216.162109" xlink:href="#DejaVuSans-32"/>
      <use x="247.949219" xlink:href="#DejaVuSans-115"/>
      <use x="300.048828" xlink:href="#DejaVuSans-101"/>
      <use x="361.572266" xlink:href="#DejaVuSans-108"/>
      <use x="389.355469" xlink:href="#DejaVuSans-102"/>
      <use x="424.560547" xlink:href="#DejaVuSans-32"/>
      <use x="456.347656" xlink:href="#DejaVuSans-100"/>
      <use x="519.824219" xlink:href="#DejaVuSans-101"/>
      <use x="581.347656" xlink:href="#DejaVuSans-102"/>
      <use x="616.552734" xlink:href="#DejaVuSans-105"/>
      <use x="644.335938" xlink:href="#DejaVuSans-110"/>
      <use x="707.714844" xlink:href="#DejaVuSans-101"/>
      <use x="769.238281" xlink:href="#DejaVuSans-100"/>
      <use x="832.714844" xlink:href="#DejaVuSans-32"/>
      <use x="864.501953" xlink:href="#DejaVuSans-97"/>
      <use x="925.78125" xlink:href="#DejaVuSans-112"/>
      <use x="989.257812" xlink:href="#DejaVuSans-112"/>
      <use x="1052.734375" xlink:href="#DejaVuSans-114"/>
      <use x="1091.597656" xlink:href="#DejaVuSans-111"/>
      <use x="1149.654297" xlink:href="#DejaVuSans-120"/>
      <use x="1208.833984" xlink:href="#DejaVuSans-105"/>
      <use x="1236.617188" xlink:href="#DejaVuSans-109"/>
      <use x="1334.029297" xlink:href="#DejaVuSans-97"/>
      <use x="1395.308594" xlink:href="#DejaVuSans-116"/>
      <use x="1434.517578" xlink:href="#DejaVuSans-101"/>
      <use x="1496.041016" xlink:href="#DejaVuSans-32"/>
      <use x="1527.828125" xlink:href="#DejaVuSans-84"/>
      <use x="1574.162109" xlink:href="#DejaVuSans-114"/>
      <use x="1615.275391" xlink:href="#DejaVuSans-117"/>
      <use x="1678.654297" xlink:href="#DejaVuSans-101"/>
     </g>
    </g>
    <g id="line2d_46">
     <path d="M 24.393174 86.477628 
L 35.393174 86.477628 
" style="fill:none;stroke:#da8bc3;stroke-linecap:round;stroke-width:0.75;"/>
    </g>
    <g id="line2d_47"/>
    <g id="text_23">
     <!-- gelu self defined approximate False -->
     <g style="fill:#262626;" transform="translate(39.793174 88.402628)scale(0.055 -0.055)">
      <defs>
       <path d="M 9.8125 72.90625 
L 51.703125 72.90625 
L 51.703125 64.59375 
L 19.671875 64.59375 
L 19.671875 43.109375 
L 48.578125 43.109375 
L 48.578125 34.8125 
L 19.671875 34.8125 
L 19.671875 0 
L 9.8125 0 
z
" id="DejaVuSans-70"/>
      </defs>
      <use xlink:href="#DejaVuSans-103"/>
      <use x="63.476562" xlink:href="#DejaVuSans-101"/>
      <use x="125" xlink:href="#DejaVuSans-108"/>
      <use x="152.783203" xlink:href="#DejaVuSans-117"/>
      <use x="216.162109" xlink:href="#DejaVuSans-32"/>
      <use x="247.949219" xlink:href="#DejaVuSans-115"/>
      <use x="300.048828" xlink:href="#DejaVuSans-101"/>
      <use x="361.572266" xlink:href="#DejaVuSans-108"/>
      <use x="389.355469" xlink:href="#DejaVuSans-102"/>
      <use x="424.560547" xlink:href="#DejaVuSans-32"/>
      <use x="456.347656" xlink:href="#DejaVuSans-100"/>
      <use x="519.824219" xlink:href="#DejaVuSans-101"/>
      <use x="581.347656" xlink:href="#DejaVuSans-102"/>
      <use x="616.552734" xlink:href="#DejaVuSans-105"/>
      <use x="644.335938" xlink:href="#DejaVuSans-110"/>
      <use x="707.714844" xlink:href="#DejaVuSans-101"/>
      <use x="769.238281" xlink:href="#DejaVuSans-100"/>
      <use x="832.714844" xlink:href="#DejaVuSans-32"/>
      <use x="864.501953" xlink:href="#DejaVuSans-97"/>
      <use x="925.78125" xlink:href="#DejaVuSans-112"/>
      <use x="989.257812" xlink:href="#DejaVuSans-112"/>
      <use x="1052.734375" xlink:href="#DejaVuSans-114"/>
      <use x="1091.597656" xlink:href="#DejaVuSans-111"/>
      <use x="1149.654297" xlink:href="#DejaVuSans-120"/>
      <use x="1208.833984" xlink:href="#DejaVuSans-105"/>
      <use x="1236.617188" xlink:href="#DejaVuSans-109"/>
      <use x="1334.029297" xlink:href="#DejaVuSans-97"/>
      <use x="1395.308594" xlink:href="#DejaVuSans-116"/>
      <use x="1434.517578" xlink:href="#DejaVuSans-101"/>
      <use x="1496.041016" xlink:href="#DejaVuSans-32"/>
      <use x="1527.828125" xlink:href="#DejaVuSans-70"/>
      <use x="1576.222656" xlink:href="#DejaVuSans-97"/>
      <use x="1637.501953" xlink:href="#DejaVuSans-108"/>
      <use x="1665.285156" xlink:href="#DejaVuSans-115"/>
      <use x="1717.384766" xlink:href="#DejaVuSans-101"/>
     </g>
    </g>
    <g id="line2d_48">
     <path d="M 24.393174 94.550597 
L 35.393174 94.550597 
" style="fill:none;stroke:#8c8c8c;stroke-linecap:round;stroke-width:0.75;"/>
    </g>
    <g id="line2d_49"/>
    <g id="text_24">
     <!-- relu6 -->
     <g style="fill:#262626;" transform="translate(39.793174 96.475597)scale(0.055 -0.055)">
      <use xlink:href="#DejaVuSans-114"/>
      <use x="38.863281" xlink:href="#DejaVuSans-101"/>
      <use x="100.386719" xlink:href="#DejaVuSans-108"/>
      <use x="128.169922" xlink:href="#DejaVuSans-117"/>
      <use x="191.548828" xlink:href="#DejaVuSans-54"/>
     </g>
    </g>
    <g id="line2d_50">
     <path d="M 24.393174 102.623566 
L 35.393174 102.623566 
" style="fill:none;stroke:#ccb974;stroke-linecap:round;stroke-width:0.75;"/>
    </g>
    <g id="line2d_51"/>
    <g id="text_25">
     <!-- hard_swish, relu6 -->
     <g style="fill:#262626;" transform="translate(39.793174 104.548566)scale(0.055 -0.055)">
      <defs>
       <path d="M 11.71875 12.40625 
L 22.015625 12.40625 
L 22.015625 4 
L 14.015625 -11.625 
L 7.71875 -11.625 
L 11.71875 4 
z
" id="DejaVuSans-44"/>
      </defs>
      <use xlink:href="#DejaVuSans-104"/>
      <use x="63.378906" xlink:href="#DejaVuSans-97"/>
      <use x="124.658203" xlink:href="#DejaVuSans-114"/>
      <use x="164.021484" xlink:href="#DejaVuSans-100"/>
      <use x="227.498047" xlink:href="#DejaVuSans-95"/>
      <use x="277.498047" xlink:href="#DejaVuSans-115"/>
      <use x="329.597656" xlink:href="#DejaVuSans-119"/>
      <use x="411.384766" xlink:href="#DejaVuSans-105"/>
      <use x="439.167969" xlink:href="#DejaVuSans-115"/>
      <use x="491.267578" xlink:href="#DejaVuSans-104"/>
      <use x="554.646484" xlink:href="#DejaVuSans-44"/>
      <use x="586.433594" xlink:href="#DejaVuSans-32"/>
      <use x="618.220703" xlink:href="#DejaVuSans-114"/>
      <use x="657.083984" xlink:href="#DejaVuSans-101"/>
      <use x="718.607422" xlink:href="#DejaVuSans-108"/>
      <use x="746.390625" xlink:href="#DejaVuSans-117"/>
      <use x="809.769531" xlink:href="#DejaVuSans-54"/>
     </g>
    </g>
    <g id="line2d_52">
     <path d="M 24.393174 110.849503 
L 35.393174 110.849503 
" style="fill:none;stroke:#ccb974;stroke-linecap:round;stroke-width:0.75;"/>
    </g>
    <g id="line2d_53"/>
    <g id="text_26">
     <!-- hard_swish, numpy -->
     <g style="fill:#262626;" transform="translate(39.793174 112.774503)scale(0.055 -0.055)">
      <use xlink:href="#DejaVuSans-104"/>
      <use x="63.378906" xlink:href="#DejaVuSans-97"/>
      <use x="124.658203" xlink:href="#DejaVuSans-114"/>
      <use x="164.021484" xlink:href="#DejaVuSans-100"/>
      <use x="227.498047" xlink:href="#DejaVuSans-95"/>
      <use x="277.498047" xlink:href="#DejaVuSans-115"/>
      <use x="329.597656" xlink:href="#DejaVuSans-119"/>
      <use x="411.384766" xlink:href="#DejaVuSans-105"/>
      <use x="439.167969" xlink:href="#DejaVuSans-115"/>
      <use x="491.267578" xlink:href="#DejaVuSans-104"/>
      <use x="554.646484" xlink:href="#DejaVuSans-44"/>
      <use x="586.433594" xlink:href="#DejaVuSans-32"/>
      <use x="618.220703" xlink:href="#DejaVuSans-110"/>
      <use x="681.599609" xlink:href="#DejaVuSans-117"/>
      <use x="744.978516" xlink:href="#DejaVuSans-109"/>
      <use x="842.390625" xlink:href="#DejaVuSans-112"/>
      <use x="905.867188" xlink:href="#DejaVuSans-121"/>
     </g>
    </g>
    <g id="line2d_54">
     <path d="M 24.393174 119.075441 
L 35.393174 119.075441 
" style="fill:none;stroke:#64b5cd;stroke-linecap:round;stroke-width:0.75;"/>
    </g>
    <g id="line2d_55"/>
    <g id="text_27">
     <!-- hard_swish hard_sigmoid, numpy -->
     <g style="fill:#262626;" transform="translate(39.793174 121.000441)scale(0.055 -0.055)">
      <use xlink:href="#DejaVuSans-104"/>
      <use x="63.378906" xlink:href="#DejaVuSans-97"/>
      <use x="124.658203" xlink:href="#DejaVuSans-114"/>
      <use x="164.021484" xlink:href="#DejaVuSans-100"/>
      <use x="227.498047" xlink:href="#DejaVuSans-95"/>
      <use x="277.498047" xlink:href="#DejaVuSans-115"/>
      <use x="329.597656" xlink:href="#DejaVuSans-119"/>
      <use x="411.384766" xlink:href="#DejaVuSans-105"/>
      <use x="439.167969" xlink:href="#DejaVuSans-115"/>
      <use x="491.267578" xlink:href="#DejaVuSans-104"/>
      <use x="554.646484" xlink:href="#DejaVuSans-32"/>
      <use x="586.433594" xlink:href="#DejaVuSans-104"/>
      <use x="649.8125" xlink:href="#DejaVuSans-97"/>
      <use x="711.091797" xlink:href="#DejaVuSans-114"/>
      <use x="750.455078" xlink:href="#DejaVuSans-100"/>
      <use x="813.931641" xlink:href="#DejaVuSans-95"/>
      <use x="863.931641" xlink:href="#DejaVuSans-115"/>
      <use x="916.03125" xlink:href="#DejaVuSans-105"/>
      <use x="943.814453" xlink:href="#DejaVuSans-103"/>
      <use x="1007.291016" xlink:href="#DejaVuSans-109"/>
      <use x="1104.703125" xlink:href="#DejaVuSans-111"/>
      <use x="1165.884766" xlink:href="#DejaVuSans-105"/>
      <use x="1193.667969" xlink:href="#DejaVuSans-100"/>
      <use x="1257.144531" xlink:href="#DejaVuSans-44"/>
      <use x="1288.931641" xlink:href="#DejaVuSans-32"/>
      <use x="1320.71875" xlink:href="#DejaVuSans-110"/>
      <use x="1384.097656" xlink:href="#DejaVuSans-117"/>
      <use x="1447.476562" xlink:href="#DejaVuSans-109"/>
      <use x="1544.888672" xlink:href="#DejaVuSans-112"/>
      <use x="1608.365234" xlink:href="#DejaVuSans-121"/>
     </g>
    </g>
   </g>
  </g>
  <g id="axes_2">
   <g id="patch_7">
    <path d="M 306.46895 265.953436 
L 568.8081 265.953436 
L 568.8081 6.4638 
L 306.46895 6.4638 
z
" style="fill:#eaeaf2;"/>
   </g>
   <g id="matplotlib.axis_3">
    <g id="xtick_9">
     <g id="line2d_56">
      <path clip-path="url(#pa40ce8fd8a)" d="M 318.393457 265.953436 
L 318.393457 6.4638 
" style="fill:none;stroke:#ffffff;stroke-linecap:round;stroke-width:0.5;"/>
     </g>
     <g id="text_28">
      <!-- −6 -->
      <g style="fill:#262626;" transform="translate(314.339355 279.632577)scale(0.055 -0.055)">
       <use xlink:href="#DejaVuSans-8722"/>
       <use x="83.789062" xlink:href="#DejaVuSans-54"/>
      </g>
     </g>
    </g>
    <g id="xtick_10">
     <g id="line2d_57">
      <path clip-path="url(#pa40ce8fd8a)" d="M 358.308124 265.953436 
L 358.308124 6.4638 
" style="fill:none;stroke:#ffffff;stroke-linecap:round;stroke-width:0.5;"/>
     </g>
     <g id="text_29">
      <!-- −4 -->
      <g style="fill:#262626;" transform="translate(354.254022 279.632577)scale(0.055 -0.055)">
       <use xlink:href="#DejaVuSans-8722"/>
       <use x="83.789062" xlink:href="#DejaVuSans-52"/>
      </g>
     </g>
    </g>
    <g id="xtick_11">
     <g id="line2d_58">
      <path clip-path="url(#pa40ce8fd8a)" d="M 398.222791 265.953436 
L 398.222791 6.4638 
" style="fill:none;stroke:#ffffff;stroke-linecap:round;stroke-width:0.5;"/>
     </g>
     <g id="text_30">
      <!-- −2 -->
      <g style="fill:#262626;" transform="translate(394.16869 279.632577)scale(0.055 -0.055)">
       <use xlink:href="#DejaVuSans-8722"/>
       <use x="83.789062" xlink:href="#DejaVuSans-50"/>
      </g>
     </g>
    </g>
    <g id="xtick_12">
     <g id="line2d_59">
      <path clip-path="url(#pa40ce8fd8a)" d="M 438.137458 265.953436 
L 438.137458 6.4638 
" style="fill:none;stroke:#ffffff;stroke-linecap:round;stroke-width:0.5;"/>
     </g>
     <g id="text_31">
      <!-- 0 -->
      <g style="fill:#262626;" transform="translate(436.387771 279.632577)scale(0.055 -0.055)">
       <use xlink:href="#DejaVuSans-48"/>
      </g>
     </g>
    </g>
    <g id="xtick_13">
     <g id="line2d_60">
      <path clip-path="url(#pa40ce8fd8a)" d="M 478.052125 265.953436 
L 478.052125 6.4638 
" style="fill:none;stroke:#ffffff;stroke-linecap:round;stroke-width:0.5;"/>
     </g>
     <g id="text_32">
      <!-- 2 -->
      <g style="fill:#262626;" transform="translate(476.302438 279.632577)scale(0.055 -0.055)">
       <use xlink:href="#DejaVuSans-50"/>
      </g>
     </g>
    </g>
    <g id="xtick_14">
     <g id="line2d_61">
      <path clip-path="url(#pa40ce8fd8a)" d="M 517.966793 265.953436 
L 517.966793 6.4638 
" style="fill:none;stroke:#ffffff;stroke-linecap:round;stroke-width:0.5;"/>
     </g>
     <g id="text_33">
      <!-- 4 -->
      <g style="fill:#262626;" transform="translate(516.217105 279.632577)scale(0.055 -0.055)">
       <use xlink:href="#DejaVuSans-52"/>
      </g>
     </g>
    </g>
    <g id="xtick_15">
     <g id="line2d_62">
      <path clip-path="url(#pa40ce8fd8a)" d="M 557.88146 265.953436 
L 557.88146 6.4638 
" style="fill:none;stroke:#ffffff;stroke-linecap:round;stroke-width:0.5;"/>
     </g>
     <g id="text_34">
      <!-- 6 -->
      <g style="fill:#262626;" transform="translate(556.131772 279.632577)scale(0.055 -0.055)">
       <use xlink:href="#DejaVuSans-54"/>
      </g>
     </g>
    </g>
   </g>
   <g id="matplotlib.axis_4">
    <g id="ytick_6">
     <g id="line2d_63">
      <path clip-path="url(#pa40ce8fd8a)" d="M 306.46895 254.158453 
L 568.8081 254.158453 
" style="fill:none;stroke:#ffffff;stroke-linecap:round;stroke-width:0.5;"/>
     </g>
     <g id="text_35">
      <!-- 0.0 -->
      <g style="fill:#262626;" transform="translate(288.222231 256.248023)scale(0.055 -0.055)">
       <use xlink:href="#DejaVuSans-48"/>
       <use x="63.623047" xlink:href="#DejaVuSans-46"/>
       <use x="95.410156" xlink:href="#DejaVuSans-48"/>
      </g>
     </g>
    </g>
    <g id="ytick_7">
     <g id="line2d_64">
      <path clip-path="url(#pa40ce8fd8a)" d="M 306.46895 206.978519 
L 568.8081 206.978519 
" style="fill:none;stroke:#ffffff;stroke-linecap:round;stroke-width:0.5;"/>
     </g>
     <g id="text_36">
      <!-- 0.2 -->
      <g style="fill:#262626;" transform="translate(288.222231 209.068089)scale(0.055 -0.055)">
       <use xlink:href="#DejaVuSans-48"/>
       <use x="63.623047" xlink:href="#DejaVuSans-46"/>
       <use x="95.410156" xlink:href="#DejaVuSans-50"/>
      </g>
     </g>
    </g>
    <g id="ytick_8">
     <g id="line2d_65">
      <path clip-path="url(#pa40ce8fd8a)" d="M 306.46895 159.798585 
L 568.8081 159.798585 
" style="fill:none;stroke:#ffffff;stroke-linecap:round;stroke-width:0.5;"/>
     </g>
     <g id="text_37">
      <!-- 0.4 -->
      <g style="fill:#262626;" transform="translate(288.222231 161.888155)scale(0.055 -0.055)">
       <use xlink:href="#DejaVuSans-48"/>
       <use x="63.623047" xlink:href="#DejaVuSans-46"/>
       <use x="95.410156" xlink:href="#DejaVuSans-52"/>
      </g>
     </g>
    </g>
    <g id="ytick_9">
     <g id="line2d_66">
      <path clip-path="url(#pa40ce8fd8a)" d="M 306.46895 112.618651 
L 568.8081 112.618651 
" style="fill:none;stroke:#ffffff;stroke-linecap:round;stroke-width:0.5;"/>
     </g>
     <g id="text_38">
      <!-- 0.6 -->
      <g style="fill:#262626;" transform="translate(288.222231 114.708222)scale(0.055 -0.055)">
       <use xlink:href="#DejaVuSans-48"/>
       <use x="63.623047" xlink:href="#DejaVuSans-46"/>
       <use x="95.410156" xlink:href="#DejaVuSans-54"/>
      </g>
     </g>
    </g>
    <g id="ytick_10">
     <g id="line2d_67">
      <path clip-path="url(#pa40ce8fd8a)" d="M 306.46895 65.438717 
L 568.8081 65.438717 
" style="fill:none;stroke:#ffffff;stroke-linecap:round;stroke-width:0.5;"/>
     </g>
     <g id="text_39">
      <!-- 0.8 -->
      <g style="fill:#262626;" transform="translate(288.222231 67.528288)scale(0.055 -0.055)">
       <use xlink:href="#DejaVuSans-48"/>
       <use x="63.623047" xlink:href="#DejaVuSans-46"/>
       <use x="95.410156" xlink:href="#DejaVuSans-56"/>
      </g>
     </g>
    </g>
    <g id="ytick_11">
     <g id="line2d_68">
      <path clip-path="url(#pa40ce8fd8a)" d="M 306.46895 18.258783 
L 568.8081 18.258783 
" style="fill:none;stroke:#ffffff;stroke-linecap:round;stroke-width:0.5;"/>
     </g>
     <g id="text_40">
      <!-- 1.0 -->
      <g style="fill:#262626;" transform="translate(288.222231 20.348354)scale(0.055 -0.055)">
       <defs>
        <path d="M 12.40625 8.296875 
L 28.515625 8.296875 
L 28.515625 63.921875 
L 10.984375 60.40625 
L 10.984375 69.390625 
L 28.421875 72.90625 
L 38.28125 72.90625 
L 38.28125 8.296875 
L 54.390625 8.296875 
L 54.390625 0 
L 12.40625 0 
z
" id="DejaVuSans-49"/>
       </defs>
       <use xlink:href="#DejaVuSans-49"/>
       <use x="63.623047" xlink:href="#DejaVuSans-46"/>
       <use x="95.410156" xlink:href="#DejaVuSans-48"/>
      </g>
     </g>
    </g>
   </g>
   <g id="line2d_69">
    <path clip-path="url(#pa40ce8fd8a)" d="M 318.393457 253.575162 
L 329.36999 253.149292 
L 338.35079 252.579612 
L 345.335857 251.924237 
L 351.323057 251.152537 
L 356.312391 250.312699 
L 361.301724 249.243166 
L 365.293191 248.182477 
L 369.284657 246.900089 
L 373.276124 245.353052 
L 376.269724 243.989466 
L 379.263324 242.425626 
L 382.256924 240.635699 
L 385.250524 238.591667 
L 388.244124 236.263533 
L 391.237724 233.619666 
L 394.231324 230.627345 
L 397.224924 227.253534 
L 400.218524 223.465907 
L 403.212124 219.234168 
L 406.205725 214.531645 
L 409.199325 209.337146 
L 412.192925 203.636996 
L 415.186525 197.427158 
L 418.180125 190.71526 
L 421.173725 183.522341 
L 425.165191 173.247334 
L 429.156658 162.308377 
L 434.145992 147.964442 
L 448.116125 107.320502 
L 452.107592 96.533178 
L 456.099059 86.4457 
L 459.092659 79.409899 
L 462.086259 72.863711 
L 465.079859 66.823536 
L 468.073459 61.292904 
L 471.067059 56.264331 
L 474.060659 51.721403 
L 477.054259 47.640879 
L 480.047859 43.994688 
L 483.041459 40.751691 
L 486.035059 37.879195 
L 489.028659 35.344167 
L 492.022259 33.114177 
L 495.015859 31.158088 
L 498.009459 29.446531 
L 501.003059 27.952202 
L 504.994526 26.254641 
L 508.985993 24.845709 
L 512.977459 23.679137 
L 516.968926 22.715155 
L 521.958259 21.743973 
L 527.945459 20.8506 
L 533.93266 20.184331 
L 540.917726 19.618973 
L 549.898526 19.127894 
L 556.883593 18.871903 
L 556.883593 18.871903 
" style="fill:none;stroke:#4c72b0;stroke-linecap:round;stroke-width:0.75;"/>
   </g>
   <g id="line2d_70">
    <path clip-path="url(#pa40ce8fd8a)" d="M 318.393457 254.158453 
L 388.244124 254.158453 
L 488.030792 18.258783 
L 556.883593 18.258783 
L 556.883593 18.258783 
" style="fill:none;stroke:#dd8452;stroke-linecap:round;stroke-width:0.75;"/>
   </g>
   <g id="line2d_71">
    <path clip-path="url(#pa40ce8fd8a)" d="M 318.393457 254.158453 
L 388.244124 254.158453 
L 488.030792 18.258783 
L 556.883593 18.258783 
L 556.883593 18.258783 
" style="fill:none;stroke:#55a868;stroke-linecap:round;stroke-width:0.75;"/>
   </g>
   <g id="patch_8">
    <path d="M 306.46895 265.953436 
L 306.46895 6.4638 
" style="fill:none;stroke:#ffffff;stroke-linecap:square;stroke-linejoin:miter;stroke-width:0.625;"/>
   </g>
   <g id="patch_9">
    <path d="M 568.8081 265.953436 
L 568.8081 6.4638 
" style="fill:none;stroke:#ffffff;stroke-linecap:square;stroke-linejoin:miter;stroke-width:0.625;"/>
   </g>
   <g id="patch_10">
    <path d="M 306.46895 265.953436 
L 568.8081 265.953436 
" style="fill:none;stroke:#ffffff;stroke-linecap:square;stroke-linejoin:miter;stroke-width:0.625;"/>
   </g>
   <g id="patch_11">
    <path d="M 306.46895 6.4638 
L 568.8081 6.4638 
" style="fill:none;stroke:#ffffff;stroke-linecap:square;stroke-linejoin:miter;stroke-width:0.625;"/>
   </g>
   <g id="legend_2">
    <g id="line2d_72">
     <path d="M 311.41895 13.667941 
L 322.41895 13.667941 
" style="fill:none;stroke:#4c72b0;stroke-linecap:round;stroke-width:0.75;"/>
    </g>
    <g id="line2d_73"/>
    <g id="text_41">
     <!-- sigmoid -->
     <g style="fill:#262626;" transform="translate(326.81895 15.592941)scale(0.055 -0.055)">
      <use xlink:href="#DejaVuSans-115"/>
      <use x="52.099609" xlink:href="#DejaVuSans-105"/>
      <use x="79.882812" xlink:href="#DejaVuSans-103"/>
      <use x="143.359375" xlink:href="#DejaVuSans-109"/>
      <use x="240.771484" xlink:href="#DejaVuSans-111"/>
      <use x="301.953125" xlink:href="#DejaVuSans-105"/>
      <use x="329.736328" xlink:href="#DejaVuSans-100"/>
     </g>
    </g>
    <g id="line2d_74">
     <path d="M 311.41895 21.740909 
L 322.41895 21.740909 
" style="fill:none;stroke:#dd8452;stroke-linecap:round;stroke-width:0.75;"/>
    </g>
    <g id="line2d_75"/>
    <g id="text_42">
     <!-- hard_sigmoid -->
     <g style="fill:#262626;" transform="translate(326.81895 23.665909)scale(0.055 -0.055)">
      <use xlink:href="#DejaVuSans-104"/>
      <use x="63.378906" xlink:href="#DejaVuSans-97"/>
      <use x="124.658203" xlink:href="#DejaVuSans-114"/>
      <use x="164.021484" xlink:href="#DejaVuSans-100"/>
      <use x="227.498047" xlink:href="#DejaVuSans-95"/>
      <use x="277.498047" xlink:href="#DejaVuSans-115"/>
      <use x="329.597656" xlink:href="#DejaVuSans-105"/>
      <use x="357.380859" xlink:href="#DejaVuSans-103"/>
      <use x="420.857422" xlink:href="#DejaVuSans-109"/>
      <use x="518.269531" xlink:href="#DejaVuSans-111"/>
      <use x="579.451172" xlink:href="#DejaVuSans-105"/>
      <use x="607.234375" xlink:href="#DejaVuSans-100"/>
     </g>
    </g>
    <g id="line2d_76">
     <path d="M 311.41895 29.966847 
L 322.41895 29.966847 
" style="fill:none;stroke:#55a868;stroke-linecap:round;stroke-width:0.75;"/>
    </g>
    <g id="line2d_77"/>
    <g id="text_43">
     <!-- hard_sigmoid self defined -->
     <g style="fill:#262626;" transform="translate(326.81895 31.891847)scale(0.055 -0.055)">
      <use xlink:href="#DejaVuSans-104"/>
      <use x="63.378906" xlink:href="#DejaVuSans-97"/>
      <use x="124.658203" xlink:href="#DejaVuSans-114"/>
      <use x="164.021484" xlink:href="#DejaVuSans-100"/>
      <use x="227.498047" xlink:href="#DejaVuSans-95"/>
      <use x="277.498047" xlink:href="#DejaVuSans-115"/>
      <use x="329.597656" xlink:href="#DejaVuSans-105"/>
      <use x="357.380859" xlink:href="#DejaVuSans-103"/>
      <use x="420.857422" xlink:href="#DejaVuSans-109"/>
      <use x="518.269531" xlink:href="#DejaVuSans-111"/>
      <use x="579.451172" xlink:href="#DejaVuSans-105"/>
      <use x="607.234375" xlink:href="#DejaVuSans-100"/>
      <use x="670.710938" xlink:href="#DejaVuSans-32"/>
      <use x="702.498047" xlink:href="#DejaVuSans-115"/>
      <use x="754.597656" xlink:href="#DejaVuSans-101"/>
      <use x="816.121094" xlink:href="#DejaVuSans-108"/>
      <use x="843.904297" xlink:href="#DejaVuSans-102"/>
      <use x="879.109375" xlink:href="#DejaVuSans-32"/>
      <use x="910.896484" xlink:href="#DejaVuSans-100"/>
      <use x="974.373047" xlink:href="#DejaVuSans-101"/>
      <use x="1035.896484" xlink:href="#DejaVuSans-102"/>
      <use x="1071.101562" xlink:href="#DejaVuSans-105"/>
      <use x="1098.884766" xlink:href="#DejaVuSans-110"/>
      <use x="1162.263672" xlink:href="#DejaVuSans-101"/>
      <use x="1223.787109" xlink:href="#DejaVuSans-100"/>
     </g>
    </g>
   </g>
  </g>
 </g>
 <defs>
  <clipPath id="pe93aeef3b1">
   <rect height="259.489636" width="262.33915" x="19.443174" y="6.4638"/>
  </clipPath>
  <clipPath id="pa40ce8fd8a">
   <rect height="259.489636" width="262.33915" x="306.46895" y="6.4638"/>
  </clipPath>
 </defs>
</svg>
