<?xml version="1.0" encoding="utf-8" standalone="no"?>
<!DOCTYPE svg PUBLIC "-//W3C//DTD SVG 1.1//EN"
  "http://www.w3.org/Graphics/SVG/1.1/DTD/svg11.dtd">
<!-- Created with matplotlib (https://matplotlib.org/) -->
<svg height="395.28pt" version="1.1" viewBox="0 0 575.28 395.28" width="575.28pt" xmlns="http://www.w3.org/2000/svg" xmlns:xlink="http://www.w3.org/1999/xlink">
 <metadata>
  <rdf:RDF xmlns:cc="http://creativecommons.org/ns#" xmlns:dc="http://purl.org/dc/elements/1.1/" xmlns:rdf="http://www.w3.org/1999/02/22-rdf-syntax-ns#">
   <cc:Work>
    <dc:type rdf:resource="http://purl.org/dc/dcmitype/StillImage"/>
    <dc:date>2021-06-24T14:37:22.674549</dc:date>
    <dc:format>image/svg+xml</dc:format>
    <dc:creator>
     <cc:Agent>
      <dc:title>Matplotlib v3.3.2, https://matplotlib.org/</dc:title>
     </cc:Agent>
    </dc:creator>
   </cc:Work>
  </rdf:RDF>
 </metadata>
 <defs>
  <style type="text/css">*{stroke-linecap:butt;stroke-linejoin:round;}</style>
 </defs>
 <g id="figure_1">
  <g id="patch_1">
   <path d="M 0 395.28 
L 575.28 395.28 
L 575.28 0 
L 0 0 
z
" style="fill:#ffffff;"/>
  </g>
  <g id="axes_1">
   <g id="patch_2">
    <path d="M 32.817543 373.899986 
L 568.8 373.899986 
L 568.8 16.980011 
L 32.817543 16.980011 
z
" style="fill:#eaeaf2;"/>
   </g>
   <g id="matplotlib.axis_1">
    <g id="xtick_1">
     <g id="line2d_1">
      <path clip-path="url(#pa3c9d5ca1a)" d="M 57.180382 373.899986 
L 57.180382 16.980011 
" style="fill:none;stroke:#ffffff;stroke-linecap:round;stroke-width:0.5;"/>
     </g>
     <g id="text_1">
      <!-- 0 -->
      <g style="fill:#262626;" transform="translate(55.430694 387.579127)scale(0.055 -0.055)">
       <defs>
        <path d="M 31.78125 66.40625 
Q 24.171875 66.40625 20.328125 58.90625 
Q 16.5 51.421875 16.5 36.375 
Q 16.5 21.390625 20.328125 13.890625 
Q 24.171875 6.390625 31.78125 6.390625 
Q 39.453125 6.390625 43.28125 13.890625 
Q 47.125 21.390625 47.125 36.375 
Q 47.125 51.421875 43.28125 58.90625 
Q 39.453125 66.40625 31.78125 66.40625 
z
M 31.78125 74.21875 
Q 44.046875 74.21875 50.515625 64.515625 
Q 56.984375 54.828125 56.984375 36.375 
Q 56.984375 17.96875 50.515625 8.265625 
Q 44.046875 -1.421875 31.78125 -1.421875 
Q 19.53125 -1.421875 13.0625 8.265625 
Q 6.59375 17.96875 6.59375 36.375 
Q 6.59375 54.828125 13.0625 64.515625 
Q 19.53125 74.21875 31.78125 74.21875 
z
" id="DejaVuSans-48"/>
       </defs>
       <use xlink:href="#DejaVuSans-48"/>
      </g>
     </g>
    </g>
    <g id="xtick_2">
     <g id="line2d_2">
      <path clip-path="url(#pa3c9d5ca1a)" d="M 152.720927 373.899986 
L 152.720927 16.980011 
" style="fill:none;stroke:#ffffff;stroke-linecap:round;stroke-width:0.5;"/>
     </g>
     <g id="text_2">
      <!-- 50 -->
      <g style="fill:#262626;" transform="translate(149.221552 387.579127)scale(0.055 -0.055)">
       <defs>
        <path d="M 10.796875 72.90625 
L 49.515625 72.90625 
L 49.515625 64.59375 
L 19.828125 64.59375 
L 19.828125 46.734375 
Q 21.96875 47.46875 24.109375 47.828125 
Q 26.265625 48.1875 28.421875 48.1875 
Q 40.625 48.1875 47.75 41.5 
Q 54.890625 34.8125 54.890625 23.390625 
Q 54.890625 11.625 47.5625 5.09375 
Q 40.234375 -1.421875 26.90625 -1.421875 
Q 22.3125 -1.421875 17.546875 -0.640625 
Q 12.796875 0.140625 7.71875 1.703125 
L 7.71875 11.625 
Q 12.109375 9.234375 16.796875 8.0625 
Q 21.484375 6.890625 26.703125 6.890625 
Q 35.15625 6.890625 40.078125 11.328125 
Q 45.015625 15.765625 45.015625 23.390625 
Q 45.015625 31 40.078125 35.4375 
Q 35.15625 39.890625 26.703125 39.890625 
Q 22.75 39.890625 18.8125 39.015625 
Q 14.890625 38.140625 10.796875 36.28125 
z
" id="DejaVuSans-53"/>
       </defs>
       <use xlink:href="#DejaVuSans-53"/>
       <use x="63.623047" xlink:href="#DejaVuSans-48"/>
      </g>
     </g>
    </g>
    <g id="xtick_3">
     <g id="line2d_3">
      <path clip-path="url(#pa3c9d5ca1a)" d="M 248.261472 373.899986 
L 248.261472 16.980011 
" style="fill:none;stroke:#ffffff;stroke-linecap:round;stroke-width:0.5;"/>
     </g>
     <g id="text_3">
      <!-- 100 -->
      <g style="fill:#262626;" transform="translate(243.012409 387.579127)scale(0.055 -0.055)">
       <defs>
        <path d="M 12.40625 8.296875 
L 28.515625 8.296875 
L 28.515625 63.921875 
L 10.984375 60.40625 
L 10.984375 69.390625 
L 28.421875 72.90625 
L 38.28125 72.90625 
L 38.28125 8.296875 
L 54.390625 8.296875 
L 54.390625 0 
L 12.40625 0 
z
" id="DejaVuSans-49"/>
       </defs>
       <use xlink:href="#DejaVuSans-49"/>
       <use x="63.623047" xlink:href="#DejaVuSans-48"/>
       <use x="127.246094" xlink:href="#DejaVuSans-48"/>
      </g>
     </g>
    </g>
    <g id="xtick_4">
     <g id="line2d_4">
      <path clip-path="url(#pa3c9d5ca1a)" d="M 343.802017 373.899986 
L 343.802017 16.980011 
" style="fill:none;stroke:#ffffff;stroke-linecap:round;stroke-width:0.5;"/>
     </g>
     <g id="text_4">
      <!-- 150 -->
      <g style="fill:#262626;" transform="translate(338.552954 387.579127)scale(0.055 -0.055)">
       <use xlink:href="#DejaVuSans-49"/>
       <use x="63.623047" xlink:href="#DejaVuSans-53"/>
       <use x="127.246094" xlink:href="#DejaVuSans-48"/>
      </g>
     </g>
    </g>
    <g id="xtick_5">
     <g id="line2d_5">
      <path clip-path="url(#pa3c9d5ca1a)" d="M 439.342562 373.899986 
L 439.342562 16.980011 
" style="fill:none;stroke:#ffffff;stroke-linecap:round;stroke-width:0.5;"/>
     </g>
     <g id="text_5">
      <!-- 200 -->
      <g style="fill:#262626;" transform="translate(434.093499 387.579127)scale(0.055 -0.055)">
       <defs>
        <path d="M 19.1875 8.296875 
L 53.609375 8.296875 
L 53.609375 0 
L 7.328125 0 
L 7.328125 8.296875 
Q 12.9375 14.109375 22.625 23.890625 
Q 32.328125 33.6875 34.8125 36.53125 
Q 39.546875 41.84375 41.421875 45.53125 
Q 43.3125 49.21875 43.3125 52.78125 
Q 43.3125 58.59375 39.234375 62.25 
Q 35.15625 65.921875 28.609375 65.921875 
Q 23.96875 65.921875 18.8125 64.3125 
Q 13.671875 62.703125 7.8125 59.421875 
L 7.8125 69.390625 
Q 13.765625 71.78125 18.9375 73 
Q 24.125 74.21875 28.421875 74.21875 
Q 39.75 74.21875 46.484375 68.546875 
Q 53.21875 62.890625 53.21875 53.421875 
Q 53.21875 48.921875 51.53125 44.890625 
Q 49.859375 40.875 45.40625 35.40625 
Q 44.1875 33.984375 37.640625 27.21875 
Q 31.109375 20.453125 19.1875 8.296875 
z
" id="DejaVuSans-50"/>
       </defs>
       <use xlink:href="#DejaVuSans-50"/>
       <use x="63.623047" xlink:href="#DejaVuSans-48"/>
       <use x="127.246094" xlink:href="#DejaVuSans-48"/>
      </g>
     </g>
    </g>
    <g id="xtick_6">
     <g id="line2d_6">
      <path clip-path="url(#pa3c9d5ca1a)" d="M 534.883107 373.899986 
L 534.883107 16.980011 
" style="fill:none;stroke:#ffffff;stroke-linecap:round;stroke-width:0.5;"/>
     </g>
     <g id="text_6">
      <!-- 250 -->
      <g style="fill:#262626;" transform="translate(529.634044 387.579127)scale(0.055 -0.055)">
       <use xlink:href="#DejaVuSans-50"/>
       <use x="63.623047" xlink:href="#DejaVuSans-53"/>
       <use x="127.246094" xlink:href="#DejaVuSans-48"/>
      </g>
     </g>
    </g>
   </g>
   <g id="matplotlib.axis_2">
    <g id="ytick_1">
     <g id="line2d_7">
      <path clip-path="url(#pa3c9d5ca1a)" d="M 32.817543 357.682907 
L 568.8 357.682907 
" style="fill:none;stroke:#ffffff;stroke-linecap:round;stroke-width:0.5;"/>
     </g>
     <g id="text_7">
      <!-- −1.00 -->
      <g style="fill:#262626;" transform="translate(6.462621 359.772478)scale(0.055 -0.055)">
       <defs>
        <path d="M 10.59375 35.5 
L 73.1875 35.5 
L 73.1875 27.203125 
L 10.59375 27.203125 
z
" id="DejaVuSans-8722"/>
        <path d="M 10.6875 12.40625 
L 21 12.40625 
L 21 0 
L 10.6875 0 
z
" id="DejaVuSans-46"/>
       </defs>
       <use xlink:href="#DejaVuSans-8722"/>
       <use x="83.789062" xlink:href="#DejaVuSans-49"/>
       <use x="147.412109" xlink:href="#DejaVuSans-46"/>
       <use x="179.199219" xlink:href="#DejaVuSans-48"/>
       <use x="242.822266" xlink:href="#DejaVuSans-48"/>
      </g>
     </g>
    </g>
    <g id="ytick_2">
     <g id="line2d_8">
      <path clip-path="url(#pa3c9d5ca1a)" d="M 32.817543 317.123 
L 568.8 317.123 
" style="fill:none;stroke:#ffffff;stroke-linecap:round;stroke-width:0.5;"/>
     </g>
     <g id="text_8">
      <!-- −0.75 -->
      <g style="fill:#262626;" transform="translate(6.462621 319.21257)scale(0.055 -0.055)">
       <defs>
        <path d="M 8.203125 72.90625 
L 55.078125 72.90625 
L 55.078125 68.703125 
L 28.609375 0 
L 18.3125 0 
L 43.21875 64.59375 
L 8.203125 64.59375 
z
" id="DejaVuSans-55"/>
       </defs>
       <use xlink:href="#DejaVuSans-8722"/>
       <use x="83.789062" xlink:href="#DejaVuSans-48"/>
       <use x="147.412109" xlink:href="#DejaVuSans-46"/>
       <use x="179.199219" xlink:href="#DejaVuSans-55"/>
       <use x="242.822266" xlink:href="#DejaVuSans-53"/>
      </g>
     </g>
    </g>
    <g id="ytick_3">
     <g id="line2d_9">
      <path clip-path="url(#pa3c9d5ca1a)" d="M 32.817543 276.563092 
L 568.8 276.563092 
" style="fill:none;stroke:#ffffff;stroke-linecap:round;stroke-width:0.5;"/>
     </g>
     <g id="text_9">
      <!-- −0.50 -->
      <g style="fill:#262626;" transform="translate(6.462621 278.652663)scale(0.055 -0.055)">
       <use xlink:href="#DejaVuSans-8722"/>
       <use x="83.789062" xlink:href="#DejaVuSans-48"/>
       <use x="147.412109" xlink:href="#DejaVuSans-46"/>
       <use x="179.199219" xlink:href="#DejaVuSans-53"/>
       <use x="242.822266" xlink:href="#DejaVuSans-48"/>
      </g>
     </g>
    </g>
    <g id="ytick_4">
     <g id="line2d_10">
      <path clip-path="url(#pa3c9d5ca1a)" d="M 32.817543 236.003185 
L 568.8 236.003185 
" style="fill:none;stroke:#ffffff;stroke-linecap:round;stroke-width:0.5;"/>
     </g>
     <g id="text_10">
      <!-- −0.25 -->
      <g style="fill:#262626;" transform="translate(6.462621 238.092755)scale(0.055 -0.055)">
       <use xlink:href="#DejaVuSans-8722"/>
       <use x="83.789062" xlink:href="#DejaVuSans-48"/>
       <use x="147.412109" xlink:href="#DejaVuSans-46"/>
       <use x="179.199219" xlink:href="#DejaVuSans-50"/>
       <use x="242.822266" xlink:href="#DejaVuSans-53"/>
      </g>
     </g>
    </g>
    <g id="ytick_5">
     <g id="line2d_11">
      <path clip-path="url(#pa3c9d5ca1a)" d="M 32.817543 195.443277 
L 568.8 195.443277 
" style="fill:none;stroke:#ffffff;stroke-linecap:round;stroke-width:0.5;"/>
     </g>
     <g id="text_11">
      <!-- 0.00 -->
      <g style="fill:#262626;" transform="translate(11.071449 197.532847)scale(0.055 -0.055)">
       <use xlink:href="#DejaVuSans-48"/>
       <use x="63.623047" xlink:href="#DejaVuSans-46"/>
       <use x="95.410156" xlink:href="#DejaVuSans-48"/>
       <use x="159.033203" xlink:href="#DejaVuSans-48"/>
      </g>
     </g>
    </g>
    <g id="ytick_6">
     <g id="line2d_12">
      <path clip-path="url(#pa3c9d5ca1a)" d="M 32.817543 154.883369 
L 568.8 154.883369 
" style="fill:none;stroke:#ffffff;stroke-linecap:round;stroke-width:0.5;"/>
     </g>
     <g id="text_12">
      <!-- 0.25 -->
      <g style="fill:#262626;" transform="translate(11.071449 156.97294)scale(0.055 -0.055)">
       <use xlink:href="#DejaVuSans-48"/>
       <use x="63.623047" xlink:href="#DejaVuSans-46"/>
       <use x="95.410156" xlink:href="#DejaVuSans-50"/>
       <use x="159.033203" xlink:href="#DejaVuSans-53"/>
      </g>
     </g>
    </g>
    <g id="ytick_7">
     <g id="line2d_13">
      <path clip-path="url(#pa3c9d5ca1a)" d="M 32.817543 114.323462 
L 568.8 114.323462 
" style="fill:none;stroke:#ffffff;stroke-linecap:round;stroke-width:0.5;"/>
     </g>
     <g id="text_13">
      <!-- 0.50 -->
      <g style="fill:#262626;" transform="translate(11.071449 116.413032)scale(0.055 -0.055)">
       <use xlink:href="#DejaVuSans-48"/>
       <use x="63.623047" xlink:href="#DejaVuSans-46"/>
       <use x="95.410156" xlink:href="#DejaVuSans-53"/>
       <use x="159.033203" xlink:href="#DejaVuSans-48"/>
      </g>
     </g>
    </g>
    <g id="ytick_8">
     <g id="line2d_14">
      <path clip-path="url(#pa3c9d5ca1a)" d="M 32.817543 73.763554 
L 568.8 73.763554 
" style="fill:none;stroke:#ffffff;stroke-linecap:round;stroke-width:0.5;"/>
     </g>
     <g id="text_14">
      <!-- 0.75 -->
      <g style="fill:#262626;" transform="translate(11.071449 75.853125)scale(0.055 -0.055)">
       <use xlink:href="#DejaVuSans-48"/>
       <use x="63.623047" xlink:href="#DejaVuSans-46"/>
       <use x="95.410156" xlink:href="#DejaVuSans-55"/>
       <use x="159.033203" xlink:href="#DejaVuSans-53"/>
      </g>
     </g>
    </g>
    <g id="ytick_9">
     <g id="line2d_15">
      <path clip-path="url(#pa3c9d5ca1a)" d="M 32.817543 33.203647 
L 568.8 33.203647 
" style="fill:none;stroke:#ffffff;stroke-linecap:round;stroke-width:0.5;"/>
     </g>
     <g id="text_15">
      <!-- 1.00 -->
      <g style="fill:#262626;" transform="translate(11.071449 35.293217)scale(0.055 -0.055)">
       <use xlink:href="#DejaVuSans-49"/>
       <use x="63.623047" xlink:href="#DejaVuSans-46"/>
       <use x="95.410156" xlink:href="#DejaVuSans-48"/>
       <use x="159.033203" xlink:href="#DejaVuSans-48"/>
      </g>
     </g>
    </g>
   </g>
   <g id="line2d_16">
    <path clip-path="url(#pa3c9d5ca1a)" d="M 57.180382 195.443277 
L 544.437161 195.443277 
L 544.437161 195.443277 
" style="fill:none;stroke:#4c72b0;stroke-linecap:round;stroke-width:0.75;"/>
   </g>
   <g id="line2d_17">
    <path clip-path="url(#pa3c9d5ca1a)" d="M 57.180382 33.203647 
L 544.437161 33.203647 
L 544.437161 33.203647 
" style="fill:none;stroke:#dd8452;stroke-linecap:round;stroke-width:0.75;"/>
   </g>
   <g id="line2d_18">
    <path clip-path="url(#pa3c9d5ca1a)" d="M 57.180382 283.705064 
L 62.912814 125.180598 
L 64.823625 83.070566 
L 66.734436 53.036913 
L 68.645247 36.582321 
L 70.556058 33.726845 
L 72.466869 43.322088 
L 74.37768 63.403705 
L 76.288491 91.532361 
L 78.199302 125.091134 
L 83.931734 234.042953 
L 85.842545 266.562169 
L 87.753356 294.885906 
L 89.664167 318.23586 
L 91.574978 336.189368 
L 93.485789 348.627921 
L 95.3966 355.680221 
L 97.307411 357.665143 
L 99.218222 355.038272 
L 101.129032 348.344293 
L 103.039843 338.176389 
L 104.950654 325.143077 
L 106.861465 309.842231 
L 108.772276 292.841754 
L 112.593898 255.787273 
L 118.326331 198.798965 
L 122.147952 163.391654 
L 124.058763 147.055618 
L 125.969574 131.790354 
L 127.880385 117.669383 
L 129.791196 104.735636 
L 131.702007 93.006269 
L 133.612818 82.477055 
L 135.523629 73.126421 
L 137.43444 64.919041 
L 139.34525 57.809 
L 141.256061 51.742513 
L 143.166872 46.660311 
L 145.077683 42.499586 
L 146.988494 39.195653 
L 148.899305 36.683278 
L 150.810116 34.897814 
L 152.720927 33.77597 
L 154.631738 33.256562 
L 156.542549 33.280941 
L 158.453359 33.793367 
L 160.36417 34.741224 
L 162.274981 36.075184 
L 164.185792 37.749257 
L 166.096603 39.720757 
L 168.007414 41.950288 
L 169.918225 44.401605 
L 173.739847 49.839923 
L 177.561468 55.804457 
L 183.293901 65.333294 
L 198.580388 91.195082 
L 204.312821 100.328794 
L 210.045254 108.942227 
L 213.866876 114.365571 
L 217.688497 119.523554 
L 221.510119 124.413584 
L 225.331741 129.037151 
L 229.153363 133.398848 
L 232.974984 137.505569 
L 236.796606 141.36586 
L 240.618228 144.989413 
L 244.43985 148.386659 
L 248.261472 151.568451 
L 252.083093 154.545815 
L 255.904715 157.329767 
L 261.637148 161.166743 
L 267.369581 164.628395 
L 273.102013 167.748375 
L 278.834446 170.558193 
L 284.566879 173.087083 
L 290.299311 175.361981 
L 296.031744 177.407563 
L 301.764177 179.246341 
L 307.49661 180.898787 
L 315.139853 182.844034 
L 322.783097 184.530032 
L 330.42634 185.99101 
L 338.069584 187.256792 
L 347.623638 188.603716 
L 357.177693 189.729252 
L 368.642558 190.838341 
L 380.107424 191.73225 
L 393.4831 192.558355 
L 408.769587 193.279841 
L 427.877696 193.933542 
L 450.807427 194.462875 
L 479.46959 194.871758 
L 517.685808 195.164965 
L 544.437161 195.275094 
L 544.437161 195.275094 
" style="fill:none;stroke:#55a868;stroke-linecap:round;stroke-width:0.75;"/>
   </g>
   <g id="line2d_19">
    <path clip-path="url(#pa3c9d5ca1a)" d="M 57.180382 331.573929 
L 59.091193 353.707164 
L 61.002004 356.534412 
L 62.912814 341.67889 
L 64.823625 312.464944 
L 66.734436 273.174385 
L 72.466869 139.044331 
L 74.37768 101.171062 
L 76.288491 70.84705 
L 78.199302 49.250687 
L 80.110113 36.789273 
L 82.020923 33.232474 
L 83.931734 37.862302 
L 85.842545 49.62215 
L 87.753356 67.252556 
L 89.664167 89.407065 
L 91.574978 114.744862 
L 101.129032 249.692486 
L 103.039843 272.572757 
L 104.950654 292.909475 
L 106.861465 310.484905 
L 108.772276 325.193943 
L 110.683087 337.025254 
L 112.593898 346.043077 
L 114.504709 352.370283 
L 116.41552 356.173181 
L 118.326331 357.648201 
L 120.237141 357.010662 
L 122.147952 354.485386 
L 124.058763 350.299122 
L 125.969574 344.674652 
L 127.880385 337.826278 
L 129.791196 329.956553 
L 131.702007 321.254076 
L 135.523629 302.027917 
L 141.256061 270.754554 
L 148.899305 228.864254 
L 152.720927 209.058744 
L 156.542549 190.435767 
L 160.36417 173.159953 
L 164.185792 157.308082 
L 168.007414 142.892364 
L 171.829036 129.879327 
L 175.650658 118.204693 
L 179.472279 107.784835 
L 183.293901 98.525324 
L 187.115523 90.327266 
L 190.937145 83.091696 
L 194.758767 76.722646 
L 198.580388 71.129111 
L 202.40201 66.226244 
L 206.223632 61.935947 
L 210.045254 58.187068 
L 213.866876 54.915337 
L 217.688497 52.063033 
L 221.510119 49.578682 
L 225.331741 47.416514 
L 229.153363 45.536021 
L 232.974984 43.90147 
L 236.796606 42.481416 
L 240.618228 41.248258 
L 246.350661 39.696842 
L 252.083093 38.442971 
L 257.815526 37.430158 
L 263.547959 36.612434 
L 271.191202 35.76213 
L 278.834446 35.123498 
L 288.388501 34.544183 
L 299.853366 34.074587 
L 315.139853 33.693608 
L 336.158773 33.425733 
L 368.642558 33.269008 
L 439.342562 33.208211 
L 544.437161 33.203734 
L 544.437161 33.203734 
" style="fill:none;stroke:#c44e52;stroke-linecap:round;stroke-width:0.75;"/>
   </g>
   <g id="line2d_20">
    <path clip-path="url(#pa3c9d5ca1a)" d="M 57.180382 47.327374 
L 59.091193 125.799827 
L 61.002004 233.710954 
L 62.912814 322.106604 
L 64.823625 357.54969 
L 66.734436 331.900744 
L 68.645247 259.946891 
L 70.556058 169.489419 
L 72.466869 89.680278 
L 74.37768 41.995419 
L 76.288491 35.840991 
L 78.199302 68.655978 
L 80.110113 129.101472 
L 83.931734 270.425877 
L 85.842545 323.286721 
L 87.753356 352.588888 
L 89.664167 355.952283 
L 91.574978 335.458231 
L 93.485789 296.363838 
L 95.3966 245.641842 
L 99.218222 138.045942 
L 101.129032 93.19009 
L 103.039843 59.731298 
L 104.950654 39.607779 
L 106.861465 33.20619 
L 108.772276 39.65499 
L 110.683087 57.17235 
L 112.593898 83.414005 
L 114.504709 115.784456 
L 122.147952 258.283132 
L 124.058763 287.814199 
L 125.969574 312.541832 
L 127.880385 331.953457 
L 129.791196 345.855136 
L 131.702007 354.315461 
L 133.612818 357.608147 
L 135.523629 356.15737 
L 137.43444 350.488368 
L 139.34525 341.184963 
L 141.256061 328.854427 
L 143.166872 314.09962 
L 145.077683 297.497943 
L 148.899305 260.851638 
L 156.542549 185.433029 
L 160.36417 151.298995 
L 162.274981 135.740447 
L 164.185792 121.30982 
L 166.096603 108.05771 
L 168.007414 96.007688 
L 169.918225 85.160787 
L 171.829036 75.49969 
L 173.739847 66.992397 
L 175.650658 59.595518 
L 177.561468 53.257124 
L 179.472279 47.919202 
L 181.38309 43.519699 
L 183.293901 39.994289 
L 185.204712 37.277775 
L 187.115523 35.30526 
L 189.026334 34.013016 
L 190.937145 33.339243 
L 192.847956 33.224583 
L 194.758767 33.612495 
L 196.669577 34.449511 
L 198.580388 35.685426 
L 200.491199 37.273356 
L 202.40201 39.169747 
L 204.312821 41.334323 
L 206.223632 43.730027 
L 210.045254 49.081922 
L 213.866876 54.988279 
L 219.599308 64.471512 
L 234.885795 90.36349 
L 240.618228 99.539035 
L 246.350661 108.201507 
L 250.172283 113.659668 
L 253.993904 118.853184 
L 257.815526 123.778834 
L 261.637148 128.43762 
L 265.45877 132.833782 
L 269.280392 136.973943 
L 273.102013 140.86646 
L 276.923635 144.520905 
L 280.745257 147.94762 
L 284.566879 151.157423 
L 288.388501 154.161332 
L 292.210122 156.970371 
L 297.942555 160.842302 
L 303.674988 164.335834 
L 309.40742 167.484794 
L 315.139853 170.32089 
L 320.872286 172.873559 
L 326.604719 175.169943 
L 332.337151 177.23491 
L 338.069584 179.091164 
L 343.802017 180.75935 
L 351.44526 182.723163 
L 359.088504 184.425283 
L 366.731747 185.900249 
L 374.374991 187.178162 
L 383.929046 188.538006 
L 393.4831 189.674346 
L 404.947965 190.794085 
L 416.412831 191.696582 
L 429.788507 192.530625 
L 445.074994 193.259045 
L 462.272292 193.863193 
L 483.291212 194.379602 
L 510.042565 194.800499 
L 544.437161 195.106911 
L 544.437161 195.106911 
" style="fill:none;stroke:#8172b3;stroke-linecap:round;stroke-width:0.75;"/>
   </g>
   <g id="line2d_21">
    <path clip-path="url(#pa3c9d5ca1a)" d="M 57.180382 129.236193 
L 59.091193 48.911755 
L 61.002004 37.781352 
L 62.912814 94.062317 
L 66.734436 283.198953 
L 68.645247 344.308923 
L 70.556058 355.593498 
L 72.466869 318.471263 
L 74.37768 248.125831 
L 76.288491 166.308963 
L 78.199302 94.217398 
L 80.110113 47.387668 
L 82.020923 33.318926 
L 83.931734 51.570741 
L 85.842545 95.554589 
L 87.753356 155.107738 
L 89.664167 219.077086 
L 91.574978 277.403697 
L 93.485789 322.473735 
L 95.3966 349.721606 
L 97.307411 357.611841 
L 99.218222 347.190576 
L 101.129032 321.40352 
L 103.039843 284.347477 
L 106.861465 194.534396 
L 108.772276 150.147488 
L 110.683087 110.573673 
L 112.593898 78.092774 
L 114.504709 54.106199 
L 116.41552 39.214462 
L 118.326331 33.342463 
L 120.237141 35.88706 
L 122.147952 45.86771 
L 124.058763 62.066698 
L 125.969574 83.150684 
L 127.880385 107.769634 
L 131.702007 162.559721 
L 135.523629 217.63963 
L 137.43444 243.221077 
L 139.34525 266.724817 
L 141.256061 287.764252 
L 143.166872 306.088526 
L 145.077683 321.564423 
L 146.988494 334.157497 
L 148.899305 343.913623 
L 150.810116 350.941622 
L 152.720927 355.397637 
L 154.631738 357.471265 
L 156.542549 357.373798 
L 158.453359 355.328331 
L 160.36417 351.561755 
L 162.274981 346.2984 
L 164.185792 339.75519 
L 166.096603 332.138052 
L 168.007414 323.639452 
L 171.829036 304.691767 
L 175.650658 284.139857 
L 185.204712 231.573218 
L 189.026334 211.628714 
L 192.847956 192.836804 
L 196.669577 175.37579 
L 200.491199 159.332691 
L 204.312821 144.727127 
L 208.134443 131.530752 
L 211.956065 119.682663 
L 215.777686 109.101245 
L 219.599308 99.693111 
L 223.42093 91.35967 
L 227.242552 84.001742 
L 231.064174 77.522849 
L 234.885795 71.831238 
L 238.707417 66.841194 
L 242.529039 62.473699 
L 246.350661 58.656693 
L 250.172283 55.324978 
L 253.993904 52.42001 
L 257.815526 49.889493 
L 261.637148 47.686923 
L 265.45877 45.771143 
L 269.280392 44.105793 
L 273.102013 42.658894 
L 276.923635 41.402343 
L 282.656068 39.821424 
L 288.388501 38.543628 
L 294.120933 37.511446 
L 299.853366 36.678056 
L 307.49661 35.811419 
L 315.139853 35.160516 
L 324.693908 34.570041 
L 336.158773 34.091394 
L 351.44526 33.703066 
L 372.46418 33.430027 
L 404.947965 33.270275 
L 475.647969 33.208298 
L 544.437161 33.203995 
L 544.437161 33.203995 
" style="fill:none;stroke:#937860;stroke-linecap:round;stroke-width:0.75;"/>
   </g>
   <g id="line2d_22">
    <path clip-path="url(#pa3c9d5ca1a)" d="M 57.180382 355.741163 
L 59.091193 295.620419 
L 61.002004 138.719967 
L 62.912814 37.36854 
L 64.823625 73.964831 
L 66.734436 207.092566 
L 68.645247 328.1133 
L 70.556058 352.994381 
L 72.466869 274.032227 
L 74.37768 149.155645 
L 76.288491 54.212581 
L 78.199302 37.301757 
L 80.110113 99.612655 
L 82.020923 204.61301 
L 83.931734 302.5026 
L 85.842545 354.136 
L 87.753356 344.33218 
L 89.664167 282.460921 
L 93.485789 108.746753 
L 95.3966 50.932399 
L 97.307411 33.363544 
L 99.218222 56.49087 
L 101.129032 110.9245 
L 104.950654 252.981251 
L 106.861465 311.123973 
L 108.772276 347.227236 
L 110.683087 357.550851 
L 112.593898 343.082815 
L 114.504709 308.366186 
L 116.41552 260.051827 
L 120.237141 151.669626 
L 122.147952 104.292169 
L 124.058763 67.497 
L 125.969574 43.67685 
L 127.880385 33.611982 
L 129.791196 36.737238 
L 131.702007 51.481359 
L 133.612818 75.619156 
L 135.523629 106.59529 
L 139.34525 178.750882 
L 141.256061 215.285712 
L 143.166872 249.596272 
L 145.077683 280.288995 
L 146.988494 306.377821 
L 148.899305 327.255337 
L 150.810116 342.646968 
L 152.720927 352.556155 
L 154.631738 357.206832 
L 156.542549 356.987676 
L 158.453359 352.40116 
L 160.36417 344.019058 
L 162.274981 332.445362 
L 164.185792 318.286455 
L 166.096603 302.128342 
L 169.918225 265.962609 
L 177.561468 190.302136 
L 181.38309 155.680709 
L 183.293901 139.830483 
L 185.204712 125.089272 
L 187.115523 111.515786 
L 189.026334 99.140428 
L 190.937145 87.969885 
L 192.847956 77.99141 
L 194.758767 69.176633 
L 196.669577 61.484927 
L 198.580388 54.866415 
L 200.491199 49.264496 
L 202.40201 44.618045 
L 204.312821 40.863179 
L 206.223632 37.934819 
L 208.134443 35.767884 
L 210.045254 34.29825 
L 211.956065 33.463554 
L 213.866876 33.203714 
L 215.777686 33.461407 
L 217.688497 34.182313 
L 219.599308 35.315355 
L 221.510119 36.812724 
L 223.42093 38.629983 
L 225.331741 40.725978 
L 227.242552 43.06279 
L 231.064174 48.322712 
L 234.885795 54.166503 
L 240.618228 63.599421 
L 257.815526 92.638916 
L 263.547959 101.697654 
L 269.280392 110.224423 
L 273.102013 115.586661 
L 276.923635 120.682512 
L 280.745257 125.510425 
L 284.566879 130.072702 
L 288.388501 134.374531 
L 292.210122 138.423241 
L 296.031744 142.227686 
L 299.853366 145.797758 
L 303.674988 149.144017 
L 307.49661 152.277372 
L 311.318231 155.208862 
L 315.139853 157.949482 
L 320.872286 161.726096 
L 326.604719 165.132729 
L 332.337151 168.202707 
L 338.069584 170.967198 
L 343.802017 173.455079 
L 349.534449 175.692934 
L 355.266882 177.705094 
L 360.999315 179.513748 
L 368.642558 181.643308 
L 376.285802 183.489382 
L 383.929046 185.089282 
L 391.572289 186.475562 
L 401.126344 187.950829 
L 410.680398 189.183694 
L 422.145263 190.398602 
L 433.610129 191.377835 
L 446.985805 192.282814 
L 462.272292 193.073198 
L 479.46959 193.728747 
L 500.48851 194.289094 
L 525.329052 194.720255 
L 544.437161 194.938729 
L 544.437161 194.938729 
" style="fill:none;stroke:#da8bc3;stroke-linecap:round;stroke-width:0.75;"/>
   </g>
   <g id="line2d_23">
    <path clip-path="url(#pa3c9d5ca1a)" d="M 57.180382 170.417578 
L 59.091193 323.060824 
L 61.002004 347.44382 
L 62.912814 231.968279 
L 64.823625 87.904059 
L 66.734436 33.622416 
L 68.645247 102.060394 
L 70.556058 234.164687 
L 72.466869 337.378033 
L 74.37768 350.939746 
L 76.288491 275.290562 
L 78.199302 159.208506 
L 80.110113 64.530365 
L 82.020923 33.462993 
L 83.931734 73.54168 
L 85.842545 161.704314 
L 87.753356 259.893197 
L 89.664167 332.372555 
L 91.574978 357.676351 
L 93.485789 332.576094 
L 95.3966 269.188126 
L 99.218222 111.694086 
L 101.129032 56.957633 
L 103.039843 33.782855 
L 104.950654 43.749242 
L 106.861465 81.690594 
L 108.772276 138.142959 
L 112.593898 262.70593 
L 114.504709 311.934116 
L 116.41552 344.263415 
L 118.326331 357.370627 
L 120.237141 351.666087 
L 122.147952 329.656437 
L 124.058763 295.200218 
L 125.969574 252.790012 
L 129.791196 161.767008 
L 131.702007 120.632425 
L 133.612818 86.063765 
L 135.523629 59.694493 
L 137.43444 42.330386 
L 139.34525 34.064646 
L 141.256061 34.421613 
L 143.166872 42.508154 
L 145.077683 57.1577 
L 146.988494 77.057362 
L 148.899305 100.85322 
L 152.720927 154.980447 
L 156.542549 210.446725 
L 158.453359 236.503252 
L 160.36417 260.611787 
L 162.274981 282.346251 
L 164.185792 301.420878 
L 166.096603 317.67255 
L 168.007414 331.042037 
L 169.918225 341.555295 
L 171.829036 349.305785 
L 173.739847 354.438302 
L 175.650658 357.134692 
L 177.561468 357.601426 
L 179.472279 356.059294 
L 181.38309 352.734841 
L 183.293901 347.853626 
L 185.204712 341.634968 
L 187.115523 334.288064 
L 189.026334 326.009192 
L 190.937145 316.979967 
L 194.758767 297.317864 
L 200.491199 265.824117 
L 206.223632 234.337789 
L 210.045254 214.257581 
L 213.866876 195.297426 
L 217.688497 177.650019 
L 221.510119 161.413201 
L 225.331741 146.614453 
L 229.153363 133.230924 
L 232.974984 121.205333 
L 236.796606 110.458288 
L 240.618228 100.897549 
L 244.43985 92.424914 
L 248.261472 84.941089 
L 252.083093 78.349074 
L 255.904715 72.55638 
L 259.726337 67.476451 
L 263.547959 63.029322 
L 267.369581 59.141994 
L 271.191202 55.74836 
L 275.012824 52.789007 
L 278.834446 50.210796 
L 282.656068 47.966499 
L 286.47769 46.014243 
L 290.299311 44.317068 
L 294.120933 42.842415 
L 297.942555 41.561699 
L 303.674988 39.95027 
L 309.40742 38.647738 
L 315.139853 37.595529 
L 320.872286 36.745922 
L 328.515529 35.86241 
L 336.158773 35.1988 
L 345.712828 34.596789 
L 357.177693 34.10879 
L 372.46418 33.712852 
L 393.4831 33.434466 
L 425.966885 33.27158 
L 494.756078 33.208743 
L 544.437161 33.20443 
L 544.437161 33.20443 
" style="fill:none;stroke:#8c8c8c;stroke-linecap:round;stroke-width:0.75;"/>
   </g>
   <g id="line2d_24">
    <path clip-path="url(#pa3c9d5ca1a)" d="M 57.180382 74.556398 
L 59.091193 69.642187 
L 61.002004 269.819133 
L 62.912814 353.74307 
L 64.823625 208.579013 
L 66.734436 47.823157 
L 68.645247 77.070572 
L 70.556058 246.6825 
L 72.466869 355.84563 
L 74.37768 295.098642 
L 76.288491 138.121854 
L 78.199302 37.230932 
L 80.110113 74.359715 
L 82.020923 207.66452 
L 83.931734 328.430967 
L 85.842545 352.866153 
L 87.753356 273.581435 
L 89.664167 148.67987 
L 91.574978 53.977411 
L 93.485789 37.405625 
L 95.3966 99.972755 
L 97.307411 205.04236 
L 99.218222 302.813962 
L 101.129032 354.218739 
L 103.039843 344.178395 
L 104.950654 282.146367 
L 108.772276 108.454016 
L 110.683087 50.780741 
L 112.593898 33.378175 
L 114.504709 56.651724 
L 116.41552 111.180819 
L 120.237141 253.242289 
L 122.147952 311.312716 
L 124.058763 347.318833 
L 125.969574 357.540542 
L 127.880385 342.982389 
L 129.791196 308.198552 
L 131.702007 259.845324 
L 135.523629 151.467997 
L 137.43444 104.125106 
L 139.34525 67.377253 
L 141.256061 43.610493 
L 143.166872 33.599217 
L 145.077683 36.773646 
L 146.988494 51.559253 
L 148.899305 75.728972 
L 150.810116 106.726738 
L 154.631738 178.89626 
L 156.542549 215.425628 
L 158.453359 249.724456 
L 160.36417 280.400793 
L 162.274981 306.470133 
L 164.185792 327.326481 
L 166.096603 342.69645 
L 168.007414 352.58445 
L 169.918225 357.215187 
L 171.829036 356.97787 
L 173.739847 352.375312 
L 175.650658 343.979516 
L 177.561468 332.394507 
L 179.472279 318.226635 
L 181.38309 302.061782 
L 185.204712 265.888583 
L 192.847956 190.231004 
L 196.669577 155.616506 
L 198.580388 139.770469 
L 200.491199 125.033746 
L 202.40201 111.464911 
L 204.312821 99.094282 
L 206.223632 87.928448 
L 208.134443 77.954605 
L 210.045254 69.144305 
L 211.956065 61.456913 
L 213.866876 54.842501 
L 215.777686 49.244459 
L 217.688497 44.601625 
L 219.599308 40.850124 
L 221.510119 37.924878 
L 223.42093 35.760795 
L 225.331741 34.293782 
L 227.242552 33.461445 
L 229.153363 33.203753 
L 231.064174 33.46336 
L 232.974984 34.185988 
L 234.885795 35.320539 
L 236.796606 36.819251 
L 238.707417 38.637681 
L 240.618228 40.734691 
L 242.529039 43.072373 
L 246.350661 48.333668 
L 250.172283 54.178397 
L 255.904715 63.61207 
L 273.102013 92.651062 
L 278.834446 101.709162 
L 284.566879 110.235196 
L 288.388501 115.596911 
L 292.210122 120.692235 
L 296.031744 125.519632 
L 299.853366 130.081391 
L 303.674988 134.382712 
L 307.49661 138.430934 
L 311.318231 142.234909 
L 315.139853 145.804532 
L 318.961475 149.150365 
L 322.783097 152.283314 
L 326.604719 155.214418 
L 330.42634 157.954675 
L 336.158773 161.730783 
L 341.891206 165.136952 
L 347.623638 168.206512 
L 353.356071 170.970623 
L 359.088504 173.458161 
L 364.820937 175.695706 
L 370.553369 177.707585 
L 376.285802 179.515988 
L 383.929046 181.64525 
L 391.572289 183.491064 
L 399.215533 185.09074 
L 406.858776 186.476826 
L 416.412831 187.951886 
L 425.966885 189.184577 
L 437.431751 190.399313 
L 448.896616 191.378409 
L 462.272292 192.28326 
L 477.55878 193.073533 
L 494.756078 193.728989 
L 515.774998 194.289257 
L 540.615539 194.720357 
L 544.437161 194.770547 
L 544.437161 194.770547 
" style="fill:none;stroke:#ccb974;stroke-linecap:round;stroke-width:0.75;"/>
   </g>
   <g id="line2d_25">
    <path clip-path="url(#pa3c9d5ca1a)" d="M 57.180382 303.647062 
L 59.091193 92.994346 
L 61.002004 51.256139 
L 62.912814 230.980206 
L 64.823625 357.150261 
L 66.734436 262.748547 
L 68.645247 84.494644 
L 70.556058 41.507449 
L 72.466869 171.096121 
L 74.37768 323.468686 
L 76.288491 347.219268 
L 78.199302 231.367542 
L 80.110113 87.459625 
L 82.020923 33.664607 
L 83.931734 102.513348 
L 85.842545 234.682745 
L 87.753356 337.626704 
L 89.664167 350.797332 
L 91.574978 274.873165 
L 93.485789 158.75817 
L 95.3966 64.267528 
L 97.307411 33.487865 
L 99.218222 73.815841 
L 101.129032 162.095876 
L 103.039843 260.247316 
L 104.950654 332.571946 
L 106.861465 357.672725 
L 108.772276 332.39059 
L 110.683087 268.890181 
L 114.504709 111.427787 
L 116.41552 56.801526 
L 118.326331 33.75867 
L 120.237141 43.848516 
L 122.147952 81.882848 
L 124.058763 138.38617 
L 127.880385 262.925938 
L 129.791196 312.096373 
L 131.702007 344.352894 
L 133.612818 357.383952 
L 135.523629 351.609448 
L 137.43444 329.542831 
L 139.34525 295.046452 
L 141.256061 252.614106 
L 145.077683 161.595889 
L 146.988494 120.482715 
L 148.899305 85.943583 
L 150.810116 59.608554 
L 152.720927 42.280362 
L 154.631738 34.049676 
L 156.542549 34.438923 
L 158.453359 42.553604 
L 160.36417 57.226349 
L 162.274981 77.14394 
L 164.185792 100.952437 
L 168.007414 155.090477 
L 171.829036 210.55199 
L 173.739847 236.601908 
L 175.650658 260.701875 
L 177.561468 282.426378 
L 179.472279 301.490174 
L 181.38309 317.73061 
L 183.293901 331.088793 
L 185.204712 341.590997 
L 187.115523 349.330909 
L 189.026334 354.453503 
L 190.937145 357.140736 
L 192.847956 357.599163 
L 194.758767 356.049595 
L 196.669577 352.718595 
L 198.580388 347.831713 
L 200.491199 341.608239 
L 202.40201 334.257294 
L 204.312821 325.975143 
L 206.223632 316.943317 
L 210.045254 297.277791 
L 215.777686 265.782472 
L 221.510119 234.29751 
L 225.331741 214.219234 
L 229.153363 195.2615 
L 232.974984 177.61679 
L 236.796606 161.382783 
L 240.618228 146.586844 
L 244.43985 133.206042 
L 248.261472 121.183043 
L 252.083093 110.438416 
L 255.904715 100.8799 
L 259.726337 92.409306 
L 263.547959 84.927329 
L 267.369581 78.336966 
L 271.191202 72.545752 
L 275.012824 67.467138 
L 278.834446 63.02117 
L 282.656068 59.134876 
L 286.47769 55.742152 
L 290.299311 52.783591 
L 294.120933 50.206087 
L 297.942555 47.962399 
L 301.764177 46.010684 
L 305.585799 44.313974 
L 309.40742 42.839727 
L 313.229042 41.559359 
L 318.961475 39.948375 
L 324.693908 38.64621 
L 330.42634 37.594291 
L 336.158773 36.744926 
L 343.802017 35.861666 
L 351.44526 35.198239 
L 360.999315 34.596402 
L 372.46418 34.108529 
L 387.750667 33.712707 
L 408.769587 33.434398 
L 441.253372 33.271561 
L 511.953376 33.208385 
L 544.437161 33.205039 
L 544.437161 33.205039 
" style="fill:none;stroke:#64b5cd;stroke-linecap:round;stroke-width:0.75;"/>
   </g>
   <g id="patch_3">
    <path d="M 32.817543 373.899986 
L 32.817543 16.980011 
" style="fill:none;stroke:#ffffff;stroke-linecap:square;stroke-linejoin:miter;stroke-width:0.625;"/>
   </g>
   <g id="patch_4">
    <path d="M 568.8 373.899986 
L 568.8 16.980011 
" style="fill:none;stroke:#ffffff;stroke-linecap:square;stroke-linejoin:miter;stroke-width:0.625;"/>
   </g>
   <g id="patch_5">
    <path d="M 32.817543 373.899986 
L 568.8 373.899986 
" style="fill:none;stroke:#ffffff;stroke-linecap:square;stroke-linejoin:miter;stroke-width:0.625;"/>
   </g>
   <g id="patch_6">
    <path d="M 32.817543 16.980011 
L 568.8 16.980011 
" style="fill:none;stroke:#ffffff;stroke-linecap:square;stroke-linejoin:miter;stroke-width:0.625;"/>
   </g>
   <g id="text_16">
    <!-- Position values -->
    <g style="fill:#262626;" transform="translate(278.419396 10.980011)scale(0.06 -0.06)">
     <defs>
      <path d="M 19.671875 64.796875 
L 19.671875 37.40625 
L 32.078125 37.40625 
Q 38.96875 37.40625 42.71875 40.96875 
Q 46.484375 44.53125 46.484375 51.125 
Q 46.484375 57.671875 42.71875 61.234375 
Q 38.96875 64.796875 32.078125 64.796875 
z
M 9.8125 72.90625 
L 32.078125 72.90625 
Q 44.34375 72.90625 50.609375 67.359375 
Q 56.890625 61.8125 56.890625 51.125 
Q 56.890625 40.328125 50.609375 34.8125 
Q 44.34375 29.296875 32.078125 29.296875 
L 19.671875 29.296875 
L 19.671875 0 
L 9.8125 0 
z
" id="DejaVuSans-80"/>
      <path d="M 30.609375 48.390625 
Q 23.390625 48.390625 19.1875 42.75 
Q 14.984375 37.109375 14.984375 27.296875 
Q 14.984375 17.484375 19.15625 11.84375 
Q 23.34375 6.203125 30.609375 6.203125 
Q 37.796875 6.203125 41.984375 11.859375 
Q 46.1875 17.53125 46.1875 27.296875 
Q 46.1875 37.015625 41.984375 42.703125 
Q 37.796875 48.390625 30.609375 48.390625 
z
M 30.609375 56 
Q 42.328125 56 49.015625 48.375 
Q 55.71875 40.765625 55.71875 27.296875 
Q 55.71875 13.875 49.015625 6.21875 
Q 42.328125 -1.421875 30.609375 -1.421875 
Q 18.84375 -1.421875 12.171875 6.21875 
Q 5.515625 13.875 5.515625 27.296875 
Q 5.515625 40.765625 12.171875 48.375 
Q 18.84375 56 30.609375 56 
z
" id="DejaVuSans-111"/>
      <path d="M 44.28125 53.078125 
L 44.28125 44.578125 
Q 40.484375 46.53125 36.375 47.5 
Q 32.28125 48.484375 27.875 48.484375 
Q 21.1875 48.484375 17.84375 46.4375 
Q 14.5 44.390625 14.5 40.28125 
Q 14.5 37.15625 16.890625 35.375 
Q 19.28125 33.59375 26.515625 31.984375 
L 29.59375 31.296875 
Q 39.15625 29.25 43.1875 25.515625 
Q 47.21875 21.78125 47.21875 15.09375 
Q 47.21875 7.46875 41.1875 3.015625 
Q 35.15625 -1.421875 24.609375 -1.421875 
Q 20.21875 -1.421875 15.453125 -0.5625 
Q 10.6875 0.296875 5.421875 2 
L 5.421875 11.28125 
Q 10.40625 8.6875 15.234375 7.390625 
Q 20.0625 6.109375 24.8125 6.109375 
Q 31.15625 6.109375 34.5625 8.28125 
Q 37.984375 10.453125 37.984375 14.40625 
Q 37.984375 18.0625 35.515625 20.015625 
Q 33.0625 21.96875 24.703125 23.78125 
L 21.578125 24.515625 
Q 13.234375 26.265625 9.515625 29.90625 
Q 5.8125 33.546875 5.8125 39.890625 
Q 5.8125 47.609375 11.28125 51.796875 
Q 16.75 56 26.8125 56 
Q 31.78125 56 36.171875 55.265625 
Q 40.578125 54.546875 44.28125 53.078125 
z
" id="DejaVuSans-115"/>
      <path d="M 9.421875 54.6875 
L 18.40625 54.6875 
L 18.40625 0 
L 9.421875 0 
z
M 9.421875 75.984375 
L 18.40625 75.984375 
L 18.40625 64.59375 
L 9.421875 64.59375 
z
" id="DejaVuSans-105"/>
      <path d="M 18.3125 70.21875 
L 18.3125 54.6875 
L 36.8125 54.6875 
L 36.8125 47.703125 
L 18.3125 47.703125 
L 18.3125 18.015625 
Q 18.3125 11.328125 20.140625 9.421875 
Q 21.96875 7.515625 27.59375 7.515625 
L 36.8125 7.515625 
L 36.8125 0 
L 27.59375 0 
Q 17.1875 0 13.234375 3.875 
Q 9.28125 7.765625 9.28125 18.015625 
L 9.28125 47.703125 
L 2.6875 47.703125 
L 2.6875 54.6875 
L 9.28125 54.6875 
L 9.28125 70.21875 
z
" id="DejaVuSans-116"/>
      <path d="M 54.890625 33.015625 
L 54.890625 0 
L 45.90625 0 
L 45.90625 32.71875 
Q 45.90625 40.484375 42.875 44.328125 
Q 39.84375 48.1875 33.796875 48.1875 
Q 26.515625 48.1875 22.3125 43.546875 
Q 18.109375 38.921875 18.109375 30.90625 
L 18.109375 0 
L 9.078125 0 
L 9.078125 54.6875 
L 18.109375 54.6875 
L 18.109375 46.1875 
Q 21.34375 51.125 25.703125 53.5625 
Q 30.078125 56 35.796875 56 
Q 45.21875 56 50.046875 50.171875 
Q 54.890625 44.34375 54.890625 33.015625 
z
" id="DejaVuSans-110"/>
      <path id="DejaVuSans-32"/>
      <path d="M 2.984375 54.6875 
L 12.5 54.6875 
L 29.59375 8.796875 
L 46.6875 54.6875 
L 56.203125 54.6875 
L 35.6875 0 
L 23.484375 0 
z
" id="DejaVuSans-118"/>
      <path d="M 34.28125 27.484375 
Q 23.390625 27.484375 19.1875 25 
Q 14.984375 22.515625 14.984375 16.5 
Q 14.984375 11.71875 18.140625 8.90625 
Q 21.296875 6.109375 26.703125 6.109375 
Q 34.1875 6.109375 38.703125 11.40625 
Q 43.21875 16.703125 43.21875 25.484375 
L 43.21875 27.484375 
z
M 52.203125 31.203125 
L 52.203125 0 
L 43.21875 0 
L 43.21875 8.296875 
Q 40.140625 3.328125 35.546875 0.953125 
Q 30.953125 -1.421875 24.3125 -1.421875 
Q 15.921875 -1.421875 10.953125 3.296875 
Q 6 8.015625 6 15.921875 
Q 6 25.140625 12.171875 29.828125 
Q 18.359375 34.515625 30.609375 34.515625 
L 43.21875 34.515625 
L 43.21875 35.40625 
Q 43.21875 41.609375 39.140625 45 
Q 35.0625 48.390625 27.6875 48.390625 
Q 23 48.390625 18.546875 47.265625 
Q 14.109375 46.140625 10.015625 43.890625 
L 10.015625 52.203125 
Q 14.9375 54.109375 19.578125 55.046875 
Q 24.21875 56 28.609375 56 
Q 40.484375 56 46.34375 49.84375 
Q 52.203125 43.703125 52.203125 31.203125 
z
" id="DejaVuSans-97"/>
      <path d="M 9.421875 75.984375 
L 18.40625 75.984375 
L 18.40625 0 
L 9.421875 0 
z
" id="DejaVuSans-108"/>
      <path d="M 8.5 21.578125 
L 8.5 54.6875 
L 17.484375 54.6875 
L 17.484375 21.921875 
Q 17.484375 14.15625 20.5 10.265625 
Q 23.53125 6.390625 29.59375 6.390625 
Q 36.859375 6.390625 41.078125 11.03125 
Q 45.3125 15.671875 45.3125 23.6875 
L 45.3125 54.6875 
L 54.296875 54.6875 
L 54.296875 0 
L 45.3125 0 
L 45.3125 8.40625 
Q 42.046875 3.421875 37.71875 1 
Q 33.40625 -1.421875 27.6875 -1.421875 
Q 18.265625 -1.421875 13.375 4.4375 
Q 8.5 10.296875 8.5 21.578125 
z
M 31.109375 56 
z
" id="DejaVuSans-117"/>
      <path d="M 56.203125 29.59375 
L 56.203125 25.203125 
L 14.890625 25.203125 
Q 15.484375 15.921875 20.484375 11.0625 
Q 25.484375 6.203125 34.421875 6.203125 
Q 39.59375 6.203125 44.453125 7.46875 
Q 49.3125 8.734375 54.109375 11.28125 
L 54.109375 2.78125 
Q 49.265625 0.734375 44.1875 -0.34375 
Q 39.109375 -1.421875 33.890625 -1.421875 
Q 20.796875 -1.421875 13.15625 6.1875 
Q 5.515625 13.8125 5.515625 26.8125 
Q 5.515625 40.234375 12.765625 48.109375 
Q 20.015625 56 32.328125 56 
Q 43.359375 56 49.78125 48.890625 
Q 56.203125 41.796875 56.203125 29.59375 
z
M 47.21875 32.234375 
Q 47.125 39.59375 43.09375 43.984375 
Q 39.0625 48.390625 32.421875 48.390625 
Q 24.90625 48.390625 20.390625 44.140625 
Q 15.875 39.890625 15.1875 32.171875 
z
" id="DejaVuSans-101"/>
     </defs>
     <use xlink:href="#DejaVuSans-80"/>
     <use x="56.677734" xlink:href="#DejaVuSans-111"/>
     <use x="117.859375" xlink:href="#DejaVuSans-115"/>
     <use x="169.958984" xlink:href="#DejaVuSans-105"/>
     <use x="197.742188" xlink:href="#DejaVuSans-116"/>
     <use x="236.951172" xlink:href="#DejaVuSans-105"/>
     <use x="264.734375" xlink:href="#DejaVuSans-111"/>
     <use x="325.916016" xlink:href="#DejaVuSans-110"/>
     <use x="389.294922" xlink:href="#DejaVuSans-32"/>
     <use x="421.082031" xlink:href="#DejaVuSans-118"/>
     <use x="480.261719" xlink:href="#DejaVuSans-97"/>
     <use x="541.541016" xlink:href="#DejaVuSans-108"/>
     <use x="569.324219" xlink:href="#DejaVuSans-117"/>
     <use x="632.703125" xlink:href="#DejaVuSans-101"/>
     <use x="694.226562" xlink:href="#DejaVuSans-115"/>
    </g>
   </g>
   <g id="legend_1">
    <g id="line2d_26">
     <path d="M 528.700703 293.224439 
L 539.700703 293.224439 
" style="fill:none;stroke:#4c72b0;stroke-linecap:round;stroke-width:0.75;"/>
    </g>
    <g id="line2d_27"/>
    <g id="text_17">
     <!-- sin, 0 -->
     <g style="fill:#262626;" transform="translate(544.100703 295.149439)scale(0.055 -0.055)">
      <defs>
       <path d="M 11.71875 12.40625 
L 22.015625 12.40625 
L 22.015625 4 
L 14.015625 -11.625 
L 7.71875 -11.625 
L 11.71875 4 
z
" id="DejaVuSans-44"/>
      </defs>
      <use xlink:href="#DejaVuSans-115"/>
      <use x="52.099609" xlink:href="#DejaVuSans-105"/>
      <use x="79.882812" xlink:href="#DejaVuSans-110"/>
      <use x="143.261719" xlink:href="#DejaVuSans-44"/>
      <use x="175.048828" xlink:href="#DejaVuSans-32"/>
      <use x="206.835938" xlink:href="#DejaVuSans-48"/>
     </g>
    </g>
    <g id="line2d_28">
     <path d="M 528.700703 301.297408 
L 539.700703 301.297408 
" style="fill:none;stroke:#dd8452;stroke-linecap:round;stroke-width:0.75;"/>
    </g>
    <g id="line2d_29"/>
    <g id="text_18">
     <!-- cos, 0 -->
     <g style="fill:#262626;" transform="translate(544.100703 303.222408)scale(0.055 -0.055)">
      <defs>
       <path d="M 48.78125 52.59375 
L 48.78125 44.1875 
Q 44.96875 46.296875 41.140625 47.34375 
Q 37.3125 48.390625 33.40625 48.390625 
Q 24.65625 48.390625 19.8125 42.84375 
Q 14.984375 37.3125 14.984375 27.296875 
Q 14.984375 17.28125 19.8125 11.734375 
Q 24.65625 6.203125 33.40625 6.203125 
Q 37.3125 6.203125 41.140625 7.25 
Q 44.96875 8.296875 48.78125 10.40625 
L 48.78125 2.09375 
Q 45.015625 0.34375 40.984375 -0.53125 
Q 36.96875 -1.421875 32.421875 -1.421875 
Q 20.0625 -1.421875 12.78125 6.34375 
Q 5.515625 14.109375 5.515625 27.296875 
Q 5.515625 40.671875 12.859375 48.328125 
Q 20.21875 56 33.015625 56 
Q 37.15625 56 41.109375 55.140625 
Q 45.0625 54.296875 48.78125 52.59375 
z
" id="DejaVuSans-99"/>
      </defs>
      <use xlink:href="#DejaVuSans-99"/>
      <use x="54.980469" xlink:href="#DejaVuSans-111"/>
      <use x="116.162109" xlink:href="#DejaVuSans-115"/>
      <use x="168.261719" xlink:href="#DejaVuSans-44"/>
      <use x="200.048828" xlink:href="#DejaVuSans-32"/>
      <use x="231.835938" xlink:href="#DejaVuSans-48"/>
     </g>
    </g>
    <g id="line2d_30">
     <path d="M 528.700703 309.370377 
L 539.700703 309.370377 
" style="fill:none;stroke:#55a868;stroke-linecap:round;stroke-width:0.75;"/>
    </g>
    <g id="line2d_31"/>
    <g id="text_19">
     <!-- sin, 10 -->
     <g style="fill:#262626;" transform="translate(544.100703 311.295377)scale(0.055 -0.055)">
      <use xlink:href="#DejaVuSans-115"/>
      <use x="52.099609" xlink:href="#DejaVuSans-105"/>
      <use x="79.882812" xlink:href="#DejaVuSans-110"/>
      <use x="143.261719" xlink:href="#DejaVuSans-44"/>
      <use x="175.048828" xlink:href="#DejaVuSans-32"/>
      <use x="206.835938" xlink:href="#DejaVuSans-49"/>
      <use x="270.458984" xlink:href="#DejaVuSans-48"/>
     </g>
    </g>
    <g id="line2d_32">
     <path d="M 528.700703 317.443346 
L 539.700703 317.443346 
" style="fill:none;stroke:#c44e52;stroke-linecap:round;stroke-width:0.75;"/>
    </g>
    <g id="line2d_33"/>
    <g id="text_20">
     <!-- cos, 10 -->
     <g style="fill:#262626;" transform="translate(544.100703 319.368346)scale(0.055 -0.055)">
      <use xlink:href="#DejaVuSans-99"/>
      <use x="54.980469" xlink:href="#DejaVuSans-111"/>
      <use x="116.162109" xlink:href="#DejaVuSans-115"/>
      <use x="168.261719" xlink:href="#DejaVuSans-44"/>
      <use x="200.048828" xlink:href="#DejaVuSans-32"/>
      <use x="231.835938" xlink:href="#DejaVuSans-49"/>
      <use x="295.458984" xlink:href="#DejaVuSans-48"/>
     </g>
    </g>
    <g id="line2d_34">
     <path d="M 528.700703 325.516314 
L 539.700703 325.516314 
" style="fill:none;stroke:#8172b3;stroke-linecap:round;stroke-width:0.75;"/>
    </g>
    <g id="line2d_35"/>
    <g id="text_21">
     <!-- sin, 20 -->
     <g style="fill:#262626;" transform="translate(544.100703 327.441314)scale(0.055 -0.055)">
      <use xlink:href="#DejaVuSans-115"/>
      <use x="52.099609" xlink:href="#DejaVuSans-105"/>
      <use x="79.882812" xlink:href="#DejaVuSans-110"/>
      <use x="143.261719" xlink:href="#DejaVuSans-44"/>
      <use x="175.048828" xlink:href="#DejaVuSans-32"/>
      <use x="206.835938" xlink:href="#DejaVuSans-50"/>
      <use x="270.458984" xlink:href="#DejaVuSans-48"/>
     </g>
    </g>
    <g id="line2d_36">
     <path d="M 528.700703 333.589283 
L 539.700703 333.589283 
" style="fill:none;stroke:#937860;stroke-linecap:round;stroke-width:0.75;"/>
    </g>
    <g id="line2d_37"/>
    <g id="text_22">
     <!-- cos, 20 -->
     <g style="fill:#262626;" transform="translate(544.100703 335.514283)scale(0.055 -0.055)">
      <use xlink:href="#DejaVuSans-99"/>
      <use x="54.980469" xlink:href="#DejaVuSans-111"/>
      <use x="116.162109" xlink:href="#DejaVuSans-115"/>
      <use x="168.261719" xlink:href="#DejaVuSans-44"/>
      <use x="200.048828" xlink:href="#DejaVuSans-32"/>
      <use x="231.835938" xlink:href="#DejaVuSans-50"/>
      <use x="295.458984" xlink:href="#DejaVuSans-48"/>
     </g>
    </g>
    <g id="line2d_38">
     <path d="M 528.700703 341.662252 
L 539.700703 341.662252 
" style="fill:none;stroke:#da8bc3;stroke-linecap:round;stroke-width:0.75;"/>
    </g>
    <g id="line2d_39"/>
    <g id="text_23">
     <!-- sin, 30 -->
     <g style="fill:#262626;" transform="translate(544.100703 343.587252)scale(0.055 -0.055)">
      <defs>
       <path d="M 40.578125 39.3125 
Q 47.65625 37.796875 51.625 33 
Q 55.609375 28.21875 55.609375 21.1875 
Q 55.609375 10.40625 48.1875 4.484375 
Q 40.765625 -1.421875 27.09375 -1.421875 
Q 22.515625 -1.421875 17.65625 -0.515625 
Q 12.796875 0.390625 7.625 2.203125 
L 7.625 11.71875 
Q 11.71875 9.328125 16.59375 8.109375 
Q 21.484375 6.890625 26.8125 6.890625 
Q 36.078125 6.890625 40.9375 10.546875 
Q 45.796875 14.203125 45.796875 21.1875 
Q 45.796875 27.640625 41.28125 31.265625 
Q 36.765625 34.90625 28.71875 34.90625 
L 20.21875 34.90625 
L 20.21875 43.015625 
L 29.109375 43.015625 
Q 36.375 43.015625 40.234375 45.921875 
Q 44.09375 48.828125 44.09375 54.296875 
Q 44.09375 59.90625 40.109375 62.90625 
Q 36.140625 65.921875 28.71875 65.921875 
Q 24.65625 65.921875 20.015625 65.03125 
Q 15.375 64.15625 9.8125 62.3125 
L 9.8125 71.09375 
Q 15.4375 72.65625 20.34375 73.4375 
Q 25.25 74.21875 29.59375 74.21875 
Q 40.828125 74.21875 47.359375 69.109375 
Q 53.90625 64.015625 53.90625 55.328125 
Q 53.90625 49.265625 50.4375 45.09375 
Q 46.96875 40.921875 40.578125 39.3125 
z
" id="DejaVuSans-51"/>
      </defs>
      <use xlink:href="#DejaVuSans-115"/>
      <use x="52.099609" xlink:href="#DejaVuSans-105"/>
      <use x="79.882812" xlink:href="#DejaVuSans-110"/>
      <use x="143.261719" xlink:href="#DejaVuSans-44"/>
      <use x="175.048828" xlink:href="#DejaVuSans-32"/>
      <use x="206.835938" xlink:href="#DejaVuSans-51"/>
      <use x="270.458984" xlink:href="#DejaVuSans-48"/>
     </g>
    </g>
    <g id="line2d_40">
     <path d="M 528.700703 349.735221 
L 539.700703 349.735221 
" style="fill:none;stroke:#8c8c8c;stroke-linecap:round;stroke-width:0.75;"/>
    </g>
    <g id="line2d_41"/>
    <g id="text_24">
     <!-- cos, 30 -->
     <g style="fill:#262626;" transform="translate(544.100703 351.660221)scale(0.055 -0.055)">
      <use xlink:href="#DejaVuSans-99"/>
      <use x="54.980469" xlink:href="#DejaVuSans-111"/>
      <use x="116.162109" xlink:href="#DejaVuSans-115"/>
      <use x="168.261719" xlink:href="#DejaVuSans-44"/>
      <use x="200.048828" xlink:href="#DejaVuSans-32"/>
      <use x="231.835938" xlink:href="#DejaVuSans-51"/>
      <use x="295.458984" xlink:href="#DejaVuSans-48"/>
     </g>
    </g>
    <g id="line2d_42">
     <path d="M 528.700703 357.808189 
L 539.700703 357.808189 
" style="fill:none;stroke:#ccb974;stroke-linecap:round;stroke-width:0.75;"/>
    </g>
    <g id="line2d_43"/>
    <g id="text_25">
     <!-- sin, 40 -->
     <g style="fill:#262626;" transform="translate(544.100703 359.733189)scale(0.055 -0.055)">
      <defs>
       <path d="M 37.796875 64.3125 
L 12.890625 25.390625 
L 37.796875 25.390625 
z
M 35.203125 72.90625 
L 47.609375 72.90625 
L 47.609375 25.390625 
L 58.015625 25.390625 
L 58.015625 17.1875 
L 47.609375 17.1875 
L 47.609375 0 
L 37.796875 0 
L 37.796875 17.1875 
L 4.890625 17.1875 
L 4.890625 26.703125 
z
" id="DejaVuSans-52"/>
      </defs>
      <use xlink:href="#DejaVuSans-115"/>
      <use x="52.099609" xlink:href="#DejaVuSans-105"/>
      <use x="79.882812" xlink:href="#DejaVuSans-110"/>
      <use x="143.261719" xlink:href="#DejaVuSans-44"/>
      <use x="175.048828" xlink:href="#DejaVuSans-32"/>
      <use x="206.835938" xlink:href="#DejaVuSans-52"/>
      <use x="270.458984" xlink:href="#DejaVuSans-48"/>
     </g>
    </g>
    <g id="line2d_44">
     <path d="M 528.700703 365.881158 
L 539.700703 365.881158 
" style="fill:none;stroke:#64b5cd;stroke-linecap:round;stroke-width:0.75;"/>
    </g>
    <g id="line2d_45"/>
    <g id="text_26">
     <!-- cos, 40 -->
     <g style="fill:#262626;" transform="translate(544.100703 367.806158)scale(0.055 -0.055)">
      <use xlink:href="#DejaVuSans-99"/>
      <use x="54.980469" xlink:href="#DejaVuSans-111"/>
      <use x="116.162109" xlink:href="#DejaVuSans-115"/>
      <use x="168.261719" xlink:href="#DejaVuSans-44"/>
      <use x="200.048828" xlink:href="#DejaVuSans-32"/>
      <use x="231.835938" xlink:href="#DejaVuSans-52"/>
      <use x="295.458984" xlink:href="#DejaVuSans-48"/>
     </g>
    </g>
   </g>
  </g>
 </g>
 <defs>
  <clipPath id="pa3c9d5ca1a">
   <rect height="356.919975" width="535.982457" x="32.817543" y="16.980011"/>
  </clipPath>
 </defs>
</svg>
