<?xml version="1.0" encoding="utf-8" standalone="no"?>
<!DOCTYPE svg PUBLIC "-//W3C//DTD SVG 1.1//EN"
  "http://www.w3.org/Graphics/SVG/1.1/DTD/svg11.dtd">
<!-- Created with matplotlib (https://matplotlib.org/) -->
<svg height="287.28pt" version="1.1" viewBox="0 0 575.28 287.28" width="575.28pt" xmlns="http://www.w3.org/2000/svg" xmlns:xlink="http://www.w3.org/1999/xlink">
 <metadata>
  <rdf:RDF xmlns:cc="http://creativecommons.org/ns#" xmlns:dc="http://purl.org/dc/elements/1.1/" xmlns:rdf="http://www.w3.org/1999/02/22-rdf-syntax-ns#">
   <cc:Work>
    <dc:type rdf:resource="http://purl.org/dc/dcmitype/StillImage"/>
    <dc:date>2021-04-19T11:04:36.905607</dc:date>
    <dc:format>image/svg+xml</dc:format>
    <dc:creator>
     <cc:Agent>
      <dc:title>Matplotlib v3.3.2, https://matplotlib.org/</dc:title>
     </cc:Agent>
    </dc:creator>
   </cc:Work>
  </rdf:RDF>
 </metadata>
 <defs>
  <style type="text/css">*{stroke-linecap:butt;stroke-linejoin:round;}</style>
 </defs>
 <g id="figure_1">
  <g id="patch_1">
   <path d="M 0 287.28 
L 575.28 287.28 
L 575.28 0 
L 0 0 
z
" style="fill:#ffffff;"/>
  </g>
  <g id="axes_1">
   <g id="patch_2">
    <path d="M 47.540566 245.78395 
L 274.306667 245.78395 
L 274.306667 25.735523 
L 47.540566 25.735523 
z
" style="fill:#ffffff;"/>
   </g>
   <g id="PolyCollection_1">
    <defs>
     <path d="M 47.540566 -41.49605 
L 47.540566 -41.49605 
L 47.653949 -41.49605 
L 47.653949 -48.097503 
L 49.58146 -48.097503 
L 49.58146 -52.498472 
L 50.148376 -52.498472 
L 50.148376 -54.698956 
L 50.261759 -54.698956 
L 50.261759 -59.099924 
L 50.715291 -59.099924 
L 50.715291 -61.300409 
L 50.942057 -61.300409 
L 50.942057 -63.500893 
L 51.508972 -63.500893 
L 51.508972 -67.901861 
L 51.849121 -67.901861 
L 51.849121 -70.102346 
L 52.642803 -70.102346 
L 52.642803 -72.30283 
L 53.66325 -72.30283 
L 53.66325 -74.503314 
L 54.003399 -74.503314 
L 54.003399 -76.703799 
L 54.570315 -76.703799 
L 54.570315 -78.904283 
L 55.250613 -78.904283 
L 55.250613 -81.104767 
L 55.590762 -81.104767 
L 55.590762 -83.305251 
L 56.724593 -83.305251 
L 56.724593 -85.505736 
L 57.064742 -85.505736 
L 57.064742 -87.70622 
L 57.631657 -87.70622 
L 57.631657 -89.906704 
L 58.765488 -89.906704 
L 58.765488 -92.107188 
L 59.21902 -92.107188 
L 59.21902 -94.307673 
L 60.466233 -94.307673 
L 60.466233 -96.508157 
L 60.692999 -96.508157 
L 60.692999 -98.708641 
L 60.806382 -98.708641 
L 60.806382 -100.909126 
L 61.940213 -100.909126 
L 61.940213 -103.10961 
L 63.640959 -103.10961 
L 63.640959 -105.310094 
L 65.90862 -105.310094 
L 65.90862 -107.510578 
L 66.022003 -107.510578 
L 66.022003 -109.711063 
L 66.248769 -109.711063 
L 66.248769 -111.911547 
L 67.382599 -111.911547 
L 67.382599 -116.312515 
L 68.969962 -116.312515 
L 68.969962 -118.513 
L 69.083345 -118.513 
L 69.083345 -120.713484 
L 70.103793 -120.713484 
L 70.103793 -122.913968 
L 70.330559 -122.913968 
L 70.330559 -125.114452 
L 70.557325 -125.114452 
L 70.557325 -127.314937 
L 70.784091 -127.314937 
L 70.784091 -129.515421 
L 71.577772 -129.515421 
L 71.577772 -131.715905 
L 72.484837 -131.715905 
L 72.484837 -133.91639 
L 73.73205 -133.91639 
L 73.73205 -136.116874 
L 73.958816 -136.116874 
L 73.958816 -138.317358 
L 75.772945 -138.317358 
L 75.772945 -140.517842 
L 76.793393 -140.517842 
L 76.793393 -142.718327 
L 76.906776 -142.718327 
L 76.906776 -144.918811 
L 78.267372 -144.918811 
L 78.267372 -149.319779 
L 80.535033 -149.319779 
L 80.535033 -151.520264 
L 83.02946 -151.520264 
L 83.02946 -153.720748 
L 84.616823 -153.720748 
L 84.616823 -155.921232 
L 85.070355 -155.921232 
L 85.070355 -158.121717 
L 86.771101 -158.121717 
L 86.771101 -160.322201 
L 88.018315 -160.322201 
L 88.018315 -162.522685 
L 88.358464 -162.522685 
L 88.358464 -164.723169 
L 92.66702 -164.723169 
L 92.66702 -166.923654 
L 95.27483 -166.923654 
L 95.27483 -169.124138 
L 96.181894 -169.124138 
L 96.181894 -171.324622 
L 96.295277 -171.324622 
L 96.295277 -173.525106 
L 100.717216 -173.525106 
L 100.717216 -175.725591 
L 100.943982 -175.725591 
L 100.943982 -177.926075 
L 101.284132 -177.926075 
L 101.284132 -180.126559 
L 104.912389 -180.126559 
L 104.912389 -182.327043 
L 106.613135 -182.327043 
L 106.613135 -184.527528 
L 107.18005 -184.527528 
L 107.18005 -186.728012 
L 108.200498 -186.728012 
L 108.200498 -188.928496 
L 108.313881 -188.928496 
L 108.313881 -191.128981 
L 112.73582 -191.128981 
L 112.73582 -193.329465 
L 113.642884 -193.329465 
L 113.642884 -195.529949 
L 114.663332 -195.529949 
L 114.663332 -197.730433 
L 118.971888 -197.730433 
L 118.971888 -199.930918 
L 119.652186 -199.930918 
L 119.652186 -202.131402 
L 120.332484 -202.131402 
L 120.332484 -204.331886 
L 121.693081 -204.331886 
L 121.693081 -206.53237 
L 123.50721 -206.53237 
L 123.50721 -208.732855 
L 124.754423 -208.732855 
L 124.754423 -210.933339 
L 131.670789 -210.933339 
L 131.670789 -213.133823 
L 132.351088 -213.133823 
L 132.351088 -215.334308 
L 134.051833 -215.334308 
L 134.051833 -217.534792 
L 137.680091 -217.534792 
L 137.680091 -219.735276 
L 138.360389 -219.735276 
L 138.360389 -221.93576 
L 144.029542 -221.93576 
L 144.029542 -224.136245 
L 144.369691 -224.136245 
L 144.369691 -226.336729 
L 144.936606 -226.336729 
L 144.936606 -228.537213 
L 146.523969 -228.537213 
L 146.523969 -230.737697 
L 147.997949 -230.737697 
L 147.997949 -232.938182 
L 152.079738 -232.938182 
L 152.079738 -235.138666 
L 158.542572 -235.138666 
L 158.542572 -237.33915 
L 165.685705 -237.33915 
L 165.685705 -239.539634 
L 205.823305 -239.539634 
L 205.823305 -241.740119 
L 208.99803 -241.740119 
L 208.99803 -243.940603 
L 211.60584 -243.940603 
L 211.60584 -246.141087 
L 213.986884 -246.141087 
L 213.986884 -248.341572 
L 222.603996 -248.341572 
L 222.603996 -250.542056 
L 223.511061 -250.542056 
L 223.511061 -252.74254 
L 246.301054 -252.74254 
L 246.301054 -254.943024 
L 251.403291 -254.943024 
L 251.403291 -257.143509 
L 254.578016 -257.143509 
L 254.578016 -259.343993 
L 263.421894 -259.343993 
L 263.421894 -261.544477 
L 274.306667 -261.544477 
L 274.306667 -41.49605 
L 274.306667 -41.49605 
L 263.421894 -41.49605 
L 263.421894 -41.49605 
L 254.578016 -41.49605 
L 254.578016 -41.49605 
L 251.403291 -41.49605 
L 251.403291 -41.49605 
L 246.301054 -41.49605 
L 246.301054 -41.49605 
L 223.511061 -41.49605 
L 223.511061 -41.49605 
L 222.603996 -41.49605 
L 222.603996 -41.49605 
L 213.986884 -41.49605 
L 213.986884 -41.49605 
L 211.60584 -41.49605 
L 211.60584 -41.49605 
L 208.99803 -41.49605 
L 208.99803 -41.49605 
L 205.823305 -41.49605 
L 205.823305 -41.49605 
L 165.685705 -41.49605 
L 165.685705 -41.49605 
L 158.542572 -41.49605 
L 158.542572 -41.49605 
L 152.079738 -41.49605 
L 152.079738 -41.49605 
L 147.997949 -41.49605 
L 147.997949 -41.49605 
L 146.523969 -41.49605 
L 146.523969 -41.49605 
L 144.936606 -41.49605 
L 144.936606 -41.49605 
L 144.369691 -41.49605 
L 144.369691 -41.49605 
L 144.029542 -41.49605 
L 144.029542 -41.49605 
L 138.360389 -41.49605 
L 138.360389 -41.49605 
L 137.680091 -41.49605 
L 137.680091 -41.49605 
L 134.051833 -41.49605 
L 134.051833 -41.49605 
L 132.351088 -41.49605 
L 132.351088 -41.49605 
L 131.670789 -41.49605 
L 131.670789 -41.49605 
L 124.754423 -41.49605 
L 124.754423 -41.49605 
L 123.50721 -41.49605 
L 123.50721 -41.49605 
L 121.693081 -41.49605 
L 121.693081 -41.49605 
L 120.332484 -41.49605 
L 120.332484 -41.49605 
L 119.652186 -41.49605 
L 119.652186 -41.49605 
L 118.971888 -41.49605 
L 118.971888 -41.49605 
L 114.663332 -41.49605 
L 114.663332 -41.49605 
L 113.642884 -41.49605 
L 113.642884 -41.49605 
L 112.73582 -41.49605 
L 112.73582 -41.49605 
L 108.313881 -41.49605 
L 108.313881 -41.49605 
L 108.200498 -41.49605 
L 108.200498 -41.49605 
L 107.18005 -41.49605 
L 107.18005 -41.49605 
L 106.613135 -41.49605 
L 106.613135 -41.49605 
L 104.912389 -41.49605 
L 104.912389 -41.49605 
L 101.284132 -41.49605 
L 101.284132 -41.49605 
L 100.943982 -41.49605 
L 100.943982 -41.49605 
L 100.717216 -41.49605 
L 100.717216 -41.49605 
L 96.295277 -41.49605 
L 96.295277 -41.49605 
L 96.181894 -41.49605 
L 96.181894 -41.49605 
L 95.27483 -41.49605 
L 95.27483 -41.49605 
L 92.66702 -41.49605 
L 92.66702 -41.49605 
L 88.358464 -41.49605 
L 88.358464 -41.49605 
L 88.018315 -41.49605 
L 88.018315 -41.49605 
L 86.771101 -41.49605 
L 86.771101 -41.49605 
L 85.070355 -41.49605 
L 85.070355 -41.49605 
L 84.616823 -41.49605 
L 84.616823 -41.49605 
L 83.02946 -41.49605 
L 83.02946 -41.49605 
L 80.535033 -41.49605 
L 80.535033 -41.49605 
L 78.267372 -41.49605 
L 78.267372 -41.49605 
L 76.906776 -41.49605 
L 76.906776 -41.49605 
L 76.793393 -41.49605 
L 76.793393 -41.49605 
L 75.772945 -41.49605 
L 75.772945 -41.49605 
L 73.958816 -41.49605 
L 73.958816 -41.49605 
L 73.73205 -41.49605 
L 73.73205 -41.49605 
L 72.484837 -41.49605 
L 72.484837 -41.49605 
L 71.577772 -41.49605 
L 71.577772 -41.49605 
L 70.784091 -41.49605 
L 70.784091 -41.49605 
L 70.557325 -41.49605 
L 70.557325 -41.49605 
L 70.330559 -41.49605 
L 70.330559 -41.49605 
L 70.103793 -41.49605 
L 70.103793 -41.49605 
L 69.083345 -41.49605 
L 69.083345 -41.49605 
L 68.969962 -41.49605 
L 68.969962 -41.49605 
L 67.382599 -41.49605 
L 67.382599 -41.49605 
L 66.248769 -41.49605 
L 66.248769 -41.49605 
L 66.022003 -41.49605 
L 66.022003 -41.49605 
L 65.90862 -41.49605 
L 65.90862 -41.49605 
L 63.640959 -41.49605 
L 63.640959 -41.49605 
L 61.940213 -41.49605 
L 61.940213 -41.49605 
L 60.806382 -41.49605 
L 60.806382 -41.49605 
L 60.692999 -41.49605 
L 60.692999 -41.49605 
L 60.466233 -41.49605 
L 60.466233 -41.49605 
L 59.21902 -41.49605 
L 59.21902 -41.49605 
L 58.765488 -41.49605 
L 58.765488 -41.49605 
L 57.631657 -41.49605 
L 57.631657 -41.49605 
L 57.064742 -41.49605 
L 57.064742 -41.49605 
L 56.724593 -41.49605 
L 56.724593 -41.49605 
L 55.590762 -41.49605 
L 55.590762 -41.49605 
L 55.250613 -41.49605 
L 55.250613 -41.49605 
L 54.570315 -41.49605 
L 54.570315 -41.49605 
L 54.003399 -41.49605 
L 54.003399 -41.49605 
L 53.66325 -41.49605 
L 53.66325 -41.49605 
L 52.642803 -41.49605 
L 52.642803 -41.49605 
L 51.849121 -41.49605 
L 51.849121 -41.49605 
L 51.508972 -41.49605 
L 51.508972 -41.49605 
L 50.942057 -41.49605 
L 50.942057 -41.49605 
L 50.715291 -41.49605 
L 50.715291 -41.49605 
L 50.261759 -41.49605 
L 50.261759 -41.49605 
L 50.148376 -41.49605 
L 50.148376 -41.49605 
L 49.58146 -41.49605 
L 49.58146 -41.49605 
L 47.653949 -41.49605 
L 47.653949 -41.49605 
L 47.540566 -41.49605 
z
" id="m14413f5f9d" style="stroke:#1f77b4;stroke-opacity:0.3;"/>
    </defs>
    <g clip-path="url(#p14c8b82e7b)">
     <use style="fill:#1f77b4;fill-opacity:0.3;stroke:#1f77b4;stroke-opacity:0.3;" x="0" xlink:href="#m14413f5f9d" y="287.28"/>
    </g>
   </g>
   <g id="matplotlib.axis_1">
    <g id="xtick_1">
     <g id="line2d_1">
      <defs>
       <path d="M 0 0 
L 0 3.5 
" id="m372357deb7" style="stroke:#000000;stroke-width:0.8;"/>
      </defs>
      <g>
       <use style="stroke:#000000;stroke-width:0.8;" x="47.540566" xlink:href="#m372357deb7" y="245.78395"/>
      </g>
     </g>
     <g id="text_1">
      <!-- 0.0 -->
      <g transform="translate(39.589003 260.382387)scale(0.1 -0.1)">
       <defs>
        <path d="M 31.78125 66.40625 
Q 24.171875 66.40625 20.328125 58.90625 
Q 16.5 51.421875 16.5 36.375 
Q 16.5 21.390625 20.328125 13.890625 
Q 24.171875 6.390625 31.78125 6.390625 
Q 39.453125 6.390625 43.28125 13.890625 
Q 47.125 21.390625 47.125 36.375 
Q 47.125 51.421875 43.28125 58.90625 
Q 39.453125 66.40625 31.78125 66.40625 
z
M 31.78125 74.21875 
Q 44.046875 74.21875 50.515625 64.515625 
Q 56.984375 54.828125 56.984375 36.375 
Q 56.984375 17.96875 50.515625 8.265625 
Q 44.046875 -1.421875 31.78125 -1.421875 
Q 19.53125 -1.421875 13.0625 8.265625 
Q 6.59375 17.96875 6.59375 36.375 
Q 6.59375 54.828125 13.0625 64.515625 
Q 19.53125 74.21875 31.78125 74.21875 
z
" id="DejaVuSans-48"/>
        <path d="M 10.6875 12.40625 
L 21 12.40625 
L 21 0 
L 10.6875 0 
z
" id="DejaVuSans-46"/>
       </defs>
       <use xlink:href="#DejaVuSans-48"/>
       <use x="63.623047" xlink:href="#DejaVuSans-46"/>
       <use x="95.410156" xlink:href="#DejaVuSans-48"/>
      </g>
     </g>
    </g>
    <g id="xtick_2">
     <g id="line2d_2">
      <g>
       <use style="stroke:#000000;stroke-width:0.8;" x="92.893786" xlink:href="#m372357deb7" y="245.78395"/>
      </g>
     </g>
     <g id="text_2">
      <!-- 0.2 -->
      <g transform="translate(84.942223 260.382387)scale(0.1 -0.1)">
       <defs>
        <path d="M 19.1875 8.296875 
L 53.609375 8.296875 
L 53.609375 0 
L 7.328125 0 
L 7.328125 8.296875 
Q 12.9375 14.109375 22.625 23.890625 
Q 32.328125 33.6875 34.8125 36.53125 
Q 39.546875 41.84375 41.421875 45.53125 
Q 43.3125 49.21875 43.3125 52.78125 
Q 43.3125 58.59375 39.234375 62.25 
Q 35.15625 65.921875 28.609375 65.921875 
Q 23.96875 65.921875 18.8125 64.3125 
Q 13.671875 62.703125 7.8125 59.421875 
L 7.8125 69.390625 
Q 13.765625 71.78125 18.9375 73 
Q 24.125 74.21875 28.421875 74.21875 
Q 39.75 74.21875 46.484375 68.546875 
Q 53.21875 62.890625 53.21875 53.421875 
Q 53.21875 48.921875 51.53125 44.890625 
Q 49.859375 40.875 45.40625 35.40625 
Q 44.1875 33.984375 37.640625 27.21875 
Q 31.109375 20.453125 19.1875 8.296875 
z
" id="DejaVuSans-50"/>
       </defs>
       <use xlink:href="#DejaVuSans-48"/>
       <use x="63.623047" xlink:href="#DejaVuSans-46"/>
       <use x="95.410156" xlink:href="#DejaVuSans-50"/>
      </g>
     </g>
    </g>
    <g id="xtick_3">
     <g id="line2d_3">
      <g>
       <use style="stroke:#000000;stroke-width:0.8;" x="138.247006" xlink:href="#m372357deb7" y="245.78395"/>
      </g>
     </g>
     <g id="text_3">
      <!-- 0.4 -->
      <g transform="translate(130.295444 260.382387)scale(0.1 -0.1)">
       <defs>
        <path d="M 37.796875 64.3125 
L 12.890625 25.390625 
L 37.796875 25.390625 
z
M 35.203125 72.90625 
L 47.609375 72.90625 
L 47.609375 25.390625 
L 58.015625 25.390625 
L 58.015625 17.1875 
L 47.609375 17.1875 
L 47.609375 0 
L 37.796875 0 
L 37.796875 17.1875 
L 4.890625 17.1875 
L 4.890625 26.703125 
z
" id="DejaVuSans-52"/>
       </defs>
       <use xlink:href="#DejaVuSans-48"/>
       <use x="63.623047" xlink:href="#DejaVuSans-46"/>
       <use x="95.410156" xlink:href="#DejaVuSans-52"/>
      </g>
     </g>
    </g>
    <g id="xtick_4">
     <g id="line2d_4">
      <g>
       <use style="stroke:#000000;stroke-width:0.8;" x="183.600227" xlink:href="#m372357deb7" y="245.78395"/>
      </g>
     </g>
     <g id="text_4">
      <!-- 0.6 -->
      <g transform="translate(175.648664 260.382387)scale(0.1 -0.1)">
       <defs>
        <path d="M 33.015625 40.375 
Q 26.375 40.375 22.484375 35.828125 
Q 18.609375 31.296875 18.609375 23.390625 
Q 18.609375 15.53125 22.484375 10.953125 
Q 26.375 6.390625 33.015625 6.390625 
Q 39.65625 6.390625 43.53125 10.953125 
Q 47.40625 15.53125 47.40625 23.390625 
Q 47.40625 31.296875 43.53125 35.828125 
Q 39.65625 40.375 33.015625 40.375 
z
M 52.59375 71.296875 
L 52.59375 62.3125 
Q 48.875 64.0625 45.09375 64.984375 
Q 41.3125 65.921875 37.59375 65.921875 
Q 27.828125 65.921875 22.671875 59.328125 
Q 17.53125 52.734375 16.796875 39.40625 
Q 19.671875 43.65625 24.015625 45.921875 
Q 28.375 48.1875 33.59375 48.1875 
Q 44.578125 48.1875 50.953125 41.515625 
Q 57.328125 34.859375 57.328125 23.390625 
Q 57.328125 12.15625 50.6875 5.359375 
Q 44.046875 -1.421875 33.015625 -1.421875 
Q 20.359375 -1.421875 13.671875 8.265625 
Q 6.984375 17.96875 6.984375 36.375 
Q 6.984375 53.65625 15.1875 63.9375 
Q 23.390625 74.21875 37.203125 74.21875 
Q 40.921875 74.21875 44.703125 73.484375 
Q 48.484375 72.75 52.59375 71.296875 
z
" id="DejaVuSans-54"/>
       </defs>
       <use xlink:href="#DejaVuSans-48"/>
       <use x="63.623047" xlink:href="#DejaVuSans-46"/>
       <use x="95.410156" xlink:href="#DejaVuSans-54"/>
      </g>
     </g>
    </g>
    <g id="xtick_5">
     <g id="line2d_5">
      <g>
       <use style="stroke:#000000;stroke-width:0.8;" x="228.953447" xlink:href="#m372357deb7" y="245.78395"/>
      </g>
     </g>
     <g id="text_5">
      <!-- 0.8 -->
      <g transform="translate(221.001884 260.382387)scale(0.1 -0.1)">
       <defs>
        <path d="M 31.78125 34.625 
Q 24.75 34.625 20.71875 30.859375 
Q 16.703125 27.09375 16.703125 20.515625 
Q 16.703125 13.921875 20.71875 10.15625 
Q 24.75 6.390625 31.78125 6.390625 
Q 38.8125 6.390625 42.859375 10.171875 
Q 46.921875 13.96875 46.921875 20.515625 
Q 46.921875 27.09375 42.890625 30.859375 
Q 38.875 34.625 31.78125 34.625 
z
M 21.921875 38.8125 
Q 15.578125 40.375 12.03125 44.71875 
Q 8.5 49.078125 8.5 55.328125 
Q 8.5 64.0625 14.71875 69.140625 
Q 20.953125 74.21875 31.78125 74.21875 
Q 42.671875 74.21875 48.875 69.140625 
Q 55.078125 64.0625 55.078125 55.328125 
Q 55.078125 49.078125 51.53125 44.71875 
Q 48 40.375 41.703125 38.8125 
Q 48.828125 37.15625 52.796875 32.3125 
Q 56.78125 27.484375 56.78125 20.515625 
Q 56.78125 9.90625 50.3125 4.234375 
Q 43.84375 -1.421875 31.78125 -1.421875 
Q 19.734375 -1.421875 13.25 4.234375 
Q 6.78125 9.90625 6.78125 20.515625 
Q 6.78125 27.484375 10.78125 32.3125 
Q 14.796875 37.15625 21.921875 38.8125 
z
M 18.3125 54.390625 
Q 18.3125 48.734375 21.84375 45.5625 
Q 25.390625 42.390625 31.78125 42.390625 
Q 38.140625 42.390625 41.71875 45.5625 
Q 45.3125 48.734375 45.3125 54.390625 
Q 45.3125 60.0625 41.71875 63.234375 
Q 38.140625 66.40625 31.78125 66.40625 
Q 25.390625 66.40625 21.84375 63.234375 
Q 18.3125 60.0625 18.3125 54.390625 
z
" id="DejaVuSans-56"/>
       </defs>
       <use xlink:href="#DejaVuSans-48"/>
       <use x="63.623047" xlink:href="#DejaVuSans-46"/>
       <use x="95.410156" xlink:href="#DejaVuSans-56"/>
      </g>
     </g>
    </g>
    <g id="xtick_6">
     <g id="line2d_6">
      <g>
       <use style="stroke:#000000;stroke-width:0.8;" x="274.306667" xlink:href="#m372357deb7" y="245.78395"/>
      </g>
     </g>
     <g id="text_6">
      <!-- 1.0 -->
      <g transform="translate(266.355105 260.382387)scale(0.1 -0.1)">
       <defs>
        <path d="M 12.40625 8.296875 
L 28.515625 8.296875 
L 28.515625 63.921875 
L 10.984375 60.40625 
L 10.984375 69.390625 
L 28.421875 72.90625 
L 38.28125 72.90625 
L 38.28125 8.296875 
L 54.390625 8.296875 
L 54.390625 0 
L 12.40625 0 
z
" id="DejaVuSans-49"/>
       </defs>
       <use xlink:href="#DejaVuSans-49"/>
       <use x="63.623047" xlink:href="#DejaVuSans-46"/>
       <use x="95.410156" xlink:href="#DejaVuSans-48"/>
      </g>
     </g>
    </g>
    <g id="text_7">
     <!-- False Positive Rate -->
     <g transform="translate(114.45721 274.060512)scale(0.1 -0.1)">
      <defs>
       <path d="M 9.8125 72.90625 
L 51.703125 72.90625 
L 51.703125 64.59375 
L 19.671875 64.59375 
L 19.671875 43.109375 
L 48.578125 43.109375 
L 48.578125 34.8125 
L 19.671875 34.8125 
L 19.671875 0 
L 9.8125 0 
z
" id="DejaVuSans-70"/>
       <path d="M 34.28125 27.484375 
Q 23.390625 27.484375 19.1875 25 
Q 14.984375 22.515625 14.984375 16.5 
Q 14.984375 11.71875 18.140625 8.90625 
Q 21.296875 6.109375 26.703125 6.109375 
Q 34.1875 6.109375 38.703125 11.40625 
Q 43.21875 16.703125 43.21875 25.484375 
L 43.21875 27.484375 
z
M 52.203125 31.203125 
L 52.203125 0 
L 43.21875 0 
L 43.21875 8.296875 
Q 40.140625 3.328125 35.546875 0.953125 
Q 30.953125 -1.421875 24.3125 -1.421875 
Q 15.921875 -1.421875 10.953125 3.296875 
Q 6 8.015625 6 15.921875 
Q 6 25.140625 12.171875 29.828125 
Q 18.359375 34.515625 30.609375 34.515625 
L 43.21875 34.515625 
L 43.21875 35.40625 
Q 43.21875 41.609375 39.140625 45 
Q 35.0625 48.390625 27.6875 48.390625 
Q 23 48.390625 18.546875 47.265625 
Q 14.109375 46.140625 10.015625 43.890625 
L 10.015625 52.203125 
Q 14.9375 54.109375 19.578125 55.046875 
Q 24.21875 56 28.609375 56 
Q 40.484375 56 46.34375 49.84375 
Q 52.203125 43.703125 52.203125 31.203125 
z
" id="DejaVuSans-97"/>
       <path d="M 9.421875 75.984375 
L 18.40625 75.984375 
L 18.40625 0 
L 9.421875 0 
z
" id="DejaVuSans-108"/>
       <path d="M 44.28125 53.078125 
L 44.28125 44.578125 
Q 40.484375 46.53125 36.375 47.5 
Q 32.28125 48.484375 27.875 48.484375 
Q 21.1875 48.484375 17.84375 46.4375 
Q 14.5 44.390625 14.5 40.28125 
Q 14.5 37.15625 16.890625 35.375 
Q 19.28125 33.59375 26.515625 31.984375 
L 29.59375 31.296875 
Q 39.15625 29.25 43.1875 25.515625 
Q 47.21875 21.78125 47.21875 15.09375 
Q 47.21875 7.46875 41.1875 3.015625 
Q 35.15625 -1.421875 24.609375 -1.421875 
Q 20.21875 -1.421875 15.453125 -0.5625 
Q 10.6875 0.296875 5.421875 2 
L 5.421875 11.28125 
Q 10.40625 8.6875 15.234375 7.390625 
Q 20.0625 6.109375 24.8125 6.109375 
Q 31.15625 6.109375 34.5625 8.28125 
Q 37.984375 10.453125 37.984375 14.40625 
Q 37.984375 18.0625 35.515625 20.015625 
Q 33.0625 21.96875 24.703125 23.78125 
L 21.578125 24.515625 
Q 13.234375 26.265625 9.515625 29.90625 
Q 5.8125 33.546875 5.8125 39.890625 
Q 5.8125 47.609375 11.28125 51.796875 
Q 16.75 56 26.8125 56 
Q 31.78125 56 36.171875 55.265625 
Q 40.578125 54.546875 44.28125 53.078125 
z
" id="DejaVuSans-115"/>
       <path d="M 56.203125 29.59375 
L 56.203125 25.203125 
L 14.890625 25.203125 
Q 15.484375 15.921875 20.484375 11.0625 
Q 25.484375 6.203125 34.421875 6.203125 
Q 39.59375 6.203125 44.453125 7.46875 
Q 49.3125 8.734375 54.109375 11.28125 
L 54.109375 2.78125 
Q 49.265625 0.734375 44.1875 -0.34375 
Q 39.109375 -1.421875 33.890625 -1.421875 
Q 20.796875 -1.421875 13.15625 6.1875 
Q 5.515625 13.8125 5.515625 26.8125 
Q 5.515625 40.234375 12.765625 48.109375 
Q 20.015625 56 32.328125 56 
Q 43.359375 56 49.78125 48.890625 
Q 56.203125 41.796875 56.203125 29.59375 
z
M 47.21875 32.234375 
Q 47.125 39.59375 43.09375 43.984375 
Q 39.0625 48.390625 32.421875 48.390625 
Q 24.90625 48.390625 20.390625 44.140625 
Q 15.875 39.890625 15.1875 32.171875 
z
" id="DejaVuSans-101"/>
       <path id="DejaVuSans-32"/>
       <path d="M 19.671875 64.796875 
L 19.671875 37.40625 
L 32.078125 37.40625 
Q 38.96875 37.40625 42.71875 40.96875 
Q 46.484375 44.53125 46.484375 51.125 
Q 46.484375 57.671875 42.71875 61.234375 
Q 38.96875 64.796875 32.078125 64.796875 
z
M 9.8125 72.90625 
L 32.078125 72.90625 
Q 44.34375 72.90625 50.609375 67.359375 
Q 56.890625 61.8125 56.890625 51.125 
Q 56.890625 40.328125 50.609375 34.8125 
Q 44.34375 29.296875 32.078125 29.296875 
L 19.671875 29.296875 
L 19.671875 0 
L 9.8125 0 
z
" id="DejaVuSans-80"/>
       <path d="M 30.609375 48.390625 
Q 23.390625 48.390625 19.1875 42.75 
Q 14.984375 37.109375 14.984375 27.296875 
Q 14.984375 17.484375 19.15625 11.84375 
Q 23.34375 6.203125 30.609375 6.203125 
Q 37.796875 6.203125 41.984375 11.859375 
Q 46.1875 17.53125 46.1875 27.296875 
Q 46.1875 37.015625 41.984375 42.703125 
Q 37.796875 48.390625 30.609375 48.390625 
z
M 30.609375 56 
Q 42.328125 56 49.015625 48.375 
Q 55.71875 40.765625 55.71875 27.296875 
Q 55.71875 13.875 49.015625 6.21875 
Q 42.328125 -1.421875 30.609375 -1.421875 
Q 18.84375 -1.421875 12.171875 6.21875 
Q 5.515625 13.875 5.515625 27.296875 
Q 5.515625 40.765625 12.171875 48.375 
Q 18.84375 56 30.609375 56 
z
" id="DejaVuSans-111"/>
       <path d="M 9.421875 54.6875 
L 18.40625 54.6875 
L 18.40625 0 
L 9.421875 0 
z
M 9.421875 75.984375 
L 18.40625 75.984375 
L 18.40625 64.59375 
L 9.421875 64.59375 
z
" id="DejaVuSans-105"/>
       <path d="M 18.3125 70.21875 
L 18.3125 54.6875 
L 36.8125 54.6875 
L 36.8125 47.703125 
L 18.3125 47.703125 
L 18.3125 18.015625 
Q 18.3125 11.328125 20.140625 9.421875 
Q 21.96875 7.515625 27.59375 7.515625 
L 36.8125 7.515625 
L 36.8125 0 
L 27.59375 0 
Q 17.1875 0 13.234375 3.875 
Q 9.28125 7.765625 9.28125 18.015625 
L 9.28125 47.703125 
L 2.6875 47.703125 
L 2.6875 54.6875 
L 9.28125 54.6875 
L 9.28125 70.21875 
z
" id="DejaVuSans-116"/>
       <path d="M 2.984375 54.6875 
L 12.5 54.6875 
L 29.59375 8.796875 
L 46.6875 54.6875 
L 56.203125 54.6875 
L 35.6875 0 
L 23.484375 0 
z
" id="DejaVuSans-118"/>
       <path d="M 44.390625 34.1875 
Q 47.5625 33.109375 50.5625 29.59375 
Q 53.5625 26.078125 56.59375 19.921875 
L 66.609375 0 
L 56 0 
L 46.6875 18.703125 
Q 43.0625 26.03125 39.671875 28.421875 
Q 36.28125 30.8125 30.421875 30.8125 
L 19.671875 30.8125 
L 19.671875 0 
L 9.8125 0 
L 9.8125 72.90625 
L 32.078125 72.90625 
Q 44.578125 72.90625 50.734375 67.671875 
Q 56.890625 62.453125 56.890625 51.90625 
Q 56.890625 45.015625 53.6875 40.46875 
Q 50.484375 35.9375 44.390625 34.1875 
z
M 19.671875 64.796875 
L 19.671875 38.921875 
L 32.078125 38.921875 
Q 39.203125 38.921875 42.84375 42.21875 
Q 46.484375 45.515625 46.484375 51.90625 
Q 46.484375 58.296875 42.84375 61.546875 
Q 39.203125 64.796875 32.078125 64.796875 
z
" id="DejaVuSans-82"/>
      </defs>
      <use xlink:href="#DejaVuSans-70"/>
      <use x="48.394531" xlink:href="#DejaVuSans-97"/>
      <use x="109.673828" xlink:href="#DejaVuSans-108"/>
      <use x="137.457031" xlink:href="#DejaVuSans-115"/>
      <use x="189.556641" xlink:href="#DejaVuSans-101"/>
      <use x="251.080078" xlink:href="#DejaVuSans-32"/>
      <use x="282.867188" xlink:href="#DejaVuSans-80"/>
      <use x="339.544922" xlink:href="#DejaVuSans-111"/>
      <use x="400.726562" xlink:href="#DejaVuSans-115"/>
      <use x="452.826172" xlink:href="#DejaVuSans-105"/>
      <use x="480.609375" xlink:href="#DejaVuSans-116"/>
      <use x="519.818359" xlink:href="#DejaVuSans-105"/>
      <use x="547.601562" xlink:href="#DejaVuSans-118"/>
      <use x="606.78125" xlink:href="#DejaVuSans-101"/>
      <use x="668.304688" xlink:href="#DejaVuSans-32"/>
      <use x="700.091797" xlink:href="#DejaVuSans-82"/>
      <use x="767.324219" xlink:href="#DejaVuSans-97"/>
      <use x="828.603516" xlink:href="#DejaVuSans-116"/>
      <use x="867.8125" xlink:href="#DejaVuSans-101"/>
     </g>
    </g>
   </g>
   <g id="matplotlib.axis_2">
    <g id="ytick_1">
     <g id="line2d_7">
      <defs>
       <path d="M 0 0 
L -3.5 0 
" id="m90fe205226" style="stroke:#000000;stroke-width:0.8;"/>
      </defs>
      <g>
       <use style="stroke:#000000;stroke-width:0.8;" x="47.540566" xlink:href="#m90fe205226" y="245.78395"/>
      </g>
     </g>
     <g id="text_8">
      <!-- 0.0 -->
      <g transform="translate(24.637441 249.583169)scale(0.1 -0.1)">
       <use xlink:href="#DejaVuSans-48"/>
       <use x="63.623047" xlink:href="#DejaVuSans-46"/>
       <use x="95.410156" xlink:href="#DejaVuSans-48"/>
      </g>
     </g>
    </g>
    <g id="ytick_2">
     <g id="line2d_8">
      <g>
       <use style="stroke:#000000;stroke-width:0.8;" x="47.540566" xlink:href="#m90fe205226" y="201.774264"/>
      </g>
     </g>
     <g id="text_9">
      <!-- 0.2 -->
      <g transform="translate(24.637441 205.573483)scale(0.1 -0.1)">
       <use xlink:href="#DejaVuSans-48"/>
       <use x="63.623047" xlink:href="#DejaVuSans-46"/>
       <use x="95.410156" xlink:href="#DejaVuSans-50"/>
      </g>
     </g>
    </g>
    <g id="ytick_3">
     <g id="line2d_9">
      <g>
       <use style="stroke:#000000;stroke-width:0.8;" x="47.540566" xlink:href="#m90fe205226" y="157.764579"/>
      </g>
     </g>
     <g id="text_10">
      <!-- 0.4 -->
      <g transform="translate(24.637441 161.563798)scale(0.1 -0.1)">
       <use xlink:href="#DejaVuSans-48"/>
       <use x="63.623047" xlink:href="#DejaVuSans-46"/>
       <use x="95.410156" xlink:href="#DejaVuSans-52"/>
      </g>
     </g>
    </g>
    <g id="ytick_4">
     <g id="line2d_10">
      <g>
       <use style="stroke:#000000;stroke-width:0.8;" x="47.540566" xlink:href="#m90fe205226" y="113.754894"/>
      </g>
     </g>
     <g id="text_11">
      <!-- 0.6 -->
      <g transform="translate(24.637441 117.554112)scale(0.1 -0.1)">
       <use xlink:href="#DejaVuSans-48"/>
       <use x="63.623047" xlink:href="#DejaVuSans-46"/>
       <use x="95.410156" xlink:href="#DejaVuSans-54"/>
      </g>
     </g>
    </g>
    <g id="ytick_5">
     <g id="line2d_11">
      <g>
       <use style="stroke:#000000;stroke-width:0.8;" x="47.540566" xlink:href="#m90fe205226" y="69.745208"/>
      </g>
     </g>
     <g id="text_12">
      <!-- 0.8 -->
      <g transform="translate(24.637441 73.544427)scale(0.1 -0.1)">
       <use xlink:href="#DejaVuSans-48"/>
       <use x="63.623047" xlink:href="#DejaVuSans-46"/>
       <use x="95.410156" xlink:href="#DejaVuSans-56"/>
      </g>
     </g>
    </g>
    <g id="ytick_6">
     <g id="line2d_12">
      <g>
       <use style="stroke:#000000;stroke-width:0.8;" x="47.540566" xlink:href="#m90fe205226" y="25.735523"/>
      </g>
     </g>
     <g id="text_13">
      <!-- 1.0 -->
      <g transform="translate(24.637441 29.534742)scale(0.1 -0.1)">
       <use xlink:href="#DejaVuSans-49"/>
       <use x="63.623047" xlink:href="#DejaVuSans-46"/>
       <use x="95.410156" xlink:href="#DejaVuSans-48"/>
      </g>
     </g>
    </g>
    <g id="text_14">
     <!-- True Positive Rate -->
     <g transform="translate(18.557753 180.289424)rotate(-90)scale(0.1 -0.1)">
      <defs>
       <path d="M -0.296875 72.90625 
L 61.375 72.90625 
L 61.375 64.59375 
L 35.5 64.59375 
L 35.5 0 
L 25.59375 0 
L 25.59375 64.59375 
L -0.296875 64.59375 
z
" id="DejaVuSans-84"/>
       <path d="M 41.109375 46.296875 
Q 39.59375 47.171875 37.8125 47.578125 
Q 36.03125 48 33.890625 48 
Q 26.265625 48 22.1875 43.046875 
Q 18.109375 38.09375 18.109375 28.8125 
L 18.109375 0 
L 9.078125 0 
L 9.078125 54.6875 
L 18.109375 54.6875 
L 18.109375 46.1875 
Q 20.953125 51.171875 25.484375 53.578125 
Q 30.03125 56 36.53125 56 
Q 37.453125 56 38.578125 55.875 
Q 39.703125 55.765625 41.0625 55.515625 
z
" id="DejaVuSans-114"/>
       <path d="M 8.5 21.578125 
L 8.5 54.6875 
L 17.484375 54.6875 
L 17.484375 21.921875 
Q 17.484375 14.15625 20.5 10.265625 
Q 23.53125 6.390625 29.59375 6.390625 
Q 36.859375 6.390625 41.078125 11.03125 
Q 45.3125 15.671875 45.3125 23.6875 
L 45.3125 54.6875 
L 54.296875 54.6875 
L 54.296875 0 
L 45.3125 0 
L 45.3125 8.40625 
Q 42.046875 3.421875 37.71875 1 
Q 33.40625 -1.421875 27.6875 -1.421875 
Q 18.265625 -1.421875 13.375 4.4375 
Q 8.5 10.296875 8.5 21.578125 
z
M 31.109375 56 
z
" id="DejaVuSans-117"/>
      </defs>
      <use xlink:href="#DejaVuSans-84"/>
      <use x="46.333984" xlink:href="#DejaVuSans-114"/>
      <use x="87.447266" xlink:href="#DejaVuSans-117"/>
      <use x="150.826172" xlink:href="#DejaVuSans-101"/>
      <use x="212.349609" xlink:href="#DejaVuSans-32"/>
      <use x="244.136719" xlink:href="#DejaVuSans-80"/>
      <use x="300.814453" xlink:href="#DejaVuSans-111"/>
      <use x="361.996094" xlink:href="#DejaVuSans-115"/>
      <use x="414.095703" xlink:href="#DejaVuSans-105"/>
      <use x="441.878906" xlink:href="#DejaVuSans-116"/>
      <use x="481.087891" xlink:href="#DejaVuSans-105"/>
      <use x="508.871094" xlink:href="#DejaVuSans-118"/>
      <use x="568.050781" xlink:href="#DejaVuSans-101"/>
      <use x="629.574219" xlink:href="#DejaVuSans-32"/>
      <use x="661.361328" xlink:href="#DejaVuSans-82"/>
      <use x="728.59375" xlink:href="#DejaVuSans-97"/>
      <use x="789.873047" xlink:href="#DejaVuSans-116"/>
      <use x="829.082031" xlink:href="#DejaVuSans-101"/>
     </g>
    </g>
   </g>
   <g id="line2d_13">
    <path clip-path="url(#p14c8b82e7b)" d="M 47.540566 245.78395 
L 47.653949 245.78395 
L 47.653949 239.182497 
L 49.58146 239.182497 
L 49.58146 234.781528 
L 50.148376 234.781528 
L 50.148376 232.581044 
L 50.261759 232.581044 
L 50.261759 228.180076 
L 50.715291 228.180076 
L 50.715291 225.979591 
L 50.942057 225.979591 
L 50.942057 223.779107 
L 51.508972 223.779107 
L 51.508972 219.378139 
L 51.849121 219.378139 
L 51.849121 217.177654 
L 52.642803 217.177654 
L 52.642803 214.97717 
L 53.66325 214.97717 
L 53.66325 212.776686 
L 54.003399 212.776686 
L 54.003399 210.576201 
L 54.570315 210.576201 
L 54.570315 208.375717 
L 55.250613 208.375717 
L 55.250613 206.175233 
L 55.590762 206.175233 
L 55.590762 203.974749 
L 56.724593 203.974749 
L 56.724593 201.774264 
L 57.064742 201.774264 
L 57.064742 199.57378 
L 57.631657 199.57378 
L 57.631657 197.373296 
L 58.765488 197.373296 
L 58.765488 195.172812 
L 59.21902 195.172812 
L 59.21902 192.972327 
L 60.466233 192.972327 
L 60.466233 190.771843 
L 60.692999 190.771843 
L 60.692999 188.571359 
L 60.806382 188.571359 
L 60.806382 186.370874 
L 61.940213 186.370874 
L 61.940213 184.17039 
L 63.640959 184.17039 
L 63.640959 181.969906 
L 65.90862 181.969906 
L 65.90862 179.769422 
L 66.022003 179.769422 
L 66.022003 177.568937 
L 66.248769 177.568937 
L 66.248769 175.368453 
L 67.382599 175.368453 
L 67.382599 170.967485 
L 68.969962 170.967485 
L 68.969962 168.767 
L 69.083345 168.767 
L 69.083345 166.566516 
L 70.103793 166.566516 
L 70.103793 164.366032 
L 70.330559 164.366032 
L 70.330559 162.165548 
L 70.557325 162.165548 
L 70.557325 159.965063 
L 70.784091 159.965063 
L 70.784091 157.764579 
L 71.577772 157.764579 
L 71.577772 155.564095 
L 72.484837 155.564095 
L 72.484837 153.36361 
L 73.73205 153.36361 
L 73.73205 151.163126 
L 73.958816 151.163126 
L 73.958816 148.962642 
L 75.772945 148.962642 
L 75.772945 146.762158 
L 76.793393 146.762158 
L 76.793393 144.561673 
L 76.906776 144.561673 
L 76.906776 142.361189 
L 78.267372 142.361189 
L 78.267372 137.960221 
L 80.535033 137.960221 
L 80.535033 135.759736 
L 83.02946 135.759736 
L 83.02946 133.559252 
L 84.616823 133.559252 
L 84.616823 131.358768 
L 85.070355 131.358768 
L 85.070355 129.158283 
L 86.771101 129.158283 
L 86.771101 126.957799 
L 88.018315 126.957799 
L 88.018315 124.757315 
L 88.358464 124.757315 
L 88.358464 122.556831 
L 92.66702 122.556831 
L 92.66702 120.356346 
L 95.27483 120.356346 
L 95.27483 118.155862 
L 96.181894 118.155862 
L 96.181894 115.955378 
L 96.295277 115.955378 
L 96.295277 113.754894 
L 100.717216 113.754894 
L 100.717216 111.554409 
L 100.943982 111.554409 
L 100.943982 109.353925 
L 101.284132 109.353925 
L 101.284132 107.153441 
L 104.912389 107.153441 
L 104.912389 104.952957 
L 106.613135 104.952957 
L 106.613135 102.752472 
L 107.18005 102.752472 
L 107.18005 100.551988 
L 108.200498 100.551988 
L 108.200498 98.351504 
L 108.313881 98.351504 
L 108.313881 96.151019 
L 112.73582 96.151019 
L 112.73582 93.950535 
L 113.642884 93.950535 
L 113.642884 91.750051 
L 114.663332 91.750051 
L 114.663332 89.549567 
L 118.971888 89.549567 
L 118.971888 87.349082 
L 119.652186 87.349082 
L 119.652186 85.148598 
L 120.332484 85.148598 
L 120.332484 82.948114 
L 121.693081 82.948114 
L 121.693081 80.74763 
L 123.50721 80.74763 
L 123.50721 78.547145 
L 124.754423 78.547145 
L 124.754423 76.346661 
L 131.670789 76.346661 
L 131.670789 74.146177 
L 132.351088 74.146177 
L 132.351088 71.945692 
L 134.051833 71.945692 
L 134.051833 69.745208 
L 137.680091 69.745208 
L 137.680091 67.544724 
L 138.360389 67.544724 
L 138.360389 65.34424 
L 144.029542 65.34424 
L 144.029542 63.143755 
L 144.369691 63.143755 
L 144.369691 60.943271 
L 144.936606 60.943271 
L 144.936606 58.742787 
L 146.523969 58.742787 
L 146.523969 56.542303 
L 147.997949 56.542303 
L 147.997949 54.341818 
L 152.079738 54.341818 
L 152.079738 52.141334 
L 158.542572 52.141334 
L 158.542572 49.94085 
L 165.685705 49.94085 
L 165.685705 47.740366 
L 205.823305 47.740366 
L 205.823305 45.539881 
L 208.99803 45.539881 
L 208.99803 43.339397 
L 211.60584 43.339397 
L 211.60584 41.138913 
L 213.986884 41.138913 
L 213.986884 38.938428 
L 222.603996 38.938428 
L 222.603996 36.737944 
L 223.511061 36.737944 
L 223.511061 34.53746 
L 246.301054 34.53746 
L 246.301054 32.336976 
L 251.403291 32.336976 
L 251.403291 30.136491 
L 254.578016 30.136491 
L 254.578016 27.936007 
L 263.421894 27.936007 
L 263.421894 25.735523 
L 274.306667 25.735523 
L 274.306667 25.735523 
" style="fill:none;stroke:#1f77b4;stroke-linecap:square;"/>
   </g>
   <g id="line2d_14">
    <path clip-path="url(#p14c8b82e7b)" d="M 47.540566 25.735523 
L 274.306667 245.78395 
" style="fill:none;stroke:#ff7f0e;stroke-linecap:square;stroke-width:1.5;"/>
   </g>
   <g id="line2d_15">
    <path clip-path="url(#p14c8b82e7b)" d="M 115.105235 245.78395 
L 115.105235 91.29867 
" style="fill:none;stroke:#ff7f0e;stroke-dasharray:5.55,2.4;stroke-dashoffset:0;stroke-width:1.5;"/>
   </g>
   <g id="patch_3">
    <path d="M 47.540566 245.78395 
L 47.540566 25.735523 
" style="fill:none;stroke:#000000;stroke-linecap:square;stroke-linejoin:miter;stroke-width:0.8;"/>
   </g>
   <g id="patch_4">
    <path d="M 274.306667 245.78395 
L 274.306667 25.735523 
" style="fill:none;stroke:#000000;stroke-linecap:square;stroke-linejoin:miter;stroke-width:0.8;"/>
   </g>
   <g id="patch_5">
    <path d="M 47.540566 245.78395 
L 274.306667 245.78395 
" style="fill:none;stroke:#000000;stroke-linecap:square;stroke-linejoin:miter;stroke-width:0.8;"/>
   </g>
   <g id="patch_6">
    <path d="M 47.540566 25.735523 
L 274.306667 25.735523 
" style="fill:none;stroke:#000000;stroke-linecap:square;stroke-linejoin:miter;stroke-width:0.8;"/>
   </g>
   <g id="text_15">
    <!-- Method a -->
    <g transform="translate(132.836116 19.735523)scale(0.12 -0.12)">
     <defs>
      <path d="M 9.8125 72.90625 
L 24.515625 72.90625 
L 43.109375 23.296875 
L 61.8125 72.90625 
L 76.515625 72.90625 
L 76.515625 0 
L 66.890625 0 
L 66.890625 64.015625 
L 48.09375 14.015625 
L 38.1875 14.015625 
L 19.390625 64.015625 
L 19.390625 0 
L 9.8125 0 
z
" id="DejaVuSans-77"/>
      <path d="M 54.890625 33.015625 
L 54.890625 0 
L 45.90625 0 
L 45.90625 32.71875 
Q 45.90625 40.484375 42.875 44.328125 
Q 39.84375 48.1875 33.796875 48.1875 
Q 26.515625 48.1875 22.3125 43.546875 
Q 18.109375 38.921875 18.109375 30.90625 
L 18.109375 0 
L 9.078125 0 
L 9.078125 75.984375 
L 18.109375 75.984375 
L 18.109375 46.1875 
Q 21.34375 51.125 25.703125 53.5625 
Q 30.078125 56 35.796875 56 
Q 45.21875 56 50.046875 50.171875 
Q 54.890625 44.34375 54.890625 33.015625 
z
" id="DejaVuSans-104"/>
      <path d="M 45.40625 46.390625 
L 45.40625 75.984375 
L 54.390625 75.984375 
L 54.390625 0 
L 45.40625 0 
L 45.40625 8.203125 
Q 42.578125 3.328125 38.25 0.953125 
Q 33.9375 -1.421875 27.875 -1.421875 
Q 17.96875 -1.421875 11.734375 6.484375 
Q 5.515625 14.40625 5.515625 27.296875 
Q 5.515625 40.1875 11.734375 48.09375 
Q 17.96875 56 27.875 56 
Q 33.9375 56 38.25 53.625 
Q 42.578125 51.265625 45.40625 46.390625 
z
M 14.796875 27.296875 
Q 14.796875 17.390625 18.875 11.75 
Q 22.953125 6.109375 30.078125 6.109375 
Q 37.203125 6.109375 41.296875 11.75 
Q 45.40625 17.390625 45.40625 27.296875 
Q 45.40625 37.203125 41.296875 42.84375 
Q 37.203125 48.484375 30.078125 48.484375 
Q 22.953125 48.484375 18.875 42.84375 
Q 14.796875 37.203125 14.796875 27.296875 
z
" id="DejaVuSans-100"/>
     </defs>
     <use xlink:href="#DejaVuSans-77"/>
     <use x="86.279297" xlink:href="#DejaVuSans-101"/>
     <use x="147.802734" xlink:href="#DejaVuSans-116"/>
     <use x="187.011719" xlink:href="#DejaVuSans-104"/>
     <use x="250.390625" xlink:href="#DejaVuSans-111"/>
     <use x="311.572266" xlink:href="#DejaVuSans-100"/>
     <use x="375.048828" xlink:href="#DejaVuSans-32"/>
     <use x="406.835938" xlink:href="#DejaVuSans-97"/>
    </g>
   </g>
   <g id="legend_1">
    <g id="patch_7">
     <path d="M 172.350417 77.769898 
L 267.306667 77.769898 
Q 269.306667 77.769898 269.306667 75.769898 
L 269.306667 32.735523 
Q 269.306667 30.735523 267.306667 30.735523 
L 172.350417 30.735523 
Q 170.350417 30.735523 170.350417 32.735523 
L 170.350417 75.769898 
Q 170.350417 77.769898 172.350417 77.769898 
z
" style="fill:#ffffff;opacity:0.8;stroke:#cccccc;stroke-linejoin:miter;"/>
    </g>
    <g id="line2d_16">
     <path d="M 174.350417 38.83396 
L 194.350417 38.83396 
" style="fill:none;stroke:#1f77b4;stroke-linecap:square;"/>
    </g>
    <g id="line2d_17"/>
    <g id="text_16">
     <!-- ROC -->
     <g transform="translate(202.350417 42.33396)scale(0.1 -0.1)">
      <defs>
       <path d="M 39.40625 66.21875 
Q 28.65625 66.21875 22.328125 58.203125 
Q 16.015625 50.203125 16.015625 36.375 
Q 16.015625 22.609375 22.328125 14.59375 
Q 28.65625 6.59375 39.40625 6.59375 
Q 50.140625 6.59375 56.421875 14.59375 
Q 62.703125 22.609375 62.703125 36.375 
Q 62.703125 50.203125 56.421875 58.203125 
Q 50.140625 66.21875 39.40625 66.21875 
z
M 39.40625 74.21875 
Q 54.734375 74.21875 63.90625 63.9375 
Q 73.09375 53.65625 73.09375 36.375 
Q 73.09375 19.140625 63.90625 8.859375 
Q 54.734375 -1.421875 39.40625 -1.421875 
Q 24.03125 -1.421875 14.8125 8.828125 
Q 5.609375 19.09375 5.609375 36.375 
Q 5.609375 53.65625 14.8125 63.9375 
Q 24.03125 74.21875 39.40625 74.21875 
z
" id="DejaVuSans-79"/>
       <path d="M 64.40625 67.28125 
L 64.40625 56.890625 
Q 59.421875 61.53125 53.78125 63.8125 
Q 48.140625 66.109375 41.796875 66.109375 
Q 29.296875 66.109375 22.65625 58.46875 
Q 16.015625 50.828125 16.015625 36.375 
Q 16.015625 21.96875 22.65625 14.328125 
Q 29.296875 6.6875 41.796875 6.6875 
Q 48.140625 6.6875 53.78125 8.984375 
Q 59.421875 11.28125 64.40625 15.921875 
L 64.40625 5.609375 
Q 59.234375 2.09375 53.4375 0.328125 
Q 47.65625 -1.421875 41.21875 -1.421875 
Q 24.65625 -1.421875 15.125 8.703125 
Q 5.609375 18.84375 5.609375 36.375 
Q 5.609375 53.953125 15.125 64.078125 
Q 24.65625 74.21875 41.21875 74.21875 
Q 47.75 74.21875 53.53125 72.484375 
Q 59.328125 70.75 64.40625 67.28125 
z
" id="DejaVuSans-67"/>
      </defs>
      <use xlink:href="#DejaVuSans-82"/>
      <use x="69.482422" xlink:href="#DejaVuSans-79"/>
      <use x="148.193359" xlink:href="#DejaVuSans-67"/>
     </g>
    </g>
    <g id="line2d_18">
     <path d="M 174.350417 53.512085 
L 194.350417 53.512085 
" style="fill:none;stroke:#ff7f0e;stroke-dasharray:5.55,2.4;stroke-dashoffset:0;stroke-width:1.5;"/>
    </g>
    <g id="line2d_19"/>
    <g id="text_17">
     <!-- EER=0.2979 -->
     <g transform="translate(202.350417 57.012085)scale(0.1 -0.1)">
      <defs>
       <path d="M 9.8125 72.90625 
L 55.90625 72.90625 
L 55.90625 64.59375 
L 19.671875 64.59375 
L 19.671875 43.015625 
L 54.390625 43.015625 
L 54.390625 34.71875 
L 19.671875 34.71875 
L 19.671875 8.296875 
L 56.78125 8.296875 
L 56.78125 0 
L 9.8125 0 
z
" id="DejaVuSans-69"/>
       <path d="M 10.59375 45.40625 
L 73.1875 45.40625 
L 73.1875 37.203125 
L 10.59375 37.203125 
z
M 10.59375 25.484375 
L 73.1875 25.484375 
L 73.1875 17.1875 
L 10.59375 17.1875 
z
" id="DejaVuSans-61"/>
       <path d="M 10.984375 1.515625 
L 10.984375 10.5 
Q 14.703125 8.734375 18.5 7.8125 
Q 22.3125 6.890625 25.984375 6.890625 
Q 35.75 6.890625 40.890625 13.453125 
Q 46.046875 20.015625 46.78125 33.40625 
Q 43.953125 29.203125 39.59375 26.953125 
Q 35.25 24.703125 29.984375 24.703125 
Q 19.046875 24.703125 12.671875 31.3125 
Q 6.296875 37.9375 6.296875 49.421875 
Q 6.296875 60.640625 12.9375 67.421875 
Q 19.578125 74.21875 30.609375 74.21875 
Q 43.265625 74.21875 49.921875 64.515625 
Q 56.59375 54.828125 56.59375 36.375 
Q 56.59375 19.140625 48.40625 8.859375 
Q 40.234375 -1.421875 26.421875 -1.421875 
Q 22.703125 -1.421875 18.890625 -0.6875 
Q 15.09375 0.046875 10.984375 1.515625 
z
M 30.609375 32.421875 
Q 37.25 32.421875 41.125 36.953125 
Q 45.015625 41.5 45.015625 49.421875 
Q 45.015625 57.28125 41.125 61.84375 
Q 37.25 66.40625 30.609375 66.40625 
Q 23.96875 66.40625 20.09375 61.84375 
Q 16.21875 57.28125 16.21875 49.421875 
Q 16.21875 41.5 20.09375 36.953125 
Q 23.96875 32.421875 30.609375 32.421875 
z
" id="DejaVuSans-57"/>
       <path d="M 8.203125 72.90625 
L 55.078125 72.90625 
L 55.078125 68.703125 
L 28.609375 0 
L 18.3125 0 
L 43.21875 64.59375 
L 8.203125 64.59375 
z
" id="DejaVuSans-55"/>
      </defs>
      <use xlink:href="#DejaVuSans-69"/>
      <use x="63.183594" xlink:href="#DejaVuSans-69"/>
      <use x="126.367188" xlink:href="#DejaVuSans-82"/>
      <use x="195.849609" xlink:href="#DejaVuSans-61"/>
      <use x="279.638672" xlink:href="#DejaVuSans-48"/>
      <use x="343.261719" xlink:href="#DejaVuSans-46"/>
      <use x="375.048828" xlink:href="#DejaVuSans-50"/>
      <use x="438.671875" xlink:href="#DejaVuSans-57"/>
      <use x="502.294922" xlink:href="#DejaVuSans-55"/>
      <use x="565.917969" xlink:href="#DejaVuSans-57"/>
     </g>
    </g>
    <g id="patch_8">
     <path d="M 174.350417 71.69021 
L 194.350417 71.69021 
L 194.350417 64.69021 
L 174.350417 64.69021 
z
" style="fill:#1f77b4;opacity:0.3;stroke:#1f77b4;stroke-linejoin:miter;"/>
    </g>
    <g id="text_18">
     <!-- AUC=0.77 -->
     <g transform="translate(202.350417 71.69021)scale(0.1 -0.1)">
      <defs>
       <path d="M 34.1875 63.1875 
L 20.796875 26.90625 
L 47.609375 26.90625 
z
M 28.609375 72.90625 
L 39.796875 72.90625 
L 67.578125 0 
L 57.328125 0 
L 50.6875 18.703125 
L 17.828125 18.703125 
L 11.1875 0 
L 0.78125 0 
z
" id="DejaVuSans-65"/>
       <path d="M 8.6875 72.90625 
L 18.609375 72.90625 
L 18.609375 28.609375 
Q 18.609375 16.890625 22.84375 11.734375 
Q 27.09375 6.59375 36.625 6.59375 
Q 46.09375 6.59375 50.34375 11.734375 
Q 54.59375 16.890625 54.59375 28.609375 
L 54.59375 72.90625 
L 64.5 72.90625 
L 64.5 27.390625 
Q 64.5 13.140625 57.4375 5.859375 
Q 50.390625 -1.421875 36.625 -1.421875 
Q 22.796875 -1.421875 15.734375 5.859375 
Q 8.6875 13.140625 8.6875 27.390625 
z
" id="DejaVuSans-85"/>
      </defs>
      <use xlink:href="#DejaVuSans-65"/>
      <use x="68.408203" xlink:href="#DejaVuSans-85"/>
      <use x="141.601562" xlink:href="#DejaVuSans-67"/>
      <use x="211.425781" xlink:href="#DejaVuSans-61"/>
      <use x="295.214844" xlink:href="#DejaVuSans-48"/>
      <use x="358.837891" xlink:href="#DejaVuSans-46"/>
      <use x="390.625" xlink:href="#DejaVuSans-55"/>
      <use x="454.248047" xlink:href="#DejaVuSans-55"/>
     </g>
    </g>
   </g>
  </g>
  <g id="axes_2">
   <g id="patch_9">
    <path d="M 329.787316 245.78395 
L 556.553417 245.78395 
L 556.553417 25.735523 
L 329.787316 25.735523 
z
" style="fill:#ffffff;"/>
   </g>
   <g id="PolyCollection_2">
    <defs>
     <path d="M 329.787316 -41.49605 
L 329.787316 -41.49605 
L 329.787316 -43.696534 
L 330.127465 -43.696534 
L 330.127465 -50.297987 
L 330.580997 -50.297987 
L 330.580997 -52.498472 
L 330.807763 -52.498472 
L 330.807763 -56.89944 
L 331.261295 -56.89944 
L 331.261295 -59.099924 
L 332.508509 -59.099924 
L 332.508509 -61.300409 
L 333.075424 -61.300409 
L 333.075424 -63.500893 
L 333.188807 -63.500893 
L 333.188807 -65.701377 
L 334.436021 -65.701377 
L 334.436021 -67.901861 
L 335.91 -67.901861 
L 335.91 -70.102346 
L 336.930448 -70.102346 
L 336.930448 -72.30283 
L 338.744577 -72.30283 
L 338.744577 -76.703799 
L 339.311492 -76.703799 
L 339.311492 -78.904283 
L 339.538258 -78.904283 
L 339.538258 -81.104767 
L 342.712983 -81.104767 
L 342.712983 -83.305251 
L 342.826366 -83.305251 
L 342.826366 -85.505736 
L 344.300346 -85.505736 
L 344.300346 -87.70622 
L 346.114475 -87.70622 
L 346.114475 -89.906704 
L 346.454624 -89.906704 
L 346.454624 -92.107188 
L 348.949051 -92.107188 
L 348.949051 -94.307673 
L 349.062434 -94.307673 
L 349.062434 -96.508157 
L 349.2892 -96.508157 
L 349.2892 -98.708641 
L 350.082882 -98.708641 
L 350.082882 -100.909126 
L 351.89701 -100.909126 
L 351.89701 -103.10961 
L 352.010394 -103.10961 
L 352.010394 -105.310094 
L 352.123777 -105.310094 
L 352.123777 -107.510578 
L 353.144224 -107.510578 
L 353.144224 -109.711063 
L 356.318949 -109.711063 
L 356.318949 -111.911547 
L 356.545716 -111.911547 
L 356.545716 -114.112031 
L 356.999248 -114.112031 
L 356.999248 -120.713484 
L 357.226014 -120.713484 
L 357.226014 -122.913968 
L 358.246461 -122.913968 
L 358.246461 -125.114452 
L 362.328251 -125.114452 
L 362.328251 -127.314937 
L 366.523424 -127.314937 
L 366.523424 -129.515421 
L 367.203722 -129.515421 
L 367.203722 -131.715905 
L 374.573621 -131.715905 
L 374.573621 -133.91639 
L 374.687004 -133.91639 
L 374.687004 -136.116874 
L 375.594068 -136.116874 
L 375.594068 -138.317358 
L 377.975112 -138.317358 
L 377.975112 -140.517842 
L 378.882177 -140.517842 
L 378.882177 -142.718327 
L 380.016007 -142.718327 
L 380.016007 -147.119295 
L 380.582922 -147.119295 
L 380.582922 -149.319779 
L 380.809688 -149.319779 
L 380.809688 -151.520264 
L 384.551329 -151.520264 
L 384.551329 -153.720748 
L 385.34501 -153.720748 
L 385.34501 -155.921232 
L 386.592224 -155.921232 
L 386.592224 -158.121717 
L 388.179587 -158.121717 
L 388.179587 -160.322201 
L 392.488143 -160.322201 
L 392.488143 -162.522685 
L 392.828292 -162.522685 
L 392.828292 -164.723169 
L 393.281824 -164.723169 
L 393.281824 -166.923654 
L 394.869187 -166.923654 
L 394.869187 -169.124138 
L 400.19819 -169.124138 
L 400.19819 -171.324622 
L 400.311573 -171.324622 
L 400.311573 -173.525106 
L 402.125702 -173.525106 
L 402.125702 -175.725591 
L 402.352468 -175.725591 
L 402.352468 -177.926075 
L 404.733512 -177.926075 
L 404.733512 -180.126559 
L 405.300427 -180.126559 
L 405.300427 -182.327043 
L 409.4956 -182.327043 
L 409.4956 -184.527528 
L 411.536495 -184.527528 
L 411.536495 -186.728012 
L 411.876644 -186.728012 
L 411.876644 -188.928496 
L 412.10341 -188.928496 
L 412.10341 -191.128981 
L 412.44356 -191.128981 
L 412.44356 -193.329465 
L 413.010475 -193.329465 
L 413.010475 -195.529949 
L 414.030922 -195.529949 
L 414.030922 -197.730433 
L 416.525349 -197.730433 
L 416.525349 -199.930918 
L 416.865499 -199.930918 
L 416.865499 -202.131402 
L 418.566244 -202.131402 
L 418.566244 -204.331886 
L 421.400821 -204.331886 
L 421.400821 -206.53237 
L 421.74097 -206.53237 
L 421.74097 -208.732855 
L 425.029078 -208.732855 
L 425.029078 -210.933339 
L 425.709377 -210.933339 
L 425.709377 -213.133823 
L 433.759573 -213.133823 
L 433.759573 -215.334308 
L 438.86181 -215.334308 
L 438.86181 -217.534792 
L 440.449173 -217.534792 
L 440.449173 -219.735276 
L 441.923153 -219.735276 
L 441.923153 -221.93576 
L 443.850665 -221.93576 
L 443.850665 -224.136245 
L 444.984495 -224.136245 
L 444.984495 -226.336729 
L 445.664794 -226.336729 
L 445.664794 -228.537213 
L 449.066285 -228.537213 
L 449.066285 -230.737697 
L 451.447329 -230.737697 
L 451.447329 -232.938182 
L 454.508672 -232.938182 
L 454.508672 -235.138666 
L 459.043994 -235.138666 
L 459.043994 -237.33915 
L 461.538421 -237.33915 
L 461.538421 -239.539634 
L 465.62021 -239.539634 
L 465.62021 -241.740119 
L 468.114638 -241.740119 
L 468.114638 -243.940603 
L 470.382299 -243.940603 
L 470.382299 -246.141087 
L 470.495682 -246.141087 
L 470.495682 -248.341572 
L 471.629512 -248.341572 
L 471.629512 -250.542056 
L 475.144387 -250.542056 
L 475.144387 -252.74254 
L 482.060753 -252.74254 
L 482.060753 -254.943024 
L 484.101648 -254.943024 
L 484.101648 -257.143509 
L 492.038461 -257.143509 
L 492.038461 -259.343993 
L 532.176061 -259.343993 
L 532.176061 -261.544477 
L 556.553417 -261.544477 
L 556.553417 -41.49605 
L 556.553417 -41.49605 
L 532.176061 -41.49605 
L 532.176061 -41.49605 
L 492.038461 -41.49605 
L 492.038461 -41.49605 
L 484.101648 -41.49605 
L 484.101648 -41.49605 
L 482.060753 -41.49605 
L 482.060753 -41.49605 
L 475.144387 -41.49605 
L 475.144387 -41.49605 
L 471.629512 -41.49605 
L 471.629512 -41.49605 
L 470.495682 -41.49605 
L 470.495682 -41.49605 
L 470.382299 -41.49605 
L 470.382299 -41.49605 
L 468.114638 -41.49605 
L 468.114638 -41.49605 
L 465.62021 -41.49605 
L 465.62021 -41.49605 
L 461.538421 -41.49605 
L 461.538421 -41.49605 
L 459.043994 -41.49605 
L 459.043994 -41.49605 
L 454.508672 -41.49605 
L 454.508672 -41.49605 
L 451.447329 -41.49605 
L 451.447329 -41.49605 
L 449.066285 -41.49605 
L 449.066285 -41.49605 
L 445.664794 -41.49605 
L 445.664794 -41.49605 
L 444.984495 -41.49605 
L 444.984495 -41.49605 
L 443.850665 -41.49605 
L 443.850665 -41.49605 
L 441.923153 -41.49605 
L 441.923153 -41.49605 
L 440.449173 -41.49605 
L 440.449173 -41.49605 
L 438.86181 -41.49605 
L 438.86181 -41.49605 
L 433.759573 -41.49605 
L 433.759573 -41.49605 
L 425.709377 -41.49605 
L 425.709377 -41.49605 
L 425.029078 -41.49605 
L 425.029078 -41.49605 
L 421.74097 -41.49605 
L 421.74097 -41.49605 
L 421.400821 -41.49605 
L 421.400821 -41.49605 
L 418.566244 -41.49605 
L 418.566244 -41.49605 
L 416.865499 -41.49605 
L 416.865499 -41.49605 
L 416.525349 -41.49605 
L 416.525349 -41.49605 
L 414.030922 -41.49605 
L 414.030922 -41.49605 
L 413.010475 -41.49605 
L 413.010475 -41.49605 
L 412.44356 -41.49605 
L 412.44356 -41.49605 
L 412.10341 -41.49605 
L 412.10341 -41.49605 
L 411.876644 -41.49605 
L 411.876644 -41.49605 
L 411.536495 -41.49605 
L 411.536495 -41.49605 
L 409.4956 -41.49605 
L 409.4956 -41.49605 
L 405.300427 -41.49605 
L 405.300427 -41.49605 
L 404.733512 -41.49605 
L 404.733512 -41.49605 
L 402.352468 -41.49605 
L 402.352468 -41.49605 
L 402.125702 -41.49605 
L 402.125702 -41.49605 
L 400.311573 -41.49605 
L 400.311573 -41.49605 
L 400.19819 -41.49605 
L 400.19819 -41.49605 
L 394.869187 -41.49605 
L 394.869187 -41.49605 
L 393.281824 -41.49605 
L 393.281824 -41.49605 
L 392.828292 -41.49605 
L 392.828292 -41.49605 
L 392.488143 -41.49605 
L 392.488143 -41.49605 
L 388.179587 -41.49605 
L 388.179587 -41.49605 
L 386.592224 -41.49605 
L 386.592224 -41.49605 
L 385.34501 -41.49605 
L 385.34501 -41.49605 
L 384.551329 -41.49605 
L 384.551329 -41.49605 
L 380.809688 -41.49605 
L 380.809688 -41.49605 
L 380.582922 -41.49605 
L 380.582922 -41.49605 
L 380.016007 -41.49605 
L 380.016007 -41.49605 
L 378.882177 -41.49605 
L 378.882177 -41.49605 
L 377.975112 -41.49605 
L 377.975112 -41.49605 
L 375.594068 -41.49605 
L 375.594068 -41.49605 
L 374.687004 -41.49605 
L 374.687004 -41.49605 
L 374.573621 -41.49605 
L 374.573621 -41.49605 
L 367.203722 -41.49605 
L 367.203722 -41.49605 
L 366.523424 -41.49605 
L 366.523424 -41.49605 
L 362.328251 -41.49605 
L 362.328251 -41.49605 
L 358.246461 -41.49605 
L 358.246461 -41.49605 
L 357.226014 -41.49605 
L 357.226014 -41.49605 
L 356.999248 -41.49605 
L 356.999248 -41.49605 
L 356.545716 -41.49605 
L 356.545716 -41.49605 
L 356.318949 -41.49605 
L 356.318949 -41.49605 
L 353.144224 -41.49605 
L 353.144224 -41.49605 
L 352.123777 -41.49605 
L 352.123777 -41.49605 
L 352.010394 -41.49605 
L 352.010394 -41.49605 
L 351.89701 -41.49605 
L 351.89701 -41.49605 
L 350.082882 -41.49605 
L 350.082882 -41.49605 
L 349.2892 -41.49605 
L 349.2892 -41.49605 
L 349.062434 -41.49605 
L 349.062434 -41.49605 
L 348.949051 -41.49605 
L 348.949051 -41.49605 
L 346.454624 -41.49605 
L 346.454624 -41.49605 
L 346.114475 -41.49605 
L 346.114475 -41.49605 
L 344.300346 -41.49605 
L 344.300346 -41.49605 
L 342.826366 -41.49605 
L 342.826366 -41.49605 
L 342.712983 -41.49605 
L 342.712983 -41.49605 
L 339.538258 -41.49605 
L 339.538258 -41.49605 
L 339.311492 -41.49605 
L 339.311492 -41.49605 
L 338.744577 -41.49605 
L 338.744577 -41.49605 
L 336.930448 -41.49605 
L 336.930448 -41.49605 
L 335.91 -41.49605 
L 335.91 -41.49605 
L 334.436021 -41.49605 
L 334.436021 -41.49605 
L 333.188807 -41.49605 
L 333.188807 -41.49605 
L 333.075424 -41.49605 
L 333.075424 -41.49605 
L 332.508509 -41.49605 
L 332.508509 -41.49605 
L 331.261295 -41.49605 
L 331.261295 -41.49605 
L 330.807763 -41.49605 
L 330.807763 -41.49605 
L 330.580997 -41.49605 
L 330.580997 -41.49605 
L 330.127465 -41.49605 
L 330.127465 -41.49605 
L 329.787316 -41.49605 
L 329.787316 -41.49605 
z
" id="m6cb503e89a" style="stroke:#1f77b4;stroke-opacity:0.3;"/>
    </defs>
    <g clip-path="url(#pc0c21eaebf)">
     <use style="fill:#1f77b4;fill-opacity:0.3;stroke:#1f77b4;stroke-opacity:0.3;" x="0" xlink:href="#m6cb503e89a" y="287.28"/>
    </g>
   </g>
   <g id="matplotlib.axis_3">
    <g id="xtick_7">
     <g id="line2d_20">
      <g>
       <use style="stroke:#000000;stroke-width:0.8;" x="329.787316" xlink:href="#m372357deb7" y="245.78395"/>
      </g>
     </g>
     <g id="text_19">
      <!-- 0.0 -->
      <g transform="translate(321.835753 260.382387)scale(0.1 -0.1)">
       <use xlink:href="#DejaVuSans-48"/>
       <use x="63.623047" xlink:href="#DejaVuSans-46"/>
       <use x="95.410156" xlink:href="#DejaVuSans-48"/>
      </g>
     </g>
    </g>
    <g id="xtick_8">
     <g id="line2d_21">
      <g>
       <use style="stroke:#000000;stroke-width:0.8;" x="375.140536" xlink:href="#m372357deb7" y="245.78395"/>
      </g>
     </g>
     <g id="text_20">
      <!-- 0.2 -->
      <g transform="translate(367.188973 260.382387)scale(0.1 -0.1)">
       <use xlink:href="#DejaVuSans-48"/>
       <use x="63.623047" xlink:href="#DejaVuSans-46"/>
       <use x="95.410156" xlink:href="#DejaVuSans-50"/>
      </g>
     </g>
    </g>
    <g id="xtick_9">
     <g id="line2d_22">
      <g>
       <use style="stroke:#000000;stroke-width:0.8;" x="420.493756" xlink:href="#m372357deb7" y="245.78395"/>
      </g>
     </g>
     <g id="text_21">
      <!-- 0.4 -->
      <g transform="translate(412.542194 260.382387)scale(0.1 -0.1)">
       <use xlink:href="#DejaVuSans-48"/>
       <use x="63.623047" xlink:href="#DejaVuSans-46"/>
       <use x="95.410156" xlink:href="#DejaVuSans-52"/>
      </g>
     </g>
    </g>
    <g id="xtick_10">
     <g id="line2d_23">
      <g>
       <use style="stroke:#000000;stroke-width:0.8;" x="465.846977" xlink:href="#m372357deb7" y="245.78395"/>
      </g>
     </g>
     <g id="text_22">
      <!-- 0.6 -->
      <g transform="translate(457.895414 260.382387)scale(0.1 -0.1)">
       <use xlink:href="#DejaVuSans-48"/>
       <use x="63.623047" xlink:href="#DejaVuSans-46"/>
       <use x="95.410156" xlink:href="#DejaVuSans-54"/>
      </g>
     </g>
    </g>
    <g id="xtick_11">
     <g id="line2d_24">
      <g>
       <use style="stroke:#000000;stroke-width:0.8;" x="511.200197" xlink:href="#m372357deb7" y="245.78395"/>
      </g>
     </g>
     <g id="text_23">
      <!-- 0.8 -->
      <g transform="translate(503.248634 260.382387)scale(0.1 -0.1)">
       <use xlink:href="#DejaVuSans-48"/>
       <use x="63.623047" xlink:href="#DejaVuSans-46"/>
       <use x="95.410156" xlink:href="#DejaVuSans-56"/>
      </g>
     </g>
    </g>
    <g id="xtick_12">
     <g id="line2d_25">
      <g>
       <use style="stroke:#000000;stroke-width:0.8;" x="556.553417" xlink:href="#m372357deb7" y="245.78395"/>
      </g>
     </g>
     <g id="text_24">
      <!-- 1.0 -->
      <g transform="translate(548.601855 260.382387)scale(0.1 -0.1)">
       <use xlink:href="#DejaVuSans-49"/>
       <use x="63.623047" xlink:href="#DejaVuSans-46"/>
       <use x="95.410156" xlink:href="#DejaVuSans-48"/>
      </g>
     </g>
    </g>
    <g id="text_25">
     <!-- False Positive Rate -->
     <g transform="translate(396.70396 274.060512)scale(0.1 -0.1)">
      <use xlink:href="#DejaVuSans-70"/>
      <use x="48.394531" xlink:href="#DejaVuSans-97"/>
      <use x="109.673828" xlink:href="#DejaVuSans-108"/>
      <use x="137.457031" xlink:href="#DejaVuSans-115"/>
      <use x="189.556641" xlink:href="#DejaVuSans-101"/>
      <use x="251.080078" xlink:href="#DejaVuSans-32"/>
      <use x="282.867188" xlink:href="#DejaVuSans-80"/>
      <use x="339.544922" xlink:href="#DejaVuSans-111"/>
      <use x="400.726562" xlink:href="#DejaVuSans-115"/>
      <use x="452.826172" xlink:href="#DejaVuSans-105"/>
      <use x="480.609375" xlink:href="#DejaVuSans-116"/>
      <use x="519.818359" xlink:href="#DejaVuSans-105"/>
      <use x="547.601562" xlink:href="#DejaVuSans-118"/>
      <use x="606.78125" xlink:href="#DejaVuSans-101"/>
      <use x="668.304688" xlink:href="#DejaVuSans-32"/>
      <use x="700.091797" xlink:href="#DejaVuSans-82"/>
      <use x="767.324219" xlink:href="#DejaVuSans-97"/>
      <use x="828.603516" xlink:href="#DejaVuSans-116"/>
      <use x="867.8125" xlink:href="#DejaVuSans-101"/>
     </g>
    </g>
   </g>
   <g id="matplotlib.axis_4">
    <g id="ytick_7">
     <g id="line2d_26">
      <g>
       <use style="stroke:#000000;stroke-width:0.8;" x="329.787316" xlink:href="#m90fe205226" y="245.78395"/>
      </g>
     </g>
     <g id="text_26">
      <!-- 0.0 -->
      <g transform="translate(306.884191 249.583169)scale(0.1 -0.1)">
       <use xlink:href="#DejaVuSans-48"/>
       <use x="63.623047" xlink:href="#DejaVuSans-46"/>
       <use x="95.410156" xlink:href="#DejaVuSans-48"/>
      </g>
     </g>
    </g>
    <g id="ytick_8">
     <g id="line2d_27">
      <g>
       <use style="stroke:#000000;stroke-width:0.8;" x="329.787316" xlink:href="#m90fe205226" y="201.774264"/>
      </g>
     </g>
     <g id="text_27">
      <!-- 0.2 -->
      <g transform="translate(306.884191 205.573483)scale(0.1 -0.1)">
       <use xlink:href="#DejaVuSans-48"/>
       <use x="63.623047" xlink:href="#DejaVuSans-46"/>
       <use x="95.410156" xlink:href="#DejaVuSans-50"/>
      </g>
     </g>
    </g>
    <g id="ytick_9">
     <g id="line2d_28">
      <g>
       <use style="stroke:#000000;stroke-width:0.8;" x="329.787316" xlink:href="#m90fe205226" y="157.764579"/>
      </g>
     </g>
     <g id="text_28">
      <!-- 0.4 -->
      <g transform="translate(306.884191 161.563798)scale(0.1 -0.1)">
       <use xlink:href="#DejaVuSans-48"/>
       <use x="63.623047" xlink:href="#DejaVuSans-46"/>
       <use x="95.410156" xlink:href="#DejaVuSans-52"/>
      </g>
     </g>
    </g>
    <g id="ytick_10">
     <g id="line2d_29">
      <g>
       <use style="stroke:#000000;stroke-width:0.8;" x="329.787316" xlink:href="#m90fe205226" y="113.754894"/>
      </g>
     </g>
     <g id="text_29">
      <!-- 0.6 -->
      <g transform="translate(306.884191 117.554112)scale(0.1 -0.1)">
       <use xlink:href="#DejaVuSans-48"/>
       <use x="63.623047" xlink:href="#DejaVuSans-46"/>
       <use x="95.410156" xlink:href="#DejaVuSans-54"/>
      </g>
     </g>
    </g>
    <g id="ytick_11">
     <g id="line2d_30">
      <g>
       <use style="stroke:#000000;stroke-width:0.8;" x="329.787316" xlink:href="#m90fe205226" y="69.745208"/>
      </g>
     </g>
     <g id="text_30">
      <!-- 0.8 -->
      <g transform="translate(306.884191 73.544427)scale(0.1 -0.1)">
       <use xlink:href="#DejaVuSans-48"/>
       <use x="63.623047" xlink:href="#DejaVuSans-46"/>
       <use x="95.410156" xlink:href="#DejaVuSans-56"/>
      </g>
     </g>
    </g>
    <g id="ytick_12">
     <g id="line2d_31">
      <g>
       <use style="stroke:#000000;stroke-width:0.8;" x="329.787316" xlink:href="#m90fe205226" y="25.735523"/>
      </g>
     </g>
     <g id="text_31">
      <!-- 1.0 -->
      <g transform="translate(306.884191 29.534742)scale(0.1 -0.1)">
       <use xlink:href="#DejaVuSans-49"/>
       <use x="63.623047" xlink:href="#DejaVuSans-46"/>
       <use x="95.410156" xlink:href="#DejaVuSans-48"/>
      </g>
     </g>
    </g>
    <g id="text_32">
     <!-- True Positive Rate -->
     <g transform="translate(300.804503 180.289424)rotate(-90)scale(0.1 -0.1)">
      <use xlink:href="#DejaVuSans-84"/>
      <use x="46.333984" xlink:href="#DejaVuSans-114"/>
      <use x="87.447266" xlink:href="#DejaVuSans-117"/>
      <use x="150.826172" xlink:href="#DejaVuSans-101"/>
      <use x="212.349609" xlink:href="#DejaVuSans-32"/>
      <use x="244.136719" xlink:href="#DejaVuSans-80"/>
      <use x="300.814453" xlink:href="#DejaVuSans-111"/>
      <use x="361.996094" xlink:href="#DejaVuSans-115"/>
      <use x="414.095703" xlink:href="#DejaVuSans-105"/>
      <use x="441.878906" xlink:href="#DejaVuSans-116"/>
      <use x="481.087891" xlink:href="#DejaVuSans-105"/>
      <use x="508.871094" xlink:href="#DejaVuSans-118"/>
      <use x="568.050781" xlink:href="#DejaVuSans-101"/>
      <use x="629.574219" xlink:href="#DejaVuSans-32"/>
      <use x="661.361328" xlink:href="#DejaVuSans-82"/>
      <use x="728.59375" xlink:href="#DejaVuSans-97"/>
      <use x="789.873047" xlink:href="#DejaVuSans-116"/>
      <use x="829.082031" xlink:href="#DejaVuSans-101"/>
     </g>
    </g>
   </g>
   <g id="line2d_32">
    <path clip-path="url(#pc0c21eaebf)" d="M 329.787316 245.78395 
L 329.787316 243.583466 
L 330.127465 243.583466 
L 330.127465 236.982013 
L 330.580997 236.982013 
L 330.580997 234.781528 
L 330.807763 234.781528 
L 330.807763 230.38056 
L 331.261295 230.38056 
L 331.261295 228.180076 
L 332.508509 228.180076 
L 332.508509 225.979591 
L 333.075424 225.979591 
L 333.075424 223.779107 
L 333.188807 223.779107 
L 333.188807 221.578623 
L 334.436021 221.578623 
L 334.436021 219.378139 
L 335.91 219.378139 
L 335.91 217.177654 
L 336.930448 217.177654 
L 336.930448 214.97717 
L 338.744577 214.97717 
L 338.744577 210.576201 
L 339.311492 210.576201 
L 339.311492 208.375717 
L 339.538258 208.375717 
L 339.538258 206.175233 
L 342.712983 206.175233 
L 342.712983 203.974749 
L 342.826366 203.974749 
L 342.826366 201.774264 
L 344.300346 201.774264 
L 344.300346 199.57378 
L 346.114475 199.57378 
L 346.114475 197.373296 
L 346.454624 197.373296 
L 346.454624 195.172812 
L 348.949051 195.172812 
L 348.949051 192.972327 
L 349.062434 192.972327 
L 349.062434 190.771843 
L 349.2892 190.771843 
L 349.2892 188.571359 
L 350.082882 188.571359 
L 350.082882 186.370874 
L 351.89701 186.370874 
L 351.89701 184.17039 
L 352.010394 184.17039 
L 352.010394 181.969906 
L 352.123777 181.969906 
L 352.123777 179.769422 
L 353.144224 179.769422 
L 353.144224 177.568937 
L 356.318949 177.568937 
L 356.318949 175.368453 
L 356.545716 175.368453 
L 356.545716 173.167969 
L 356.999248 173.167969 
L 356.999248 166.566516 
L 357.226014 166.566516 
L 357.226014 164.366032 
L 358.246461 164.366032 
L 358.246461 162.165548 
L 362.328251 162.165548 
L 362.328251 159.965063 
L 366.523424 159.965063 
L 366.523424 157.764579 
L 367.203722 157.764579 
L 367.203722 155.564095 
L 374.573621 155.564095 
L 374.573621 153.36361 
L 374.687004 153.36361 
L 374.687004 151.163126 
L 375.594068 151.163126 
L 375.594068 148.962642 
L 377.975112 148.962642 
L 377.975112 146.762158 
L 378.882177 146.762158 
L 378.882177 144.561673 
L 380.016007 144.561673 
L 380.016007 140.160705 
L 380.582922 140.160705 
L 380.582922 137.960221 
L 380.809688 137.960221 
L 380.809688 135.759736 
L 384.551329 135.759736 
L 384.551329 133.559252 
L 385.34501 133.559252 
L 385.34501 131.358768 
L 386.592224 131.358768 
L 386.592224 129.158283 
L 388.179587 129.158283 
L 388.179587 126.957799 
L 392.488143 126.957799 
L 392.488143 124.757315 
L 392.828292 124.757315 
L 392.828292 122.556831 
L 393.281824 122.556831 
L 393.281824 120.356346 
L 394.869187 120.356346 
L 394.869187 118.155862 
L 400.19819 118.155862 
L 400.19819 115.955378 
L 400.311573 115.955378 
L 400.311573 113.754894 
L 402.125702 113.754894 
L 402.125702 111.554409 
L 402.352468 111.554409 
L 402.352468 109.353925 
L 404.733512 109.353925 
L 404.733512 107.153441 
L 405.300427 107.153441 
L 405.300427 104.952957 
L 409.4956 104.952957 
L 409.4956 102.752472 
L 411.536495 102.752472 
L 411.536495 100.551988 
L 411.876644 100.551988 
L 411.876644 98.351504 
L 412.10341 98.351504 
L 412.10341 96.151019 
L 412.44356 96.151019 
L 412.44356 93.950535 
L 413.010475 93.950535 
L 413.010475 91.750051 
L 414.030922 91.750051 
L 414.030922 89.549567 
L 416.525349 89.549567 
L 416.525349 87.349082 
L 416.865499 87.349082 
L 416.865499 85.148598 
L 418.566244 85.148598 
L 418.566244 82.948114 
L 421.400821 82.948114 
L 421.400821 80.74763 
L 421.74097 80.74763 
L 421.74097 78.547145 
L 425.029078 78.547145 
L 425.029078 76.346661 
L 425.709377 76.346661 
L 425.709377 74.146177 
L 433.759573 74.146177 
L 433.759573 71.945692 
L 438.86181 71.945692 
L 438.86181 69.745208 
L 440.449173 69.745208 
L 440.449173 67.544724 
L 441.923153 67.544724 
L 441.923153 65.34424 
L 443.850665 65.34424 
L 443.850665 63.143755 
L 444.984495 63.143755 
L 444.984495 60.943271 
L 445.664794 60.943271 
L 445.664794 58.742787 
L 449.066285 58.742787 
L 449.066285 56.542303 
L 451.447329 56.542303 
L 451.447329 54.341818 
L 454.508672 54.341818 
L 454.508672 52.141334 
L 459.043994 52.141334 
L 459.043994 49.94085 
L 461.538421 49.94085 
L 461.538421 47.740366 
L 465.62021 47.740366 
L 465.62021 45.539881 
L 468.114638 45.539881 
L 468.114638 43.339397 
L 470.382299 43.339397 
L 470.382299 41.138913 
L 470.495682 41.138913 
L 470.495682 38.938428 
L 471.629512 38.938428 
L 471.629512 36.737944 
L 475.144387 36.737944 
L 475.144387 34.53746 
L 482.060753 34.53746 
L 482.060753 32.336976 
L 484.101648 32.336976 
L 484.101648 30.136491 
L 492.038461 30.136491 
L 492.038461 27.936007 
L 532.176061 27.936007 
L 532.176061 25.735523 
L 556.553417 25.735523 
L 556.553417 25.735523 
" style="fill:none;stroke:#1f77b4;stroke-linecap:square;"/>
   </g>
   <g id="line2d_33">
    <path clip-path="url(#pc0c21eaebf)" d="M 329.787316 25.735523 
L 556.553417 245.78395 
" style="fill:none;stroke:#ff7f0e;stroke-linecap:square;stroke-width:1.5;"/>
   </g>
   <g id="line2d_34">
    <path clip-path="url(#pc0c21eaebf)" d="M 409.274802 245.78395 
L 409.274802 102.868287 
" style="fill:none;stroke:#ff7f0e;stroke-dasharray:5.55,2.4;stroke-dashoffset:0;stroke-width:1.5;"/>
   </g>
   <g id="patch_10">
    <path d="M 329.787316 245.78395 
L 329.787316 25.735523 
" style="fill:none;stroke:#000000;stroke-linecap:square;stroke-linejoin:miter;stroke-width:0.8;"/>
   </g>
   <g id="patch_11">
    <path d="M 556.553417 245.78395 
L 556.553417 25.735523 
" style="fill:none;stroke:#000000;stroke-linecap:square;stroke-linejoin:miter;stroke-width:0.8;"/>
   </g>
   <g id="patch_12">
    <path d="M 329.787316 245.78395 
L 556.553417 245.78395 
" style="fill:none;stroke:#000000;stroke-linecap:square;stroke-linejoin:miter;stroke-width:0.8;"/>
   </g>
   <g id="patch_13">
    <path d="M 329.787316 25.735523 
L 556.553417 25.735523 
" style="fill:none;stroke:#000000;stroke-linecap:square;stroke-linejoin:miter;stroke-width:0.8;"/>
   </g>
   <g id="text_33">
    <!-- Method b -->
    <g transform="translate(414.950679 19.735523)scale(0.12 -0.12)">
     <defs>
      <path d="M 48.6875 27.296875 
Q 48.6875 37.203125 44.609375 42.84375 
Q 40.53125 48.484375 33.40625 48.484375 
Q 26.265625 48.484375 22.1875 42.84375 
Q 18.109375 37.203125 18.109375 27.296875 
Q 18.109375 17.390625 22.1875 11.75 
Q 26.265625 6.109375 33.40625 6.109375 
Q 40.53125 6.109375 44.609375 11.75 
Q 48.6875 17.390625 48.6875 27.296875 
z
M 18.109375 46.390625 
Q 20.953125 51.265625 25.265625 53.625 
Q 29.59375 56 35.59375 56 
Q 45.5625 56 51.78125 48.09375 
Q 58.015625 40.1875 58.015625 27.296875 
Q 58.015625 14.40625 51.78125 6.484375 
Q 45.5625 -1.421875 35.59375 -1.421875 
Q 29.59375 -1.421875 25.265625 0.953125 
Q 20.953125 3.328125 18.109375 8.203125 
L 18.109375 0 
L 9.078125 0 
L 9.078125 75.984375 
L 18.109375 75.984375 
z
" id="DejaVuSans-98"/>
     </defs>
     <use xlink:href="#DejaVuSans-77"/>
     <use x="86.279297" xlink:href="#DejaVuSans-101"/>
     <use x="147.802734" xlink:href="#DejaVuSans-116"/>
     <use x="187.011719" xlink:href="#DejaVuSans-104"/>
     <use x="250.390625" xlink:href="#DejaVuSans-111"/>
     <use x="311.572266" xlink:href="#DejaVuSans-100"/>
     <use x="375.048828" xlink:href="#DejaVuSans-32"/>
     <use x="406.835938" xlink:href="#DejaVuSans-98"/>
    </g>
   </g>
   <g id="legend_2">
    <g id="patch_14">
     <path d="M 454.597167 77.769898 
L 549.553417 77.769898 
Q 551.553417 77.769898 551.553417 75.769898 
L 551.553417 32.735523 
Q 551.553417 30.735523 549.553417 30.735523 
L 454.597167 30.735523 
Q 452.597167 30.735523 452.597167 32.735523 
L 452.597167 75.769898 
Q 452.597167 77.769898 454.597167 77.769898 
z
" style="fill:#ffffff;opacity:0.8;stroke:#cccccc;stroke-linejoin:miter;"/>
    </g>
    <g id="line2d_35">
     <path d="M 456.597167 38.83396 
L 476.597167 38.83396 
" style="fill:none;stroke:#1f77b4;stroke-linecap:square;"/>
    </g>
    <g id="line2d_36"/>
    <g id="text_34">
     <!-- ROC -->
     <g transform="translate(484.597167 42.33396)scale(0.1 -0.1)">
      <use xlink:href="#DejaVuSans-82"/>
      <use x="69.482422" xlink:href="#DejaVuSans-79"/>
      <use x="148.193359" xlink:href="#DejaVuSans-67"/>
     </g>
    </g>
    <g id="line2d_37">
     <path d="M 456.597167 53.512085 
L 476.597167 53.512085 
" style="fill:none;stroke:#ff7f0e;stroke-dasharray:5.55,2.4;stroke-dashoffset:0;stroke-width:1.5;"/>
    </g>
    <g id="line2d_38"/>
    <g id="text_35">
     <!-- EER=0.3505 -->
     <g transform="translate(484.597167 57.012085)scale(0.1 -0.1)">
      <defs>
       <path d="M 40.578125 39.3125 
Q 47.65625 37.796875 51.625 33 
Q 55.609375 28.21875 55.609375 21.1875 
Q 55.609375 10.40625 48.1875 4.484375 
Q 40.765625 -1.421875 27.09375 -1.421875 
Q 22.515625 -1.421875 17.65625 -0.515625 
Q 12.796875 0.390625 7.625 2.203125 
L 7.625 11.71875 
Q 11.71875 9.328125 16.59375 8.109375 
Q 21.484375 6.890625 26.8125 6.890625 
Q 36.078125 6.890625 40.9375 10.546875 
Q 45.796875 14.203125 45.796875 21.1875 
Q 45.796875 27.640625 41.28125 31.265625 
Q 36.765625 34.90625 28.71875 34.90625 
L 20.21875 34.90625 
L 20.21875 43.015625 
L 29.109375 43.015625 
Q 36.375 43.015625 40.234375 45.921875 
Q 44.09375 48.828125 44.09375 54.296875 
Q 44.09375 59.90625 40.109375 62.90625 
Q 36.140625 65.921875 28.71875 65.921875 
Q 24.65625 65.921875 20.015625 65.03125 
Q 15.375 64.15625 9.8125 62.3125 
L 9.8125 71.09375 
Q 15.4375 72.65625 20.34375 73.4375 
Q 25.25 74.21875 29.59375 74.21875 
Q 40.828125 74.21875 47.359375 69.109375 
Q 53.90625 64.015625 53.90625 55.328125 
Q 53.90625 49.265625 50.4375 45.09375 
Q 46.96875 40.921875 40.578125 39.3125 
z
" id="DejaVuSans-51"/>
       <path d="M 10.796875 72.90625 
L 49.515625 72.90625 
L 49.515625 64.59375 
L 19.828125 64.59375 
L 19.828125 46.734375 
Q 21.96875 47.46875 24.109375 47.828125 
Q 26.265625 48.1875 28.421875 48.1875 
Q 40.625 48.1875 47.75 41.5 
Q 54.890625 34.8125 54.890625 23.390625 
Q 54.890625 11.625 47.5625 5.09375 
Q 40.234375 -1.421875 26.90625 -1.421875 
Q 22.3125 -1.421875 17.546875 -0.640625 
Q 12.796875 0.140625 7.71875 1.703125 
L 7.71875 11.625 
Q 12.109375 9.234375 16.796875 8.0625 
Q 21.484375 6.890625 26.703125 6.890625 
Q 35.15625 6.890625 40.078125 11.328125 
Q 45.015625 15.765625 45.015625 23.390625 
Q 45.015625 31 40.078125 35.4375 
Q 35.15625 39.890625 26.703125 39.890625 
Q 22.75 39.890625 18.8125 39.015625 
Q 14.890625 38.140625 10.796875 36.28125 
z
" id="DejaVuSans-53"/>
      </defs>
      <use xlink:href="#DejaVuSans-69"/>
      <use x="63.183594" xlink:href="#DejaVuSans-69"/>
      <use x="126.367188" xlink:href="#DejaVuSans-82"/>
      <use x="195.849609" xlink:href="#DejaVuSans-61"/>
      <use x="279.638672" xlink:href="#DejaVuSans-48"/>
      <use x="343.261719" xlink:href="#DejaVuSans-46"/>
      <use x="375.048828" xlink:href="#DejaVuSans-51"/>
      <use x="438.671875" xlink:href="#DejaVuSans-53"/>
      <use x="502.294922" xlink:href="#DejaVuSans-48"/>
      <use x="565.917969" xlink:href="#DejaVuSans-53"/>
     </g>
    </g>
    <g id="patch_15">
     <path d="M 456.597167 71.69021 
L 476.597167 71.69021 
L 476.597167 64.69021 
L 456.597167 64.69021 
z
" style="fill:#1f77b4;opacity:0.3;stroke:#1f77b4;stroke-linejoin:miter;"/>
    </g>
    <g id="text_36">
     <!-- AUC=0.73 -->
     <g transform="translate(484.597167 71.69021)scale(0.1 -0.1)">
      <use xlink:href="#DejaVuSans-65"/>
      <use x="68.408203" xlink:href="#DejaVuSans-85"/>
      <use x="141.601562" xlink:href="#DejaVuSans-67"/>
      <use x="211.425781" xlink:href="#DejaVuSans-61"/>
      <use x="295.214844" xlink:href="#DejaVuSans-48"/>
      <use x="358.837891" xlink:href="#DejaVuSans-46"/>
      <use x="390.625" xlink:href="#DejaVuSans-55"/>
      <use x="454.248047" xlink:href="#DejaVuSans-51"/>
     </g>
    </g>
   </g>
  </g>
 </g>
 <defs>
  <clipPath id="p14c8b82e7b">
   <rect height="220.048427" width="226.766102" x="47.540566" y="25.735523"/>
  </clipPath>
  <clipPath id="pc0c21eaebf">
   <rect height="220.048427" width="226.766102" x="329.787316" y="25.735523"/>
  </clipPath>
 </defs>
</svg>
