<svg xmlns="http://www.w3.org/2000/svg" width="716.1204833984375" height="606.406982421875" viewBox="-307.5264587402344 -200.4935760498047 716.1204833984375 606.406982421875"><title>Neo4j Graph Visualization</title><desc>Created using Neo4j (http://www.neo4j.com/)</desc><g class="layer relationships"><g class="relationship" transform="translate(110.28780925839774 105.29053362822056) rotate(375.30865492250547)"><path class="outline" fill="#A5ABB6" stroke="none" d="M 40 0.5 L 56.49955348044722 0.5 L 56.49955348044722 -0.5 L 40 -0.5 Z M 99.49955348044722 0.5 L 115.99910696089444 0.5 L 115.99910696089444 3.5 L 122.99910696089444 0 L 115.99910696089444 -3.5 L 115.99910696089444 -0.5 L 99.49955348044722 -0.5 Z"/><text text-anchor="middle" pointer-events="none" font-size="8px" fill="#000000" x="77.99955348044722" y="3" font-family="sans-serif">MAINTAIN</text></g><g class="relationship" transform="translate(110.28780925839774 105.29053362822056) rotate(260.8179079627613)"><path class="outline" fill="#A5ABB6" stroke="none" d="M 40 0.5 L 55.54431235950318 0.5 L 55.54431235950318 -0.5 L 40 -0.5 Z M 98.54431235950318 0.5 L 114.08862471900636 0.5 L 114.08862471900636 3.5 L 121.08862471900636 0 L 114.08862471900636 -3.5 L 114.08862471900636 -0.5 L 98.54431235950318 -0.5 Z"/><text text-anchor="middle" pointer-events="none" font-size="8px" fill="#000000" x="77.04431235950318" y="3" transform="rotate(180 77.04431235950318 0)" font-family="sans-serif">MAINTAIN</text></g><g class="relationship" transform="translate(110.28780925839774 105.29053362822056) rotate(492.96192789299704)"><path class="outline" fill="#A5ABB6" stroke="none" d="M 40 0.5 L 54.409896255409805 0.5 L 54.409896255409805 -0.5 L 40 -0.5 Z M 97.4098962554098 0.5 L 111.81979251081961 0.5 L 111.81979251081961 3.5 L 118.81979251081961 0 L 111.81979251081961 -3.5 L 111.81979251081961 -0.5 L 97.4098962554098 -0.5 Z"/><text text-anchor="middle" pointer-events="none" font-size="8px" fill="#000000" x="75.9098962554098" y="3" transform="rotate(180 75.9098962554098 0)" font-family="sans-serif">MAINTAIN</text></g><g class="relationship" transform="translate(110.28780925839774 105.29053362822056) rotate(320.1202706715693)"><path class="outline" fill="#A5ABB6" stroke="none" d="M 40 0.5 L 56.71168295890885 0.5 L 56.71168295890885 -0.5 L 40 -0.5 Z M 99.71168295890885 0.5 L 116.4233659178177 0.5 L 116.4233659178177 3.5 L 123.4233659178177 0 L 116.4233659178177 -3.5 L 116.4233659178177 -0.5 L 99.71168295890885 -0.5 Z"/><text text-anchor="middle" pointer-events="none" font-size="8px" fill="#000000" x="78.21168295890885" y="3" font-family="sans-serif">MAINTAIN</text></g><g class="relationship" transform="translate(110.28780925839774 105.29053362822056) rotate(186.02910263499507)"><path class="outline" fill="#A5ABB6" stroke="none" d="M 40 0.5 L 61.09588669972189 0.5 L 61.09588669972189 -0.5 L 40 -0.5 Z M 104.09588669972189 0.5 L 125.19177339944378 0.5 L 125.19177339944378 3.5 L 132.19177339944378 0 L 125.19177339944378 -3.5 L 125.19177339944378 -0.5 L 104.09588669972189 -0.5 Z"/><text text-anchor="middle" pointer-events="none" font-size="8px" fill="#000000" x="82.59588669972189" y="3" transform="rotate(180 82.59588669972189 0)" font-family="sans-serif">MAINTAIN</text></g><g class="relationship" transform="translate(110.28780925839774 105.29053362822056) rotate(436.9360875575218)"><path class="outline" fill="#A5ABB6" stroke="none" d="M 40 0.5 L 56.844157244492735 0.5 L 56.844157244492735 -0.5 L 40 -0.5 Z M 99.84415724449273 0.5 L 116.68831448898547 0.5 L 116.68831448898547 3.5 L 123.68831448898547 0 L 116.68831448898547 -3.5 L 116.68831448898547 -0.5 L 99.84415724449273 -0.5 Z"/><text text-anchor="middle" pointer-events="none" font-size="8px" fill="#000000" x="78.34415724449273" y="3" font-family="sans-serif">MAINTAIN</text></g><g class="relationship" transform="translate(253.03554495276413 144.365072849478) rotate(337.19199574987806)"><path class="outline" fill="#A5ABB6" stroke="none" d="M 25 0.5 L 37.84313496503448 0.5 L 37.84313496503448 -0.5 L 25 -0.5 Z M 80.84313496503448 0.5 L 93.68626993006896 0.5 L 93.68626993006896 3.5 L 100.68626993006896 0 L 93.68626993006896 -3.5 L 93.68626993006896 -0.5 L 80.84313496503448 -0.5 Z"/><text text-anchor="middle" pointer-events="none" font-size="8px" fill="#000000" x="59.34313496503448" y="3" font-family="sans-serif">character</text></g><g class="relationship" transform="translate(253.03554495276413 144.365072849478) rotate(410.4038436260546)"><path class="outline" fill="#A5ABB6" stroke="none" d="M 25 0.5 L 37.875414367169796 0.5 L 37.875414367169796 -0.5 L 25 -0.5 Z M 80.8754143671698 0.5 L 93.75082873433959 0.5 L 93.75082873433959 3.5 L 100.75082873433959 0 L 93.75082873433959 -3.5 L 93.75082873433959 -0.5 L 80.8754143671698 -0.5 Z"/><text text-anchor="middle" pointer-events="none" font-size="8px" fill="#000000" x="59.375414367169796" y="3" font-family="sans-serif">character</text></g><g class="relationship" transform="translate(253.03554495276413 144.365072849478) rotate(373.6794087203408)"><path class="outline" fill="#A5ABB6" stroke="none" d="M 25 0.5 L 40.12664084808446 0.5 L 40.12664084808446 -0.5 L 25 -0.5 Z M 83.12664084808446 0.5 L 98.25328169616893 0.5 L 98.25328169616893 3.5 L 105.25328169616893 0 L 98.25328169616893 -3.5 L 98.25328169616893 -0.5 L 83.12664084808446 -0.5 Z"/><text text-anchor="middle" pointer-events="none" font-size="8px" fill="#000000" x="61.62664084808446" y="3" font-family="sans-serif">character</text></g><g class="relationship" transform="translate(86.9760606317132 -38.92613894557358) rotate(272.6870525203469)"><path class="outline" fill="#A5ABB6" stroke="none" d="M 25 0.5 L 25.3566787983129 0.5 L 25.3566787983129 -0.5 L 25 -0.5 Z M 100.3566787983129 0.5 L 100.7133575966258 0.5 L 100.7133575966258 3.5 L 107.7133575966258 0 L 100.7133575966258 -3.5 L 100.7133575966258 -0.5 L 100.3566787983129 -0.5 Z"/><text text-anchor="middle" pointer-events="none" font-size="8px" fill="#000000" x="62.8566787983129" y="3" font-family="sans-serif">profesional_score</text></g><g class="relationship" transform="translate(86.9760606317132 -38.92613894557358) rotate(241.02864503758104)"><path class="outline" fill="#A5ABB6" stroke="none" d="M 25 0.5 L 26.668581603534662 0.5 L 26.668581603534662 -0.5 L 25 -0.5 Z M 96.66858160353466 0.5 L 98.33716320706932 0.5 L 98.33716320706932 3.5 L 105.33716320706932 0 L 98.33716320706932 -3.5 L 98.33716320706932 -0.5 L 96.66858160353466 -0.5 Z"/><text text-anchor="middle" pointer-events="none" font-size="8px" fill="#000000" x="61.66858160353466" y="3" transform="rotate(180 61.66858160353466 0)" font-family="sans-serif">profesional_sc…</text></g><g class="relationship" transform="translate(86.9760606317132 -38.92613894557358) rotate(308.2295967627281)"><path class="outline" fill="#A5ABB6" stroke="none" d="M 25 0.5 L 25.767146963525512 0.5 L 25.767146963525512 -0.5 L 25 -0.5 Z M 91.7671469635255 0.5 L 92.53429392705102 0.5 L 92.53429392705102 3.5 L 99.53429392705102 0 L 92.53429392705102 -3.5 L 92.53429392705102 -0.5 L 91.7671469635255 -0.5 Z"/><text text-anchor="middle" pointer-events="none" font-size="8px" fill="#000000" x="58.76714696352551" y="3" font-family="sans-serif">profesional_s…</text></g><g class="relationship" transform="translate(86.9760606317132 -38.92613894557358) rotate(205.34597289799513)"><path class="outline" fill="#A5ABB6" stroke="none" d="M 25 0.5 L 26.31481845034307 0.5 L 26.31481845034307 -0.5 L 25 -0.5 Z M 88.31481845034307 0.5 L 89.62963690068614 0.5 L 89.62963690068614 3.5 L 96.62963690068614 0 L 89.62963690068614 -3.5 L 89.62963690068614 -0.5 L 88.31481845034307 -0.5 Z"/><text text-anchor="middle" pointer-events="none" font-size="8px" fill="#000000" x="57.31481845034307" y="3" transform="rotate(180 57.31481845034307 0)" font-family="sans-serif">profesional_…</text></g><g class="relationship" transform="translate(12.27286074255373 210.5388238057415) rotate(470.1023477236179)"><path class="outline" fill="#A5ABB6" stroke="none" d="M 25 0.5 L 35.1380078223808 0.5 L 35.1380078223808 -0.5 L 25 -0.5 Z M 86.1380078223808 0.5 L 96.2760156447616 0.5 L 96.2760156447616 3.5 L 103.2760156447616 0 L 96.2760156447616 -3.5 L 96.2760156447616 -0.5 L 86.1380078223808 -0.5 Z"/><text text-anchor="middle" pointer-events="none" font-size="8px" fill="#000000" x="60.6380078223808" y="3" transform="rotate(180 60.6380078223808 0)" font-family="sans-serif">leader_ship</text></g><g class="relationship" transform="translate(12.27286074255373 210.5388238057415) rotate(509.94911652316915)"><path class="outline" fill="#A5ABB6" stroke="none" d="M 25 0.5 L 33.387657654257055 0.5 L 33.387657654257055 -0.5 L 25 -0.5 Z M 84.38765765425705 0.5 L 92.77531530851411 0.5 L 92.77531530851411 3.5 L 99.77531530851411 0 L 92.77531530851411 -3.5 L 92.77531530851411 -0.5 L 84.38765765425705 -0.5 Z"/><text text-anchor="middle" pointer-events="none" font-size="8px" fill="#000000" x="58.887657654257055" y="3" transform="rotate(180 58.887657654257055 0)" font-family="sans-serif">leader_ship</text></g><g class="relationship" transform="translate(-46.034485075878074 88.78011514381768) rotate(531.2470800103071)"><path class="outline" fill="#A5ABB6" stroke="none" d="M 25 0.5 L 37.839418267561044 0.5 L 37.839418267561044 -0.5 L 25 -0.5 Z M 90.83941826756104 0.5 L 103.67883653512209 0.5 L 103.67883653512209 3.5 L 110.67883653512209 0 L 103.67883653512209 -3.5 L 103.67883653512209 -0.5 L 90.83941826756104 -0.5 Z"/><text text-anchor="middle" pointer-events="none" font-size="8px" fill="#000000" x="64.33941826756104" y="3" transform="rotate(180 64.33941826756104 0)" font-family="sans-serif">Background</text></g><g class="relationship" transform="translate(-46.034485075878074 88.78011514381768) rotate(227.07176713348184)"><path class="outline" fill="#A5ABB6" stroke="none" d="M 25 0.5 L 30.71279516768567 0.5 L 30.71279516768567 -0.5 L 25 -0.5 Z M 83.71279516768567 0.5 L 89.42559033537134 0.5 L 89.42559033537134 3.5 L 96.42559033537134 0 L 89.42559033537134 -3.5 L 89.42559033537134 -0.5 L 83.71279516768567 -0.5 Z"/><text text-anchor="middle" pointer-events="none" font-size="8px" fill="#000000" x="57.21279516768567" y="3" transform="rotate(180 57.21279516768567 0)" font-family="sans-serif">Background</text></g><g class="relationship" transform="translate(143.89698978809872 250.1305759152118) rotate(473.34633193947525)"><path class="outline" fill="#A5ABB6" stroke="none" d="M 25 0.5 L 44.591685986829454 0.5 L 44.591685986829454 -0.5 L 25 -0.5 Z M 74.59168598682945 0.5 L 94.18337197365891 0.5 L 94.18337197365891 3.5 L 101.18337197365891 0 L 94.18337197365891 -3.5 L 94.18337197365891 -0.5 L 74.59168598682945 -0.5 Z"/><text text-anchor="middle" pointer-events="none" font-size="8px" fill="#000000" x="59.591685986829454" y="3" transform="rotate(180 59.591685986829454 0)" font-family="sans-serif">target</text></g><g class="relationship" transform="translate(143.89698978809872 250.1305759152118) rotate(400.4023865531633)"><path class="outline" fill="#A5ABB6" stroke="none" d="M 25 0.5 L 44.18572012121346 0.5 L 44.18572012121346 -0.5 L 25 -0.5 Z M 74.18572012121345 0.5 L 93.37144024242691 0.5 L 93.37144024242691 3.5 L 100.37144024242691 0 L 93.37144024242691 -3.5 L 93.37144024242691 -0.5 L 74.18572012121345 -0.5 Z"/><text text-anchor="middle" pointer-events="none" font-size="8px" fill="#000000" x="59.18572012121346" y="3" font-family="sans-serif">target</text></g><g class="relationship" transform="translate(143.89698978809872 250.1305759152118) rotate(436.5985012873328)"><path class="outline" fill="#A5ABB6" stroke="none" d="M 25 0.5 L 46.66588949659055 0.5 L 46.66588949659055 -0.5 L 25 -0.5 Z M 76.66588949659055 0.5 L 98.3317789931811 0.5 L 98.3317789931811 3.5 L 105.3317789931811 0 L 98.3317789931811 -3.5 L 98.3317789931811 -0.5 L 76.66588949659055 -0.5 Z"/><text text-anchor="middle" pointer-events="none" font-size="8px" fill="#000000" x="61.66588949659055" y="3" font-family="sans-serif">target</text></g><g class="relationship" transform="translate(224.18671914596274 10.124710578142533) rotate(300.868809445259)"><path class="outline" fill="#A5ABB6" stroke="none" d="M 25 0.5 L 46.765959244370265 0.5 L 46.765959244370265 -0.5 L 25 -0.5 Z M 75.76595924437026 0.5 L 97.53191848874053 0.5 L 97.53191848874053 3.5 L 104.53191848874053 0 L 97.53191848874053 -3.5 L 97.53191848874053 -0.5 L 75.76595924437026 -0.5 Z"/><text text-anchor="middle" pointer-events="none" font-size="8px" fill="#000000" x="61.265959244370265" y="3" font-family="sans-serif">factor</text></g><g class="relationship" transform="translate(224.18671914596274 10.124710578142533) rotate(339.1790283667193)"><path class="outline" fill="#A5ABB6" stroke="none" d="M 25 0.5 L 47.05012734260147 0.5 L 47.05012734260147 -0.5 L 25 -0.5 Z M 76.05012734260147 0.5 L 98.10025468520294 0.5 L 98.10025468520294 3.5 L 105.10025468520294 0 L 98.10025468520294 -3.5 L 98.10025468520294 -0.5 L 76.05012734260147 -0.5 Z"/><text text-anchor="middle" pointer-events="none" font-size="8px" fill="#000000" x="61.55012734260147" y="3" font-family="sans-serif">factor</text></g><g class="relationship" transform="translate(-180.13317283668098 109.42687334831717) rotate(499.3859137994826)"><path class="outline" fill="#A5ABB6" stroke="none" d="M 25 0.5 L 28.061006528092115 0.5 L 28.061006528092115 -0.5 L 25 -0.5 Z M 82.06100652809212 0.5 L 85.12201305618423 0.5 L 85.12201305618423 3.5 L 92.12201305618423 0 L 85.12201305618423 -3.5 L 85.12201305618423 -0.5 L 82.06100652809212 -0.5 Z"/><text text-anchor="middle" pointer-events="none" font-size="8px" fill="#000000" x="55.061006528092115" y="3" transform="rotate(180 55.061006528092115 0)" font-family="sans-serif">Work_Detail</text></g><g class="relationship" transform="translate(-180.13317283668098 109.42687334831717) rotate(213.32653388730756)"><path class="outline" fill="#A5ABB6" stroke="none" d="M 25 0.5 L 28.379147317644716 0.5 L 28.379147317644716 -0.5 L 25 -0.5 Z M 82.37914731764471 0.5 L 85.75829463528943 0.5 L 85.75829463528943 3.5 L 92.75829463528943 0 L 85.75829463528943 -3.5 L 85.75829463528943 -0.5 L 82.37914731764471 -0.5 Z"/><text text-anchor="middle" pointer-events="none" font-size="8px" fill="#000000" x="55.379147317644716" y="3" transform="rotate(180 55.379147317644716 0)" font-family="sans-serif">Work_Detail</text></g></g><g class="layer nodes"><g class="node" transform="translate(110.28780925839774,105.29053362822056)"><circle class="outline" cx="0" cy="0" r="40" fill="#68BDF6" stroke="#5CA8DB" stroke-width="2px"/><text text-anchor="middle" pointer-events="none" font-family="sans-serif" dy="2.5" font-size="40" fill="#FFFFFF"/><text text-anchor="middle" pointer-events="none" y="5" font-size="10px" fill="#FFFFFF" font-family="sans-serif"> 用户1</text></g><g class="node" transform="translate(253.03554495276413,144.365072849478)"><circle class="outline" cx="0" cy="0" r="25" fill="#6DCE9E" stroke="#60B58B" stroke-width="2px"/><text text-anchor="middle" pointer-events="none" font-family="sans-serif" dy="1.5625" font-size="25" fill="#FFFFFF"/><text text-anchor="middle" pointer-events="none" y="5" font-size="10px" fill="#FFFFFF" font-family="sans-serif"> Charac…</text></g><g class="node" transform="translate(86.9760606317132,-38.92613894557358)"><circle class="outline" cx="0" cy="0" r="25" fill="#FF756E" stroke="#E06760" stroke-width="2px"/><text text-anchor="middle" pointer-events="none" font-family="sans-serif" dy="1.5625" font-size="25" fill="#FFFFFF"/><text text-anchor="middle" pointer-events="none" y="5" font-size="10px" fill="#FFFFFF" font-family="sans-serif"> Profesi…</text></g><g class="node" transform="translate(12.27286074255373,210.5388238057415)"><circle class="outline" cx="0" cy="0" r="25" fill="#DE9BF9" stroke="#BF85D6" stroke-width="2px"/><text text-anchor="middle" pointer-events="none" font-family="sans-serif" dy="1.5625" font-size="25" fill="#FFFFFF"/><text text-anchor="middle" pointer-events="none" y="5" font-size="10px" fill="#FFFFFF" font-family="sans-serif"> Leader…</text></g><g class="node" transform="translate(-46.034485075878074,88.78011514381768)"><circle class="outline" cx="0" cy="0" r="25" fill="#FB95AF" stroke="#E0849B" stroke-width="2px"/><text text-anchor="middle" pointer-events="none" font-family="sans-serif" dy="1.5625" font-size="25" fill="#FFFFFF"/><text text-anchor="middle" pointer-events="none" y="5" font-size="10px" fill="#FFFFFF" font-family="sans-serif"> Backgr…</text></g><g class="node" transform="translate(143.89698978809872,250.1305759152118)"><circle class="outline" cx="0" cy="0" r="25" fill="#FFD86E" stroke="#EDBA39" stroke-width="2px"/><text text-anchor="middle" pointer-events="none" font-family="sans-serif" dy="1.5625" font-size="25" fill="#604A0E"/><text text-anchor="middle" pointer-events="none" y="5" font-size="10px" fill="#604A0E" font-family="sans-serif"> Target</text></g><g class="node" transform="translate(224.18671914596274,10.124710578142533)"><circle class="outline" cx="0" cy="0" r="25" fill="#68BDF6" stroke="#5CA8DB" stroke-width="2px"/><text text-anchor="middle" pointer-events="none" font-family="sans-serif" dy="1.5625" font-size="25" fill="#FFFFFF"/><text text-anchor="middle" pointer-events="none" y="5" font-size="10px" fill="#FFFFFF" font-family="sans-serif"> Factor</text></g><g class="node" transform="translate(379.59408465665416,175.1685372754224)"><circle class="outline" cx="0" cy="0" r="25" fill="#A5ABB6" stroke="#9AA1AC" stroke-width="2px"/><text text-anchor="middle" pointer-events="none" font-family="sans-serif" dy="1.5625" font-size="25" fill="#FFFFFF"/><text text-anchor="middle" pointer-events="none" y="5" font-size="10px" fill="#FFFFFF" font-family="sans-serif"> Red</text></g><g class="node" transform="translate(368.8942805632381,95.6434982477018)"><circle class="outline" cx="0" cy="0" r="25" fill="#A5ABB6" stroke="#9AA1AC" stroke-width="2px"/><text text-anchor="middle" pointer-events="none" font-family="sans-serif" dy="1.5625" font-size="25" fill="#FFFFFF"/><text text-anchor="middle" pointer-events="none" y="5" font-size="10px" fill="#FFFFFF" font-family="sans-serif"> Green</text></g><g class="node" transform="translate(333.185639796782,241.26312868068723)"><circle class="outline" cx="0" cy="0" r="25" fill="#A5ABB6" stroke="#9AA1AC" stroke-width="2px"/><text text-anchor="middle" pointer-events="none" font-family="sans-serif" dy="1.5625" font-size="25" fill="#FFFFFF"/><text text-anchor="middle" pointer-events="none" y="5" font-size="10px" fill="#FFFFFF" font-family="sans-serif"> Yellow</text></g><g class="node" transform="translate(93.19775894961886,-171.49357746126205)"><circle class="outline" cx="0" cy="0" r="25" fill="#A5ABB6" stroke="#9AA1AC" stroke-width="2px"/><text text-anchor="middle" pointer-events="none" font-family="sans-serif" dy="1.5625" font-size="25" fill="#FFFFFF"/><text text-anchor="middle" pointer-events="none" y="5" font-size="10px" fill="#FFFFFF" font-family="sans-serif"> Python</text></g><g class="node" transform="translate(23.84434997903072,-152.95316742098464)"><circle class="outline" cx="0" cy="0" r="25" fill="#A5ABB6" stroke="#9AA1AC" stroke-width="2px"/><text text-anchor="middle" pointer-events="none" font-family="sans-serif" dy="1.5625" font-size="25" fill="#FFFFFF"/><text text-anchor="middle" pointer-events="none" y="5" font-size="10px" fill="#FFFFFF" font-family="sans-serif"> Linux</text></g><g class="node" transform="translate(164.03965705251898,-136.7524772732464)"><circle class="outline" cx="0" cy="0" r="25" fill="#A5ABB6" stroke="#9AA1AC" stroke-width="2px"/><text text-anchor="middle" pointer-events="none" font-family="sans-serif" dy="1.5625" font-size="25" fill="#FFFFFF"/><text text-anchor="middle" pointer-events="none" y="5" font-size="10px" fill="#FFFFFF" font-family="sans-serif"> Hadoop</text></g><g class="node" transform="translate(-22.94542908340369,-90.99373608047316)"><circle class="outline" cx="0" cy="0" r="25" fill="#A5ABB6" stroke="#9AA1AC" stroke-width="2px"/><text text-anchor="middle" pointer-events="none" font-family="sans-serif" dy="1.5625" font-size="25" fill="#FFFFFF"/><text text-anchor="middle" pointer-events="none" y="5" font-size="10px" fill="#FFFFFF" font-family="sans-serif"> Spark</text></g><g class="node" transform="translate(-31.815371623103875,331.000286342799)"><circle class="outline" cx="0" cy="0" r="25" fill="#A5ABB6" stroke="#9AA1AC" stroke-width="2px"/><text text-anchor="middle" pointer-events="none" font-family="sans-serif" dy="1.5625" font-size="25" fill="#FFFFFF"/><text text-anchor="middle" pointer-events="none" y="5" font-size="10px" fill="#FFFFFF" font-family="sans-serif"> Lavel1</text></g><g class="node" transform="translate(-95.73028398117606,273.0224219745745)"><circle class="outline" cx="0" cy="0" r="25" fill="#A5ABB6" stroke="#9AA1AC" stroke-width="2px"/><text text-anchor="middle" pointer-events="none" font-family="sans-serif" dy="1.5625" font-size="25" fill="#FFFFFF"/><text text-anchor="middle" pointer-events="none" y="5" font-size="10px" fill="#FFFFFF" font-family="sans-serif"> Lavel2</text></g><g class="node" transform="translate(-128.73523882576745,-0.12859825084115764)"><circle class="outline" cx="0" cy="0" r="25" fill="#A5ABB6" stroke="#9AA1AC" stroke-width="2px"/><text text-anchor="middle" pointer-events="none" font-family="sans-serif" dy="1.5625" font-size="25" fill="#FFFFFF"/><text text-anchor="middle" pointer-events="none" y="5" font-size="10px" fill="#FFFFFF" font-family="sans-serif"> Profess…</text></g><g class="node" transform="translate(-180.13317283668098,109.42687334831717)"><circle class="outline" cx="0" cy="0" r="25" fill="#A5ABB6" stroke="#9AA1AC" stroke-width="2px"/><text text-anchor="middle" pointer-events="none" font-family="sans-serif" dy="1.5625" font-size="25" fill="#FFFFFF"/><text text-anchor="middle" pointer-events="none" y="5" font-size="10px" fill="#FFFFFF" font-family="sans-serif"> Work</text></g><g class="node" transform="translate(-278.52647122599467,44.72930934871117)"><circle class="outline" cx="0" cy="0" r="25" fill="#A5ABB6" stroke="#9AA1AC" stroke-width="2px"/><text text-anchor="middle" pointer-events="none" font-family="sans-serif" dy="1.5625" font-size="25" fill="#FFFFFF"/><text text-anchor="middle" pointer-events="none" y="5" font-size="10px" fill="#FFFFFF" font-family="sans-serif"> Period 1</text></g><g class="node" transform="translate(-269.0418153925207,185.6687202646329)"><circle class="outline" cx="0" cy="0" r="25" fill="#A5ABB6" stroke="#9AA1AC" stroke-width="2px"/><text text-anchor="middle" pointer-events="none" font-family="sans-serif" dy="1.5625" font-size="25" fill="#FFFFFF"/><text text-anchor="middle" pointer-events="none" y="5" font-size="10px" fill="#FFFFFF" font-family="sans-serif"> Period 2</text></g><g class="node" transform="translate(174.10442265666808,376.9133965772332)"><circle class="outline" cx="0" cy="0" r="25" fill="#A5ABB6" stroke="#9AA1AC" stroke-width="2px"/><text text-anchor="middle" pointer-events="none" font-family="sans-serif" dy="1.5625" font-size="25" fill="#FFFFFF"/><text text-anchor="middle" pointer-events="none" y="5" font-size="10px" fill="#FFFFFF" font-family="sans-serif"> City</text></g><g class="node" transform="translate(239.3687595591022,331.3902781374876)"><circle class="outline" cx="0" cy="0" r="25" fill="#A5ABB6" stroke="#9AA1AC" stroke-width="2px"/><text text-anchor="middle" pointer-events="none" font-family="sans-serif" dy="1.5625" font-size="25" fill="#FFFFFF"/><text text-anchor="middle" pointer-events="none" y="5" font-size="10px" fill="#FFFFFF" font-family="sans-serif"> Salary</text></g><g class="node" transform="translate(93.8920248258333,365.9828389132447)"><circle class="outline" cx="0" cy="0" r="25" fill="#A5ABB6" stroke="#9AA1AC" stroke-width="2px"/><text text-anchor="middle" pointer-events="none" font-family="sans-serif" dy="1.5625" font-size="25" fill="#FFFFFF"/><text text-anchor="middle" pointer-events="none" y="5" font-size="10px" fill="#FFFFFF" font-family="sans-serif"> Area</text></g><g class="node" transform="translate(345.7908594543252,-36.11930880835515)"><circle class="outline" cx="0" cy="0" r="25" fill="#A5ABB6" stroke="#9AA1AC" stroke-width="2px"/><text text-anchor="middle" pointer-events="none" font-family="sans-serif" dy="1.5625" font-size="25" fill="#FFFFFF"/><text text-anchor="middle" pointer-events="none" y="5" font-size="10px" fill="#FFFFFF" font-family="sans-serif"> Lavel1</text></g><g class="node" transform="translate(290.646187039346,-101.05827838465737)"><circle class="outline" cx="0" cy="0" r="25" fill="#A5ABB6" stroke="#9AA1AC" stroke-width="2px"/><text text-anchor="middle" pointer-events="none" font-family="sans-serif" dy="1.5625" font-size="25" fill="#FFFFFF"/><text text-anchor="middle" pointer-events="none" y="5" font-size="10px" fill="#FFFFFF" font-family="sans-serif"> Lavel2</text></g></g></svg>