<svg xmlns="http://www.w3.org/2000/svg" width="1453.75" height="512.0850830078125" viewBox="-598.3450927734375 -280.691650390625 1453.75 512.0850830078125"><title>Neo4j Graph Visualization</title><desc>Created using Neo4j (http://www.neo4j.com/)</desc><g class="layer relationships"><g class="relationship" transform="translate(-561.8451044360904 -15.70196954083633) rotate(360.418168957465)"><path class="outline" fill="#A5ABB6" stroke="none" d="M 32.5 2.5 L 70.21143033224334 2.5 L 70.21143033224334 -2.5 L 32.5 -2.5 Z M 98.21143033224334 2.5 L 135.92286066448668 2.5 L 135.92286066448668 5.5 L 146.92286066448668 0 L 135.92286066448668 -5.5 L 135.92286066448668 -2.5 L 98.21143033224334 -2.5 Z"/><text text-anchor="middle" pointer-events="none" font-size="8px" fill="#000000" x="84.21143033224334" y="3" font-family="sans-serif">same</text></g><g class="relationship" transform="translate(-382.4270224100022 -14.392476849871258) rotate(415.0594422669113)"><path class="outline" fill="#A5ABB6" stroke="none" d="M 32.5 2.5 L 55.966805477566695 2.5 L 55.966805477566695 -2.5 L 32.5 -2.5 Z M 83.9668054775667 2.5 L 107.43361095513339 2.5 L 107.43361095513339 5.5 L 118.43361095513339 0 L 107.43361095513339 -5.5 L 107.43361095513339 -2.5 L 83.9668054775667 -2.5 Z"/><text text-anchor="middle" pointer-events="none" font-size="8px" fill="#000000" x="69.9668054775667" y="3" font-family="sans-serif">same</text></g><g class="relationship" transform="translate(-295.9833757239089 109.33484779414353) rotate(360.57159553010393)"><path class="outline" fill="#A5ABB6" stroke="none" d="M 32.5 2.5 L 55.607300564344726 2.5 L 55.607300564344726 -2.5 L 32.5 -2.5 Z M 83.60730056434473 2.5 L 106.71460112868945 2.5 L 106.71460112868945 5.5 L 117.71460112868945 0 L 106.71460112868945 -5.5 L 106.71460112868945 -2.5 L 83.60730056434473 -2.5 Z"/><text text-anchor="middle" pointer-events="none" font-size="8px" fill="#000000" x="69.60730056434473" y="3" font-family="sans-serif">same</text></g><g class="relationship" transform="translate(-145.77624959069928 110.833397444079) rotate(360.3867925732178)"><path class="outline" fill="#A5ABB6" stroke="none" d="M 32.5 2.5 L 53.132919753410306 2.5 L 53.132919753410306 -2.5 L 32.5 -2.5 Z M 92.1329197534103 2.5 L 112.76583950682061 2.5 L 112.76583950682061 5.5 L 123.76583950682061 0 L 112.76583950682061 -5.5 L 112.76583950682061 -2.5 L 92.1329197534103 -2.5 Z"/><text text-anchor="middle" pointer-events="none" font-size="8px" fill="#000000" x="72.6329197534103" y="3" font-family="sans-serif">upgrade</text></g><g class="relationship" transform="translate(10.486029150462073 111.88830947406227) rotate(359.79944544634577)"><path class="outline" fill="#A5ABB6" stroke="none" d="M 32.5 2.5 L 42.07095998465247 2.5 L 42.07095998465247 -2.5 L 32.5 -2.5 Z M 70.07095998465246 2.5 L 79.64191996930494 2.5 L 79.64191996930494 5.5 L 90.64191996930494 0 L 79.64191996930494 -5.5 L 79.64191996930494 -2.5 L 70.07095998465246 -2.5 Z"/><text text-anchor="middle" pointer-events="none" font-size="8px" fill="#000000" x="56.07095998465247" y="3" font-family="sans-serif">same</text></g><g class="relationship" transform="translate(133.62719473089908 111.45727209969732) rotate(360.2538404154153)"><path class="outline" fill="#A5ABB6" stroke="none" d="M 32.5 2.5 L 64.37336113536638 2.5 L 64.37336113536638 -2.5 L 32.5 -2.5 Z M 92.37336113536638 2.5 L 124.24672227073276 2.5 L 124.24672227073276 5.5 L 135.24672227073276 0 L 124.24672227073276 -5.5 L 124.24672227073276 -2.5 L 92.37336113536638 -2.5 Z"/><text text-anchor="middle" pointer-events="none" font-size="8px" fill="#000000" x="78.37336113536638" y="3" font-family="sans-serif">same</text></g><g class="relationship" transform="translate(301.37227073713734 112.20044653124137) rotate(358.90076182318603)"><path class="outline" fill="#A5ABB6" stroke="none" d="M 32.5 2.5 L 57.1341981483249 2.5 L 57.1341981483249 -2.5 L 32.5 -2.5 Z M 85.1341981483249 2.5 L 109.7683962966498 2.5 L 109.7683962966498 5.5 L 120.7683962966498 0 L 109.7683962966498 -5.5 L 109.7683962966498 -2.5 L 85.1341981483249 -2.5 Z"/><text text-anchor="middle" pointer-events="none" font-size="8px" fill="#000000" x="71.1341981483249" y="3" font-family="sans-serif">same</text></g><g class="relationship" transform="translate(454.61246063525357 109.26012285243209) rotate(349.93707375533256)"><path class="outline" fill="#A5ABB6" stroke="none" d="M 32.5 2.5 L 149.9334502509572 2.5 L 149.9334502509572 -2.5 L 32.5 -2.5 Z M 193.9334502509572 2.5 L 311.3669005019144 2.5 L 311.3669005019144 5.5 L 322.3669005019144 0 L 311.3669005019144 -5.5 L 311.3669005019144 -2.5 L 193.9334502509572 -2.5 Z"/><text text-anchor="middle" pointer-events="none" font-size="8px" fill="#000000" x="171.9334502509572" y="3" font-family="sans-serif">career_as</text></g><g class="relationship" transform="translate(-382.4270224100022 -14.392476849871258) rotate(319.67400805766465)"><path class="outline" fill="#A5ABB6" stroke="none" d="M 32.5 2.5 L 57.39191969202457 2.5 L 57.39191969202457 -2.5 L 32.5 -2.5 Z M 96.39191969202457 2.5 L 121.28383938404914 2.5 L 121.28383938404914 5.5 L 132.28383938404914 0 L 121.28383938404914 -5.5 L 121.28383938404914 -2.5 L 96.39191969202457 -2.5 Z"/><text text-anchor="middle" pointer-events="none" font-size="8px" fill="#000000" x="76.89191969202457" y="3" font-family="sans-serif">upgrade</text></g><g class="relationship" transform="translate(-256.7999695055191 -121.02998104366934) rotate(360.3927207524284)"><path class="outline" fill="#A5ABB6" stroke="none" d="M 32.5 2.5 L 44.9670298870672 2.5 L 44.9670298870672 -2.5 L 32.5 -2.5 Z M 72.9670298870672 2.5 L 85.4340597741344 2.5 L 85.4340597741344 5.5 L 96.4340597741344 0 L 85.4340597741344 -5.5 L 85.4340597741344 -2.5 L 72.9670298870672 -2.5 Z"/><text text-anchor="middle" pointer-events="none" font-size="8px" fill="#000000" x="58.9670298870672" y="3" font-family="sans-serif">same</text></g><g class="relationship" transform="translate(-127.86893844631999 -120.146239083649) rotate(360.60639048502696)"><path class="outline" fill="#A5ABB6" stroke="none" d="M 32.5 2.5 L 43.32579936207526 2.5 L 43.32579936207526 -2.5 L 32.5 -2.5 Z M 71.32579936207526 2.5 L 82.15159872415052 2.5 L 82.15159872415052 5.5 L 93.15159872415052 0 L 82.15159872415052 -5.5 L 82.15159872415052 -2.5 L 71.32579936207526 -2.5 Z"/><text text-anchor="middle" pointer-events="none" font-size="8px" fill="#000000" x="57.32579936207526" y="3" font-family="sans-serif">same</text></g><g class="relationship" transform="translate(-2.224376817924494 -118.81642889295696) rotate(359.17210353866597)"><path class="outline" fill="#A5ABB6" stroke="none" d="M 32.5 2.5 L 40.117942144111204 2.5 L 40.117942144111204 -2.5 L 32.5 -2.5 Z M 68.1179421441112 2.5 L 75.73588428822241 2.5 L 75.73588428822241 5.5 L 86.73588428822241 0 L 75.73588428822241 -5.5 L 75.73588428822241 -2.5 L 68.1179421441112 -2.5 Z"/><text text-anchor="middle" pointer-events="none" font-size="8px" fill="#000000" x="54.117942144111204" y="3" font-family="sans-serif">same</text></g><g class="relationship" transform="translate(116.99906014003695 -120.53927012921687) rotate(501.68542377141756)"><path class="outline" fill="#A5ABB6" stroke="none" d="M 32.5 2.5 L 66.26127949989683 2.5 L 66.26127949989683 -2.5 L 32.5 -2.5 Z M 94.26127949989683 2.5 L 128.02255899979366 2.5 L 128.02255899979366 5.5 L 139.02255899979366 0 L 128.02255899979366 -5.5 L 128.02255899979366 -2.5 L 94.26127949989683 -2.5 Z"/><text text-anchor="middle" pointer-events="none" font-size="8px" fill="#000000" x="80.26127949989683" y="3" transform="rotate(180 80.26127949989683 0)" font-family="sans-serif">same</text></g><g class="relationship" transform="translate(-17.580742214362353 -14.198943610588415) rotate(360.4136244578376)"><path class="outline" fill="#A5ABB6" stroke="none" d="M 32.5 2.5 L 55.84867126216601 2.5 L 55.84867126216601 -2.5 L 32.5 -2.5 Z M 83.84867126216601 2.5 L 107.19734252433202 2.5 L 107.19734252433202 5.5 L 118.19734252433202 0 L 107.19734252433202 -5.5 L 107.19734252433202 -2.5 L 83.84867126216601 -2.5 Z"/><text text-anchor="middle" pointer-events="none" font-size="8px" fill="#000000" x="69.84867126216601" y="3" font-family="sans-serif">same</text></g><g class="relationship" transform="translate(133.1126734911021 -13.11105257012207) rotate(359.60773399994093)"><path class="outline" fill="#A5ABB6" stroke="none" d="M 32.5 2.5 L 59.49988377154793 2.5 L 59.49988377154793 -2.5 L 32.5 -2.5 Z M 87.49988377154793 2.5 L 114.49976754309586 2.5 L 114.49976754309586 5.5 L 125.49976754309586 0 L 114.49976754309586 -5.5 L 114.49976754309586 -2.5 L 87.49988377154793 -2.5 Z"/><text text-anchor="middle" pointer-events="none" font-size="8px" fill="#000000" x="73.49988377154793" y="3" font-family="sans-serif">same</text></g><g class="relationship" transform="translate(291.1087381440766 -14.192763180881059) rotate(230.30976848318613)"><path class="outline" fill="#A5ABB6" stroke="none" d="M 32.5 2.5 L 44.20376547527408 2.5 L 44.20376547527408 -2.5 L 32.5 -2.5 Z M 83.20376547527408 2.5 L 94.90753095054816 2.5 L 94.90753095054816 5.5 L 105.90753095054816 0 L 94.90753095054816 -5.5 L 94.90753095054816 -2.5 L 83.20376547527408 -2.5 Z"/><text text-anchor="middle" pointer-events="none" font-size="8px" fill="#000000" x="63.70376547527408" y="3" transform="rotate(180 63.70376547527408 0)" font-family="sans-serif">upgrade</text></g><g class="relationship" transform="translate(202.71661878782083 -120.69852762363965) rotate(360.2185906723591)"><path class="outline" fill="#A5ABB6" stroke="none" d="M 32.5 2.5 L 51.55913887242974 2.5 L 51.55913887242974 -2.5 L 32.5 -2.5 Z M 79.55913887242974 2.5 L 98.61827774485948 2.5 L 98.61827774485948 5.5 L 109.61827774485948 0 L 98.61827774485948 -5.5 L 98.61827774485948 -2.5 L 79.55913887242974 -2.5 Z"/><text text-anchor="middle" pointer-events="none" font-size="8px" fill="#000000" x="65.55913887242974" y="3" font-family="sans-serif">same</text></g><g class="relationship" transform="translate(344.83386225441006 -120.156329667882) rotate(359.2352516912148)"><path class="outline" fill="#A5ABB6" stroke="none" d="M 32.5 2.5 L 53.5860417093203 2.5 L 53.5860417093203 -2.5 L 32.5 -2.5 Z M 81.5860417093203 2.5 L 102.6720834186406 2.5 L 102.6720834186406 5.5 L 113.6720834186406 0 L 102.6720834186406 -5.5 L 102.6720834186406 -2.5 L 81.5860417093203 -2.5 Z"/><text text-anchor="middle" pointer-events="none" font-size="8px" fill="#000000" x="67.5860417093203" y="3" font-family="sans-serif">same</text></g><g class="relationship" transform="translate(490.9929254093687 -122.10728548768913) rotate(225.49658461963372)"><path class="outline" fill="#A5ABB6" stroke="none" d="M 32.5 2.5 L 60.5881120123463 2.5 L 60.5881120123463 -2.5 L 32.5 -2.5 Z M 99.5881120123463 2.5 L 127.6762240246926 2.5 L 127.6762240246926 5.5 L 138.6762240246926 0 L 127.6762240246926 -5.5 L 127.6762240246926 -2.5 L 99.5881120123463 -2.5 Z"/><text text-anchor="middle" pointer-events="none" font-size="8px" fill="#000000" x="80.0881120123463" y="3" transform="rotate(180 80.0881120123463 0)" font-family="sans-serif">upgrade</text></g><g class="relationship" transform="translate(371.00664654518897 -244.19165203672378) rotate(360.40864256478244)"><path class="outline" fill="#A5ABB6" stroke="none" d="M 32.5 2.5 L 70.55060054846564 2.5 L 70.55060054846564 -2.5 L 32.5 -2.5 Z M 98.55060054846564 2.5 L 136.60120109693128 2.5 L 136.60120109693128 5.5 L 147.60120109693128 0 L 136.60120109693128 -5.5 L 136.60120109693128 -2.5 L 98.55060054846564 -2.5 Z"/><text text-anchor="middle" pointer-events="none" font-size="8px" fill="#000000" x="84.55060054846564" y="3" font-family="sans-serif">same</text></g><g class="relationship" transform="translate(551.1032669963272 -242.90715266500598) rotate(360.2637480817385)"><path class="outline" fill="#A5ABB6" stroke="none" d="M 32.5 2.5 L 46.14929164443846 2.5 L 46.14929164443846 -2.5 L 32.5 -2.5 Z M 74.14929164443846 2.5 L 87.79858328887693 2.5 L 87.79858328887693 5.5 L 98.79858328887693 0 L 87.79858328887693 -5.5 L 87.79858328887693 -2.5 L 74.14929164443846 -2.5 Z"/><text text-anchor="middle" pointer-events="none" font-size="8px" fill="#000000" x="60.14929164443846" y="3" font-family="sans-serif">same</text></g><g class="relationship" transform="translate(682.4004591714902 -242.30275165204398) rotate(425.8891582554952)"><path class="outline" fill="#A5ABB6" stroke="none" d="M 32.5 2.5 L 126.64890584764572 2.5 L 126.64890584764572 -2.5 L 32.5 -2.5 Z M 170.64890584764572 2.5 L 264.79781169529144 2.5 L 264.79781169529144 5.5 L 275.79781169529144 0 L 264.79781169529144 -5.5 L 264.79781169529144 -2.5 L 170.64890584764572 -2.5 Z"/><text text-anchor="middle" pointer-events="none" font-size="8px" fill="#000000" x="148.64890584764572" y="3" font-family="sans-serif">career_as</text></g><g class="relationship" transform="translate(490.9929254093687 -122.10728548768913) rotate(494.07307199953715)"><path class="outline" fill="#A5ABB6" stroke="none" d="M 32.5 2.5 L 50.53052866462866 2.5 L 50.53052866462866 -2.5 L 32.5 -2.5 Z M 89.53052866462866 2.5 L 107.56105732925732 2.5 L 107.56105732925732 5.5 L 118.56105732925732 0 L 107.56105732925732 -5.5 L 107.56105732925732 -2.5 L 89.53052866462866 -2.5 Z"/><text text-anchor="middle" pointer-events="none" font-size="8px" fill="#000000" x="70.03052866462866" y="3" transform="rotate(180 70.03052866462866 0)" font-family="sans-serif">upgrade</text></g><g class="relationship" transform="translate(385.9185982634258 -13.576972596494837) rotate(360.3241339153507)"><path class="outline" fill="#A5ABB6" stroke="none" d="M 32.5 2.5 L 68.23921938117849 2.5 L 68.23921938117849 -2.5 L 32.5 -2.5 Z M 96.23921938117849 2.5 L 131.97843876235697 2.5 L 131.97843876235697 5.5 L 142.97843876235697 0 L 131.97843876235697 -5.5 L 131.97843876235697 -2.5 L 96.23921938117849 -2.5 Z"/><text text-anchor="middle" pointer-events="none" font-size="8px" fill="#000000" x="82.23921938117849" y="3" font-family="sans-serif">same</text></g><g class="relationship" transform="translate(561.3942290310189 -12.584260558890264) rotate(359.3195852392297)"><path class="outline" fill="#A5ABB6" stroke="none" d="M 32.5 2.5 L 46.58791968475313 2.5 L 46.58791968475313 -2.5 L 32.5 -2.5 Z M 74.58791968475313 2.5 L 88.67583936950626 2.5 L 88.67583936950626 5.5 L 99.67583936950626 0 L 88.67583936950626 -5.5 L 88.67583936950626 -2.5 L 74.58791968475313 -2.5 Z"/><text text-anchor="middle" pointer-events="none" font-size="8px" fill="#000000" x="60.58791968475313" y="3" font-family="sans-serif">same</text></g><g class="relationship" transform="translate(693.5607483307084 -14.153874918636554) rotate(387.0205208870722)"><path class="outline" fill="#A5ABB6" stroke="none" d="M 32.5 2.5 L 34.891849628691645 2.5 L 34.891849628691645 -2.5 L 32.5 -2.5 Z M 78.89184962869165 2.5 L 81.28369925738329 2.5 L 81.28369925738329 5.5 L 92.28369925738329 0 L 81.28369925738329 -5.5 L 81.28369925738329 -2.5 L 78.89184962869165 -2.5 Z"/><text text-anchor="middle" pointer-events="none" font-size="8px" fill="#000000" x="56.891849628691645" y="3" font-family="sans-serif">career_as</text></g><g class="relationship" transform="translate(-544.8176901131436 193.32866841102083) rotate(360.05941950121763)"><path class="outline" fill="#A5ABB6" stroke="none" d="M 32.5 2.5 L 98.77897817910399 2.5 L 98.77897817910399 -2.5 L 32.5 -2.5 Z M 126.77897817910399 2.5 L 193.05795635820797 2.5 L 193.05795635820797 5.5 L 204.05795635820797 0 L 193.05795635820797 -5.5 L 193.05795635820797 -2.5 L 126.77897817910399 -2.5 Z"/><text text-anchor="middle" pointer-events="none" font-size="8px" fill="#000000" x="112.77897817910399" y="3" font-family="sans-serif">same</text></g><g class="relationship" transform="translate(-308.25986096464607 193.57399456550797) rotate(360.3847046536366)"><path class="outline" fill="#A5ABB6" stroke="none" d="M 32.5 2.5 L 78.75527450016526 2.5 L 78.75527450016526 -2.5 L 32.5 -2.5 Z M 106.75527450016526 2.5 L 153.0105490003305 2.5 L 153.0105490003305 5.5 L 164.0105490003305 0 L 153.0105490003305 -5.5 L 153.0105490003305 -2.5 L 106.75527450016526 -2.5 Z"/><text text-anchor="middle" pointer-events="none" font-size="8px" fill="#000000" x="92.75527450016526" y="3" font-family="sans-serif">same</text></g><g class="relationship" transform="translate(-111.75374155764574 194.89342778209618) rotate(358.87826484040124)"><path class="outline" fill="#A5ABB6" stroke="none" d="M 32.5 2.5 L 68.64649002689666 2.5 L 68.64649002689666 -2.5 L 32.5 -2.5 Z M 96.64649002689666 2.5 L 132.79298005379331 2.5 L 132.79298005379331 5.5 L 143.79298005379331 0 L 132.79298005379331 -5.5 L 132.79298005379331 -2.5 L 96.64649002689666 -2.5 Z"/><text text-anchor="middle" pointer-events="none" font-size="8px" fill="#000000" x="82.64649002689666" y="3" font-family="sans-serif">same</text></g><g class="relationship" transform="translate(64.50545329166516 191.44218926240194) rotate(359.38099866825746)"><path class="outline" fill="#A5ABB6" stroke="none" d="M 32.5 2.5 L 87.7024200931049 2.5 L 87.7024200931049 -2.5 L 32.5 -2.5 Z M 115.7024200931049 2.5 L 170.9048401862098 2.5 L 170.9048401862098 5.5 L 181.9048401862098 0 L 170.9048401862098 -5.5 L 170.9048401862098 -2.5 L 115.7024200931049 -2.5 Z"/><text text-anchor="middle" pointer-events="none" font-size="8px" fill="#000000" x="101.7024200931049" y="3" font-family="sans-serif">same</text></g><g class="relationship" transform="translate(278.89778114564257 189.12588776500795) rotate(360.18641770620013)"><path class="outline" fill="#A5ABB6" stroke="none" d="M 32.5 2.5 L 84.77713979217123 2.5 L 84.77713979217123 -2.5 L 32.5 -2.5 Z M 112.77713979217123 2.5 L 165.05427958434245 2.5 L 165.05427958434245 5.5 L 176.05427958434245 0 L 165.05427958434245 -5.5 L 165.05427958434245 -2.5 L 112.77713979217123 -2.5 Z"/><text text-anchor="middle" pointer-events="none" font-size="8px" fill="#000000" x="98.77713979217123" y="3" font-family="sans-serif">same</text></g><g class="relationship" transform="translate(487.45095686036234 189.8044393469063) rotate(336.0550821272551)"><path class="outline" fill="#A5ABB6" stroke="none" d="M 32.5 2.5 L 145.98007588394645 2.5 L 145.98007588394645 -2.5 L 32.5 -2.5 Z M 189.98007588394645 2.5 L 303.4601517678929 2.5 L 303.4601517678929 5.5 L 314.4601517678929 0 L 303.4601517678929 -5.5 L 303.4601517678929 -2.5 L 189.98007588394645 -2.5 Z"/><text text-anchor="middle" pointer-events="none" font-size="8px" fill="#000000" x="167.98007588394645" y="3" font-family="sans-serif">career_as</text></g></g><g class="layer nodes"><g class="node" transform="translate(-561.8451044360904,-15.70196954083633)"><circle class="outline" cx="0" cy="0" r="32.5" fill="#DE9BF9" stroke="#BF85D6" stroke-width="2px"/><text text-anchor="middle" pointer-events="none" font-family="sans-serif" dy="2.03125" font-size="32.5" fill="#FFFFFF"/><text text-anchor="middle" pointer-events="none" y="5" font-size="10px" fill="#FFFFFF" font-family="sans-serif"> traditional…</text></g><g class="node" transform="translate(-382.4270224100022,-14.392476849871258)"><circle class="outline" cx="0" cy="0" r="32.5" fill="#DE9BF9" stroke="#BF85D6" stroke-width="2px"/><text text-anchor="middle" pointer-events="none" font-family="sans-serif" dy="2.03125" font-size="32.5" fill="#FFFFFF"/><text text-anchor="middle" pointer-events="none" y="5" font-size="10px" fill="#FFFFFF" font-family="sans-serif"> traditional…</text></g><g class="node" transform="translate(-295.9833757239089,109.33484779414353)"><circle class="outline" cx="0" cy="0" r="32.5" fill="#DE9BF9" stroke="#BF85D6" stroke-width="2px"/><text text-anchor="middle" pointer-events="none" font-family="sans-serif" dy="2.03125" font-size="32.5" fill="#FFFFFF"/><text text-anchor="middle" pointer-events="none" y="5" font-size="10px" fill="#FFFFFF" font-family="sans-serif"> traditional…</text></g><g class="node" transform="translate(-145.77624959069928,110.833397444079)"><circle class="outline" cx="0" cy="0" r="32.5" fill="#DE9BF9" stroke="#BF85D6" stroke-width="2px"/><text text-anchor="middle" pointer-events="none" font-family="sans-serif" dy="2.03125" font-size="32.5" fill="#FFFFFF"/><text text-anchor="middle" pointer-events="none" y="5" font-size="10px" fill="#FFFFFF" font-family="sans-serif"> traditional…</text></g><g class="node" transform="translate(10.486029150462073,111.88830947406227)"><circle class="outline" cx="0" cy="0" r="32.5" fill="#FB95AF" stroke="#E0849B" stroke-width="2px"/><text text-anchor="middle" pointer-events="none" font-family="sans-serif" dy="2.03125" font-size="32.5" fill="#FFFFFF"/><text text-anchor="middle" pointer-events="none" y="5" font-size="10px" fill="#FFFFFF" font-family="sans-serif"> sklearn</text></g><g class="node" transform="translate(133.62719473089908,111.45727209969732)"><circle class="outline" cx="0" cy="0" r="32.5" fill="#FB95AF" stroke="#E0849B" stroke-width="2px"/><text text-anchor="middle" pointer-events="none" font-family="sans-serif" dy="2.03125" font-size="32.5" fill="#FFFFFF"/><text text-anchor="middle" pointer-events="none" y="5" font-size="10px" fill="#FFFFFF" font-family="sans-serif"> sklearn</text></g><g class="node" transform="translate(301.37227073713734,112.20044653124137)"><circle class="outline" cx="0" cy="0" r="32.5" fill="#FB95AF" stroke="#E0849B" stroke-width="2px"/><text text-anchor="middle" pointer-events="none" font-family="sans-serif" dy="2.03125" font-size="32.5" fill="#FFFFFF"/><text text-anchor="middle" pointer-events="none" y="5" font-size="10px" fill="#FFFFFF" font-family="sans-serif"> sklearn</text></g><g class="node" transform="translate(454.61246063525357,109.26012285243209)"><circle class="outline" cx="0" cy="0" r="32.5" fill="#FB95AF" stroke="#E0849B" stroke-width="2px"/><text text-anchor="middle" pointer-events="none" font-family="sans-serif" dy="2.03125" font-size="32.5" fill="#FFFFFF"/><text text-anchor="middle" pointer-events="none" y="5" font-size="10px" fill="#FFFFFF" font-family="sans-serif"> sklearn</text></g><g class="node" transform="translate(811.4048705378632,45.9438783708417)"><circle class="outline" cx="0" cy="0" r="40" fill="#A5ABB6" stroke="#9AA1AC" stroke-width="2px"/><text text-anchor="middle" pointer-events="none" font-family="sans-serif" dy="2.5" font-size="40" fill="#FFFFFF"/><text text-anchor="middle" pointer-events="none" y="5" font-size="10px" fill="#FFFFFF" font-family="sans-serif"> AI_developer</text></g><g class="node" transform="translate(-256.7999695055191,-121.02998104366934)"><circle class="outline" cx="0" cy="0" r="32.5" fill="#FFD86E" stroke="#EDBA39" stroke-width="2px"/><text text-anchor="middle" pointer-events="none" font-family="sans-serif" dy="2.03125" font-size="32.5" fill="#604A0E"/><text text-anchor="middle" pointer-events="none" y="5" font-size="10px" fill="#604A0E" font-family="sans-serif"> tensorflow…</text></g><g class="node" transform="translate(-127.86893844631999,-120.146239083649)"><circle class="outline" cx="0" cy="0" r="32.5" fill="#FFD86E" stroke="#EDBA39" stroke-width="2px"/><text text-anchor="middle" pointer-events="none" font-family="sans-serif" dy="2.03125" font-size="32.5" fill="#604A0E"/><text text-anchor="middle" pointer-events="none" y="5" font-size="10px" fill="#604A0E" font-family="sans-serif"> tensorflow…</text></g><g class="node" transform="translate(-2.224376817924494,-118.81642889295696)"><circle class="outline" cx="0" cy="0" r="32.5" fill="#FFD86E" stroke="#EDBA39" stroke-width="2px"/><text text-anchor="middle" pointer-events="none" font-family="sans-serif" dy="2.03125" font-size="32.5" fill="#604A0E"/><text text-anchor="middle" pointer-events="none" y="5" font-size="10px" fill="#604A0E" font-family="sans-serif"> tensorflow…</text></g><g class="node" transform="translate(116.99906014003695,-120.53927012921687)"><circle class="outline" cx="0" cy="0" r="32.5" fill="#FFD86E" stroke="#EDBA39" stroke-width="2px"/><text text-anchor="middle" pointer-events="none" font-family="sans-serif" dy="2.03125" font-size="32.5" fill="#604A0E"/><text text-anchor="middle" pointer-events="none" y="5" font-size="10px" fill="#604A0E" font-family="sans-serif"> tensorflow…</text></g><g class="node" transform="translate(-17.580742214362353,-14.198943610588415)"><circle class="outline" cx="0" cy="0" r="32.5" fill="#FFD86E" stroke="#EDBA39" stroke-width="2px"/><text text-anchor="middle" pointer-events="none" font-family="sans-serif" dy="2.03125" font-size="32.5" fill="#604A0E"/><text text-anchor="middle" pointer-events="none" y="5" font-size="10px" fill="#604A0E" font-family="sans-serif"> tensorflow…</text></g><g class="node" transform="translate(133.1126734911021,-13.11105257012207)"><circle class="outline" cx="0" cy="0" r="32.5" fill="#FFD86E" stroke="#EDBA39" stroke-width="2px"/><text text-anchor="middle" pointer-events="none" font-family="sans-serif" dy="2.03125" font-size="32.5" fill="#604A0E"/><text text-anchor="middle" pointer-events="none" y="5" font-size="10px" fill="#604A0E" font-family="sans-serif"> tensorflow…</text></g><g class="node" transform="translate(291.1087381440766,-14.192763180881059)"><circle class="outline" cx="0" cy="0" r="32.5" fill="#FFD86E" stroke="#EDBA39" stroke-width="2px"/><text text-anchor="middle" pointer-events="none" font-family="sans-serif" dy="2.03125" font-size="32.5" fill="#604A0E"/><text text-anchor="middle" pointer-events="none" y="5" font-size="10px" fill="#604A0E" font-family="sans-serif"> tensorflow…</text></g><g class="node" transform="translate(202.71661878782083,-120.69852762363965)"><circle class="outline" cx="0" cy="0" r="32.5" fill="#FB95AF" stroke="#E0849B" stroke-width="2px"/><text text-anchor="middle" pointer-events="none" font-family="sans-serif" dy="2.03125" font-size="32.5" fill="#FFFFFF"/><text text-anchor="middle" pointer-events="none" y="5" font-size="10px" fill="#FFFFFF" font-family="sans-serif"> keras</text></g><g class="node" transform="translate(344.83386225441006,-120.156329667882)"><circle class="outline" cx="0" cy="0" r="32.5" fill="#FB95AF" stroke="#E0849B" stroke-width="2px"/><text text-anchor="middle" pointer-events="none" font-family="sans-serif" dy="2.03125" font-size="32.5" fill="#FFFFFF"/><text text-anchor="middle" pointer-events="none" y="5" font-size="10px" fill="#FFFFFF" font-family="sans-serif"> keras</text></g><g class="node" transform="translate(490.9929254093687,-122.10728548768913)"><circle class="outline" cx="0" cy="0" r="32.5" fill="#FB95AF" stroke="#E0849B" stroke-width="2px"/><text text-anchor="middle" pointer-events="none" font-family="sans-serif" dy="2.03125" font-size="32.5" fill="#FFFFFF"/><text text-anchor="middle" pointer-events="none" y="5" font-size="10px" fill="#FFFFFF" font-family="sans-serif"> keras</text></g><g class="node" transform="translate(371.00664654518897,-244.19165203672378)"><circle class="outline" cx="0" cy="0" r="32.5" fill="#68BDF6" stroke="#5CA8DB" stroke-width="2px"/><text text-anchor="middle" pointer-events="none" font-family="sans-serif" dy="2.03125" font-size="32.5" fill="#FFFFFF"/><text text-anchor="middle" pointer-events="none" y="5" font-size="10px" fill="#FFFFFF" font-family="sans-serif"> graph_mo…</text></g><g class="node" transform="translate(551.1032669963272,-242.90715266500598)"><circle class="outline" cx="0" cy="0" r="32.5" fill="#68BDF6" stroke="#5CA8DB" stroke-width="2px"/><text text-anchor="middle" pointer-events="none" font-family="sans-serif" dy="2.03125" font-size="32.5" fill="#FFFFFF"/><text text-anchor="middle" pointer-events="none" y="5" font-size="10px" fill="#FFFFFF" font-family="sans-serif"> graph_mo…</text></g><g class="node" transform="translate(682.4004591714902,-242.30275165204398)"><circle class="outline" cx="0" cy="0" r="32.5" fill="#68BDF6" stroke="#5CA8DB" stroke-width="2px"/><text text-anchor="middle" pointer-events="none" font-family="sans-serif" dy="2.03125" font-size="32.5" fill="#FFFFFF"/><text text-anchor="middle" pointer-events="none" y="5" font-size="10px" fill="#FFFFFF" font-family="sans-serif"> graph_mo…</text></g><g class="node" transform="translate(385.9185982634258,-13.576972596494837)"><circle class="outline" cx="0" cy="0" r="32.5" fill="#6DCE9E" stroke="#60B58B" stroke-width="2px"/><text text-anchor="middle" pointer-events="none" font-family="sans-serif" dy="2.03125" font-size="32.5" fill="#FFFFFF"/><text text-anchor="middle" pointer-events="none" y="5" font-size="10px" fill="#FFFFFF" font-family="sans-serif"> text_model</text></g><g class="node" transform="translate(561.3942290310189,-12.584260558890264)"><circle class="outline" cx="0" cy="0" r="32.5" fill="#6DCE9E" stroke="#60B58B" stroke-width="2px"/><text text-anchor="middle" pointer-events="none" font-family="sans-serif" dy="2.03125" font-size="32.5" fill="#FFFFFF"/><text text-anchor="middle" pointer-events="none" y="5" font-size="10px" fill="#FFFFFF" font-family="sans-serif"> text_model</text></g><g class="node" transform="translate(693.5607483307084,-14.153874918636554)"><circle class="outline" cx="0" cy="0" r="32.5" fill="#6DCE9E" stroke="#60B58B" stroke-width="2px"/><text text-anchor="middle" pointer-events="none" font-family="sans-serif" dy="2.03125" font-size="32.5" fill="#FFFFFF"/><text text-anchor="middle" pointer-events="none" y="5" font-size="10px" fill="#FFFFFF" font-family="sans-serif"> text_model</text></g><g class="node" transform="translate(-544.8176901131436,193.32866841102083)"><circle class="outline" cx="0" cy="0" r="32.5" fill="#6DCE9E" stroke="#60B58B" stroke-width="2px"/><text text-anchor="middle" pointer-events="none" font-family="sans-serif" dy="2.03125" font-size="32.5" fill="#FFFFFF"/><text text-anchor="middle" pointer-events="none" y="5" font-size="10px" fill="#FFFFFF" font-family="sans-serif"> hadoop_ba…</text></g><g class="node" transform="translate(-308.25986096464607,193.57399456550797)"><circle class="outline" cx="0" cy="0" r="32.5" fill="#6DCE9E" stroke="#60B58B" stroke-width="2px"/><text text-anchor="middle" pointer-events="none" font-family="sans-serif" dy="2.03125" font-size="32.5" fill="#FFFFFF"/><text text-anchor="middle" pointer-events="none" y="5" font-size="10px" fill="#FFFFFF" font-family="sans-serif"> hdfs</text></g><g class="node" transform="translate(-111.75374155764574,194.89342778209618)"><circle class="outline" cx="0" cy="0" r="32.5" fill="#6DCE9E" stroke="#60B58B" stroke-width="2px"/><text text-anchor="middle" pointer-events="none" font-family="sans-serif" dy="2.03125" font-size="32.5" fill="#FFFFFF"/><text text-anchor="middle" pointer-events="none" y="5" font-size="10px" fill="#FFFFFF" font-family="sans-serif"> hdfs</text></g><g class="node" transform="translate(64.50545329166516,191.44218926240194)"><circle class="outline" cx="0" cy="0" r="32.5" fill="#6DCE9E" stroke="#60B58B" stroke-width="2px"/><text text-anchor="middle" pointer-events="none" font-family="sans-serif" dy="2.03125" font-size="32.5" fill="#FFFFFF"/><text text-anchor="middle" pointer-events="none" y="5" font-size="10px" fill="#FFFFFF" font-family="sans-serif"> hdfs</text></g><g class="node" transform="translate(278.89778114564257,189.12588776500795)"><circle class="outline" cx="0" cy="0" r="32.5" fill="#6DCE9E" stroke="#60B58B" stroke-width="2px"/><text text-anchor="middle" pointer-events="none" font-family="sans-serif" dy="2.03125" font-size="32.5" fill="#FFFFFF"/><text text-anchor="middle" pointer-events="none" y="5" font-size="10px" fill="#FFFFFF" font-family="sans-serif"> mapreduce</text></g><g class="node" transform="translate(487.45095686036234,189.8044393469063)"><circle class="outline" cx="0" cy="0" r="32.5" fill="#6DCE9E" stroke="#60B58B" stroke-width="2px"/><text text-anchor="middle" pointer-events="none" font-family="sans-serif" dy="2.03125" font-size="32.5" fill="#FFFFFF"/><text text-anchor="middle" pointer-events="none" y="5" font-size="10px" fill="#FFFFFF" font-family="sans-serif"> mapreduce</text></g></g></svg>