<svg xmlns="http://www.w3.org/2000/svg" width="1143.894775390625" height="414.06463623046875" viewBox="-591.4149169921875 -78.43092346191406 1143.894775390625 414.06463623046875"><title>Neo4j Graph Visualization</title><desc>Created using Neo4j (http://www.neo4j.com/)</desc><g class="layer relationships"><g class="relationship" transform="translate(-535.7478652923874 57.51422044233607) rotate(382.01524835172074)"><path class="outline" fill="#A5ABB6" stroke="none" d="M 32.5 2.5 L 59.71649147155199 2.5 L 59.71649147155199 -2.5 L 32.5 -2.5 Z M 98.71649147155199 2.5 L 125.93298294310398 2.5 L 125.93298294310398 5.5 L 136.93298294310398 0 L 125.93298294310398 -5.5 L 125.93298294310398 -2.5 L 98.71649147155199 -2.5 Z"/><text text-anchor="middle" pointer-events="none" font-size="8px" fill="#000000" x="79.21649147155199" y="3" font-family="sans-serif">upgrade</text></g><g class="relationship" transform="translate(-378.66923635057464 121.0267391985504) rotate(362.19440668925097)"><path class="outline" fill="#A5ABB6" stroke="none" d="M 32.5 2.5 L 45.456749500474075 2.5 L 45.456749500474075 -2.5 L 32.5 -2.5 Z M 73.45674950047407 2.5 L 86.41349900094815 2.5 L 86.41349900094815 5.5 L 97.41349900094815 0 L 86.41349900094815 -5.5 L 86.41349900094815 -2.5 L 73.45674950047407 -2.5 Z"/><text text-anchor="middle" pointer-events="none" font-size="8px" fill="#000000" x="59.456749500474075" y="3" font-family="sans-serif">same</text></g><g class="relationship" transform="translate(-248.85100822776468 126.0011607451658) rotate(363.39242245991204)"><path class="outline" fill="#A5ABB6" stroke="none" d="M 32.5 2.5 L 43.72455096310297 2.5 L 43.72455096310297 -2.5 L 32.5 -2.5 Z M 71.72455096310297 2.5 L 82.94910192620594 2.5 L 82.94910192620594 5.5 L 93.94910192620594 0 L 82.94910192620594 -5.5 L 82.94910192620594 -2.5 L 71.72455096310297 -2.5 Z"/><text text-anchor="middle" pointer-events="none" font-size="8px" fill="#000000" x="57.72455096310297" y="3" font-family="sans-serif">same</text></g><g class="relationship" transform="translate(-122.623487786884 133.4837045165759) rotate(360.7197345793443)"><path class="outline" fill="#A5ABB6" stroke="none" d="M 32.5 2.5 L 45.81251984365683 2.5 L 45.81251984365683 -2.5 L 32.5 -2.5 Z M 73.81251984365683 2.5 L 87.12503968731366 2.5 L 87.12503968731366 5.5 L 98.12503968731366 0 L 87.12503968731366 -5.5 L 87.12503968731366 -2.5 L 73.81251984365683 -2.5 Z"/><text text-anchor="middle" pointer-events="none" font-size="8px" fill="#000000" x="59.81251984365683" y="3" font-family="sans-serif">same</text></g><g class="relationship" transform="translate(7.991245898927881 135.12453890697205) rotate(314.7930264487836)"><path class="outline" fill="#A5ABB6" stroke="none" d="M 32.5 2.5 L 34.24903714731943 2.5 L 34.24903714731943 -2.5 L 32.5 -2.5 Z M 73.24903714731943 2.5 L 74.99807429463885 2.5 L 74.99807429463885 5.5 L 85.99807429463885 0 L 74.99807429463885 -5.5 L 74.99807429463885 -2.5 L 73.24903714731943 -2.5 Z"/><text text-anchor="middle" pointer-events="none" font-size="8px" fill="#000000" x="53.74903714731943" y="3" font-family="sans-serif">upgrade</text></g><g class="relationship" transform="translate(91.47880840969857 51.03161103816786) rotate(361.3415168092922)"><path class="outline" fill="#A5ABB6" stroke="none" d="M 32.5 2.5 L 41.90848758062016 2.5 L 41.90848758062016 -2.5 L 32.5 -2.5 Z M 69.90848758062016 2.5 L 79.31697516124032 2.5 L 79.31697516124032 5.5 L 90.31697516124032 0 L 79.31697516124032 -5.5 L 79.31697516124032 -2.5 L 69.90848758062016 -2.5 Z"/><text text-anchor="middle" pointer-events="none" font-size="8px" fill="#000000" x="55.90848758062016" y="3" font-family="sans-serif">same</text></g><g class="relationship" transform="translate(214.26212036037492 53.90697087297467) rotate(360.1272879070391)"><path class="outline" fill="#A5ABB6" stroke="none" d="M 32.5 2.5 L 47.020236581389454 2.5 L 47.020236581389454 -2.5 L 32.5 -2.5 Z M 75.02023658138945 2.5 L 89.54047316277891 2.5 L 89.54047316277891 5.5 L 100.54047316277891 0 L 89.54047316277891 -5.5 L 89.54047316277891 -2.5 L 75.02023658138945 -2.5 Z"/><text text-anchor="middle" pointer-events="none" font-size="8px" fill="#000000" x="61.020236581389454" y="3" font-family="sans-serif">same</text></g><g class="relationship" transform="translate(347.30226521427136 54.20253242383186) rotate(362.76303361199825)"><path class="outline" fill="#A5ABB6" stroke="none" d="M 32.5 2.5 L 49.4325784531633 2.5 L 49.4325784531633 -2.5 L 32.5 -2.5 Z M 93.4325784531633 2.5 L 110.3651569063266 2.5 L 110.3651569063266 5.5 L 121.3651569063266 0 L 110.3651569063266 -5.5 L 110.3651569063266 -2.5 L 93.4325784531633 -2.5 Z"/><text text-anchor="middle" pointer-events="none" font-size="8px" fill="#000000" x="71.4325784531633" y="3" font-family="sans-serif">career_as</text></g><g class="relationship" transform="translate(-21.61349670200574 -33.198866939885946) rotate(396.6785222595639)"><path class="outline" fill="#A5ABB6" stroke="none" d="M 32.5 2.5 L 45.50645873941308 2.5 L 45.50645873941308 -2.5 L 32.5 -2.5 Z M 84.50645873941308 2.5 L 97.51291747882615 2.5 L 97.51291747882615 5.5 L 108.51291747882615 0 L 97.51291747882615 -5.5 L 97.51291747882615 -2.5 L 84.50645873941308 -2.5 Z"/><text text-anchor="middle" pointer-events="none" font-size="8px" fill="#000000" x="65.00645873941308" y="3" font-family="sans-serif">upgrade</text></g><g class="relationship" transform="translate(-165.2787362572577 -40.03838071165981) rotate(362.72563927325297)"><path class="outline" fill="#A5ABB6" stroke="none" d="M 32.5 2.5 L 52.41397639732874 2.5 L 52.41397639732874 -2.5 L 32.5 -2.5 Z M 80.41397639732874 2.5 L 100.32795279465748 2.5 L 100.32795279465748 5.5 L 111.32795279465748 0 L 100.32795279465748 -5.5 L 100.32795279465748 -2.5 L 80.41397639732874 -2.5 Z"/><text text-anchor="middle" pointer-events="none" font-size="8px" fill="#000000" x="66.41397639732874" y="3" font-family="sans-serif">same</text></g><g class="relationship" transform="translate(-354.37757181649397 -41.93092886913945) rotate(360.57341126072845)"><path class="outline" fill="#A5ABB6" stroke="none" d="M 32.5 2.5 L 75.05415293416183 2.5 L 75.05415293416183 -2.5 L 32.5 -2.5 Z M 103.05415293416183 2.5 L 145.60830586832367 2.5 L 145.60830586832367 5.5 L 156.60830586832367 0 L 145.60830586832367 -5.5 L 145.60830586832367 -2.5 L 103.05415293416183 -2.5 Z"/><text text-anchor="middle" pointer-events="none" font-size="8px" fill="#000000" x="89.05415293416183" y="3" font-family="sans-serif">same</text></g><g class="relationship" transform="translate(-543.5683913704408 175.8768740100004) rotate(341.6014118744498)"><path class="outline" fill="#A5ABB6" stroke="none" d="M 32.5 2.5 L 61.89112241060664 2.5 L 61.89112241060664 -2.5 L 32.5 -2.5 Z M 100.89112241060664 2.5 L 130.28224482121328 2.5 L 130.28224482121328 5.5 L 141.28224482121328 0 L 130.28224482121328 -5.5 L 130.28224482121328 -2.5 L 100.89112241060664 -2.5 Z"/><text text-anchor="middle" pointer-events="none" font-size="8px" fill="#000000" x="81.39112241060664" y="3" font-family="sans-serif">upgrade</text></g><g class="relationship" transform="translate(-543.5683913704408 175.8768740100004) rotate(386.0061428405056)"><path class="outline" fill="#A5ABB6" stroke="none" d="M 32.5 2.5 L 58.81612564541726 2.5 L 58.81612564541726 -2.5 L 32.5 -2.5 Z M 97.81612564541726 2.5 L 124.13225129083452 2.5 L 124.13225129083452 5.5 L 135.13225129083452 0 L 124.13225129083452 -5.5 L 124.13225129083452 -2.5 L 97.81612564541726 -2.5 Z"/><text text-anchor="middle" pointer-events="none" font-size="8px" fill="#000000" x="78.31612564541726" y="3" font-family="sans-serif">upgrade</text></g><g class="relationship" transform="translate(-392.90940135571225 249.37816924059751) rotate(363.6999261224883)"><path class="outline" fill="#A5ABB6" stroke="none" d="M 32.5 2.5 L 46.76216049712161 2.5 L 46.76216049712161 -2.5 L 32.5 -2.5 Z M 74.76216049712161 2.5 L 89.02432099424323 2.5 L 89.02432099424323 5.5 L 100.02432099424323 0 L 89.02432099424323 -5.5 L 89.02432099424323 -2.5 L 74.76216049712161 -2.5 Z"/><text text-anchor="middle" pointer-events="none" font-size="8px" fill="#000000" x="60.76216049712161" y="3" font-family="sans-serif">same</text></g><g class="relationship" transform="translate(-260.6613006076233 257.93009905254803) rotate(361.9555755033265)"><path class="outline" fill="#A5ABB6" stroke="none" d="M 32.5 2.5 L 44.004476006090066 2.5 L 44.004476006090066 -2.5 L 32.5 -2.5 Z M 72.00447600609007 2.5 L 83.50895201218013 2.5 L 83.50895201218013 5.5 L 94.50895201218013 0 L 83.50895201218013 -5.5 L 83.50895201218013 -2.5 L 72.00447600609007 -2.5 Z"/><text text-anchor="middle" pointer-events="none" font-size="8px" fill="#000000" x="58.004476006090066" y="3" font-family="sans-serif">same</text></g><g class="relationship" transform="translate(-133.72632037859182 262.2642293560428) rotate(359.58880194150424)"><path class="outline" fill="#A5ABB6" stroke="none" d="M 32.5 2.5 L 48.81340402039906 2.5 L 48.81340402039906 -2.5 L 32.5 -2.5 Z M 76.81340402039906 2.5 L 93.12680804079812 2.5 L 93.12680804079812 5.5 L 104.12680804079812 0 L 93.12680804079812 -5.5 L 93.12680804079812 -2.5 L 76.81340402039906 -2.5 Z"/><text text-anchor="middle" pointer-events="none" font-size="8px" fill="#000000" x="62.81340402039906" y="3" font-family="sans-serif">same</text></g><g class="relationship" transform="translate(2.896969135040038 261.2836999625874) rotate(360.4753567673868)"><path class="outline" fill="#A5ABB6" stroke="none" d="M 32.5 2.5 L 39.15794862960408 2.5 L 39.15794862960408 -2.5 L 32.5 -2.5 Z M 78.15794862960408 2.5 L 84.81589725920816 2.5 L 84.81589725920816 5.5 L 95.81589725920816 0 L 84.81589725920816 -5.5 L 84.81589725920816 -2.5 L 78.15794862960408 -2.5 Z"/><text text-anchor="middle" pointer-events="none" font-size="8px" fill="#000000" x="58.65794862960408" y="3" font-family="sans-serif">upgrade</text></g><g class="relationship" transform="translate(131.20845026194763 262.3482658153623) rotate(360.76590050597724)"><path class="outline" fill="#A5ABB6" stroke="none" d="M 32.5 2.5 L 38.30661724763792 2.5 L 38.30661724763792 -2.5 L 32.5 -2.5 Z M 66.30661724763792 2.5 L 72.11323449527583 2.5 L 72.11323449527583 5.5 L 83.11323449527583 0 L 72.11323449527583 -5.5 L 72.11323449527583 -2.5 L 66.30661724763792 -2.5 Z"/><text text-anchor="middle" pointer-events="none" font-size="8px" fill="#000000" x="52.30661724763792" y="3" font-family="sans-serif">same</text></g><g class="relationship" transform="translate(246.8113554656466 263.8936780335833) rotate(223.11615043368084)"><path class="outline" fill="#A5ABB6" stroke="none" d="M 32.5 2.5 L 45.05290717023 2.5 L 45.05290717023 -2.5 L 32.5 -2.5 Z M 73.05290717023 2.5 L 85.60581434046 2.5 L 85.60581434046 5.5 L 96.60581434046 0 L 85.60581434046 -5.5 L 85.60581434046 -2.5 L 73.05290717023 -2.5 Z"/><text text-anchor="middle" pointer-events="none" font-size="8px" fill="#000000" x="59.05290717023" y="3" transform="rotate(180 59.05290717023 0)" font-family="sans-serif">same</text></g><g class="relationship" transform="translate(152.56802966783619 175.65249241665558) rotate(361.224407046566)"><path class="outline" fill="#A5ABB6" stroke="none" d="M 32.5 2.5 L 45.29132486314431 2.5 L 45.29132486314431 -2.5 L 32.5 -2.5 Z M 73.29132486314431 2.5 L 86.08264972628862 2.5 L 86.08264972628862 5.5 L 97.08264972628862 0 L 86.08264972628862 -5.5 L 86.08264972628862 -2.5 L 73.29132486314431 -2.5 Z"/><text text-anchor="middle" pointer-events="none" font-size="8px" fill="#000000" x="59.29132486314431" y="3" font-family="sans-serif">same</text></g><g class="relationship" transform="translate(282.1210920005524 178.42145437041438) rotate(362.75627674859163)"><path class="outline" fill="#A5ABB6" stroke="none" d="M 32.5 2.5 L 42.14749291261984 2.5 L 42.14749291261984 -2.5 L 32.5 -2.5 Z M 70.14749291261984 2.5 L 79.79498582523968 2.5 L 79.79498582523968 5.5 L 90.79498582523968 0 L 79.79498582523968 -5.5 L 79.79498582523968 -2.5 L 70.14749291261984 -2.5 Z"/><text text-anchor="middle" pointer-events="none" font-size="8px" fill="#000000" x="56.14749291261984" y="3" font-family="sans-serif">same</text></g><g class="relationship" transform="translate(405.2734408762705 184.3504084130309) rotate(401.4090505601866)"><path class="outline" fill="#A5ABB6" stroke="none" d="M 32.5 2.5 L 36.194249207944154 2.5 L 36.194249207944154 -2.5 L 32.5 -2.5 Z M 80.19424920794415 2.5 L 83.88849841588831 2.5 L 83.88849841588831 5.5 L 94.88849841588831 0 L 83.88849841588831 -5.5 L 83.88849841588831 -2.5 L 80.19424920794415 -2.5 Z"/><text text-anchor="middle" pointer-events="none" font-size="8px" fill="#000000" x="58.194249207944154" y="3" font-family="sans-serif">career_as</text></g><g class="relationship" transform="translate(-554.9149103550565 299.13373072569124) rotate(342.9270918741804)"><path class="outline" fill="#A5ABB6" stroke="none" d="M 32.5 2.5 L 59.73694714354764 2.5 L 59.73694714354764 -2.5 L 32.5 -2.5 Z M 98.73694714354764 2.5 L 125.97389428709528 2.5 L 125.97389428709528 5.5 L 136.97389428709528 0 L 125.97389428709528 -5.5 L 125.97389428709528 -2.5 L 98.73694714354764 -2.5 Z"/><text text-anchor="middle" pointer-events="none" font-size="8px" fill="#000000" x="79.23694714354764" y="3" font-family="sans-serif">upgrade</text></g></g><g class="layer nodes"><g class="node" transform="translate(-535.7478652923874,57.51422044233607)"><circle class="outline" cx="0" cy="0" r="32.5" fill="#68BDF6" stroke="#5CA8DB" stroke-width="2px"/><text text-anchor="middle" pointer-events="none" font-family="sans-serif" dy="2.03125" font-size="32.5" fill="#FFFFFF"/><text text-anchor="middle" pointer-events="none" y="5" font-size="10px" fill="#FFFFFF" font-family="sans-serif"> python_ba…</text></g><g class="node" transform="translate(-378.66923635057464,121.0267391985504)"><circle class="outline" cx="0" cy="0" r="32.5" fill="#FF756E" stroke="#E06760" stroke-width="2px"/><text text-anchor="middle" pointer-events="none" font-family="sans-serif" dy="2.03125" font-size="32.5" fill="#FFFFFF"/><text text-anchor="middle" pointer-events="none" y="5" font-size="10px" fill="#FFFFFF" font-family="sans-serif"> data_dig</text></g><g class="node" transform="translate(-248.85100822776468,126.0011607451658)"><circle class="outline" cx="0" cy="0" r="32.5" fill="#FF756E" stroke="#E06760" stroke-width="2px"/><text text-anchor="middle" pointer-events="none" font-family="sans-serif" dy="2.03125" font-size="32.5" fill="#FFFFFF"/><text text-anchor="middle" pointer-events="none" y="5" font-size="10px" fill="#FFFFFF" font-family="sans-serif"> data_arran…</text></g><g class="node" transform="translate(-122.623487786884,133.4837045165759)"><circle class="outline" cx="0" cy="0" r="32.5" fill="#FF756E" stroke="#E06760" stroke-width="2px"/><text text-anchor="middle" pointer-events="none" font-family="sans-serif" dy="2.03125" font-size="32.5" fill="#FFFFFF"/><text text-anchor="middle" pointer-events="none" y="5" font-size="10px" fill="#FFFFFF" font-family="sans-serif"> data_analy…</text></g><g class="node" transform="translate(7.991245898927881,135.12453890697205)"><circle class="outline" cx="0" cy="0" r="32.5" fill="#FF756E" stroke="#E06760" stroke-width="2px"/><text text-anchor="middle" pointer-events="none" font-family="sans-serif" dy="2.03125" font-size="32.5" fill="#FFFFFF"/><text text-anchor="middle" pointer-events="none" y="5" font-size="10px" fill="#FFFFFF" font-family="sans-serif"> data_analy…</text></g><g class="node" transform="translate(91.47880840969857,51.03161103816786)"><circle class="outline" cx="0" cy="0" r="32.5" fill="#DE9BF9" stroke="#BF85D6" stroke-width="2px"/><text text-anchor="middle" pointer-events="none" font-family="sans-serif" dy="2.03125" font-size="32.5" fill="#FFFFFF"/><text text-anchor="middle" pointer-events="none" y="5" font-size="10px" fill="#FFFFFF" font-family="sans-serif"> traditional…</text></g><g class="node" transform="translate(214.26212036037492,53.90697087297467)"><circle class="outline" cx="0" cy="0" r="32.5" fill="#DE9BF9" stroke="#BF85D6" stroke-width="2px"/><text text-anchor="middle" pointer-events="none" font-family="sans-serif" dy="2.03125" font-size="32.5" fill="#FFFFFF"/><text text-anchor="middle" pointer-events="none" y="5" font-size="10px" fill="#FFFFFF" font-family="sans-serif"> traditional…</text></g><g class="node" transform="translate(347.30226521427136,54.20253242383186)"><circle class="outline" cx="0" cy="0" r="32.5" fill="#DE9BF9" stroke="#BF85D6" stroke-width="2px"/><text text-anchor="middle" pointer-events="none" font-family="sans-serif" dy="2.03125" font-size="32.5" fill="#FFFFFF"/><text text-anchor="middle" pointer-events="none" y="5" font-size="10px" fill="#FFFFFF" font-family="sans-serif"> traditional…</text></g><g class="node" transform="translate(508.4798265093517,61.9811954435298)"><circle class="outline" cx="0" cy="0" r="40" fill="#A5ABB6" stroke="#9AA1AC" stroke-width="2px"/><text text-anchor="middle" pointer-events="none" font-family="sans-serif" dy="2.5" font-size="40" fill="#FFFFFF"/><text text-anchor="middle" pointer-events="none" y="5" font-size="10px" fill="#FFFFFF" font-family="sans-serif"> AI_developer</text></g><g class="node" transform="translate(-21.61349670200574,-33.198866939885946)"><circle class="outline" cx="0" cy="0" r="32.5" fill="#68BDF6" stroke="#5CA8DB" stroke-width="2px"/><text text-anchor="middle" pointer-events="none" font-family="sans-serif" dy="2.03125" font-size="32.5" fill="#FFFFFF"/><text text-anchor="middle" pointer-events="none" y="5" font-size="10px" fill="#FFFFFF" font-family="sans-serif"> math_basic</text></g><g class="node" transform="translate(-165.2787362572577,-40.03838071165981)"><circle class="outline" cx="0" cy="0" r="32.5" fill="#68BDF6" stroke="#5CA8DB" stroke-width="2px"/><text text-anchor="middle" pointer-events="none" font-family="sans-serif" dy="2.03125" font-size="32.5" fill="#FFFFFF"/><text text-anchor="middle" pointer-events="none" y="5" font-size="10px" fill="#FFFFFF" font-family="sans-serif"> math_basic</text></g><g class="node" transform="translate(-354.37757181649397,-41.93092886913945)"><circle class="outline" cx="0" cy="0" r="32.5" fill="#68BDF6" stroke="#5CA8DB" stroke-width="2px"/><text text-anchor="middle" pointer-events="none" font-family="sans-serif" dy="2.03125" font-size="32.5" fill="#FFFFFF"/><text text-anchor="middle" pointer-events="none" y="5" font-size="10px" fill="#FFFFFF" font-family="sans-serif"> math_basic</text></g><g class="node" transform="translate(-543.5683913704408,175.8768740100004)"><circle class="outline" cx="0" cy="0" r="32.5" fill="#68BDF6" stroke="#5CA8DB" stroke-width="2px"/><text text-anchor="middle" pointer-events="none" font-family="sans-serif" dy="2.03125" font-size="32.5" fill="#FFFFFF"/><text text-anchor="middle" pointer-events="none" y="5" font-size="10px" fill="#FFFFFF" font-family="sans-serif"> linux_basic</text></g><g class="node" transform="translate(-392.90940135571225,249.37816924059751)"><circle class="outline" cx="0" cy="0" r="32.5" fill="#6DCE9E" stroke="#60B58B" stroke-width="2px"/><text text-anchor="middle" pointer-events="none" font-family="sans-serif" dy="2.03125" font-size="32.5" fill="#FFFFFF"/><text text-anchor="middle" pointer-events="none" y="5" font-size="10px" fill="#FFFFFF" font-family="sans-serif"> hadoop_ba…</text></g><g class="node" transform="translate(-260.6613006076233,257.93009905254803)"><circle class="outline" cx="0" cy="0" r="32.5" fill="#6DCE9E" stroke="#60B58B" stroke-width="2px"/><text text-anchor="middle" pointer-events="none" font-family="sans-serif" dy="2.03125" font-size="32.5" fill="#FFFFFF"/><text text-anchor="middle" pointer-events="none" y="5" font-size="10px" fill="#FFFFFF" font-family="sans-serif"> hdfs</text></g><g class="node" transform="translate(-133.72632037859182,262.2642293560428)"><circle class="outline" cx="0" cy="0" r="32.5" fill="#6DCE9E" stroke="#60B58B" stroke-width="2px"/><text text-anchor="middle" pointer-events="none" font-family="sans-serif" dy="2.03125" font-size="32.5" fill="#FFFFFF"/><text text-anchor="middle" pointer-events="none" y="5" font-size="10px" fill="#FFFFFF" font-family="sans-serif"> hdfs</text></g><g class="node" transform="translate(2.896969135040038,261.2836999625874)"><circle class="outline" cx="0" cy="0" r="32.5" fill="#6DCE9E" stroke="#60B58B" stroke-width="2px"/><text text-anchor="middle" pointer-events="none" font-family="sans-serif" dy="2.03125" font-size="32.5" fill="#FFFFFF"/><text text-anchor="middle" pointer-events="none" y="5" font-size="10px" fill="#FFFFFF" font-family="sans-serif"> hdfs</text></g><g class="node" transform="translate(131.20845026194763,262.3482658153623)"><circle class="outline" cx="0" cy="0" r="32.5" fill="#FF756E" stroke="#E06760" stroke-width="2px"/><text text-anchor="middle" pointer-events="none" font-family="sans-serif" dy="2.03125" font-size="32.5" fill="#FFFFFF"/><text text-anchor="middle" pointer-events="none" y="5" font-size="10px" fill="#FFFFFF" font-family="sans-serif"> hbase</text></g><g class="node" transform="translate(246.8113554656466,263.8936780335833)"><circle class="outline" cx="0" cy="0" r="32.5" fill="#FF756E" stroke="#E06760" stroke-width="2px"/><text text-anchor="middle" pointer-events="none" font-family="sans-serif" dy="2.03125" font-size="32.5" fill="#FFFFFF"/><text text-anchor="middle" pointer-events="none" y="5" font-size="10px" fill="#FFFFFF" font-family="sans-serif"> hive</text></g><g class="node" transform="translate(152.56802966783619,175.65249241665558)"><circle class="outline" cx="0" cy="0" r="32.5" fill="#FF756E" stroke="#E06760" stroke-width="2px"/><text text-anchor="middle" pointer-events="none" font-family="sans-serif" dy="2.03125" font-size="32.5" fill="#FFFFFF"/><text text-anchor="middle" pointer-events="none" y="5" font-size="10px" fill="#FFFFFF" font-family="sans-serif"> hive</text></g><g class="node" transform="translate(282.1210920005524,178.42145437041438)"><circle class="outline" cx="0" cy="0" r="32.5" fill="#FF756E" stroke="#E06760" stroke-width="2px"/><text text-anchor="middle" pointer-events="none" font-family="sans-serif" dy="2.03125" font-size="32.5" fill="#FFFFFF"/><text text-anchor="middle" pointer-events="none" y="5" font-size="10px" fill="#FFFFFF" font-family="sans-serif"> redis</text></g><g class="node" transform="translate(405.2734408762705,184.3504084130309)"><circle class="outline" cx="0" cy="0" r="32.5" fill="#FF756E" stroke="#E06760" stroke-width="2px"/><text text-anchor="middle" pointer-events="none" font-family="sans-serif" dy="2.03125" font-size="32.5" fill="#FFFFFF"/><text text-anchor="middle" pointer-events="none" y="5" font-size="10px" fill="#FFFFFF" font-family="sans-serif"> redis</text></g><g class="node" transform="translate(506.44070469307803,273.5697546150378)"><circle class="outline" cx="0" cy="0" r="40" fill="#A5ABB6" stroke="#9AA1AC" stroke-width="2px"/><text text-anchor="middle" pointer-events="none" font-family="sans-serif" dy="2.5" font-size="40" fill="#FFFFFF"/><text text-anchor="middle" pointer-events="none" y="5" font-size="10px" fill="#FFFFFF" font-family="sans-serif"> BD_developer</text></g><g class="node" transform="translate(-554.9149103550565,299.13373072569124)"><circle class="outline" cx="0" cy="0" r="32.5" fill="#68BDF6" stroke="#5CA8DB" stroke-width="2px"/><text text-anchor="middle" pointer-events="none" font-family="sans-serif" dy="2.03125" font-size="32.5" fill="#FFFFFF"/><text text-anchor="middle" pointer-events="none" y="5" font-size="10px" fill="#FFFFFF" font-family="sans-serif"> scala_basic</text></g></g></svg>