<svg xmlns="http://www.w3.org/2000/svg" width="828.0169677734375" height="253.8683319091797" viewBox="-295.9122619628906 26.535961151123047 828.0169677734375 253.8683319091797"><title>Neo4j Graph Visualization</title><desc>Created using Neo4j (http://www.neo4j.com/)</desc><g class="layer relationships"><g class="relationship" transform="translate(337.7574553015658 139.49154529805838) rotate(358.55218485817886)"><path class="outline" fill="#A5ABB6" stroke="none" d="M 32.5 2.5 L 43.94762549522105 2.5 L 43.94762549522105 -2.5 L 32.5 -2.5 Z M 87.94762549522105 2.5 L 99.3952509904421 2.5 L 99.3952509904421 5.5 L 110.3952509904421 0 L 99.3952509904421 -5.5 L 99.3952509904421 -2.5 L 87.94762549522105 -2.5 Z"/><text text-anchor="middle" pointer-events="none" font-size="8px" fill="#000000" x="65.94762549522105" y="3" font-family="sans-serif">career_as</text></g><g class="relationship" transform="translate(420.67829392786655 239.08476215724582) rotate(230.21939567201917)"><path class="outline" fill="#A5ABB6" stroke="none" d="M 32.5 2.5 L 45.29713404705903 2.5 L 45.29713404705903 -2.5 L 32.5 -2.5 Z M 73.29713404705903 2.5 L 86.09426809411806 2.5 L 86.09426809411806 5.5 L 97.09426809411806 0 L 86.09426809411806 -5.5 L 86.09426809411806 -2.5 L 73.29713404705903 -2.5 Z"/><text text-anchor="middle" pointer-events="none" font-size="8px" fill="#000000" x="59.29713404705903" y="3" transform="rotate(180 59.29713404705903 0)" font-family="sans-serif">same</text></g><g class="relationship" transform="translate(271.01599025310077 240.26373406257557) rotate(359.54865911159834)"><path class="outline" fill="#A5ABB6" stroke="none" d="M 32.5 2.5 L 55.33347365315767 2.5 L 55.33347365315767 -2.5 L 32.5 -2.5 Z M 83.33347365315767 2.5 L 106.16694730631534 2.5 L 106.16694730631534 5.5 L 117.16694730631534 0 L 106.16694730631534 -5.5 L 106.16694730631534 -2.5 L 83.33347365315767 -2.5 Z"/><text text-anchor="middle" pointer-events="none" font-size="8px" fill="#000000" x="69.33347365315767" y="3" font-family="sans-serif">same</text></g><g class="relationship" transform="translate(122.15905714281966 243.90430578834736) rotate(358.59900498363527)"><path class="outline" fill="#A5ABB6" stroke="none" d="M 32.5 2.5 L 54.950722457020504 2.5 L 54.950722457020504 -2.5 L 32.5 -2.5 Z M 82.9507224570205 2.5 L 105.40144491404101 2.5 L 105.40144491404101 5.5 L 116.40144491404101 0 L 105.40144491404101 -5.5 L 105.40144491404101 -2.5 L 82.9507224570205 -2.5 Z"/><text text-anchor="middle" pointer-events="none" font-size="8px" fill="#000000" x="68.9507224570205" y="3" font-family="sans-serif">same</text></g><g class="relationship" transform="translate(211.1854465879689 135.9641312057602) rotate(489.51496983022696)"><path class="outline" fill="#A5ABB6" stroke="none" d="M 32.5 2.5 L 50.45852218736252 2.5 L 50.45852218736252 -2.5 L 32.5 -2.5 Z M 78.45852218736252 2.5 L 96.41704437472504 2.5 L 96.41704437472504 5.5 L 107.41704437472504 0 L 96.41704437472504 -5.5 L 96.41704437472504 -2.5 L 78.45852218736252 -2.5 Z"/><text text-anchor="middle" pointer-events="none" font-size="8px" fill="#000000" x="64.45852218736252" y="3" transform="rotate(180 64.45852218736252 0)" font-family="sans-serif">same</text></g><g class="relationship" transform="translate(8.995863693810918 140.19318922176473) rotate(358.80175899444544)"><path class="outline" fill="#A5ABB6" stroke="none" d="M 32.5 2.5 L 81.61690309070032 2.5 L 81.61690309070032 -2.5 L 32.5 -2.5 Z M 109.61690309070032 2.5 L 158.73380618140064 2.5 L 158.73380618140064 5.5 L 169.73380618140064 0 L 158.73380618140064 -5.5 L 158.73380618140064 -2.5 L 109.61690309070032 -2.5 Z"/><text text-anchor="middle" pointer-events="none" font-size="8px" fill="#000000" x="95.61690309070032" y="3" font-family="sans-serif">same</text></g><g class="relationship" transform="translate(-105.270313615755 66.47487451456735) rotate(392.82790459977485)"><path class="outline" fill="#A5ABB6" stroke="none" d="M 32.5 2.5 L 42.991082503903684 2.5 L 42.991082503903684 -2.5 L 32.5 -2.5 Z M 81.99108250390368 2.5 L 92.48216500780737 2.5 L 92.48216500780737 5.5 L 103.48216500780737 0 L 92.48216500780737 -5.5 L 92.48216500780737 -2.5 L 81.99108250390368 -2.5 Z"/><text text-anchor="middle" pointer-events="none" font-size="8px" fill="#000000" x="62.491082503903684" y="3" font-family="sans-serif">upgrade</text></g><g class="relationship" transform="translate(-252.26801661955685 63.03596120934637) rotate(361.3401521304135)"><path class="outline" fill="#A5ABB6" stroke="none" d="M 32.5 2.5 L 54.01896152203655 2.5 L 54.01896152203655 -2.5 L 32.5 -2.5 Z M 82.01896152203655 2.5 L 103.5379230440731 2.5 L 103.5379230440731 5.5 L 114.5379230440731 0 L 103.5379230440731 -5.5 L 103.5379230440731 -2.5 L 82.01896152203655 -2.5 Z"/><text text-anchor="middle" pointer-events="none" font-size="8px" fill="#000000" x="68.01896152203655" y="3" font-family="sans-serif">same</text></g><g class="relationship" transform="translate(-102.14874604155597 216.07380834396994) rotate(325.67787510020815)"><path class="outline" fill="#A5ABB6" stroke="none" d="M 32.5 2.5 L 42.288544031648115 2.5 L 42.288544031648115 -2.5 L 32.5 -2.5 Z M 81.28854403164812 2.5 L 91.07708806329623 2.5 L 91.07708806329623 5.5 L 102.07708806329623 0 L 91.07708806329623 -5.5 L 91.07708806329623 -2.5 L 81.28854403164812 -2.5 Z"/><text text-anchor="middle" pointer-events="none" font-size="8px" fill="#000000" x="61.788544031648115" y="3" font-family="sans-serif">upgrade</text></g><g class="relationship" transform="translate(-259.4122725740286 216.46079143998958) rotate(359.8590108343558)"><path class="outline" fill="#A5ABB6" stroke="none" d="M 32.5 2.5 L 59.1320013311157 2.5 L 59.1320013311157 -2.5 L 32.5 -2.5 Z M 87.1320013311157 2.5 L 113.7640026622314 2.5 L 113.7640026622314 5.5 L 124.7640026622314 0 L 113.7640026622314 -5.5 L 113.7640026622314 -2.5 L 87.1320013311157 -2.5 Z"/><text text-anchor="middle" pointer-events="none" font-size="8px" fill="#000000" x="73.1320013311157" y="3" font-family="sans-serif">same</text></g></g><g class="layer nodes"><g class="node" transform="translate(337.7574553015658,139.49154529805838)"><circle class="outline" cx="0" cy="0" r="32.5" fill="#FFD86E" stroke="#EDBA39" stroke-width="2px"/><text text-anchor="middle" pointer-events="none" font-family="sans-serif" dy="2.03125" font-size="32.5" fill="#604A0E"/><text text-anchor="middle" pointer-events="none" y="5" font-size="10px" fill="#604A0E" font-family="sans-serif"> spark_basic</text></g><g class="node" transform="translate(488.1046929449927,135.69159089451563)"><circle class="outline" cx="0" cy="0" r="40" fill="#A5ABB6" stroke="#9AA1AC" stroke-width="2px"/><text text-anchor="middle" pointer-events="none" font-family="sans-serif" dy="2.5" font-size="40" fill="#FFFFFF"/><text text-anchor="middle" pointer-events="none" y="5" font-size="10px" fill="#FFFFFF" font-family="sans-serif"> BD_developer</text></g><g class="node" transform="translate(420.67829392786655,239.08476215724582)"><circle class="outline" cx="0" cy="0" r="32.5" fill="#FFD86E" stroke="#EDBA39" stroke-width="2px"/><text text-anchor="middle" pointer-events="none" font-family="sans-serif" dy="2.03125" font-size="32.5" fill="#604A0E"/><text text-anchor="middle" pointer-events="none" y="5" font-size="10px" fill="#604A0E" font-family="sans-serif"> spark_basic</text></g><g class="node" transform="translate(271.01599025310077,240.26373406257557)"><circle class="outline" cx="0" cy="0" r="32.5" fill="#FFD86E" stroke="#EDBA39" stroke-width="2px"/><text text-anchor="middle" pointer-events="none" font-family="sans-serif" dy="2.03125" font-size="32.5" fill="#604A0E"/><text text-anchor="middle" pointer-events="none" y="5" font-size="10px" fill="#604A0E" font-family="sans-serif"> spark_basic</text></g><g class="node" transform="translate(122.15905714281966,243.90430578834736)"><circle class="outline" cx="0" cy="0" r="32.5" fill="#FFD86E" stroke="#EDBA39" stroke-width="2px"/><text text-anchor="middle" pointer-events="none" font-family="sans-serif" dy="2.03125" font-size="32.5" fill="#604A0E"/><text text-anchor="middle" pointer-events="none" y="5" font-size="10px" fill="#604A0E" font-family="sans-serif"> spark_basic</text></g><g class="node" transform="translate(211.1854465879689,135.9641312057602)"><circle class="outline" cx="0" cy="0" r="32.5" fill="#FFD86E" stroke="#EDBA39" stroke-width="2px"/><text text-anchor="middle" pointer-events="none" font-family="sans-serif" dy="2.03125" font-size="32.5" fill="#604A0E"/><text text-anchor="middle" pointer-events="none" y="5" font-size="10px" fill="#604A0E" font-family="sans-serif"> spark_basic</text></g><g class="node" transform="translate(8.995863693810918,140.19318922176473)"><circle class="outline" cx="0" cy="0" r="32.5" fill="#FFD86E" stroke="#EDBA39" stroke-width="2px"/><text text-anchor="middle" pointer-events="none" font-family="sans-serif" dy="2.03125" font-size="32.5" fill="#604A0E"/><text text-anchor="middle" pointer-events="none" y="5" font-size="10px" fill="#604A0E" font-family="sans-serif"> spark_basic</text></g><g class="node" transform="translate(-105.270313615755,66.47487451456735)"><circle class="outline" cx="0" cy="0" r="32.5" fill="#6DCE9E" stroke="#60B58B" stroke-width="2px"/><text text-anchor="middle" pointer-events="none" font-family="sans-serif" dy="2.03125" font-size="32.5" fill="#FFFFFF"/><text text-anchor="middle" pointer-events="none" y="5" font-size="10px" fill="#FFFFFF" font-family="sans-serif"> mapreduce</text></g><g class="node" transform="translate(-252.26801661955685,63.03596120934637)"><circle class="outline" cx="0" cy="0" r="32.5" fill="#6DCE9E" stroke="#60B58B" stroke-width="2px"/><text text-anchor="middle" pointer-events="none" font-family="sans-serif" dy="2.03125" font-size="32.5" fill="#FFFFFF"/><text text-anchor="middle" pointer-events="none" y="5" font-size="10px" fill="#FFFFFF" font-family="sans-serif"> mapreduce</text></g><g class="node" transform="translate(-102.14874604155597,216.07380834396994)"><circle class="outline" cx="0" cy="0" r="32.5" fill="#DE9BF9" stroke="#BF85D6" stroke-width="2px"/><text text-anchor="middle" pointer-events="none" font-family="sans-serif" dy="2.03125" font-size="32.5" fill="#FFFFFF"/><text text-anchor="middle" pointer-events="none" y="5" font-size="10px" fill="#FFFFFF" font-family="sans-serif"> flume</text></g><g class="node" transform="translate(-259.4122725740286,216.46079143998958)"><circle class="outline" cx="0" cy="0" r="32.5" fill="#DE9BF9" stroke="#BF85D6" stroke-width="2px"/><text text-anchor="middle" pointer-events="none" font-family="sans-serif" dy="2.03125" font-size="32.5" fill="#FFFFFF"/><text text-anchor="middle" pointer-events="none" y="5" font-size="10px" fill="#FFFFFF" font-family="sans-serif"> sqoop</text></g></g></svg>