<svg xmlns="http://www.w3.org/2000/svg" width="2363.6103515625" height="1088.0234375" viewBox="-1514.78662109375 -341.63189697265625 2363.6103515625 1088.0234375"><title>Neo4j Graph Visualization</title><desc>Created using Neo4j (http://www.neo4j.com/)</desc><g class="layer relationships"><g class="relationship" transform="translate(-652.3924040054007 127.69129854551261) rotate(477.5630517144536)"><path class="outline" fill="#A5ABB6" stroke="none" d="M 32.5 2.5 L 43.65681863499316 2.5 L 43.65681863499316 -2.5 L 32.5 -2.5 Z M 71.65681863499316 2.5 L 82.81363726998632 2.5 L 82.81363726998632 5.5 L 93.81363726998632 0 L 82.81363726998632 -5.5 L 82.81363726998632 -2.5 L 71.65681863499316 -2.5 Z"/><text text-anchor="middle" pointer-events="none" font-size="8px" fill="#000000" x="57.65681863499316" y="3" transform="rotate(180 57.65681863499316 0)" font-family="sans-serif">same</text></g><g class="relationship" transform="translate(-652.3924040054007 127.69129854551261) rotate(359.20268124609504)"><path class="outline" fill="#A5ABB6" stroke="none" d="M 32.5 2.5 L 44.43213029276902 2.5 L 44.43213029276902 -2.5 L 32.5 -2.5 Z M 72.43213029276902 2.5 L 84.36426058553803 2.5 L 84.36426058553803 5.5 L 95.36426058553803 0 L 84.36426058553803 -5.5 L 84.36426058553803 -2.5 L 72.43213029276902 -2.5 Z"/><text text-anchor="middle" pointer-events="none" font-size="8px" fill="#000000" x="58.43213029276902" y="3" font-family="sans-serif">same</text></g><g class="relationship" transform="translate(-652.3924040054007 127.69129854551261) rotate(238.30340316691814)"><path class="outline" fill="#A5ABB6" stroke="none" d="M 32.5 2.5 L 44.56579892986947 2.5 L 44.56579892986947 -2.5 L 32.5 -2.5 Z M 83.56579892986947 2.5 L 95.63159785973895 2.5 L 95.63159785973895 5.5 L 106.63159785973895 0 L 95.63159785973895 -5.5 L 95.63159785973895 -2.5 L 83.56579892986947 -2.5 Z"/><text text-anchor="middle" pointer-events="none" font-size="8px" fill="#000000" x="64.06579892986947" y="3" transform="rotate(180 64.06579892986947 0)" font-family="sans-serif">upgrade</text></g><g class="relationship" transform="translate(-710.8408127684141 239.6686108612017) rotate(361.6047368428859)"><path class="outline" fill="#A5ABB6" stroke="none" d="M 32.5 2.5 L 65.30324645915132 2.5 L 65.30324645915132 -2.5 L 32.5 -2.5 Z M 93.30324645915132 2.5 L 126.10649291830265 2.5 L 126.10649291830265 5.5 L 137.10649291830265 0 L 126.10649291830265 -5.5 L 126.10649291830265 -2.5 L 93.30324645915132 -2.5 Z"/><text text-anchor="middle" pointer-events="none" font-size="8px" fill="#000000" x="79.30324645915132" y="3" font-family="sans-serif">same</text></g><g class="relationship" transform="translate(-541.300838966344 244.41831856164265) rotate(361.3231452873361)"><path class="outline" fill="#A5ABB6" stroke="none" d="M 32.5 2.5 L 56.38145803357749 2.5 L 56.38145803357749 -2.5 L 32.5 -2.5 Z M 84.38145803357749 2.5 L 108.26291606715498 2.5 L 108.26291606715498 5.5 L 119.26291606715498 0 L 108.26291606715498 -5.5 L 108.26291606715498 -2.5 L 84.38145803357749 -2.5 Z"/><text text-anchor="middle" pointer-events="none" font-size="8px" fill="#000000" x="70.38145803357749" y="3" font-family="sans-serif">same</text></g><g class="relationship" transform="translate(-725.495083280532 9.312247164783031) rotate(361.76274611277677)"><path class="outline" fill="#A5ABB6" stroke="none" d="M 32.5 2.5 L 61.506540831562404 2.5 L 61.506540831562404 -2.5 L 32.5 -2.5 Z M 89.5065408315624 2.5 L 118.51308166312481 2.5 L 118.51308166312481 5.5 L 129.5130816631248 0 L 118.51308166312481 -5.5 L 118.51308166312481 -2.5 L 89.5065408315624 -2.5 Z"/><text text-anchor="middle" pointer-events="none" font-size="8px" fill="#000000" x="75.5065408315624" y="3" font-family="sans-serif">same</text></g><g class="relationship" transform="translate(-563.5586706701145 14.295910561418438) rotate(360.0479110442652)"><path class="outline" fill="#A5ABB6" stroke="none" d="M 32.5 2.5 L 47.09032769247399 2.5 L 47.09032769247399 -2.5 L 32.5 -2.5 Z M 75.09032769247399 2.5 L 89.68065538494798 2.5 L 89.68065538494798 5.5 L 100.68065538494798 0 L 89.68065538494798 -5.5 L 89.68065538494798 -2.5 L 75.09032769247399 -2.5 Z"/><text text-anchor="middle" pointer-events="none" font-size="8px" fill="#000000" x="61.09032769247399" y="3" font-family="sans-serif">same</text></g><g class="relationship" transform="translate(-430.3780618477571 14.407276941037097) rotate(450.072720436817)"><path class="outline" fill="#A5ABB6" stroke="none" d="M 32.5 2.5 L 39.36740858128979 2.5 L 39.36740858128979 -2.5 L 32.5 -2.5 Z M 67.3674085812898 2.5 L 74.23481716257957 2.5 L 74.23481716257957 5.5 L 85.23481716257957 0 L 74.23481716257957 -5.5 L 74.23481716257957 -2.5 L 67.3674085812898 -2.5 Z"/><text text-anchor="middle" pointer-events="none" font-size="8px" fill="#000000" x="53.36740858128979" y="3" transform="rotate(180 53.36740858128979 0)" font-family="sans-serif">same</text></g><g class="relationship" transform="translate(-430.3780618477571 14.407276941037097) rotate(359.5937132229466)"><path class="outline" fill="#A5ABB6" stroke="none" d="M 32.5 2.5 L 62.740558753097744 2.5 L 62.740558753097744 -2.5 L 32.5 -2.5 Z M 106.74055875309774 2.5 L 136.9811175061955 2.5 L 136.9811175061955 5.5 L 147.9811175061955 0 L 136.9811175061955 -5.5 L 136.9811175061955 -2.5 L 106.74055875309774 -2.5 Z"/><text text-anchor="middle" pointer-events="none" font-size="8px" fill="#000000" x="84.74055875309774" y="3" font-family="sans-serif">career_as</text></g><g class="relationship" transform="translate(-430.3780618477571 14.407276941037097) rotate(232.44672216493404)"><path class="outline" fill="#A5ABB6" stroke="none" d="M 32.5 2.5 L 84.22892103736778 2.5 L 84.22892103736778 -2.5 L 32.5 -2.5 Z M 123.22892103736778 2.5 L 174.95784207473557 2.5 L 174.95784207473557 5.5 L 185.95784207473557 0 L 174.95784207473557 -5.5 L 174.95784207473557 -2.5 L 123.22892103736778 -2.5 Z"/><text text-anchor="middle" pointer-events="none" font-size="8px" fill="#000000" x="103.72892103736778" y="3" transform="rotate(180 103.72892103736778 0)" font-family="sans-serif">upgrade</text></g><g class="relationship" transform="translate(-430.52749213925006 132.1419992743149) rotate(360.37836996531564)"><path class="outline" fill="#A5ABB6" stroke="none" d="M 32.5 2.5 L 67.83975257844266 2.5 L 67.83975257844266 -2.5 L 32.5 -2.5 Z M 95.83975257844266 2.5 L 131.1795051568853 2.5 L 131.1795051568853 5.5 L 142.1795051568853 0 L 131.1795051568853 -5.5 L 131.1795051568853 -2.5 L 95.83975257844266 -2.5 Z"/><text text-anchor="middle" pointer-events="none" font-size="8px" fill="#000000" x="81.83975257844266" y="3" font-family="sans-serif">same</text></g><g class="relationship" transform="translate(-255.8517958723122 133.2955397004807) rotate(360.0780869917092)"><path class="outline" fill="#A5ABB6" stroke="none" d="M 32.5 2.5 L 147.91333029810363 2.5 L 147.91333029810363 -2.5 L 32.5 -2.5 Z M 191.91333029810363 2.5 L 307.32666059620726 2.5 L 307.32666059620726 5.5 L 318.32666059620726 0 L 307.32666059620726 -5.5 L 307.32666059620726 -2.5 L 191.91333029810363 -2.5 Z"/><text text-anchor="middle" pointer-events="none" font-size="8px" fill="#000000" x="169.91333029810363" y="3" font-family="sans-serif">career_as</text></g><g class="relationship" transform="translate(-255.8517958723122 133.2955397004807) rotate(416.4374076978074)"><path class="outline" fill="#A5ABB6" stroke="none" d="M 32.5 2.5 L 44.20559201628754 2.5 L 44.20559201628754 -2.5 L 32.5 -2.5 Z M 83.20559201628754 2.5 L 94.91118403257508 2.5 L 94.91118403257508 5.5 L 105.91118403257508 0 L 94.91118403257508 -5.5 L 94.91118403257508 -2.5 L 83.20559201628754 -2.5 Z"/><text text-anchor="middle" pointer-events="none" font-size="8px" fill="#000000" x="63.70559201628754" y="3" font-family="sans-serif">upgrade</text></g><g class="relationship" transform="translate(-179.331501163633 248.6311385544176) rotate(360.62154888657096)"><path class="outline" fill="#A5ABB6" stroke="none" d="M 32.5 2.5 L 50.78761288441588 2.5 L 50.78761288441588 -2.5 L 32.5 -2.5 Z M 78.78761288441588 2.5 L 97.07522576883176 2.5 L 97.07522576883176 5.5 L 108.07522576883176 0 L 97.07522576883176 -5.5 L 97.07522576883176 -2.5 L 78.78761288441588 -2.5 Z"/><text text-anchor="middle" pointer-events="none" font-size="8px" fill="#000000" x="64.78761288441588" y="3" font-family="sans-serif">same</text></g><g class="relationship" transform="translate(-38.764546810651666 250.15607917125612) rotate(359.9216581135245)"><path class="outline" fill="#A5ABB6" stroke="none" d="M 32.5 2.5 L 48.80370745458835 2.5 L 48.80370745458835 -2.5 L 32.5 -2.5 Z M 76.80370745458835 2.5 L 93.1074149091767 2.5 L 93.1074149091767 5.5 L 104.1074149091767 0 L 93.1074149091767 -5.5 L 93.1074149091767 -2.5 L 76.80370745458835 -2.5 Z"/><text text-anchor="middle" pointer-events="none" font-size="8px" fill="#000000" x="62.80370745458835" y="3" font-family="sans-serif">same</text></g><g class="relationship" transform="translate(97.84274039967238 249.96929265143302) rotate(359.47735412731413)"><path class="outline" fill="#A5ABB6" stroke="none" d="M 32.5 2.5 L 44.343602433289966 2.5 L 44.343602433289966 -2.5 L 32.5 -2.5 Z M 72.34360243328996 2.5 L 84.18720486657993 2.5 L 84.18720486657993 5.5 L 95.18720486657993 0 L 84.18720486657993 -5.5 L 84.18720486657993 -2.5 L 72.34360243328996 -2.5 Z"/><text text-anchor="middle" pointer-events="none" font-size="8px" fill="#000000" x="58.343602433289966" y="3" font-family="sans-serif">same</text></g><g class="relationship" transform="translate(225.52463294710083 248.8045600010414) rotate(338.8193090924191)"><path class="outline" fill="#A5ABB6" stroke="none" d="M 32.5 2.5 L 279.38432632561404 2.5 L 279.38432632561404 -2.5 L 32.5 -2.5 Z M 323.38432632561404 2.5 L 570.2686526512281 2.5 L 570.2686526512281 5.5 L 581.2686526512281 0 L 570.2686526512281 -5.5 L 570.2686526512281 -2.5 L 323.38432632561404 -2.5 Z"/><text text-anchor="middle" pointer-events="none" font-size="8px" fill="#000000" x="301.38432632561404" y="3" font-family="sans-serif">career_as</text></g><g class="relationship" transform="translate(-563.5278728094373 -158.783244176081) rotate(361.51604387244856)"><path class="outline" fill="#A5ABB6" stroke="none" d="M 32.5 2.5 L 67.23597397352863 2.5 L 67.23597397352863 -2.5 L 32.5 -2.5 Z M 95.23597397352863 2.5 L 129.97194794705726 2.5 L 129.97194794705726 5.5 L 140.97194794705726 0 L 129.97194794705726 -5.5 L 129.97194794705726 -2.5 L 95.23597397352863 -2.5 Z"/><text text-anchor="middle" pointer-events="none" font-size="8px" fill="#000000" x="81.23597397352863" y="3" font-family="sans-serif">same</text></g><g class="relationship" transform="translate(-390.11664771911904 -154.19371944888837) rotate(359.3402384371991)"><path class="outline" fill="#A5ABB6" stroke="none" d="M 32.5 2.5 L 52.56122508537645 2.5 L 52.56122508537645 -2.5 L 32.5 -2.5 Z M 80.56122508537645 2.5 L 100.6224501707529 2.5 L 100.6224501707529 5.5 L 111.6224501707529 0 L 100.6224501707529 -5.5 L 100.6224501707529 -2.5 L 80.56122508537645 -2.5 Z"/><text text-anchor="middle" pointer-events="none" font-size="8px" fill="#000000" x="66.56122508537645" y="3" font-family="sans-serif">same</text></g><g class="relationship" transform="translate(-246.00375243630785 -155.85325445202787) rotate(360.14801677799653)"><path class="outline" fill="#A5ABB6" stroke="none" d="M 32.5 2.5 L 50.001878680363745 2.5 L 50.001878680363745 -2.5 L 32.5 -2.5 Z M 78.00187868036375 2.5 L 95.50375736072749 2.5 L 95.50375736072749 5.5 L 106.50375736072749 0 L 95.50375736072749 -5.5 L 95.50375736072749 -2.5 L 78.00187868036375 -2.5 Z"/><text text-anchor="middle" pointer-events="none" font-size="8px" fill="#000000" x="64.00187868036375" y="3" font-family="sans-serif">same</text></g><g class="relationship" transform="translate(-1452.8472036102035 40.483003242652146) rotate(359.2101521620283)"><path class="outline" fill="#A5ABB6" stroke="none" d="M 32.5 2.5 L 40.46627719365575 2.5 L 40.46627719365575 -2.5 L 32.5 -2.5 Z M 68.46627719365574 2.5 L 76.4325543873115 2.5 L 76.4325543873115 5.5 L 87.4325543873115 0 L 76.4325543873115 -5.5 L 76.4325543873115 -2.5 L 68.46627719365574 -2.5 Z"/><text text-anchor="middle" pointer-events="none" font-size="8px" fill="#000000" x="54.46627719365575" y="3" font-family="sans-serif">same</text></g><g class="relationship" transform="translate(-1332.92604494402 38.82973193233903) rotate(360.4706212387109)"><path class="outline" fill="#A5ABB6" stroke="none" d="M 32.5 2.5 L 44.37556303917536 2.5 L 44.37556303917536 -2.5 L 32.5 -2.5 Z M 72.37556303917536 2.5 L 84.25112607835072 2.5 L 84.25112607835072 5.5 L 95.25112607835072 0 L 84.25112607835072 -5.5 L 84.25112607835072 -2.5 L 72.37556303917536 -2.5 Z"/><text text-anchor="middle" pointer-events="none" font-size="8px" fill="#000000" x="58.37556303917536" y="3" font-family="sans-serif">same</text></g><g class="relationship" transform="translate(-1205.1792283973723 39.87905384852098) rotate(219.713042469294)"><path class="outline" fill="#A5ABB6" stroke="none" d="M 32.5 2.5 L 60.579745952721396 2.5 L 60.579745952721396 -2.5 L 32.5 -2.5 Z M 99.5797459527214 2.5 L 127.65949190544279 2.5 L 127.65949190544279 5.5 L 138.6594919054428 0 L 127.65949190544279 -5.5 L 127.65949190544279 -2.5 L 99.5797459527214 -2.5 Z"/><text text-anchor="middle" pointer-events="none" font-size="8px" fill="#000000" x="80.0797459527214" y="3" transform="rotate(180 80.0797459527214 0)" font-family="sans-serif">upgrade</text></g><g class="relationship" transform="translate(-1205.1792283973723 39.87905384852098) rotate(394.64910749030753)"><path class="outline" fill="#A5ABB6" stroke="none" d="M 32.5 2.5 L 52.71682921538404 2.5 L 52.71682921538404 -2.5 L 32.5 -2.5 Z M 91.71682921538404 2.5 L 111.93365843076808 2.5 L 111.93365843076808 5.5 L 122.93365843076808 0 L 111.93365843076808 -5.5 L 111.93365843076808 -2.5 L 91.71682921538404 -2.5 Z"/><text text-anchor="middle" pointer-events="none" font-size="8px" fill="#000000" x="72.21682921538404" y="3" font-family="sans-serif">upgrade</text></g><g class="relationship" transform="translate(-1372.3695902098675 233.33270368717092) rotate(358.2361444311863)"><path class="outline" fill="#A5ABB6" stroke="none" d="M 32.5 2.5 L 60.15064753870956 2.5 L 60.15064753870956 -2.5 L 32.5 -2.5 Z M 88.15064753870956 2.5 L 115.80129507741913 2.5 L 115.80129507741913 5.5 L 126.80129507741913 0 L 115.80129507741913 -5.5 L 115.80129507741913 -2.5 L 88.15064753870956 -2.5 Z"/><text text-anchor="middle" pointer-events="none" font-size="8px" fill="#000000" x="74.15064753870956" y="3" font-family="sans-serif">same</text></g><g class="relationship" transform="translate(-1213.1437758096117 228.42937401048619) rotate(399.981314046694)"><path class="outline" fill="#A5ABB6" stroke="none" d="M 32.5 2.5 L 68.3202563718441 2.5 L 68.3202563718441 -2.5 L 32.5 -2.5 Z M 96.3202563718441 2.5 L 132.1405127436882 2.5 L 132.1405127436882 5.5 L 143.1405127436882 0 L 132.1405127436882 -5.5 L 132.1405127436882 -2.5 L 96.3202563718441 -2.5 Z"/><text text-anchor="middle" pointer-events="none" font-size="8px" fill="#000000" x="82.3202563718441" y="3" font-family="sans-serif">same</text></g><g class="relationship" transform="translate(-1213.1437758096117 228.42937401048619) rotate(323.59051485343923)"><path class="outline" fill="#A5ABB6" stroke="none" d="M 32.5 2.5 L 59.38910336297552 2.5 L 59.38910336297552 -2.5 L 32.5 -2.5 Z M 98.38910336297552 2.5 L 125.27820672595104 2.5 L 125.27820672595104 5.5 L 136.27820672595104 0 L 125.27820672595104 -5.5 L 125.27820672595104 -2.5 L 98.38910336297552 -2.5 Z"/><text text-anchor="middle" pointer-events="none" font-size="8px" fill="#000000" x="78.88910336297552" y="3" font-family="sans-serif">upgrade</text></g><g class="relationship" transform="translate(-1213.1437758096117 228.42937401048619) rotate(363.34848077972447)"><path class="outline" fill="#A5ABB6" stroke="none" d="M 32.5 2.5 L 75.1402449618289 2.5 L 75.1402449618289 -2.5 L 32.5 -2.5 Z M 103.1402449618289 2.5 L 145.7804899236578 2.5 L 145.7804899236578 5.5 L 156.7804899236578 0 L 145.7804899236578 -5.5 L 145.7804899236578 -2.5 L 103.1402449618289 -2.5 Z"/><text text-anchor="middle" pointer-events="none" font-size="8px" fill="#000000" x="89.1402449618289" y="3" font-family="sans-serif">same</text></g><g class="relationship" transform="translate(-1024.1864347237342 239.4850112827233) rotate(360.42564192133193)"><path class="outline" fill="#A5ABB6" stroke="none" d="M 32.5 2.5 L 65.02142887862311 2.5 L 65.02142887862311 -2.5 L 32.5 -2.5 Z M 93.02142887862311 2.5 L 125.54285775724622 2.5 L 125.54285775724622 5.5 L 136.54285775724622 0 L 125.54285775724622 -5.5 L 125.54285775724622 -2.5 L 93.02142887862311 -2.5 Z"/><text text-anchor="middle" pointer-events="none" font-size="8px" fill="#000000" x="79.02142887862311" y="3" font-family="sans-serif">same</text></g><g class="relationship" transform="translate(-1203.9354267771448 -154.6761787685811) rotate(361.74297248630825)"><path class="outline" fill="#A5ABB6" stroke="none" d="M 32.5 2.5 L 75.05008257159159 2.5 L 75.05008257159159 -2.5 L 32.5 -2.5 Z M 103.05008257159159 2.5 L 145.60016514318318 2.5 L 145.60016514318318 5.5 L 156.60016514318318 0 L 145.60016514318318 -5.5 L 145.60016514318318 -2.5 L 103.05008257159159 -2.5 Z"/><text text-anchor="middle" pointer-events="none" font-size="8px" fill="#000000" x="89.05008257159159" y="3" font-family="sans-serif">same</text></g><g class="relationship" transform="translate(-1014.9227528028483 -148.92452385321528) rotate(360.0034669066178)"><path class="outline" fill="#A5ABB6" stroke="none" d="M 32.5 2.5 L 73.81619337064002 2.5 L 73.81619337064002 -2.5 L 32.5 -2.5 Z M 101.81619337064002 2.5 L 143.13238674128004 2.5 L 143.13238674128004 5.5 L 154.13238674128004 0 L 143.13238674128004 -5.5 L 143.13238674128004 -2.5 L 101.81619337064002 -2.5 Z"/><text text-anchor="middle" pointer-events="none" font-size="8px" fill="#000000" x="87.81619337064002" y="3" font-family="sans-serif">same</text></g><g class="relationship" transform="translate(-828.2903664032298 -148.91323092620047) rotate(416.9891877259743)"><path class="outline" fill="#A5ABB6" stroke="none" d="M 32.5 2.5 L 69.34268936885876 2.5 L 69.34268936885876 -2.5 L 32.5 -2.5 Z M 108.34268936885876 2.5 L 145.1853787377175 2.5 L 145.1853787377175 5.5 L 156.1853787377175 0 L 145.1853787377175 -5.5 L 145.1853787377175 -2.5 L 108.34268936885876 -2.5 Z"/><text text-anchor="middle" pointer-events="none" font-size="8px" fill="#000000" x="88.84268936885876" y="3" font-family="sans-serif">upgrade</text></g><g class="relationship" transform="translate(-1336.8443744035953 -69.48209554416465) rotate(360.73281559735875)"><path class="outline" fill="#A5ABB6" stroke="none" d="M 32.5 2.5 L 73.56297924677504 2.5 L 73.56297924677504 -2.5 L 32.5 -2.5 Z M 101.56297924677504 2.5 L 142.6259584935501 2.5 L 142.6259584935501 5.5 L 153.6259584935501 0 L 142.6259584935501 -5.5 L 142.6259584935501 -2.5 L 101.56297924677504 -2.5 Z"/><text text-anchor="middle" pointer-events="none" font-size="8px" fill="#000000" x="87.56297924677504" y="3" font-family="sans-serif">same</text></g><g class="relationship" transform="translate(-1150.733639433305 -67.10160106590085) rotate(359.93714641490874)"><path class="outline" fill="#A5ABB6" stroke="none" d="M 32.5 2.5 L 58.34624484634648 2.5 L 58.34624484634648 -2.5 L 32.5 -2.5 Z M 86.34624484634648 2.5 L 112.19248969269296 2.5 L 112.19248969269296 5.5 L 123.19248969269296 0 L 112.19248969269296 -5.5 L 112.19248969269296 -2.5 L 86.34624484634648 -2.5 Z"/><text text-anchor="middle" pointer-events="none" font-size="8px" fill="#000000" x="72.34624484634648" y="3" font-family="sans-serif">same</text></g><g class="relationship" transform="translate(-995.041243421817 -67.2723960052385) rotate(361.3804314980865)"><path class="outline" fill="#A5ABB6" stroke="none" d="M 32.5 2.5 L 55.25301689621567 2.5 L 55.25301689621567 -2.5 L 32.5 -2.5 Z M 83.25301689621567 2.5 L 106.00603379243134 2.5 L 106.00603379243134 5.5 L 117.00603379243134 0 L 106.00603379243134 -5.5 L 106.00603379243134 -2.5 L 83.25301689621567 -2.5 Z"/><text text-anchor="middle" pointer-events="none" font-size="8px" fill="#000000" x="69.25301689621567" y="3" font-family="sans-serif">same</text></g><g class="relationship" transform="translate(-1077.3118265066305 128.25071054275867) rotate(360.1342634172171)"><path class="outline" fill="#A5ABB6" stroke="none" d="M 32.5 2.5 L 50.15155323455471 2.5 L 50.15155323455471 -2.5 L 32.5 -2.5 Z M 78.15155323455471 2.5 L 95.80310646910942 2.5 L 95.80310646910942 5.5 L 106.80310646910942 0 L 95.80310646910942 -5.5 L 95.80310646910942 -2.5 L 78.15155323455471 -2.5 Z"/><text text-anchor="middle" pointer-events="none" font-size="8px" fill="#000000" x="64.15155323455471" y="3" font-family="sans-serif">same</text></g><g class="relationship" transform="translate(-938.0091025104795 128.5771446037849) rotate(359.7374691154781)"><path class="outline" fill="#A5ABB6" stroke="none" d="M 32.5 2.5 L 63.73259236678952 2.5 L 63.73259236678952 -2.5 L 32.5 -2.5 Z M 91.73259236678952 2.5 L 122.96518473357904 2.5 L 122.96518473357904 5.5 L 133.96518473357904 0 L 122.96518473357904 -5.5 L 122.96518473357904 -2.5 L 91.73259236678952 -2.5 Z"/><text text-anchor="middle" pointer-events="none" font-size="8px" fill="#000000" x="77.73259236678952" y="3" font-family="sans-serif">same</text></g><g class="relationship" transform="translate(-771.545665240751 127.81439908150718) rotate(359.9408061635429)"><path class="outline" fill="#A5ABB6" stroke="none" d="M 32.5 2.5 L 40.076662412310355 2.5 L 40.076662412310355 -2.5 L 32.5 -2.5 Z M 68.07666241231036 2.5 L 75.65332482462071 2.5 L 75.65332482462071 5.5 L 86.65332482462071 0 L 75.65332482462071 -5.5 L 75.65332482462071 -2.5 L 68.07666241231036 -2.5 Z"/><text text-anchor="middle" pointer-events="none" font-size="8px" fill="#000000" x="54.076662412310355" y="3" font-family="sans-serif">same</text></g><g class="relationship" transform="translate(-107.00045892063463 -155.4941553074978) rotate(360.64655626486)"><path class="outline" fill="#A5ABB6" stroke="none" d="M 32.5 2.5 L 53.08625152098253 2.5 L 53.08625152098253 -2.5 L 32.5 -2.5 Z M 81.08625152098253 2.5 L 101.67250304196506 2.5 L 101.67250304196506 5.5 L 112.67250304196506 0 L 101.67250304196506 -5.5 L 101.67250304196506 -2.5 L 81.08625152098253 -2.5 Z"/><text text-anchor="middle" pointer-events="none" font-size="8px" fill="#000000" x="67.08625152098253" y="3" font-family="sans-serif">same</text></g><g class="relationship" transform="translate(38.16280103212982 -153.85598579383884) rotate(477.03711704452974)"><path class="outline" fill="#A5ABB6" stroke="none" d="M 32.5 2.5 L 71.15476751851523 2.5 L 71.15476751851523 -2.5 L 32.5 -2.5 Z M 99.15476751851523 2.5 L 137.80953503703046 2.5 L 137.80953503703046 5.5 L 148.80953503703046 0 L 137.80953503703046 -5.5 L 137.80953503703046 -2.5 L 99.15476751851523 -2.5 Z"/><text text-anchor="middle" pointer-events="none" font-size="8px" fill="#000000" x="85.15476751851523" y="3" transform="rotate(180 85.15476751851523 0)" font-family="sans-serif">same</text></g><g class="relationship" transform="translate(-44.25464125261195 7.638635486826217) rotate(360.23779178058135)"><path class="outline" fill="#A5ABB6" stroke="none" d="M 32.5 2.5 L 55.828216266371825 2.5 L 55.828216266371825 -2.5 L 32.5 -2.5 Z M 83.82821626637183 2.5 L 107.15643253274365 2.5 L 107.15643253274365 5.5 L 118.15643253274365 0 L 107.15643253274365 -5.5 L 107.15643253274365 -2.5 L 83.82821626637183 -2.5 Z"/><text text-anchor="middle" pointer-events="none" font-size="8px" fill="#000000" x="69.82821626637183" y="3" font-family="sans-serif">same</text></g><g class="relationship" transform="translate(106.400493785788 8.263895476443054) rotate(451.7914893048775)"><path class="outline" fill="#A5ABB6" stroke="none" d="M 32.5 2.5 L 34.04069042205953 2.5 L 34.04069042205953 -2.5 L 32.5 -2.5 Z M 73.04069042205953 2.5 L 74.58138084411905 2.5 L 74.58138084411905 5.5 L 85.58138084411905 0 L 74.58138084411905 -5.5 L 74.58138084411905 -2.5 L 73.04069042205953 -2.5 Z"/><text text-anchor="middle" pointer-events="none" font-size="8px" fill="#000000" x="53.54069042205953" y="3" transform="rotate(180 53.54069042205953 0)" font-family="sans-serif">career…</text></g><g class="relationship" transform="translate(106.400493785788 8.263895476443054) rotate(361.5105410670784)"><path class="outline" fill="#A5ABB6" stroke="none" d="M 32.5 2.5 L 45.694370826222666 2.5 L 45.694370826222666 -2.5 L 32.5 -2.5 Z M 84.69437082622267 2.5 L 97.88874165244533 2.5 L 97.88874165244533 5.5 L 108.88874165244533 0 L 97.88874165244533 -5.5 L 97.88874165244533 -2.5 L 84.69437082622267 -2.5 Z"/><text text-anchor="middle" pointer-events="none" font-size="8px" fill="#000000" x="65.19437082622267" y="3" font-family="sans-serif">upgrade</text></g><g class="relationship" transform="translate(247.7401017362149 11.99102446288174) rotate(244.51889668327897)"><path class="outline" fill="#A5ABB6" stroke="none" d="M 32.5 2.5 L 66.5488194763473 2.5 L 66.5488194763473 -2.5 L 32.5 -2.5 Z M 94.5488194763473 2.5 L 128.5976389526946 2.5 L 128.5976389526946 5.5 L 139.5976389526946 0 L 128.5976389526946 -5.5 L 128.5976389526946 -2.5 L 94.5488194763473 -2.5 Z"/><text text-anchor="middle" pointer-events="none" font-size="8px" fill="#000000" x="80.5488194763473" y="3" transform="rotate(180 80.5488194763473 0)" font-family="sans-serif">same</text></g><g class="relationship" transform="translate(173.7013926683822 -143.36619903400253) rotate(362.8118965540525)"><path class="outline" fill="#A5ABB6" stroke="none" d="M 32.5 2.5 L 59.92894912123529 2.5 L 59.92894912123529 -2.5 L 32.5 -2.5 Z M 87.92894912123529 2.5 L 115.35789824247058 2.5 L 115.35789824247058 5.5 L 126.35789824247058 0 L 115.35789824247058 -5.5 L 115.35789824247058 -2.5 L 87.92894912123529 -2.5 Z"/><text text-anchor="middle" pointer-events="none" font-size="8px" fill="#000000" x="73.92894912123529" y="3" font-family="sans-serif">same</text></g><g class="relationship" transform="translate(332.3680217020933 -135.57308251403208) rotate(270.4882216820674)"><path class="outline" fill="#A5ABB6" stroke="none" d="M 32.5 2.5 L 59.78248648534105 2.5 L 59.78248648534105 -2.5 L 32.5 -2.5 Z M 98.78248648534105 2.5 L 126.0649729706821 2.5 L 126.0649729706821 5.5 L 137.0649729706821 0 L 126.0649729706821 -5.5 L 126.0649729706821 -2.5 L 98.78248648534105 -2.5 Z"/><text text-anchor="middle" pointer-events="none" font-size="8px" fill="#000000" x="79.28248648534105" y="3" font-family="sans-serif">upgrade</text></g><g class="relationship" transform="translate(332.3680217020933 -135.57308251403208) rotate(450.11579562020836)"><path class="outline" fill="#A5ABB6" stroke="none" d="M 32.5 2.5 L 52.73512664409772 2.5 L 52.73512664409772 -2.5 L 32.5 -2.5 Z M 91.73512664409772 2.5 L 111.97025328819544 2.5 L 111.97025328819544 5.5 L 122.97025328819544 0 L 111.97025328819544 -5.5 L 111.97025328819544 -2.5 L 91.73512664409772 -2.5 Z"/><text text-anchor="middle" pointer-events="none" font-size="8px" fill="#000000" x="72.23512664409772" y="3" transform="rotate(180 72.23512664409772 0)" font-family="sans-serif">upgrade</text></g><g class="relationship" transform="translate(333.81288021013756 -305.13189957300983) rotate(361.1597539462503)"><path class="outline" fill="#A5ABB6" stroke="none" d="M 32.5 2.5 L 55.77337970353044 2.5 L 55.77337970353044 -2.5 L 32.5 -2.5 Z M 83.77337970353044 2.5 L 107.04675940706088 2.5 L 107.04675940706088 5.5 L 118.04675940706088 0 L 107.04675940706088 -5.5 L 107.04675940706088 -2.5 L 83.77337970353044 -2.5 Z"/><text text-anchor="middle" pointer-events="none" font-size="8px" fill="#000000" x="69.77337970353044" y="3" font-family="sans-serif">same</text></g><g class="relationship" transform="translate(484.3287997115516 -302.0848116826923) rotate(361.158093259279)"><path class="outline" fill="#A5ABB6" stroke="none" d="M 32.5 2.5 L 52.70836367062685 2.5 L 52.70836367062685 -2.5 L 32.5 -2.5 Z M 80.70836367062685 2.5 L 100.9167273412537 2.5 L 100.9167273412537 5.5 L 111.9167273412537 0 L 100.9167273412537 -5.5 L 100.9167273412537 -2.5 L 80.70836367062685 -2.5 Z"/><text text-anchor="middle" pointer-events="none" font-size="8px" fill="#000000" x="66.70836367062685" y="3" font-family="sans-serif">same</text></g><g class="relationship" transform="translate(628.7160275619485 -299.1659814999689) rotate(421.4368685349981)"><path class="outline" fill="#A5ABB6" stroke="none" d="M 32.5 2.5 L 152.91436767413757 2.5 L 152.91436767413757 -2.5 L 32.5 -2.5 Z M 196.91436767413757 2.5 L 317.32873534827513 2.5 L 317.32873534827513 5.5 L 328.32873534827513 0 L 317.32873534827513 -5.5 L 317.32873534827513 -2.5 L 196.91436767413757 -2.5 Z"/><text text-anchor="middle" pointer-events="none" font-size="8px" fill="#000000" x="174.91436767413757" y="3" font-family="sans-serif">career_as</text></g><g class="relationship" transform="translate(332.05381422815606 19.89685326507272) rotate(361.5956382633793)"><path class="outline" fill="#A5ABB6" stroke="none" d="M 32.5 2.5 L 53.1377016110992 2.5 L 53.1377016110992 -2.5 L 32.5 -2.5 Z M 81.1377016110992 2.5 L 101.7754032221984 2.5 L 101.7754032221984 5.5 L 112.7754032221984 0 L 101.7754032221984 -5.5 L 101.7754032221984 -2.5 L 81.1377016110992 -2.5 Z"/><text text-anchor="middle" pointer-events="none" font-size="8px" fill="#000000" x="67.1377016110992" y="3" font-family="sans-serif">same</text></g><g class="relationship" transform="translate(477.27288512951236 23.94212555741428) rotate(359.2621737981518)"><path class="outline" fill="#A5ABB6" stroke="none" d="M 32.5 2.5 L 49.04484976899633 2.5 L 49.04484976899633 -2.5 L 32.5 -2.5 Z M 77.04484976899633 2.5 L 93.58969953799266 2.5 L 93.58969953799266 5.5 L 104.58969953799266 0 L 93.58969953799266 -5.5 L 93.58969953799266 -2.5 L 77.04484976899633 -2.5 Z"/><text text-anchor="middle" pointer-events="none" font-size="8px" fill="#000000" x="63.04484976899633" y="3" font-family="sans-serif">same</text></g><g class="relationship" transform="translate(614.3512180378443 22.17680221886573) rotate(360.6488051298712)"><path class="outline" fill="#A5ABB6" stroke="none" d="M 32.5 2.5 L 63.99243026513001 2.5 L 63.99243026513001 -2.5 L 32.5 -2.5 Z M 107.99243026513001 2.5 L 139.48486053026002 2.5 L 139.48486053026002 5.5 L 150.48486053026002 0 L 139.48486053026002 -5.5 L 139.48486053026002 -2.5 L 107.99243026513001 -2.5 Z"/><text text-anchor="middle" pointer-events="none" font-size="8px" fill="#000000" x="85.99243026513001" y="3" font-family="sans-serif">career_as</text></g><g class="relationship" transform="translate(-1478.2865781333105 424.17658586170944) rotate(360.59602810403373)"><path class="outline" fill="#A5ABB6" stroke="none" d="M 32.5 2.5 L 41.87720933799586 2.5 L 41.87720933799586 -2.5 L 32.5 -2.5 Z M 69.87720933799585 2.5 L 79.25441867599172 2.5 L 79.25441867599172 5.5 L 90.25441867599172 0 L 79.25441867599172 -5.5 L 79.25441867599172 -2.5 L 69.87720933799585 -2.5 Z"/><text text-anchor="middle" pointer-events="none" font-size="8px" fill="#000000" x="55.87720933799586" y="3" font-family="sans-serif">same</text></g><g class="relationship" transform="translate(-1355.5388013435663 425.45353443381373) rotate(360.33192616282537)"><path class="outline" fill="#A5ABB6" stroke="none" d="M 32.5 2.5 L 50.92345032300943 2.5 L 50.92345032300943 -2.5 L 32.5 -2.5 Z M 78.92345032300943 2.5 L 97.34690064601887 2.5 L 97.34690064601887 5.5 L 108.34690064601887 0 L 97.34690064601887 -5.5 L 97.34690064601887 -2.5 L 78.92345032300943 -2.5 Z"/><text text-anchor="middle" pointer-events="none" font-size="8px" fill="#000000" x="64.92345032300943" y="3" font-family="sans-serif">same</text></g><g class="relationship" transform="translate(-1214.694264187663 426.26948475638346) rotate(328.02500857144213)"><path class="outline" fill="#A5ABB6" stroke="none" d="M 32.5 2.5 L 60.74228434538185 2.5 L 60.74228434538185 -2.5 L 32.5 -2.5 Z M 88.74228434538185 2.5 L 116.9845686907637 2.5 L 116.9845686907637 5.5 L 127.9845686907637 0 L 116.9845686907637 -5.5 L 116.9845686907637 -2.5 L 88.74228434538185 -2.5 Z"/><text text-anchor="middle" pointer-events="none" font-size="8px" fill="#000000" x="74.74228434538185" y="3" font-family="sans-serif">same</text></g><g class="relationship" transform="translate(-1078.5585241039862 341.2850328858794) rotate(359.76375150459694)"><path class="outline" fill="#A5ABB6" stroke="none" d="M 32.5 2.5 L 59.85081286747534 2.5 L 59.85081286747534 -2.5 L 32.5 -2.5 Z M 87.85081286747534 2.5 L 115.20162573495068 2.5 L 115.20162573495068 5.5 L 126.20162573495068 0 L 115.20162573495068 -5.5 L 115.20162573495068 -2.5 L 87.85081286747534 -2.5 Z"/><text text-anchor="middle" pointer-events="none" font-size="8px" fill="#000000" x="73.85081286747534" y="3" font-family="sans-serif">same</text></g><g class="relationship" transform="translate(-919.8582474673586 340.6306580894169) rotate(359.7013096056729)"><path class="outline" fill="#A5ABB6" stroke="none" d="M 32.5 2.5 L 54.17936080371666 2.5 L 54.17936080371666 -2.5 L 32.5 -2.5 Z M 82.17936080371666 2.5 L 103.85872160743332 2.5 L 103.85872160743332 5.5 L 114.85872160743332 0 L 103.85872160743332 -5.5 L 103.85872160743332 -2.5 L 82.17936080371666 -2.5 Z"/><text text-anchor="middle" pointer-events="none" font-size="8px" fill="#000000" x="68.17936080371666" y="3" font-family="sans-serif">same</text></g><g class="relationship" transform="translate(-772.5015282197066 339.86246127498407) rotate(361.84957143308134)"><path class="outline" fill="#A5ABB6" stroke="none" d="M 32.5 2.5 L 60.68921901378299 2.5 L 60.68921901378299 -2.5 L 32.5 -2.5 Z M 88.68921901378299 2.5 L 116.87843802756598 2.5 L 116.87843802756598 5.5 L 127.87843802756598 0 L 116.87843802756598 -5.5 L 116.87843802756598 -2.5 L 88.68921901378299 -2.5 Z"/><text text-anchor="middle" pointer-events="none" font-size="8px" fill="#000000" x="74.68921901378299" y="3" font-family="sans-serif">same</text></g><g class="relationship" transform="translate(-612.2066457268782 345.0387563566162) rotate(499.45152996091207)"><path class="outline" fill="#A5ABB6" stroke="none" d="M 32.5 2.5 L 94.82845028497835 2.5 L 94.82845028497835 -2.5 L 32.5 -2.5 Z M 122.82845028497835 2.5 L 185.1569005699567 2.5 L 185.1569005699567 5.5 L 196.1569005699567 0 L 185.1569005699567 -5.5 L 185.1569005699567 -2.5 L 122.82845028497835 -2.5 Z"/><text text-anchor="middle" pointer-events="none" font-size="8px" fill="#000000" x="108.82845028497835" y="3" transform="rotate(180 108.82845028497835 0)" font-family="sans-serif">same</text></g><g class="relationship" transform="translate(-612.2066457268782 345.0387563566162) rotate(361.822983924426)"><path class="outline" fill="#A5ABB6" stroke="none" d="M 32.5 2.5 L 192.74132573314196 2.5 L 192.74132573314196 -2.5 L 32.5 -2.5 Z M 220.74132573314196 2.5 L 380.9826514662839 2.5 L 380.9826514662839 5.5 L 391.9826514662839 0 L 380.9826514662839 -5.5 L 380.9826514662839 -2.5 L 220.74132573314196 -2.5 Z"/><text text-anchor="middle" pointer-events="none" font-size="8px" fill="#000000" x="206.74132573314196" y="3" font-family="sans-serif">same</text></g><g class="relationship" transform="translate(-187.93883355887732 358.5422727143896) rotate(360.18133614017665)"><path class="outline" fill="#A5ABB6" stroke="none" d="M 32.5 2.5 L 161.3229811790018 2.5 L 161.3229811790018 -2.5 L 32.5 -2.5 Z M 189.3229811790018 2.5 L 318.1459623580036 2.5 L 318.1459623580036 5.5 L 329.1459623580036 0 L 318.1459623580036 -5.5 L 318.1459623580036 -2.5 L 189.3229811790018 -2.5 Z"/><text text-anchor="middle" pointer-events="none" font-size="8px" fill="#000000" x="175.3229811790018" y="3" font-family="sans-serif">same</text></g><g class="relationship" transform="translate(173.70531755607476 359.6868487023677) rotate(448.60659215219584)"><path class="outline" fill="#A5ABB6" stroke="none" d="M 32.5 2.5 L 66.89605829844017 2.5 L 66.89605829844017 -2.5 L 32.5 -2.5 Z M 110.89605829844017 2.5 L 145.29211659688033 2.5 L 145.29211659688033 5.5 L 156.29211659688033 0 L 145.29211659688033 -5.5 L 145.29211659688033 -2.5 L 110.89605829844017 -2.5 Z"/><text text-anchor="middle" pointer-events="none" font-size="8px" fill="#000000" x="88.89605829844017" y="3" font-family="sans-serif">career_as</text></g><g class="relationship" transform="translate(173.70531755607476 359.6868487023677) rotate(332.0154738254488)"><path class="outline" fill="#A5ABB6" stroke="none" d="M 32.5 2.5 L 326.09168252660174 2.5 L 326.09168252660174 -2.5 L 32.5 -2.5 Z M 370.09168252660174 2.5 L 663.6833650532035 2.5 L 663.6833650532035 5.5 L 674.6833650532035 0 L 663.6833650532035 -5.5 L 663.6833650532035 -2.5 L 370.09168252660174 -2.5 Z"/><text text-anchor="middle" pointer-events="none" font-size="8px" fill="#000000" x="348.09168252660174" y="3" font-family="sans-serif">career_as</text></g><g class="relationship" transform="translate(173.70531755607476 359.6868487023677) rotate(409.1615310854546)"><path class="outline" fill="#A5ABB6" stroke="none" d="M 32.5 2.5 L 100.50663036097485 2.5 L 100.50663036097485 -2.5 L 32.5 -2.5 Z M 128.50663036097484 2.5 L 196.5132607219497 2.5 L 196.5132607219497 5.5 L 207.5132607219497 0 L 196.5132607219497 -5.5 L 196.5132607219497 -2.5 L 128.50663036097484 -2.5 Z"/><text text-anchor="middle" pointer-events="none" font-size="8px" fill="#000000" x="114.50663036097485" y="3" font-family="sans-serif">same</text></g><g class="relationship" transform="translate(-785.9530288140439 493.686570139352) rotate(360.61508241745923)"><path class="outline" fill="#A5ABB6" stroke="none" d="M 32.5 2.5 L 65.93502642976686 2.5 L 65.93502642976686 -2.5 L 32.5 -2.5 Z M 93.93502642976686 2.5 L 127.37005285953373 2.5 L 127.37005285953373 5.5 L 138.37005285953373 0 L 127.37005285953373 -5.5 L 127.37005285953373 -2.5 L 93.93502642976686 -2.5 Z"/><text text-anchor="middle" pointer-events="none" font-size="8px" fill="#000000" x="79.93502642976686" y="3" font-family="sans-serif">same</text></g><g class="relationship" transform="translate(-615.0928218029817 495.5208613803509) rotate(361.81731326631007)"><path class="outline" fill="#A5ABB6" stroke="none" d="M 32.5 2.5 L 51.19217306383432 2.5 L 51.19217306383432 -2.5 L 32.5 -2.5 Z M 79.19217306383432 2.5 L 97.88434612766864 2.5 L 97.88434612766864 5.5 L 108.88434612766864 0 L 97.88434612766864 -5.5 L 97.88434612766864 -2.5 L 79.19217306383432 -2.5 Z"/><text text-anchor="middle" pointer-events="none" font-size="8px" fill="#000000" x="65.19217306383432" y="3" font-family="sans-serif">same</text></g><g class="relationship" transform="translate(-473.7795887163585 500.00455233247) rotate(361.57264225128733)"><path class="outline" fill="#A5ABB6" stroke="none" d="M 32.5 2.5 L 56.46448771579209 2.5 L 56.46448771579209 -2.5 L 32.5 -2.5 Z M 84.46448771579209 2.5 L 108.42897543158418 2.5 L 108.42897543158418 5.5 L 119.42897543158418 0 L 108.42897543158418 -5.5 L 108.42897543158418 -2.5 L 84.46448771579209 -2.5 Z"/><text text-anchor="middle" pointer-events="none" font-size="8px" fill="#000000" x="70.46448771579209" y="3" font-family="sans-serif">same</text></g><g class="relationship" transform="translate(-321.9078398870881 504.17414262767977) rotate(360.16616535493864)"><path class="outline" fill="#A5ABB6" stroke="none" d="M 32.5 2.5 L 78.25925629555493 2.5 L 78.25925629555493 -2.5 L 32.5 -2.5 Z M 106.25925629555493 2.5 L 152.01851259110987 2.5 L 152.01851259110987 5.5 L 163.01851259110987 0 L 152.01851259110987 -5.5 L 152.01851259110987 -2.5 L 106.25925629555493 -2.5 Z"/><text text-anchor="middle" pointer-events="none" font-size="8px" fill="#000000" x="92.25925629555493" y="3" font-family="sans-serif">same</text></g><g class="relationship" transform="translate(-126.3901495259034 504.7411714346149) rotate(450.3384400564512)"><path class="outline" fill="#A5ABB6" stroke="none" d="M 32.5 2.5 L 67.57689870864363 2.5 L 67.57689870864363 -2.5 L 32.5 -2.5 Z M 111.57689870864363 2.5 L 146.65379741728725 2.5 L 146.65379741728725 5.5 L 157.65379741728725 0 L 146.65379741728725 -5.5 L 146.65379741728725 -2.5 L 111.57689870864363 -2.5 Z"/><text text-anchor="middle" pointer-events="none" font-size="8px" fill="#000000" x="89.57689870864363" y="3" transform="rotate(180 89.57689870864363 0)" font-family="sans-serif">career_as</text></g><g class="relationship" transform="translate(-126.3901495259034 504.7411714346149) rotate(416.3639013974536)"><path class="outline" fill="#A5ABB6" stroke="none" d="M 32.5 2.5 L 97.40110441422544 2.5 L 97.40110441422544 -2.5 L 32.5 -2.5 Z M 125.40110441422544 2.5 L 190.3022088284509 2.5 L 190.3022088284509 5.5 L 201.3022088284509 0 L 190.3022088284509 -5.5 L 190.3022088284509 -2.5 L 125.40110441422544 -2.5 Z"/><text text-anchor="middle" pointer-events="none" font-size="8px" fill="#000000" x="111.40110441422544" y="3" font-family="sans-serif">same</text></g><g class="relationship" transform="translate(3.1166844931612445 699.3984415157013) rotate(359.3455516408321)"><path class="outline" fill="#A5ABB6" stroke="none" d="M 32.5 2.5 L 68.05244122251142 2.5 L 68.05244122251142 -2.5 L 32.5 -2.5 Z M 96.05244122251142 2.5 L 131.60488244502284 2.5 L 131.60488244502284 5.5 L 142.60488244502284 0 L 131.60488244502284 -5.5 L 131.60488244502284 -2.5 L 96.05244122251142 -2.5 Z"/><text text-anchor="middle" pointer-events="none" font-size="8px" fill="#000000" x="82.05244122251142" y="3" font-family="sans-serif">same</text></g><g class="relationship" transform="translate(178.21014423111194 697.3983882464353) rotate(270.10871300630305)"><path class="outline" fill="#A5ABB6" stroke="none" d="M 32.5 2.5 L 39.48886116639038 2.5 L 39.48886116639038 -2.5 L 32.5 -2.5 Z M 83.48886116639038 2.5 L 90.47772233278076 2.5 L 90.47772233278076 5.5 L 101.47772233278076 0 L 90.47772233278076 -5.5 L 90.47772233278076 -2.5 L 83.48886116639038 -2.5 Z"/><text text-anchor="middle" pointer-events="none" font-size="8px" fill="#000000" x="61.48886116639038" y="3" font-family="sans-serif">career_as</text></g><g class="relationship" transform="translate(178.21014423111194 697.3983882464353) rotate(314.31649499111893)"><path class="outline" fill="#A5ABB6" stroke="none" d="M 32.5 2.5 L 89.60541635548803 2.5 L 89.60541635548803 -2.5 L 32.5 -2.5 Z M 117.60541635548803 2.5 L 174.71083271097606 2.5 L 174.71083271097606 5.5 L 185.71083271097606 0 L 174.71083271097606 -5.5 L 174.71083271097606 -2.5 L 117.60541635548803 -2.5 Z"/><text text-anchor="middle" pointer-events="none" font-size="8px" fill="#000000" x="103.60541635548803" y="3" font-family="sans-serif">same</text></g><g class="relationship" transform="translate(330.65687955474425 541.2703625701206) rotate(358.8831126811058)"><path class="outline" fill="#A5ABB6" stroke="none" d="M 32.5 2.5 L 54.32889291075942 2.5 L 54.32889291075942 -2.5 L 32.5 -2.5 Z M 82.32889291075942 2.5 L 104.15778582151884 2.5 L 104.15778582151884 5.5 L 115.15778582151884 0 L 104.15778582151884 -5.5 L 104.15778582151884 -2.5 L 82.32889291075942 -2.5 Z"/><text text-anchor="middle" pointer-events="none" font-size="8px" fill="#000000" x="68.32889291075942" y="3" font-family="sans-serif">same</text></g><g class="relationship" transform="translate(478.2866119404307 538.3921983211371) rotate(489.1718713956573)"><path class="outline" fill="#A5ABB6" stroke="none" d="M 32.5 2.5 L 89.69080468218404 2.5 L 89.69080468218404 -2.5 L 32.5 -2.5 Z M 117.69080468218404 2.5 L 174.88160936436807 2.5 L 174.88160936436807 5.5 L 185.88160936436807 0 L 174.88160936436807 -5.5 L 174.88160936436807 -2.5 L 117.69080468218404 -2.5 Z"/><text text-anchor="middle" pointer-events="none" font-size="8px" fill="#000000" x="103.69080468218404" y="3" transform="rotate(180 103.69080468218404 0)" font-family="sans-serif">same</text></g><g class="relationship" transform="translate(340.3461352961598 707.693563382742) rotate(359.52355909232926)"><path class="outline" fill="#A5ABB6" stroke="none" d="M 32.5 2.5 L 57.28964976287669 2.5 L 57.28964976287669 -2.5 L 32.5 -2.5 Z M 85.28964976287669 2.5 L 110.07929952575338 2.5 L 110.07929952575338 5.5 L 121.07929952575338 0 L 110.07929952575338 -5.5 L 110.07929952575338 -2.5 L 85.28964976287669 -2.5 Z"/><text text-anchor="middle" pointer-events="none" font-size="8px" fill="#000000" x="71.28964976287669" y="3" font-family="sans-serif">same</text></g><g class="relationship" transform="translate(493.92012508496384 706.4164951898184) rotate(359.70153495998557)"><path class="outline" fill="#A5ABB6" stroke="none" d="M 32.5 2.5 L 78.80229443938273 2.5 L 78.80229443938273 -2.5 L 32.5 -2.5 Z M 106.80229443938273 2.5 L 153.10458887876547 2.5 L 153.10458887876547 5.5 L 164.10458887876547 0 L 153.10458887876547 -5.5 L 153.10458887876547 -2.5 L 106.80229443938273 -2.5 Z"/><text text-anchor="middle" pointer-events="none" font-size="8px" fill="#000000" x="92.80229443938273" y="3" font-family="sans-serif">same</text></g><g class="relationship" transform="translate(690.5220464642423 705.3923476592319) rotate(238.64887687907446)"><path class="outline" fill="#A5ABB6" stroke="none" d="M 32.5 2.5 L 78.37564007957313 2.5 L 78.37564007957313 -2.5 L 32.5 -2.5 Z M 106.37564007957313 2.5 L 152.25128015914626 2.5 L 152.25128015914626 5.5 L 163.25128015914626 0 L 152.25128015914626 -5.5 L 152.25128015914626 -2.5 L 106.37564007957313 -2.5 Z"/><text text-anchor="middle" pointer-events="none" font-size="8px" fill="#000000" x="92.37564007957313" y="3" transform="rotate(180 92.37564007957313 0)" font-family="sans-serif">same</text></g><g class="relationship" transform="translate(588.6763139485702 538.2217448240123) rotate(359.9939752533487)"><path class="outline" fill="#A5ABB6" stroke="none" d="M 32.5 2.5 L 66.28441095496122 2.5 L 66.28441095496122 -2.5 L 32.5 -2.5 Z M 110.28441095496122 2.5 L 144.06882190992243 2.5 L 144.06882190992243 5.5 L 155.06882190992243 0 L 144.06882190992243 -5.5 L 144.06882190992243 -2.5 L 110.28441095496122 -2.5 Z"/><text text-anchor="middle" pointer-events="none" font-size="8px" fill="#000000" x="88.28441095496122" y="3" font-family="sans-serif">career_as</text></g></g><g class="layer nodes"><g class="node" transform="translate(-652.3924040054007,127.69129854551261)"><circle class="outline" cx="0" cy="0" r="32.5" fill="#FF756E" stroke="#E06760" stroke-width="2px"/><text text-anchor="middle" pointer-events="none" font-family="sans-serif" dy="2.03125" font-size="32.5" fill="#FFFFFF"/><text text-anchor="middle" pointer-events="none" y="5" font-size="10px" fill="#FFFFFF" font-family="sans-serif"> data_analy…</text></g><g class="node" transform="translate(-524.5405237111007,125.91201770811)"><circle class="outline" cx="0" cy="0" r="32.5" fill="#FF756E" stroke="#E06760" stroke-width="2px"/><text text-anchor="middle" pointer-events="none" font-family="sans-serif" dy="2.03125" font-size="32.5" fill="#FFFFFF"/><text text-anchor="middle" pointer-events="none" y="5" font-size="10px" fill="#FFFFFF" font-family="sans-serif"> data_analy…</text></g><g class="node" transform="translate(-710.8408127684141,239.6686108612017)"><circle class="outline" cx="0" cy="0" r="32.5" fill="#FF756E" stroke="#E06760" stroke-width="2px"/><text text-anchor="middle" pointer-events="none" font-family="sans-serif" dy="2.03125" font-size="32.5" fill="#FFFFFF"/><text text-anchor="middle" pointer-events="none" y="5" font-size="10px" fill="#FFFFFF" font-family="sans-serif"> data_visua…</text></g><g class="node" transform="translate(-541.300838966344,244.41831856164265)"><circle class="outline" cx="0" cy="0" r="32.5" fill="#FF756E" stroke="#E06760" stroke-width="2px"/><text text-anchor="middle" pointer-events="none" font-family="sans-serif" dy="2.03125" font-size="32.5" fill="#FFFFFF"/><text text-anchor="middle" pointer-events="none" y="5" font-size="10px" fill="#FFFFFF" font-family="sans-serif"> data_visua…</text></g><g class="node" transform="translate(-389.5783885165081,247.92270477086726)"><circle class="outline" cx="0" cy="0" r="32.5" fill="#FF756E" stroke="#E06760" stroke-width="2px"/><text text-anchor="middle" pointer-events="none" font-family="sans-serif" dy="2.03125" font-size="32.5" fill="#FFFFFF"/><text text-anchor="middle" pointer-events="none" y="5" font-size="10px" fill="#FFFFFF" font-family="sans-serif"> data_visua…</text></g><g class="node" transform="translate(-725.495083280532,9.312247164783031)"><circle class="outline" cx="0" cy="0" r="32.5" fill="#DE9BF9" stroke="#BF85D6" stroke-width="2px"/><text text-anchor="middle" pointer-events="none" font-family="sans-serif" dy="2.03125" font-size="32.5" fill="#FFFFFF"/><text text-anchor="middle" pointer-events="none" y="5" font-size="10px" fill="#FFFFFF" font-family="sans-serif"> traditional…</text></g><g class="node" transform="translate(-563.5586706701145,14.295910561418438)"><circle class="outline" cx="0" cy="0" r="32.5" fill="#DE9BF9" stroke="#BF85D6" stroke-width="2px"/><text text-anchor="middle" pointer-events="none" font-family="sans-serif" dy="2.03125" font-size="32.5" fill="#FFFFFF"/><text text-anchor="middle" pointer-events="none" y="5" font-size="10px" fill="#FFFFFF" font-family="sans-serif"> traditional…</text></g><g class="node" transform="translate(-430.3780618477571,14.407276941037097)"><circle class="outline" cx="0" cy="0" r="32.5" fill="#DE9BF9" stroke="#BF85D6" stroke-width="2px"/><text text-anchor="middle" pointer-events="none" font-family="sans-serif" dy="2.03125" font-size="32.5" fill="#FFFFFF"/><text text-anchor="middle" pointer-events="none" y="5" font-size="10px" fill="#FFFFFF" font-family="sans-serif"> traditional…</text></g><g class="node" transform="translate(-430.52749213925006,132.1419992743149)"><circle class="outline" cx="0" cy="0" r="32.5" fill="#DE9BF9" stroke="#BF85D6" stroke-width="2px"/><text text-anchor="middle" pointer-events="none" font-family="sans-serif" dy="2.03125" font-size="32.5" fill="#FFFFFF"/><text text-anchor="middle" pointer-events="none" y="5" font-size="10px" fill="#FFFFFF" font-family="sans-serif"> traditional…</text></g><g class="node" transform="translate(-255.8517958723122,133.2955397004807)"><circle class="outline" cx="0" cy="0" r="32.5" fill="#DE9BF9" stroke="#BF85D6" stroke-width="2px"/><text text-anchor="middle" pointer-events="none" font-family="sans-serif" dy="2.03125" font-size="32.5" fill="#FFFFFF"/><text text-anchor="middle" pointer-events="none" y="5" font-size="10px" fill="#FFFFFF" font-family="sans-serif"> traditional…</text></g><g class="node" transform="translate(-179.331501163633,248.6311385544176)"><circle class="outline" cx="0" cy="0" r="32.5" fill="#FB95AF" stroke="#E0849B" stroke-width="2px"/><text text-anchor="middle" pointer-events="none" font-family="sans-serif" dy="2.03125" font-size="32.5" fill="#FFFFFF"/><text text-anchor="middle" pointer-events="none" y="5" font-size="10px" fill="#FFFFFF" font-family="sans-serif"> sklearn</text></g><g class="node" transform="translate(-38.764546810651666,250.15607917125612)"><circle class="outline" cx="0" cy="0" r="32.5" fill="#FB95AF" stroke="#E0849B" stroke-width="2px"/><text text-anchor="middle" pointer-events="none" font-family="sans-serif" dy="2.03125" font-size="32.5" fill="#FFFFFF"/><text text-anchor="middle" pointer-events="none" y="5" font-size="10px" fill="#FFFFFF" font-family="sans-serif"> sklearn</text></g><g class="node" transform="translate(97.84274039967238,249.96929265143302)"><circle class="outline" cx="0" cy="0" r="32.5" fill="#FB95AF" stroke="#E0849B" stroke-width="2px"/><text text-anchor="middle" pointer-events="none" font-family="sans-serif" dy="2.03125" font-size="32.5" fill="#FFFFFF"/><text text-anchor="middle" pointer-events="none" y="5" font-size="10px" fill="#FFFFFF" font-family="sans-serif"> sklearn</text></g><g class="node" transform="translate(225.52463294710083,248.8045600010414)"><circle class="outline" cx="0" cy="0" r="32.5" fill="#FB95AF" stroke="#E0849B" stroke-width="2px"/><text text-anchor="middle" pointer-events="none" font-family="sans-serif" dy="2.03125" font-size="32.5" fill="#FFFFFF"/><text text-anchor="middle" pointer-events="none" y="5" font-size="10px" fill="#FFFFFF" font-family="sans-serif"> sklearn</text></g><g class="node" transform="translate(-563.5278728094373,-158.783244176081)"><circle class="outline" cx="0" cy="0" r="32.5" fill="#FFD86E" stroke="#EDBA39" stroke-width="2px"/><text text-anchor="middle" pointer-events="none" font-family="sans-serif" dy="2.03125" font-size="32.5" fill="#604A0E"/><text text-anchor="middle" pointer-events="none" y="5" font-size="10px" fill="#604A0E" font-family="sans-serif"> tensorflow…</text></g><g class="node" transform="translate(-390.11664771911904,-154.19371944888837)"><circle class="outline" cx="0" cy="0" r="32.5" fill="#FFD86E" stroke="#EDBA39" stroke-width="2px"/><text text-anchor="middle" pointer-events="none" font-family="sans-serif" dy="2.03125" font-size="32.5" fill="#604A0E"/><text text-anchor="middle" pointer-events="none" y="5" font-size="10px" fill="#604A0E" font-family="sans-serif"> tensorflow…</text></g><g class="node" transform="translate(-246.00375243630785,-155.85325445202787)"><circle class="outline" cx="0" cy="0" r="32.5" fill="#FFD86E" stroke="#EDBA39" stroke-width="2px"/><text text-anchor="middle" pointer-events="none" font-family="sans-serif" dy="2.03125" font-size="32.5" fill="#604A0E"/><text text-anchor="middle" pointer-events="none" y="5" font-size="10px" fill="#604A0E" font-family="sans-serif"> tensorflow…</text></g><g class="node" transform="translate(-1452.8472036102035,40.483003242652146)"><circle class="outline" cx="0" cy="0" r="32.5" fill="#68BDF6" stroke="#5CA8DB" stroke-width="2px"/><text text-anchor="middle" pointer-events="none" font-family="sans-serif" dy="2.03125" font-size="32.5" fill="#FFFFFF"/><text text-anchor="middle" pointer-events="none" y="5" font-size="10px" fill="#FFFFFF" font-family="sans-serif"> python_ba…</text></g><g class="node" transform="translate(-1332.92604494402,38.82973193233903)"><circle class="outline" cx="0" cy="0" r="32.5" fill="#68BDF6" stroke="#5CA8DB" stroke-width="2px"/><text text-anchor="middle" pointer-events="none" font-family="sans-serif" dy="2.03125" font-size="32.5" fill="#FFFFFF"/><text text-anchor="middle" pointer-events="none" y="5" font-size="10px" fill="#FFFFFF" font-family="sans-serif"> python_ba…</text></g><g class="node" transform="translate(-1205.1792283973723,39.87905384852098)"><circle class="outline" cx="0" cy="0" r="32.5" fill="#68BDF6" stroke="#5CA8DB" stroke-width="2px"/><text text-anchor="middle" pointer-events="none" font-family="sans-serif" dy="2.03125" font-size="32.5" fill="#FFFFFF"/><text text-anchor="middle" pointer-events="none" y="5" font-size="10px" fill="#FFFFFF" font-family="sans-serif"> python_ba…</text></g><g class="node" transform="translate(-1372.3695902098675,233.33270368717092)"><circle class="outline" cx="0" cy="0" r="32.5" fill="#68BDF6" stroke="#5CA8DB" stroke-width="2px"/><text text-anchor="middle" pointer-events="none" font-family="sans-serif" dy="2.03125" font-size="32.5" fill="#FFFFFF"/><text text-anchor="middle" pointer-events="none" y="5" font-size="10px" fill="#FFFFFF" font-family="sans-serif"> linux_basic</text></g><g class="node" transform="translate(-1213.1437758096117,228.42937401048619)"><circle class="outline" cx="0" cy="0" r="32.5" fill="#68BDF6" stroke="#5CA8DB" stroke-width="2px"/><text text-anchor="middle" pointer-events="none" font-family="sans-serif" dy="2.03125" font-size="32.5" fill="#FFFFFF"/><text text-anchor="middle" pointer-events="none" y="5" font-size="10px" fill="#FFFFFF" font-family="sans-serif"> linux_basic</text></g><g class="node" transform="translate(-1024.1864347237342,239.4850112827233)"><circle class="outline" cx="0" cy="0" r="32.5" fill="#68BDF6" stroke="#5CA8DB" stroke-width="2px"/><text text-anchor="middle" pointer-events="none" font-family="sans-serif" dy="2.03125" font-size="32.5" fill="#FFFFFF"/><text text-anchor="middle" pointer-events="none" y="5" font-size="10px" fill="#FFFFFF" font-family="sans-serif"> linux_basic</text></g><g class="node" transform="translate(-855.1482415015093,240.74079426650087)"><circle class="outline" cx="0" cy="0" r="32.5" fill="#68BDF6" stroke="#5CA8DB" stroke-width="2px"/><text text-anchor="middle" pointer-events="none" font-family="sans-serif" dy="2.03125" font-size="32.5" fill="#FFFFFF"/><text text-anchor="middle" pointer-events="none" y="5" font-size="10px" fill="#FFFFFF" font-family="sans-serif"> linux_basic</text></g><g class="node" transform="translate(-1203.9354267771448,-154.6761787685811)"><circle class="outline" cx="0" cy="0" r="32.5" fill="#68BDF6" stroke="#5CA8DB" stroke-width="2px"/><text text-anchor="middle" pointer-events="none" font-family="sans-serif" dy="2.03125" font-size="32.5" fill="#FFFFFF"/><text text-anchor="middle" pointer-events="none" y="5" font-size="10px" fill="#FFFFFF" font-family="sans-serif"> math_basic</text></g><g class="node" transform="translate(-1014.9227528028483,-148.92452385321528)"><circle class="outline" cx="0" cy="0" r="32.5" fill="#68BDF6" stroke="#5CA8DB" stroke-width="2px"/><text text-anchor="middle" pointer-events="none" font-family="sans-serif" dy="2.03125" font-size="32.5" fill="#FFFFFF"/><text text-anchor="middle" pointer-events="none" y="5" font-size="10px" fill="#FFFFFF" font-family="sans-serif"> math_basic</text></g><g class="node" transform="translate(-828.2903664032298,-148.91323092620047)"><circle class="outline" cx="0" cy="0" r="32.5" fill="#68BDF6" stroke="#5CA8DB" stroke-width="2px"/><text text-anchor="middle" pointer-events="none" font-family="sans-serif" dy="2.03125" font-size="32.5" fill="#FFFFFF"/><text text-anchor="middle" pointer-events="none" y="5" font-size="10px" fill="#FFFFFF" font-family="sans-serif"> math_basic</text></g><g class="node" transform="translate(-1336.8443744035953,-69.48209554416465)"><circle class="outline" cx="0" cy="0" r="32.5" fill="#6DCE9E" stroke="#60B58B" stroke-width="2px"/><text text-anchor="middle" pointer-events="none" font-family="sans-serif" dy="2.03125" font-size="32.5" fill="#FFFFFF"/><text text-anchor="middle" pointer-events="none" y="5" font-size="10px" fill="#FFFFFF" font-family="sans-serif"> html_basic</text></g><g class="node" transform="translate(-1150.733639433305,-67.10160106590085)"><circle class="outline" cx="0" cy="0" r="32.5" fill="#6DCE9E" stroke="#60B58B" stroke-width="2px"/><text text-anchor="middle" pointer-events="none" font-family="sans-serif" dy="2.03125" font-size="32.5" fill="#FFFFFF"/><text text-anchor="middle" pointer-events="none" y="5" font-size="10px" fill="#FFFFFF" font-family="sans-serif"> html_basic</text></g><g class="node" transform="translate(-995.041243421817,-67.2723960052385)"><circle class="outline" cx="0" cy="0" r="32.5" fill="#6DCE9E" stroke="#60B58B" stroke-width="2px"/><text text-anchor="middle" pointer-events="none" font-family="sans-serif" dy="2.03125" font-size="32.5" fill="#FFFFFF"/><text text-anchor="middle" pointer-events="none" y="5" font-size="10px" fill="#FFFFFF" font-family="sans-serif"> web_basic</text></g><g class="node" transform="translate(-845.5785998813626,-63.670684433956524)"><circle class="outline" cx="0" cy="0" r="32.5" fill="#6DCE9E" stroke="#60B58B" stroke-width="2px"/><text text-anchor="middle" pointer-events="none" font-family="sans-serif" dy="2.03125" font-size="32.5" fill="#FFFFFF"/><text text-anchor="middle" pointer-events="none" y="5" font-size="10px" fill="#FFFFFF" font-family="sans-serif"> web_basic</text></g><g class="node" transform="translate(-1077.3118265066305,128.25071054275867)"><circle class="outline" cx="0" cy="0" r="32.5" fill="#FF756E" stroke="#E06760" stroke-width="2px"/><text text-anchor="middle" pointer-events="none" font-family="sans-serif" dy="2.03125" font-size="32.5" fill="#FFFFFF"/><text text-anchor="middle" pointer-events="none" y="5" font-size="10px" fill="#FFFFFF" font-family="sans-serif"> data_dig</text></g><g class="node" transform="translate(-938.0091025104795,128.5771446037849)"><circle class="outline" cx="0" cy="0" r="32.5" fill="#FF756E" stroke="#E06760" stroke-width="2px"/><text text-anchor="middle" pointer-events="none" font-family="sans-serif" dy="2.03125" font-size="32.5" fill="#FFFFFF"/><text text-anchor="middle" pointer-events="none" y="5" font-size="10px" fill="#FFFFFF" font-family="sans-serif"> data_arran…</text></g><g class="node" transform="translate(-771.545665240751,127.81439908150718)"><circle class="outline" cx="0" cy="0" r="32.5" fill="#FF756E" stroke="#E06760" stroke-width="2px"/><text text-anchor="middle" pointer-events="none" font-family="sans-serif" dy="2.03125" font-size="32.5" fill="#FFFFFF"/><text text-anchor="middle" pointer-events="none" y="5" font-size="10px" fill="#FFFFFF" font-family="sans-serif"> data_analy…</text></g><g class="node" transform="translate(-107.00045892063463,-155.4941553074978)"><circle class="outline" cx="0" cy="0" r="32.5" fill="#FFD86E" stroke="#EDBA39" stroke-width="2px"/><text text-anchor="middle" pointer-events="none" font-family="sans-serif" dy="2.03125" font-size="32.5" fill="#604A0E"/><text text-anchor="middle" pointer-events="none" y="5" font-size="10px" fill="#604A0E" font-family="sans-serif"> tensorflow…</text></g><g class="node" transform="translate(38.16280103212982,-153.85598579383884)"><circle class="outline" cx="0" cy="0" r="32.5" fill="#FFD86E" stroke="#EDBA39" stroke-width="2px"/><text text-anchor="middle" pointer-events="none" font-family="sans-serif" dy="2.03125" font-size="32.5" fill="#604A0E"/><text text-anchor="middle" pointer-events="none" y="5" font-size="10px" fill="#604A0E" font-family="sans-serif"> tensorflow…</text></g><g class="node" transform="translate(-44.25464125261195,7.638635486826217)"><circle class="outline" cx="0" cy="0" r="32.5" fill="#FFD86E" stroke="#EDBA39" stroke-width="2px"/><text text-anchor="middle" pointer-events="none" font-family="sans-serif" dy="2.03125" font-size="32.5" fill="#604A0E"/><text text-anchor="middle" pointer-events="none" y="5" font-size="10px" fill="#604A0E" font-family="sans-serif"> tensorflow…</text></g><g class="node" transform="translate(106.400493785788,8.263895476443054)"><circle class="outline" cx="0" cy="0" r="32.5" fill="#FFD86E" stroke="#EDBA39" stroke-width="2px"/><text text-anchor="middle" pointer-events="none" font-family="sans-serif" dy="2.03125" font-size="32.5" fill="#604A0E"/><text text-anchor="middle" pointer-events="none" y="5" font-size="10px" fill="#604A0E" font-family="sans-serif"> tensorflow…</text></g><g class="node" transform="translate(247.7401017362149,11.99102446288174)"><circle class="outline" cx="0" cy="0" r="32.5" fill="#FB95AF" stroke="#E0849B" stroke-width="2px"/><text text-anchor="middle" pointer-events="none" font-family="sans-serif" dy="2.03125" font-size="32.5" fill="#FFFFFF"/><text text-anchor="middle" pointer-events="none" y="5" font-size="10px" fill="#FFFFFF" font-family="sans-serif"> keras</text></g><g class="node" transform="translate(173.7013926683822,-143.36619903400253)"><circle class="outline" cx="0" cy="0" r="32.5" fill="#FB95AF" stroke="#E0849B" stroke-width="2px"/><text text-anchor="middle" pointer-events="none" font-family="sans-serif" dy="2.03125" font-size="32.5" fill="#FFFFFF"/><text text-anchor="middle" pointer-events="none" y="5" font-size="10px" fill="#FFFFFF" font-family="sans-serif"> keras</text></g><g class="node" transform="translate(332.3680217020933,-135.57308251403208)"><circle class="outline" cx="0" cy="0" r="32.5" fill="#FB95AF" stroke="#E0849B" stroke-width="2px"/><text text-anchor="middle" pointer-events="none" font-family="sans-serif" dy="2.03125" font-size="32.5" fill="#FFFFFF"/><text text-anchor="middle" pointer-events="none" y="5" font-size="10px" fill="#FFFFFF" font-family="sans-serif"> keras</text></g><g class="node" transform="translate(333.81288021013756,-305.13189957300983)"><circle class="outline" cx="0" cy="0" r="32.5" fill="#68BDF6" stroke="#5CA8DB" stroke-width="2px"/><text text-anchor="middle" pointer-events="none" font-family="sans-serif" dy="2.03125" font-size="32.5" fill="#FFFFFF"/><text text-anchor="middle" pointer-events="none" y="5" font-size="10px" fill="#FFFFFF" font-family="sans-serif"> graph_mo…</text></g><g class="node" transform="translate(484.3287997115516,-302.0848116826923)"><circle class="outline" cx="0" cy="0" r="32.5" fill="#68BDF6" stroke="#5CA8DB" stroke-width="2px"/><text text-anchor="middle" pointer-events="none" font-family="sans-serif" dy="2.03125" font-size="32.5" fill="#FFFFFF"/><text text-anchor="middle" pointer-events="none" y="5" font-size="10px" fill="#FFFFFF" font-family="sans-serif"> graph_mo…</text></g><g class="node" transform="translate(628.7160275619485,-299.1659814999689)"><circle class="outline" cx="0" cy="0" r="32.5" fill="#68BDF6" stroke="#5CA8DB" stroke-width="2px"/><text text-anchor="middle" pointer-events="none" font-family="sans-serif" dy="2.03125" font-size="32.5" fill="#FFFFFF"/><text text-anchor="middle" pointer-events="none" y="5" font-size="10px" fill="#FFFFFF" font-family="sans-serif"> graph_mo…</text></g><g class="node" transform="translate(332.05381422815606,19.89685326507272)"><circle class="outline" cx="0" cy="0" r="32.5" fill="#6DCE9E" stroke="#60B58B" stroke-width="2px"/><text text-anchor="middle" pointer-events="none" font-family="sans-serif" dy="2.03125" font-size="32.5" fill="#FFFFFF"/><text text-anchor="middle" pointer-events="none" y="5" font-size="10px" fill="#FFFFFF" font-family="sans-serif"> text_model</text></g><g class="node" transform="translate(477.27288512951236,23.94212555741428)"><circle class="outline" cx="0" cy="0" r="32.5" fill="#6DCE9E" stroke="#60B58B" stroke-width="2px"/><text text-anchor="middle" pointer-events="none" font-family="sans-serif" dy="2.03125" font-size="32.5" fill="#FFFFFF"/><text text-anchor="middle" pointer-events="none" y="5" font-size="10px" fill="#FFFFFF" font-family="sans-serif"> text_model</text></g><g class="node" transform="translate(614.3512180378443,22.17680221886573)"><circle class="outline" cx="0" cy="0" r="32.5" fill="#6DCE9E" stroke="#60B58B" stroke-width="2px"/><text text-anchor="middle" pointer-events="none" font-family="sans-serif" dy="2.03125" font-size="32.5" fill="#FFFFFF"/><text text-anchor="middle" pointer-events="none" y="5" font-size="10px" fill="#FFFFFF" font-family="sans-serif"> text_model</text></g><g class="node" transform="translate(-1478.2865781333105,424.17658586170944)"><circle class="outline" cx="0" cy="0" r="32.5" fill="#68BDF6" stroke="#5CA8DB" stroke-width="2px"/><text text-anchor="middle" pointer-events="none" font-family="sans-serif" dy="2.03125" font-size="32.5" fill="#FFFFFF"/><text text-anchor="middle" pointer-events="none" y="5" font-size="10px" fill="#FFFFFF" font-family="sans-serif"> scala_basic</text></g><g class="node" transform="translate(-1355.5388013435663,425.45353443381373)"><circle class="outline" cx="0" cy="0" r="32.5" fill="#68BDF6" stroke="#5CA8DB" stroke-width="2px"/><text text-anchor="middle" pointer-events="none" font-family="sans-serif" dy="2.03125" font-size="32.5" fill="#FFFFFF"/><text text-anchor="middle" pointer-events="none" y="5" font-size="10px" fill="#FFFFFF" font-family="sans-serif"> scala_basic</text></g><g class="node" transform="translate(-1214.694264187663,426.26948475638346)"><circle class="outline" cx="0" cy="0" r="32.5" fill="#68BDF6" stroke="#5CA8DB" stroke-width="2px"/><text text-anchor="middle" pointer-events="none" font-family="sans-serif" dy="2.03125" font-size="32.5" fill="#FFFFFF"/><text text-anchor="middle" pointer-events="none" y="5" font-size="10px" fill="#FFFFFF" font-family="sans-serif"> scala_basic</text></g><g class="node" transform="translate(-1078.5585241039862,341.2850328858794)"><circle class="outline" cx="0" cy="0" r="32.5" fill="#6DCE9E" stroke="#60B58B" stroke-width="2px"/><text text-anchor="middle" pointer-events="none" font-family="sans-serif" dy="2.03125" font-size="32.5" fill="#FFFFFF"/><text text-anchor="middle" pointer-events="none" y="5" font-size="10px" fill="#FFFFFF" font-family="sans-serif"> hadoop_ba…</text></g><g class="node" transform="translate(-919.8582474673586,340.6306580894169)"><circle class="outline" cx="0" cy="0" r="32.5" fill="#6DCE9E" stroke="#60B58B" stroke-width="2px"/><text text-anchor="middle" pointer-events="none" font-family="sans-serif" dy="2.03125" font-size="32.5" fill="#FFFFFF"/><text text-anchor="middle" pointer-events="none" y="5" font-size="10px" fill="#FFFFFF" font-family="sans-serif"> hdfs</text></g><g class="node" transform="translate(-772.5015282197066,339.86246127498407)"><circle class="outline" cx="0" cy="0" r="32.5" fill="#6DCE9E" stroke="#60B58B" stroke-width="2px"/><text text-anchor="middle" pointer-events="none" font-family="sans-serif" dy="2.03125" font-size="32.5" fill="#FFFFFF"/><text text-anchor="middle" pointer-events="none" y="5" font-size="10px" fill="#FFFFFF" font-family="sans-serif"> hdfs</text></g><g class="node" transform="translate(-612.2066457268782,345.0387563566162)"><circle class="outline" cx="0" cy="0" r="32.5" fill="#6DCE9E" stroke="#60B58B" stroke-width="2px"/><text text-anchor="middle" pointer-events="none" font-family="sans-serif" dy="2.03125" font-size="32.5" fill="#FFFFFF"/><text text-anchor="middle" pointer-events="none" y="5" font-size="10px" fill="#FFFFFF" font-family="sans-serif"> hdfs</text></g><g class="node" transform="translate(-187.93883355887732,358.5422727143896)"><circle class="outline" cx="0" cy="0" r="32.5" fill="#6DCE9E" stroke="#60B58B" stroke-width="2px"/><text text-anchor="middle" pointer-events="none" font-family="sans-serif" dy="2.03125" font-size="32.5" fill="#FFFFFF"/><text text-anchor="middle" pointer-events="none" y="5" font-size="10px" fill="#FFFFFF" font-family="sans-serif"> mapreduce</text></g><g class="node" transform="translate(173.70531755607476,359.6868487023677)"><circle class="outline" cx="0" cy="0" r="32.5" fill="#6DCE9E" stroke="#60B58B" stroke-width="2px"/><text text-anchor="middle" pointer-events="none" font-family="sans-serif" dy="2.03125" font-size="32.5" fill="#FFFFFF"/><text text-anchor="middle" pointer-events="none" y="5" font-size="10px" fill="#FFFFFF" font-family="sans-serif"> mapreduce</text></g><g class="node" transform="translate(-785.9530288140439,493.686570139352)"><circle class="outline" cx="0" cy="0" r="32.5" fill="#FF756E" stroke="#E06760" stroke-width="2px"/><text text-anchor="middle" pointer-events="none" font-family="sans-serif" dy="2.03125" font-size="32.5" fill="#FFFFFF"/><text text-anchor="middle" pointer-events="none" y="5" font-size="10px" fill="#FFFFFF" font-family="sans-serif"> hbase</text></g><g class="node" transform="translate(-615.0928218029817,495.5208613803509)"><circle class="outline" cx="0" cy="0" r="32.5" fill="#FF756E" stroke="#E06760" stroke-width="2px"/><text text-anchor="middle" pointer-events="none" font-family="sans-serif" dy="2.03125" font-size="32.5" fill="#FFFFFF"/><text text-anchor="middle" pointer-events="none" y="5" font-size="10px" fill="#FFFFFF" font-family="sans-serif"> hive</text></g><g class="node" transform="translate(-473.7795887163585,500.00455233247)"><circle class="outline" cx="0" cy="0" r="32.5" fill="#FF756E" stroke="#E06760" stroke-width="2px"/><text text-anchor="middle" pointer-events="none" font-family="sans-serif" dy="2.03125" font-size="32.5" fill="#FFFFFF"/><text text-anchor="middle" pointer-events="none" y="5" font-size="10px" fill="#FFFFFF" font-family="sans-serif"> hive</text></g><g class="node" transform="translate(-321.9078398870881,504.17414262767977)"><circle class="outline" cx="0" cy="0" r="32.5" fill="#FF756E" stroke="#E06760" stroke-width="2px"/><text text-anchor="middle" pointer-events="none" font-family="sans-serif" dy="2.03125" font-size="32.5" fill="#FFFFFF"/><text text-anchor="middle" pointer-events="none" y="5" font-size="10px" fill="#FFFFFF" font-family="sans-serif"> redis</text></g><g class="node" transform="translate(-126.3901495259034,504.7411714346149)"><circle class="outline" cx="0" cy="0" r="32.5" fill="#FF756E" stroke="#E06760" stroke-width="2px"/><text text-anchor="middle" pointer-events="none" font-family="sans-serif" dy="2.03125" font-size="32.5" fill="#FFFFFF"/><text text-anchor="middle" pointer-events="none" y="5" font-size="10px" fill="#FFFFFF" font-family="sans-serif"> redis</text></g><g class="node" transform="translate(3.1166844931612445,699.3984415157013)"><circle class="outline" cx="0" cy="0" r="32.5" fill="#DE9BF9" stroke="#BF85D6" stroke-width="2px"/><text text-anchor="middle" pointer-events="none" font-family="sans-serif" dy="2.03125" font-size="32.5" fill="#FFFFFF"/><text text-anchor="middle" pointer-events="none" y="5" font-size="10px" fill="#FFFFFF" font-family="sans-serif"> sqoop</text></g><g class="node" transform="translate(178.21014423111194,697.3983882464353)"><circle class="outline" cx="0" cy="0" r="32.5" fill="#DE9BF9" stroke="#BF85D6" stroke-width="2px"/><text text-anchor="middle" pointer-events="none" font-family="sans-serif" dy="2.03125" font-size="32.5" fill="#FFFFFF"/><text text-anchor="middle" pointer-events="none" y="5" font-size="10px" fill="#FFFFFF" font-family="sans-serif"> scala_basic</text></g><g class="node" transform="translate(330.65687955474425,541.2703625701206)"><circle class="outline" cx="0" cy="0" r="32.5" fill="#FFD86E" stroke="#EDBA39" stroke-width="2px"/><text text-anchor="middle" pointer-events="none" font-family="sans-serif" dy="2.03125" font-size="32.5" fill="#604A0E"/><text text-anchor="middle" pointer-events="none" y="5" font-size="10px" fill="#604A0E" font-family="sans-serif"> spark_basic</text></g><g class="node" transform="translate(478.2866119404307,538.3921983211371)"><circle class="outline" cx="0" cy="0" r="32.5" fill="#FFD86E" stroke="#EDBA39" stroke-width="2px"/><text text-anchor="middle" pointer-events="none" font-family="sans-serif" dy="2.03125" font-size="32.5" fill="#604A0E"/><text text-anchor="middle" pointer-events="none" y="5" font-size="10px" fill="#604A0E" font-family="sans-serif"> spark_basic</text></g><g class="node" transform="translate(340.3461352961598,707.693563382742)"><circle class="outline" cx="0" cy="0" r="32.5" fill="#FFD86E" stroke="#EDBA39" stroke-width="2px"/><text text-anchor="middle" pointer-events="none" font-family="sans-serif" dy="2.03125" font-size="32.5" fill="#604A0E"/><text text-anchor="middle" pointer-events="none" y="5" font-size="10px" fill="#604A0E" font-family="sans-serif"> spark_basic</text></g><g class="node" transform="translate(493.92012508496384,706.4164951898184)"><circle class="outline" cx="0" cy="0" r="32.5" fill="#FFD86E" stroke="#EDBA39" stroke-width="2px"/><text text-anchor="middle" pointer-events="none" font-family="sans-serif" dy="2.03125" font-size="32.5" fill="#604A0E"/><text text-anchor="middle" pointer-events="none" y="5" font-size="10px" fill="#604A0E" font-family="sans-serif"> spark_basic</text></g><g class="node" transform="translate(690.5220464642423,705.3923476592319)"><circle class="outline" cx="0" cy="0" r="32.5" fill="#FFD86E" stroke="#EDBA39" stroke-width="2px"/><text text-anchor="middle" pointer-events="none" font-family="sans-serif" dy="2.03125" font-size="32.5" fill="#604A0E"/><text text-anchor="middle" pointer-events="none" y="5" font-size="10px" fill="#604A0E" font-family="sans-serif"> spark_basic</text></g><g class="node" transform="translate(588.6763139485702,538.2217448240123)"><circle class="outline" cx="0" cy="0" r="32.5" fill="#FFD86E" stroke="#EDBA39" stroke-width="2px"/><text text-anchor="middle" pointer-events="none" font-family="sans-serif" dy="2.03125" font-size="32.5" fill="#604A0E"/><text text-anchor="middle" pointer-events="none" y="5" font-size="10px" fill="#604A0E" font-family="sans-serif"> spark_basic</text></g><g class="node" transform="translate(-242.40167043738563,13.074306118816082)"><circle class="outline" cx="0" cy="0" r="40" fill="#A5ABB6" stroke="#9AA1AC" stroke-width="2px"/><text text-anchor="middle" pointer-events="none" font-family="sans-serif" dy="2.5" font-size="40" fill="#FFFFFF"/><text text-anchor="middle" pointer-events="none" y="5" font-size="10px" fill="#FFFFFF" font-family="sans-serif"> AI_developer</text></g><g class="node" transform="translate(102.4745319408598,133.78389403566803)"><circle class="outline" cx="0" cy="0" r="40" fill="#A5ABB6" stroke="#9AA1AC" stroke-width="2px"/><text text-anchor="middle" pointer-events="none" font-family="sans-serif" dy="2.5" font-size="40" fill="#FFFFFF"/><text text-anchor="middle" pointer-events="none" y="5" font-size="10px" fill="#FFFFFF" font-family="sans-serif"> AI_developer</text></g><g class="node" transform="translate(804.8238659405392,24.3337658645072)"><circle class="outline" cx="0" cy="0" r="40" fill="#A5ABB6" stroke="#9AA1AC" stroke-width="2px"/><text text-anchor="middle" pointer-events="none" font-family="sans-serif" dy="2.5" font-size="40" fill="#FFFFFF"/><text text-anchor="middle" pointer-events="none" y="5" font-size="10px" fill="#FFFFFF" font-family="sans-serif"> AI_developer</text></g><g class="node" transform="translate(-127.55766262932912,702.3915206542086)"><circle class="outline" cx="0" cy="0" r="40" fill="#A5ABB6" stroke="#9AA1AC" stroke-width="2px"/><text text-anchor="middle" pointer-events="none" font-family="sans-serif" dy="2.5" font-size="40" fill="#FFFFFF"/><text text-anchor="middle" pointer-events="none" y="5" font-size="10px" fill="#FFFFFF" font-family="sans-serif"> BD_developer</text></g><g class="node" transform="translate(178.47858388621057,555.9209205824183)"><circle class="outline" cx="0" cy="0" r="40" fill="#A5ABB6" stroke="#9AA1AC" stroke-width="2px"/><text text-anchor="middle" pointer-events="none" font-family="sans-serif" dy="2.5" font-size="40" fill="#FFFFFF"/><text text-anchor="middle" pointer-events="none" y="5" font-size="10px" fill="#FFFFFF" font-family="sans-serif"> BD_developer</text></g><g class="node" transform="translate(783.745134780067,538.2012330125071)"><circle class="outline" cx="0" cy="0" r="40" fill="#A5ABB6" stroke="#9AA1AC" stroke-width="2px"/><text text-anchor="middle" pointer-events="none" font-family="sans-serif" dy="2.5" font-size="40" fill="#FFFFFF"/><text text-anchor="middle" pointer-events="none" y="5" font-size="10px" fill="#FFFFFF" font-family="sans-serif"> BD_developer</text></g></g></svg>