<svg xmlns="http://www.w3.org/2000/svg" width="1648.987060546875" height="349.9600830078125" viewBox="-963.3910522460938 -102.77578735351562 1648.987060546875 349.9600830078125"><title>Neo4j Graph Visualization</title><desc>Created using Neo4j (http://www.neo4j.com/)</desc><g class="layer relationships"><g class="relationship" transform="translate(-811.080756864074 95.12289074257026) rotate(358.4087981260989)"><path class="outline" fill="#A5ABB6" stroke="none" d="M 32.5 2.5 L 44.60727334106686 2.5 L 44.60727334106686 -2.5 L 32.5 -2.5 Z M 72.60727334106686 2.5 L 84.71454668213372 2.5 L 84.71454668213372 5.5 L 95.71454668213372 0 L 84.71454668213372 -5.5 L 84.71454668213372 -2.5 L 72.60727334106686 -2.5 Z"/><text text-anchor="middle" pointer-events="none" font-size="8px" fill="#000000" x="58.60727334106686" y="3" font-family="sans-serif">same</text></g><g class="relationship" transform="translate(-682.9156508909941 91.56261100436964) rotate(314.7849698130402)"><path class="outline" fill="#A5ABB6" stroke="none" d="M 32.5 2.5 L 38.83564243545522 2.5 L 38.83564243545522 -2.5 L 32.5 -2.5 Z M 66.83564243545521 2.5 L 73.17128487091044 2.5 L 73.17128487091044 5.5 L 84.17128487091044 0 L 73.17128487091044 -5.5 L 73.17128487091044 -2.5 L 66.83564243545521 -2.5 Z"/><text text-anchor="middle" pointer-events="none" font-size="8px" fill="#000000" x="52.83564243545522" y="3" font-family="sans-serif">same</text></g><g class="relationship" transform="translate(-926.8910253166201 -66.27578709276636) rotate(360.13263779956236)"><path class="outline" fill="#A5ABB6" stroke="none" d="M 32.5 2.5 L 40.61179544000534 2.5 L 40.61179544000534 -2.5 L 32.5 -2.5 Z M 68.61179544000534 2.5 L 76.72359088001068 2.5 L 76.72359088001068 5.5 L 87.72359088001068 0 L 76.72359088001068 -5.5 L 76.72359088001068 -2.5 L 68.61179544000534 -2.5 Z"/><text text-anchor="middle" pointer-events="none" font-size="8px" fill="#000000" x="54.61179544000534" y="3" font-family="sans-serif">same</text></g><g class="relationship" transform="translate(-806.6677565797274 -65.99747377819868) rotate(359.88148527558405)"><path class="outline" fill="#A5ABB6" stroke="none" d="M 32.5 2.5 L 41.986791790082 2.5 L 41.986791790082 -2.5 L 32.5 -2.5 Z M 69.98679179008201 2.5 L 79.473583580164 2.5 L 79.473583580164 5.5 L 90.473583580164 0 L 79.473583580164 -5.5 L 79.473583580164 -2.5 L 69.98679179008201 -2.5 Z"/><text text-anchor="middle" pointer-events="none" font-size="8px" fill="#000000" x="55.986791790082" y="3" font-family="sans-serif">same</text></g><g class="relationship" transform="translate(-683.6944360754458 -66.25184103001905) rotate(402.1149530168226)"><path class="outline" fill="#A5ABB6" stroke="none" d="M 32.5 2.5 L 36.42312553921561 2.5 L 36.42312553921561 -2.5 L 32.5 -2.5 Z M 64.42312553921562 2.5 L 68.34625107843122 2.5 L 68.34625107843122 5.5 L 79.34625107843122 0 L 68.34625107843122 -5.5 L 68.34625107843122 -2.5 L 64.42312553921562 -2.5 Z"/><text text-anchor="middle" pointer-events="none" font-size="8px" fill="#000000" x="50.42312553921561" y="3" font-family="sans-serif">same</text></g><g class="relationship" transform="translate(-600.726792158771 8.754518321807495) rotate(359.534628505975)"><path class="outline" fill="#A5ABB6" stroke="none" d="M 32.5 2.5 L 46.59716282923576 2.5 L 46.59716282923576 -2.5 L 32.5 -2.5 Z M 74.59716282923576 2.5 L 88.69432565847151 2.5 L 88.69432565847151 5.5 L 99.69432565847151 0 L 88.69432565847151 -5.5 L 88.69432565847151 -2.5 L 74.59716282923576 -2.5 Z"/><text text-anchor="middle" pointer-events="none" font-size="8px" fill="#000000" x="60.59716282923576" y="3" font-family="sans-serif">same</text></g><g class="relationship" transform="translate(-468.5368269845328 7.680812807376711) rotate(359.9153867123173)"><path class="outline" fill="#A5ABB6" stroke="none" d="M 32.5 2.5 L 48.88667721525846 2.5 L 48.88667721525846 -2.5 L 32.5 -2.5 Z M 76.88667721525846 2.5 L 93.27335443051692 2.5 L 93.27335443051692 5.5 L 104.27335443051692 0 L 93.27335443051692 -5.5 L 93.27335443051692 -2.5 L 76.88667721525846 -2.5 Z"/><text text-anchor="middle" pointer-events="none" font-size="8px" fill="#000000" x="62.88667721525846" y="3" font-family="sans-serif">same</text></g><g class="relationship" transform="translate(-331.7636216971616 7.478828663385357) rotate(359.7598685137634)"><path class="outline" fill="#A5ABB6" stroke="none" d="M 32.5 2.5 L 48.02312384949475 2.5 L 48.02312384949475 -2.5 L 32.5 -2.5 Z M 76.02312384949475 2.5 L 91.5462476989895 2.5 L 91.5462476989895 5.5 L 102.5462476989895 0 L 91.5462476989895 -5.5 L 91.5462476989895 -2.5 L 76.02312384949475 -2.5 Z"/><text text-anchor="middle" pointer-events="none" font-size="8px" fill="#000000" x="62.02312384949475" y="3" font-family="sans-serif">same</text></g><g class="relationship" transform="translate(-196.71856005321166 6.912840007505764) rotate(506.42400831104163)"><path class="outline" fill="#A5ABB6" stroke="none" d="M 32.5 2.5 L 75.13152722308736 2.5 L 75.13152722308736 -2.5 L 32.5 -2.5 Z M 103.13152722308736 2.5 L 145.76305444617472 2.5 L 145.76305444617472 5.5 L 156.76305444617472 0 L 145.76305444617472 -5.5 L 145.76305444617472 -2.5 L 103.13152722308736 -2.5 Z"/><text text-anchor="middle" pointer-events="none" font-size="8px" fill="#000000" x="89.13152722308736" y="3" transform="rotate(180 89.13152722308736 0)" font-family="sans-serif">same</text></g><g class="relationship" transform="translate(-196.71856005321166 6.912840007505764) rotate(359.67104349525675)"><path class="outline" fill="#A5ABB6" stroke="none" d="M 32.5 2.5 L 69.43303348499668 2.5 L 69.43303348499668 -2.5 L 32.5 -2.5 Z M 97.43303348499668 2.5 L 134.36606696999337 2.5 L 134.36606696999337 5.5 L 145.36606696999337 0 L 134.36606696999337 -5.5 L 134.36606696999337 -2.5 L 97.43303348499668 -2.5 Z"/><text text-anchor="middle" pointer-events="none" font-size="8px" fill="#000000" x="83.43303348499668" y="3" font-family="sans-serif">same</text></g><g class="relationship" transform="translate(-18.85542460824027 5.891649987024657) rotate(360.09957908733634)"><path class="outline" fill="#A5ABB6" stroke="none" d="M 32.5 2.5 L 58.82718399108134 2.5 L 58.82718399108134 -2.5 L 32.5 -2.5 Z M 86.82718399108134 2.5 L 113.15436798216268 2.5 L 113.15436798216268 5.5 L 124.15436798216268 0 L 113.15436798216268 -5.5 L 113.15436798216268 -2.5 L 86.82718399108134 -2.5 Z"/><text text-anchor="middle" pointer-events="none" font-size="8px" fill="#000000" x="72.82718399108134" y="3" font-family="sans-serif">same</text></g><g class="relationship" transform="translate(137.7987067800884 6.163912469012203) rotate(390.4011299618512)"><path class="outline" fill="#A5ABB6" stroke="none" d="M 32.5 2.5 L 59.82795680595571 2.5 L 59.82795680595571 -2.5 L 32.5 -2.5 Z M 87.82795680595571 2.5 L 115.15591361191142 2.5 L 115.15591361191142 5.5 L 126.15591361191142 0 L 115.15591361191142 -5.5 L 115.15591361191142 -2.5 L 87.82795680595571 -2.5 Z"/><text text-anchor="middle" pointer-events="none" font-size="8px" fill="#000000" x="73.82795680595571" y="3" font-family="sans-serif">same</text></g><g class="relationship" transform="translate(-354.40365148888 111.58335026335874) rotate(360.290025098506)"><path class="outline" fill="#A5ABB6" stroke="none" d="M 32.5 2.5 L 58.57784253834335 2.5 L 58.57784253834335 -2.5 L 32.5 -2.5 Z M 86.57784253834335 2.5 L 112.6556850766867 2.5 L 112.6556850766867 5.5 L 123.6556850766867 0 L 112.6556850766867 -5.5 L 112.6556850766867 -2.5 L 86.57784253834335 -2.5 Z"/><text text-anchor="middle" pointer-events="none" font-size="8px" fill="#000000" x="72.57784253834335" y="3" font-family="sans-serif">same</text></g><g class="relationship" transform="translate(-198.24996697770734 112.37379023863468) rotate(359.27905993446404)"><path class="outline" fill="#A5ABB6" stroke="none" d="M 32.5 2.5 L 44.29132571171645 2.5 L 44.29132571171645 -2.5 L 32.5 -2.5 Z M 72.29132571171645 2.5 L 84.0826514234329 2.5 L 84.0826514234329 5.5 L 95.0826514234329 0 L 84.0826514234329 -5.5 L 84.0826514234329 -2.5 L 72.29132571171645 -2.5 Z"/><text text-anchor="middle" pointer-events="none" font-size="8px" fill="#000000" x="58.29132571171645" y="3" font-family="sans-serif">same</text></g><g class="relationship" transform="translate(-70.67741526549568 110.76848843888934) rotate(505.8373423222224)"><path class="outline" fill="#A5ABB6" stroke="none" d="M 32.5 2.5 L 69.46520901432844 2.5 L 69.46520901432844 -2.5 L 32.5 -2.5 Z M 97.46520901432844 2.5 L 134.43041802865687 2.5 L 134.43041802865687 5.5 L 145.43041802865687 0 L 134.43041802865687 -5.5 L 134.43041802865687 -2.5 L 97.46520901432844 -2.5 Z"/><text text-anchor="middle" pointer-events="none" font-size="8px" fill="#000000" x="83.46520901432844" y="3" transform="rotate(180 83.46520901432844 0)" font-family="sans-serif">same</text></g><g class="relationship" transform="translate(-217.90535862206326 210.68428476183277) rotate(359.0209441987928)"><path class="outline" fill="#A5ABB6" stroke="none" d="M 32.5 2.5 L 58.99504507057959 2.5 L 58.99504507057959 -2.5 L 32.5 -2.5 Z M 86.9950450705796 2.5 L 113.49009014115919 2.5 L 113.49009014115919 5.5 L 124.49009014115919 0 L 113.49009014115919 -5.5 L 113.49009014115919 -2.5 L 86.9950450705796 -2.5 Z"/><text text-anchor="middle" pointer-events="none" font-size="8px" fill="#000000" x="72.9950450705796" y="3" font-family="sans-serif">same</text></g><g class="relationship" transform="translate(-60.93818777835414 208.00180832183923) rotate(359.69416685432134)"><path class="outline" fill="#A5ABB6" stroke="none" d="M 32.5 2.5 L 44.34017910475809 2.5 L 44.34017910475809 -2.5 L 32.5 -2.5 Z M 72.34017910475809 2.5 L 84.18035820951619 2.5 L 84.18035820951619 5.5 L 95.18035820951619 0 L 84.18035820951619 -5.5 L 84.18035820951619 -2.5 L 72.34017910475809 -2.5 Z"/><text text-anchor="middle" pointer-events="none" font-size="8px" fill="#000000" x="58.34017910475809" y="3" font-family="sans-serif">same</text></g><g class="relationship" transform="translate(66.74035149731591 207.32027993538236) rotate(330.2684675583727)"><path class="outline" fill="#A5ABB6" stroke="none" d="M 32.5 2.5 L 41.111001100486504 2.5 L 41.111001100486504 -2.5 L 32.5 -2.5 Z M 69.1110011004865 2.5 L 77.72200220097301 2.5 L 77.72200220097301 5.5 L 88.72200220097301 0 L 77.72200220097301 -5.5 L 77.72200220097301 -2.5 L 69.1110011004865 -2.5 Z"/><text text-anchor="middle" pointer-events="none" font-size="8px" fill="#000000" x="55.111001100486504" y="3" font-family="sans-serif">same</text></g><g class="relationship" transform="translate(172.00453292084632 147.20184743047767) rotate(329.37869208355755)"><path class="outline" fill="#A5ABB6" stroke="none" d="M 32.5 2.5 L 40.133471393248755 2.5 L 40.133471393248755 -2.5 L 32.5 -2.5 Z M 68.13347139324875 2.5 L 75.76694278649751 2.5 L 75.76694278649751 5.5 L 86.76694278649751 0 L 75.76694278649751 -5.5 L 75.76694278649751 -2.5 L 68.13347139324875 -2.5 Z"/><text text-anchor="middle" pointer-events="none" font-size="8px" fill="#000000" x="54.133471393248755" y="3" font-family="sans-serif">same</text></g><g class="relationship" transform="translate(274.640017594381 86.45186037314326) rotate(359.1375217816901)"><path class="outline" fill="#A5ABB6" stroke="none" d="M 32.5 2.5 L 44.99532455076658 2.5 L 44.99532455076658 -2.5 L 32.5 -2.5 Z M 72.99532455076658 2.5 L 85.49064910153317 2.5 L 85.49064910153317 5.5 L 96.49064910153317 0 L 85.49064910153317 -5.5 L 85.49064910153317 -2.5 L 72.99532455076658 -2.5 Z"/><text text-anchor="middle" pointer-events="none" font-size="8px" fill="#000000" x="58.99532455076658" y="3" font-family="sans-serif">same</text></g><g class="relationship" transform="translate(403.61605263077826 84.51022654440771) rotate(499.4912527648988)"><path class="outline" fill="#A5ABB6" stroke="none" d="M 32.5 2.5 L 53.95513806432017 2.5 L 53.95513806432017 -2.5 L 32.5 -2.5 Z M 81.95513806432017 2.5 L 103.41027612864033 2.5 L 103.41027612864033 5.5 L 114.41027612864033 0 L 103.41027612864033 -5.5 L 103.41027612864033 -2.5 L 81.95513806432017 -2.5 Z"/><text text-anchor="middle" pointer-events="none" font-size="8px" fill="#000000" x="67.95513806432017" y="3" transform="rotate(180 67.95513806432017 0)" font-family="sans-serif">same</text></g><g class="relationship" transform="translate(291.91916970574465 179.93787231346505) rotate(359.02396149505284)"><path class="outline" fill="#A5ABB6" stroke="none" d="M 32.5 2.5 L 47.156031944149845 2.5 L 47.156031944149845 -2.5 L 32.5 -2.5 Z M 75.15603194414985 2.5 L 89.81206388829969 2.5 L 89.81206388829969 5.5 L 100.81206388829969 0 L 89.81206388829969 -5.5 L 89.81206388829969 -2.5 L 75.15603194414985 -2.5 Z"/><text text-anchor="middle" pointer-events="none" font-size="8px" fill="#000000" x="61.156031944149845" y="3" font-family="sans-serif">same</text></g><g class="relationship" transform="translate(425.2118908719958 177.66699973797517) rotate(360.74216516200653)"><path class="outline" fill="#A5ABB6" stroke="none" d="M 32.5 2.5 L 46.17838698525162 2.5 L 46.17838698525162 -2.5 L 32.5 -2.5 Z M 74.17838698525162 2.5 L 87.85677397050324 2.5 L 87.85677397050324 5.5 L 98.85677397050324 0 L 87.85677397050324 -5.5 L 87.85677397050324 -2.5 L 74.17838698525162 -2.5 Z"/><text text-anchor="middle" pointer-events="none" font-size="8px" fill="#000000" x="60.17838698525162" y="3" font-family="sans-serif">same</text></g><g class="relationship" transform="translate(556.5576450791116 179.36844609381845) rotate(233.72907754319414)"><path class="outline" fill="#A5ABB6" stroke="none" d="M 32.5 2.5 L 40.60118317708453 2.5 L 40.60118317708453 -2.5 L 32.5 -2.5 Z M 68.60118317708452 2.5 L 76.70236635416906 2.5 L 76.70236635416906 5.5 L 87.70236635416906 0 L 76.70236635416906 -5.5 L 76.70236635416906 -2.5 L 68.60118317708452 -2.5 Z"/><text text-anchor="middle" pointer-events="none" font-size="8px" fill="#000000" x="54.60118317708453" y="3" transform="rotate(180 54.60118317708453 0)" font-family="sans-serif">same</text></g><g class="relationship" transform="translate(485.4454329286923 82.45785761033213) rotate(360.86096596112344)"><path class="outline" fill="#A5ABB6" stroke="none" d="M 32.5 2.5 L 46.834164416671115 2.5 L 46.834164416671115 -2.5 L 32.5 -2.5 Z M 90.83416441667111 2.5 L 105.16832883334223 2.5 L 105.16832883334223 5.5 L 116.16832883334223 0 L 105.16832883334223 -5.5 L 105.16832883334223 -2.5 L 90.83416441667111 -2.5 Z"/><text text-anchor="middle" pointer-events="none" font-size="8px" fill="#000000" x="68.83416441667111" y="3" font-family="sans-serif">career_as</text></g></g><g class="layer nodes"><g class="node" transform="translate(485.4454329286923,82.45785761033213)"><circle class="outline" cx="0" cy="0" r="32.5" fill="#FFD86E" stroke="#EDBA39" stroke-width="2px"/><text text-anchor="middle" pointer-events="none" font-family="sans-serif" dy="2.03125" font-size="32.5" fill="#604A0E"/><text text-anchor="middle" pointer-events="none" y="5" font-size="10px" fill="#604A0E" font-family="sans-serif"> spark_basic</text></g><g class="node" transform="translate(641.5961305773875,84.80446248220244)"><circle class="outline" cx="0" cy="0" r="40" fill="#A5ABB6" stroke="#9AA1AC" stroke-width="2px"/><text text-anchor="middle" pointer-events="none" font-family="sans-serif" dy="2.5" font-size="40" fill="#FFFFFF"/><text text-anchor="middle" pointer-events="none" y="5" font-size="10px" fill="#FFFFFF" font-family="sans-serif"> BD_developer</text></g><g class="node" transform="translate(556.5576450791116,179.36844609381845)"><circle class="outline" cx="0" cy="0" r="32.5" fill="#FFD86E" stroke="#EDBA39" stroke-width="2px"/><text text-anchor="middle" pointer-events="none" font-family="sans-serif" dy="2.03125" font-size="32.5" fill="#604A0E"/><text text-anchor="middle" pointer-events="none" y="5" font-size="10px" fill="#604A0E" font-family="sans-serif"> spark_basic</text></g><g class="node" transform="translate(425.2118908719958,177.66699973797517)"><circle class="outline" cx="0" cy="0" r="32.5" fill="#FFD86E" stroke="#EDBA39" stroke-width="2px"/><text text-anchor="middle" pointer-events="none" font-family="sans-serif" dy="2.03125" font-size="32.5" fill="#604A0E"/><text text-anchor="middle" pointer-events="none" y="5" font-size="10px" fill="#604A0E" font-family="sans-serif"> spark_basic</text></g><g class="node" transform="translate(291.91916970574465,179.93787231346505)"><circle class="outline" cx="0" cy="0" r="32.5" fill="#FFD86E" stroke="#EDBA39" stroke-width="2px"/><text text-anchor="middle" pointer-events="none" font-family="sans-serif" dy="2.03125" font-size="32.5" fill="#604A0E"/><text text-anchor="middle" pointer-events="none" y="5" font-size="10px" fill="#604A0E" font-family="sans-serif"> spark_basic</text></g><g class="node" transform="translate(403.61605263077826,84.51022654440771)"><circle class="outline" cx="0" cy="0" r="32.5" fill="#FFD86E" stroke="#EDBA39" stroke-width="2px"/><text text-anchor="middle" pointer-events="none" font-family="sans-serif" dy="2.03125" font-size="32.5" fill="#604A0E"/><text text-anchor="middle" pointer-events="none" y="5" font-size="10px" fill="#604A0E" font-family="sans-serif"> spark_basic</text></g><g class="node" transform="translate(274.640017594381,86.45186037314326)"><circle class="outline" cx="0" cy="0" r="32.5" fill="#FFD86E" stroke="#EDBA39" stroke-width="2px"/><text text-anchor="middle" pointer-events="none" font-family="sans-serif" dy="2.03125" font-size="32.5" fill="#604A0E"/><text text-anchor="middle" pointer-events="none" y="5" font-size="10px" fill="#604A0E" font-family="sans-serif"> spark_basic</text></g><g class="node" transform="translate(137.7987067800884,6.163912469012203)"><circle class="outline" cx="0" cy="0" r="32.5" fill="#6DCE9E" stroke="#60B58B" stroke-width="2px"/><text text-anchor="middle" pointer-events="none" font-family="sans-serif" dy="2.03125" font-size="32.5" fill="#FFFFFF"/><text text-anchor="middle" pointer-events="none" y="5" font-size="10px" fill="#FFFFFF" font-family="sans-serif"> mapreduce</text></g><g class="node" transform="translate(-18.85542460824027,5.891649987024657)"><circle class="outline" cx="0" cy="0" r="32.5" fill="#6DCE9E" stroke="#60B58B" stroke-width="2px"/><text text-anchor="middle" pointer-events="none" font-family="sans-serif" dy="2.03125" font-size="32.5" fill="#FFFFFF"/><text text-anchor="middle" pointer-events="none" y="5" font-size="10px" fill="#FFFFFF" font-family="sans-serif"> mapreduce</text></g><g class="node" transform="translate(-196.71856005321166,6.912840007505764)"><circle class="outline" cx="0" cy="0" r="32.5" fill="#6DCE9E" stroke="#60B58B" stroke-width="2px"/><text text-anchor="middle" pointer-events="none" font-family="sans-serif" dy="2.03125" font-size="32.5" fill="#FFFFFF"/><text text-anchor="middle" pointer-events="none" y="5" font-size="10px" fill="#FFFFFF" font-family="sans-serif"> hdfs</text></g><g class="node" transform="translate(-331.7636216971616,7.478828663385357)"><circle class="outline" cx="0" cy="0" r="32.5" fill="#6DCE9E" stroke="#60B58B" stroke-width="2px"/><text text-anchor="middle" pointer-events="none" font-family="sans-serif" dy="2.03125" font-size="32.5" fill="#FFFFFF"/><text text-anchor="middle" pointer-events="none" y="5" font-size="10px" fill="#FFFFFF" font-family="sans-serif"> hdfs</text></g><g class="node" transform="translate(-468.5368269845328,7.680812807376711)"><circle class="outline" cx="0" cy="0" r="32.5" fill="#6DCE9E" stroke="#60B58B" stroke-width="2px"/><text text-anchor="middle" pointer-events="none" font-family="sans-serif" dy="2.03125" font-size="32.5" fill="#FFFFFF"/><text text-anchor="middle" pointer-events="none" y="5" font-size="10px" fill="#FFFFFF" font-family="sans-serif"> hdfs</text></g><g class="node" transform="translate(-600.726792158771,8.754518321807495)"><circle class="outline" cx="0" cy="0" r="32.5" fill="#6DCE9E" stroke="#60B58B" stroke-width="2px"/><text text-anchor="middle" pointer-events="none" font-family="sans-serif" dy="2.03125" font-size="32.5" fill="#FFFFFF"/><text text-anchor="middle" pointer-events="none" y="5" font-size="10px" fill="#FFFFFF" font-family="sans-serif"> hadoop_ba…</text></g><g class="node" transform="translate(-682.9156508909941,91.56261100436964)"><circle class="outline" cx="0" cy="0" r="32.5" fill="#68BDF6" stroke="#5CA8DB" stroke-width="2px"/><text text-anchor="middle" pointer-events="none" font-family="sans-serif" dy="2.03125" font-size="32.5" fill="#FFFFFF"/><text text-anchor="middle" pointer-events="none" y="5" font-size="10px" fill="#FFFFFF" font-family="sans-serif"> linux_basic</text></g><g class="node" transform="translate(-811.080756864074,95.12289074257026)"><circle class="outline" cx="0" cy="0" r="32.5" fill="#68BDF6" stroke="#5CA8DB" stroke-width="2px"/><text text-anchor="middle" pointer-events="none" font-family="sans-serif" dy="2.03125" font-size="32.5" fill="#FFFFFF"/><text text-anchor="middle" pointer-events="none" y="5" font-size="10px" fill="#FFFFFF" font-family="sans-serif"> linux_basic</text></g><g class="node" transform="translate(-683.6944360754458,-66.25184103001905)"><circle class="outline" cx="0" cy="0" r="32.5" fill="#68BDF6" stroke="#5CA8DB" stroke-width="2px"/><text text-anchor="middle" pointer-events="none" font-family="sans-serif" dy="2.03125" font-size="32.5" fill="#FFFFFF"/><text text-anchor="middle" pointer-events="none" y="5" font-size="10px" fill="#FFFFFF" font-family="sans-serif"> scala_basic</text></g><g class="node" transform="translate(-806.6677565797274,-65.99747377819868)"><circle class="outline" cx="0" cy="0" r="32.5" fill="#68BDF6" stroke="#5CA8DB" stroke-width="2px"/><text text-anchor="middle" pointer-events="none" font-family="sans-serif" dy="2.03125" font-size="32.5" fill="#FFFFFF"/><text text-anchor="middle" pointer-events="none" y="5" font-size="10px" fill="#FFFFFF" font-family="sans-serif"> scala_basic</text></g><g class="node" transform="translate(-926.8910253166201,-66.27578709276636)"><circle class="outline" cx="0" cy="0" r="32.5" fill="#68BDF6" stroke="#5CA8DB" stroke-width="2px"/><text text-anchor="middle" pointer-events="none" font-family="sans-serif" dy="2.03125" font-size="32.5" fill="#FFFFFF"/><text text-anchor="middle" pointer-events="none" y="5" font-size="10px" fill="#FFFFFF" font-family="sans-serif"> scala_basic</text></g><g class="node" transform="translate(172.00453292084632,147.20184743047767)"><circle class="outline" cx="0" cy="0" r="32.5" fill="#DE9BF9" stroke="#BF85D6" stroke-width="2px"/><text text-anchor="middle" pointer-events="none" font-family="sans-serif" dy="2.03125" font-size="32.5" fill="#FFFFFF"/><text text-anchor="middle" pointer-events="none" y="5" font-size="10px" fill="#FFFFFF" font-family="sans-serif"> scala_basic</text></g><g class="node" transform="translate(66.74035149731591,207.32027993538236)"><circle class="outline" cx="0" cy="0" r="32.5" fill="#DE9BF9" stroke="#BF85D6" stroke-width="2px"/><text text-anchor="middle" pointer-events="none" font-family="sans-serif" dy="2.03125" font-size="32.5" fill="#FFFFFF"/><text text-anchor="middle" pointer-events="none" y="5" font-size="10px" fill="#FFFFFF" font-family="sans-serif"> sqoop</text></g><g class="node" transform="translate(-60.93818777835414,208.00180832183923)"><circle class="outline" cx="0" cy="0" r="32.5" fill="#FF756E" stroke="#E06760" stroke-width="2px"/><text text-anchor="middle" pointer-events="none" font-family="sans-serif" dy="2.03125" font-size="32.5" fill="#FFFFFF"/><text text-anchor="middle" pointer-events="none" y="5" font-size="10px" fill="#FFFFFF" font-family="sans-serif"> redis</text></g><g class="node" transform="translate(-217.90535862206326,210.68428476183277)"><circle class="outline" cx="0" cy="0" r="32.5" fill="#FF756E" stroke="#E06760" stroke-width="2px"/><text text-anchor="middle" pointer-events="none" font-family="sans-serif" dy="2.03125" font-size="32.5" fill="#FFFFFF"/><text text-anchor="middle" pointer-events="none" y="5" font-size="10px" fill="#FFFFFF" font-family="sans-serif"> redis</text></g><g class="node" transform="translate(-70.67741526549568,110.76848843888934)"><circle class="outline" cx="0" cy="0" r="32.5" fill="#FF756E" stroke="#E06760" stroke-width="2px"/><text text-anchor="middle" pointer-events="none" font-family="sans-serif" dy="2.03125" font-size="32.5" fill="#FFFFFF"/><text text-anchor="middle" pointer-events="none" y="5" font-size="10px" fill="#FFFFFF" font-family="sans-serif"> hive</text></g><g class="node" transform="translate(-198.24996697770734,112.37379023863468)"><circle class="outline" cx="0" cy="0" r="32.5" fill="#FF756E" stroke="#E06760" stroke-width="2px"/><text text-anchor="middle" pointer-events="none" font-family="sans-serif" dy="2.03125" font-size="32.5" fill="#FFFFFF"/><text text-anchor="middle" pointer-events="none" y="5" font-size="10px" fill="#FFFFFF" font-family="sans-serif"> hive</text></g><g class="node" transform="translate(-354.40365148888,111.58335026335874)"><circle class="outline" cx="0" cy="0" r="32.5" fill="#FF756E" stroke="#E06760" stroke-width="2px"/><text text-anchor="middle" pointer-events="none" font-family="sans-serif" dy="2.03125" font-size="32.5" fill="#FFFFFF"/><text text-anchor="middle" pointer-events="none" y="5" font-size="10px" fill="#FFFFFF" font-family="sans-serif"> hbase</text></g></g></svg>